<mxfile host="drawio-plugin" modified="2023-01-03T22:47:45.599Z" agent="5.0 (Windows NT 6.2; Win64; x64) AppleWebKit/537.36 (KHTML, like Gecko) Chrome/87.0.4280.141 Safari/537.36" etag="VP7yOTiI-HHTyjcFfpn5" version="13.7.9" type="embed"><diagram id="MN3--P-KpAtPOQ3-bT6e" name="Page-1"><mxGraphModel dx="582" dy="417" grid="1" gridSize="8" guides="1" tooltips="1" connect="1" arrows="1" fold="1" page="1" pageScale="1" pageWidth="400" pageHeight="200" math="0" shadow="0"><root><mxCell id="0"/><mxCell id="1" parent="0"/><object label="" red="11" green="0" blue="102" name="sword" id="119"><mxCell style="shape=image;verticalLabelPosition=bottom;labelBackgroundColor=#ffffff;verticalAlign=top;aspect=fixed;imageAspect=0;image=data:image/png,iVBORw0KGgoAAAANSUhEUgAAACAAAAAgCAYAAABzenr0AAAAAXNSR0IArs4c6QAAAARnQU1BAACxjwv8YQUAAAAJcEhZcwAADsMAAA7DAcdvqGQAAACuSURBVFhHYxgFo2AUjIJRMAqGBDA2sv0PwlAuVQEjlMYLQJb78DIxbPn8j+HsucOMpDoGpAfKxAB4HYBskcbvDww3WAXA7DWfnoNpdKAQzQymHyz9C2aD6BA+SbwOYILSGADmaxhQERIC06Hn7oFpdIDNcmIATpeBHIDsa2R2/JObYJoQWCijjtf3IIDXAVAmGMAcQEoaIGQ50QBkIbGWjoJRMApGwSgYBaQBBgYAn3VD0H6dn9UAAAAASUVORK5CYII=;connectable=0;allowArrows=0;recursiveResize=0;expand=0;editable=0;resizable=0;rotatable=0;" parent="1" vertex="1"><mxGeometry x="640" y="160" width="32" height="32" as="geometry"/></mxCell></object><mxCell id="44" value="47" style="shape=image;verticalLabelPosition=middle;labelBackgroundColor=none;verticalAlign=middle;aspect=fixed;imageAspect=0;image=data:image/png,iVBORw0KGgoAAAANSUhEUgAAACAAAAAgCAIAAAD8GO2jAAAA/mlDQ1BpY2MAACiRY2BgkmAAAhYDBobcvJKiIHcnhYjIKAUGJJCYXFzAgBswMjB8uwYiGRgu6+JRhwtwpqQWJwPpD0BcUgS0HGhkCpAtkg5hV4DYSRB2D4hdFBLkDGQvALI10pHYSUjs8pKCEiD7BEh9ckERiH0HyLbJzSlNRribgSc1LzQYSEcAsQxDMUMQgzuDExl+wAsQ4Zm/iIHB4isDA/MEhFjSTAaG7a0MDBK3EGIqQD/wtzAwbDtfkFiUCBZiAWKmtDQGhk/LGRh4IxkYhC8wMHBFY9qBiAscflUA+9WdIR8I0xlyGFKBIp4MeQzJDHpAlhGDAYMhgxkAkqVAs0XeJdIAAAAgY0hSTQAAeiYAAICEAAD6AAAAgOgAAHUwAADqYAAAOpgAABdwnLpRPAAAAAZiS0dEAP8A/wD/oL2nkwAAAAlvRkZzAAABYAAAAGAAEVTZhwAAAAd0SU1FB+YMARA2Ja+7PhkAAAAJdnBBZwAAAYAAAACAAJaWOi4AAAnHSURBVEjHJcHNc5VXGQDw55znfLzvfe9N+Gq5JOGGhgQKhEBICIQ0QIud1qobx7+gCxfquHXRlbW6UBd+1DpaO7pynKoLOw6tYAnS1gbaIiElUBJTIBBaaCA3975f55znHBf+fmzo6HCr1arVOr331pZCcm+9FNqbUNHVMiPBBAsAAIxhCCCYTtO8Wq0UZSaldESI0gcGgM45qWPvnaMyipQL5cUL58W3v/fdWrUzL7PLszP7h/bNzc0N7trjjf/Jj376oLXySGe9zMsiK6uVGueiyG0gN7r/oA2mKLI7y0vOGWu9EOrw+JHR0dE0L4F5zpmx2Wu/fxW1xPrhXUtfrNxfe+AlLq/cA4lLd+4011pf//o3zk9faLdTKVSkIvK+yEsp1EDfAGPhwcOVpBrXasnq6molqY6PH9m9ezDLCiE1EXFk3T1bvvT0idnZy+Lz1dUbny6t37jeB1OpRI2tPXEtzo3/z5XZZtbuWl8v22Ve5HFc09W4LMv5xfmd/QPrN3RyDtevL3LOm80Worxy5WqkK+08Q2TPfeUZ63KAIKXEu7Y9NDjsguORSoO993Cltq4zeKhFlbmZWUFcBh7JSp4VARhHjLS8uXSj2Xx49+4ySnREtVrno4/UpYxCYEIqa+2nny709W1zVJ6Z+ic2du6o6lpSqxrmveCN7b1LS0sbOtaF3NxeuKkIKbcKFVEAzo0x3lOSRNaZOI6sdVpHRWE+++zelq4eYywKIaUgsrdv37xx88ad5SURtfzdyws7xvcy5hqP987PX9+3Z9A1UyU0BmCWuCWUkMSxYyxwcGVBAiqVqCgKpVRZFgGkJXfx4qVmsxUnSV60dCza6cNKoi9e+EBojw4QCl/rTJYXb2mUPncx12i5y22FV2QkPZGxrghexVpXKkWehhBCCEVRxHHigzh8aGKgf4/WsXEuAHFBKOBXr/wMGMMDhya/WFtbvv/Zo1seDcGrwOsdG7SFN//yN+m4BknWcy6IgdDaORu8V1IBBMYYR2GtO378RP/2AS40UQAARO6o7OqqP/30U3PXrnJfjTc0uhr9fTMXZ6SB3d19NYdv/PHPigQyQQFAIHHwAMGTUooocM6d85wLa63W2jknpfTeSSlDCJzzRqOBiMZYRBTwSMfa/TxmobG1d2Hm6tKlubKVbqzUnAk8MBeAIzKGPjggQsQkTrIsQ6mAca3jPC+SJJ6dvQxcChGVxgSgrzae86FkiIY8zxht7K5vrtfzLAuZrXhdY5WQe7AeAgcUNgDw/wPvyFrq7up98vgJ58g5iuP45MmTSinOOSKTUkZR9NZbb+V5qVQkpeSSoQzBF0X6oKW5zFtpLLUAKbgGEMiltRYAGGNSSu99d8+2fftHGJNPTBzniO00lVJOnX2b8ZCmLY7gnLPWvvvuu2fPnjWlFYkLxVp74dq8dMFbl0RJYSwPnKMgImABGTpjALxAEULQKrp+fXHTpnUjowf27N396qu/YYwxxqampipxNSvyOI6dMz5Qs91cvDYnPv33hzGiyjIhBHDlgveIRCABPREy2NSxbnX1IQrmnAPOFxdvNbb2DQ8fDJ6yogDgxhgpNUqxd2jP/uER7307b9frmx95dOMLL7zApfWsIMUlonSenCfyIHVEjANHjnLTxrpCrYX2BIhIZJfv3jp16qSx+euv/4nIIqL3bmL80MjICFmnlKpVapVK4qy3hoT1HLTKfbmt0X371pK3TjDpvTfOR1GypasLUW7v2zk//wkgegiAhsD998bK4h+usuAhMM65sx4Zv3ZljjEsjFNK1etdPKAWETYe21EGqvd0xUmcRHGR5TyAdT6uVJvttLenlyyVadbT09VqrxnrQvAAwJExxgRyRGGMjXR89eq1nY/vCgEYZ0LgfxcW5hcWbt++xYaGj3Al6z11Y4rVlQe+pGC8UNoSkOeK4a4dOzF4a8tPFj8RWlvDjp840dfbG1f0yy//QggBPgBwFKosS++DjJS1VsfKOXPpow/Z2NjxkhzXGIBsO+9IOmxhGRdcRdaQZNw7eqyr6979z1aLNRUlJ556buVha2L8ULP5MIr0K79+OZCPk4onCCGMPzGxd++edpYCc1EUvfba7zj4QKWh0ngbOpKOIs14gEC+zNK8SIksC/T5vbtFkcdxbK1N0zyOk/fPf8BQFtZ+6zvfjSvVLC2I/Nj4+ODgYJ7n1WpVSrl169Y0TTkLvFqpIRPMszI3iJIDImOIWKvVOOeIaK0NnHnvAcAzD+C1lsvLy41Go6Oj4/nnn/cMAmda6+np84jKWura0mitpR0dndy5UJaGgVAiYkxIERW5FaiPHTtxaGx8YmIyN6XzIIWyLjCB7713jgkyVBw4uF8prFYrm7u2VKu14NnJN093dfdevbZweeZKHFW1TorcC+SaAU08cRQRi3b60QcXq7X1I2MHt/UNCCXmZmaf/fLXzvzjH9YBcCQPnLOpqbcnJyeVEsYWzvpqtaPVaj351Jf27t3385/9Umlx7NixN974u5TIOceeLY+PjR0aHBpeur0sUPX2bl9e/vzosSeFVllpmmst71xPT+PWnWUm1KHD4/39A9evzy8v32GMNRq9AeDFH7w0OXl09+49xpRHjx4dGhr6659ff/Dg/sL89UsXP+TG0YHRg4Wx1Y4NQlXIQ6tdKB1TQB1VhFbABeMiML5/eGTk4GFT0le/8jUIePr02y+++NKPf/xT5xwAfPzxZSmRyFqbf/s732yufTFz6TyA4QBARB7giwcrwJAxVFIzhkRERO12u7RG6RgCHx073E5LBtIUIZBIok5PrN1KrXEAEEXR7MeXTdnu7++pb+6sJgwgR2GF1rJ0pZRRZ2dnmZUsgFQiL0sZS889IsZalWVujCmKAoWUUjvjGOCBA6MMIY4lEZ17519HjhwRgu/Y2Zdma7FGY1NgjjzwvGgrhQHskSNjUaRKkxNZjt5RsXFj57PPPp0XmZSoIxSSgyeyTjCOiHGsB3fv6t++vbu7e3Jy8tzZKSWxvdbk4H740vdnZy4BAAMQ1ZqyZdr92HaO8tjxiXfOnDM2ixRft3lTnERFnj7zzIm33zxtrZGcbaxv3taz9czpM8ZmjIXS5ELg7j27Bnb0vfvO1KlTb73/3jnvzfT0ewABBRABz/P27//wW8YduTx464MJ4F759S9RBEcF2SLSgjPijDbXN2nJfSh9yCMdTp/6+42b8/0D2zyVZZEBwOzM5en3z09Pn2cgEKV3wAIwBlFgfmj0kCcmQSlUFz74NwDsPziclXlHUnFFqbg+/9GF0YMThSmVRCB/6dJFH2jf8AFEtJbiOL4w/T5wBG+llNZmyMF7i5z9D/XPjZlxV9ocAAAAJXRFWHRkYXRlOmNyZWF0ZQAyMDIyLTEyLTAxVDE2OjU0OjM3KzAwOjAwkwkIqgAAACV0RVh0ZGF0ZTptb2RpZnkAMjAyMi0xMi0wMVQxNjo1NDozNyswMDowMOJUsBYAAAAedEVYdGljYzpjb3B5cmlnaHQAR29vZ2xlIEluYy4gMjAxNqwLMzgAAAAUdEVYdGljYzpkZXNjcmlwdGlvbgBzUkdCupBzBwAAABV0RVh0aWNjOm1hbnVmYWN0dXJlcgBzUkdCKvIqbwAAAA50RVh0aWNjOm1vZGVsAHNSR0JbYElDAAAAAElFTkSuQmCC;labelPosition=center;align=center;allowArrows=0;resizable=0;rotatable=0;" parent="1" vertex="1"><mxGeometry x="352" y="128" width="32" height="32" as="geometry"/></mxCell><mxCell id="45" value="46" style="shape=image;verticalLabelPosition=middle;labelBackgroundColor=none;verticalAlign=middle;aspect=fixed;imageAspect=0;image=data:image/png,iVBORw0KGgoAAAANSUhEUgAAACAAAAAgCAIAAAD8GO2jAAAA/mlDQ1BpY2MAACiRY2BgkmAAAhYDBobcvJKiIHcnhYjIKAUGJJCYXFzAgBswMjB8uwYiGRgu6+JRhwtwpqQWJwPpD0BcUgS0HGhkCpAtkg5hV4DYSRB2D4hdFBLkDGQvALI10pHYSUjs8pKCEiD7BEh9ckERiH0HyLbJzSlNRribgSc1LzQYSEcAsQxDMUMQgzuDExl+wAsQ4Zm/iIHB4isDA/MEhFjSTAaG7a0MDBK3EGIqQD/wtzAwbDtfkFiUCBZiAWKmtDQGhk/LGRh4IxkYhC8wMHBFY9qBiAscflUA+9WdIR8I0xlyGFKBIp4MeQzJDHpAlhGDAYMhgxkAkqVAs0XeJdIAAAAgY0hSTQAAeiYAAICEAAD6AAAAgOgAAHUwAADqYAAAOpgAABdwnLpRPAAAAAZiS0dEAP8A/wD/oL2nkwAAAAlvRkZzAAABQAAAAGAAFvjcsQAAAAd0SU1FB+YMARA2Ja+7PhkAAAAJdnBBZwAAAYAAAACAAJaWOi4AAAlvSURBVEjHPVbJb1/ndb33fsN77/d+nDTY0UCxoiPKkRXLVSlblSiLklI1iy6SZQAn8KZ2UxtNUSRAkRaplDRoDXTTRfsHBNkUDZpFYbm2rMkWLYqkNU+myUZTLUe2QorkG77p3i5U9CzO4m7O4hycexCgO7pn7JXvfE+rDEQTIgDfunHt7NkzWmFKSSn1hGOMWiFAYoksYq0VEecbIogY2WINLVjFCoFFA+oEEiK+uO+Pf/TDv9ZoP3/wRYoogoQCwPOf3jx1+n2rTQjOmKxpXFmUbdsonZAYiZxvlMJOt1P5FSroBz/+Uc3NldnrO3a+cOPalcEN61f39LFLeunxMiIqpQYHB+/e+SyEpDQxy8rKSpZlkjjGOD5+0Nq8XqmN0aT4/fffK6wm23WpWXJtzfGv/vKHk5cvZF1rtbl+5aoPzf88/Gzu3jyC1t1uFxGZWSBdunSpr2/AtTWirFq1qmkaFB4fH9+6dWuMcW52XkRi4C1btt6e/28iINJefNHXN3/vzr3fPlCP6emn1gAkW+TLrrZlcevmp1TXdZZlWutjx47led40DRGFEJ7ciej5Hdu1JgB4+PDhvXv37n/2gFQGQikJCikyzHL9k9kV76oQ5u/fxcLemJ/VRbZUrTyz5atq3eDmlOTa1et9fQOuDcyiFSlFH5w5BcDW6LMTHxZ55/r1aylGZUxiuX37dkrRGk1EkdPjennL17ZipluJv7f1mbk7v9k0NAQgRikdCQGLP9g9hqyWl+q+vtXCGLxHFE0ckzOKWKLWOkXxbcg7hUtsjHHVSmZ1plWAUGNYkmbbvp3L2EqpovjhjYOFQL8yv/7FrzSgatv2+6+9kSJkWVlXbZ5lImlu9sbJU8d1Zn2IzjmlVNktmtajVjF6mxsCCd6F5LNc9xelSVSWZS2RE3ezbuY5LlZdKNWO0b0//dnRsuhWKzWRBkFjTIxh7ZpVeZHdv387pagUESkQYYlAAsgIDCwEoggFOArf+/zBV9ZvYJFMm1W210Y8/h/vUCBiZgDodruDg4P/77BSSkR6e3tjjCKilHKubdvWWgMggAmFCSIAAwAAkEBHZVcnL2QNbl073Ied479+L9S8fnBYPxFomoYT3r17F4RABFEUpsdLv0sp5XnGHI1RRdZZWlnWFkEA4f+QCBiJAdBzluD21PX7Fz5xzhHR0NCWVBRaaSIiVOr0qdNEtq4ba0xKwSgpy3JgYGBx8dGTtnDgtCYAAWQQAAQBEgRGIABiMJhREPFJKwtGi9L9a9aqLxaWJifPERAp3TS+LLuckrUmRTc5ObGw8KjTKYgoRJfnuYgICAAioAAykiAKIgJqRoxghDRpF1MbwqN6peep1QiYvTj2cmgY0RBmT2KqFGpKLN4aqqplY5VSShKwCCIKAgoAgCAAAAogAAfOjEXENga2asPI8J2HDxabSoPJqqp64/W/8J6FtSKDAHNzs2c/OMHCTeO63a7zDTMLAxIBEAAkBAAgABTQDCTQ6Xa/XPidKQunYXDzpsq1RVGI92rHCy8d+bsjqwZWr6zU1mYiqLUeGOj/+OLMn73+2ku7dyui+/c/Q0QAUGQEAEAJEgChAAlqQRSs6rqnv7/yTV52sk5BKAuPHqW61UYZScKUhgY3vX3s3U6nu7Jcz8zM/PkbP1haXBjo69Gq3POH+85PfgTCiJQCW2ucj8YYIgzOEyFzGnl226fzc52sqJerx0lC8kYEolBoXZkX1tq33/5PpTBGf37m/Hdf/W5dtX0Dqy5cuCSAwApROee897nN9uwZ2/7cc65tgaUoCgDa+uyzLDg8POycM6jYu+bxsnjXU3TU+vVDMcUbN2/YzGpjT5w48aevv7Zx44benp6ZmanMWO/bIre37/ymyDIgHN01qpTqdIpOp1hcWKjrCkEGVvUZo4lgcekxIiSOZVkaq5u20RcvXtSaGCglTkx50Xn66bWIqDQeOLD/zImTSqlTZ06n6JLAa99/HZX6dHZ+fn7ee5/lJiavAI0xS0uLnZ5uStF739PXW1XLWmsiTQBpenoqxvjKK69885uHm6bqZDkHrzUhYtu2586dIyIgtEUeQgghDA5t7OktH37x+eLSgtKaEa7euN470H/r1i1jbFF2FhcXjckYkIgIAHbtGv3Z3x/dseP5ulpWSv3N3/7YGBNC+K933rl45VKMsWkao7OmaX7xy18i0cTExIWPLwljZgvnXJ7niHjz5id142ISawqltLWZMKAoRCx27tz5k58caX388stH83N3Tpw6TUQoCADOucOH/+j0yfeVQo4JEbU1KaUYOYTQ29vbNI0mhaiUUgDgvR/bt09rXdd1T0/PyRPHESADgF27do+PH6xb99HEFGkTY9SkY4wHDx4MIUxOTCQORmlmjkkQ8clmGR3dVZZl27ZKqbMfTPgYDh06NDIyAgDz8/POOU2on5Ti9PQ0onIh7hs7YG3OLMIoIsGnyfOTCYCBWHDv2MtamzNnPgyBDx8+vH7jRq317OxcCOHl/QdOnjn91ZFtgqhApaiMLlPwpJQGQIAUo3/zzTcPfePA8PDw5s2bR0ZGnHNTU1N79+wjopR4bGzf9u1f947H9x+MgddtGAQgRBVC6nS6bYhKGUIdfAo+gqBrvc0LSikiMAAQ0VfWPgWJtww/U1j7yezN6Znzr7766qZNmw6MHyKi53//hZWmRq18YjLWmKzb7XU+AmLdNDbLfAioiLSyRc4IOsvbxhEA53kGwDMzU0d/esRaXTcr165dY04ikjj09JZVVSmlqqrK85w5KoXMUWtaXFrIC4sk2lDiYKyK0TNHRGiaWilETYSETbusNQLEmZlz//jWz9999+280GfPfnD06JGhoU11XWmrgCArMheczXRVP7YZhdgYC+vWrznwjZeFos6oapdZfJarvv7yW9/+k8Q+saMnfzVGD8BFJ//ww9MXL104fvxdbciHmjlu374tsU8pMPPGjesPHtyPyIisLa1bt1YkAMb943udr5WGnt7O6jX9ZTdL7PbufSnLiUQiIABClqmmXs6s/vjj8xcvTc9MffTWW/8AyP/+q38jApE0sGagp6cMsemUtg3Vv/zrP2uDWWlDbLXBxG1vX/HWP/2cDCdxgiEv1HvHjyEgGAMhAAhorWMEADQmDxFA+MXde5xzStvLly8/+9w2RDFIKcUr166CyPYXvp5S6na7VVUZYy5PTwPQ86OjCijGmNsiJf+/RlRlKFDqENgAAAAldEVYdGRhdGU6Y3JlYXRlADIwMjItMTItMDFUMTY6NTQ6MzcrMDA6MDCTCQiqAAAAJXRFWHRkYXRlOm1vZGlmeQAyMDIyLTEyLTAxVDE2OjU0OjM3KzAwOjAw4lSwFgAAAB50RVh0aWNjOmNvcHlyaWdodABHb29nbGUgSW5jLiAyMDE2rAszOAAAABR0RVh0aWNjOmRlc2NyaXB0aW9uAHNSR0K6kHMHAAAAFXRFWHRpY2M6bWFudWZhY3R1cmVyAHNSR0Iq8ipvAAAADnRFWHRpY2M6bW9kZWwAc1JHQltgSUMAAAAASUVORK5CYII=;labelPosition=center;align=center;allowArrows=0;resizable=0;rotatable=0;" parent="1" vertex="1"><mxGeometry x="320" y="128" width="32" height="32" as="geometry"/></mxCell><mxCell id="46" value="45" style="shape=image;verticalLabelPosition=middle;labelBackgroundColor=none;verticalAlign=middle;aspect=fixed;imageAspect=0;image=data:image/png,iVBORw0KGgoAAAANSUhEUgAAACAAAAAgCAIAAAD8GO2jAAAA/mlDQ1BpY2MAACiRY2BgkmAAAhYDBobcvJKiIHcnhYjIKAUGJJCYXFzAgBswMjB8uwYiGRgu6+JRhwtwpqQWJwPpD0BcUgS0HGhkCpAtkg5hV4DYSRB2D4hdFBLkDGQvALI10pHYSUjs8pKCEiD7BEh9ckERiH0HyLbJzSlNRribgSc1LzQYSEcAsQxDMUMQgzuDExl+wAsQ4Zm/iIHB4isDA/MEhFjSTAaG7a0MDBK3EGIqQD/wtzAwbDtfkFiUCBZiAWKmtDQGhk/LGRh4IxkYhC8wMHBFY9qBiAscflUA+9WdIR8I0xlyGFKBIp4MeQzJDHpAlhGDAYMhgxkAkqVAs0XeJdIAAAAgY0hSTQAAeiYAAICEAAD6AAAAgOgAAHUwAADqYAAAOpgAABdwnLpRPAAAAAZiS0dEAP8A/wD/oL2nkwAAAAlvRkZzAAABIAAAAGAAHgzT6wAAAAd0SU1FB+YMARA2Ja+7PhkAAAAJdnBBZwAAAYAAAACAAJaWOi4AAAmJSURBVEjHJZNLkFXXdYbX3mu/zrnn3gZatBqa5t2mEVEjJFlICATCssseOUPbiZRyVWapysClSia2M0sqlUqckUupKJNUqVIqj5KU9SAWsrGwJD9kqUU39INXQ4MAAU3fe885+7HWzoD5P/m++n7x+PGn+v1+t+pl5hiDUTKlZJSlIArdiZ4QMBNrpUITXNnxISmjY2i0ESE0WmsiQGkpgUSbM6TM2qL3jSn1Hz48q/7qb/662x1p2/rz2U8PHpy5MDd/YP8Bivwv//iT++v3ep2N5KMAkNJUVRV8lFIKkQHY+zAy0rt//75zHQFCCHny5NcmJia1tSxSWZp/+Ke/BwAcf3b6+p3bt/v3WMsvvrydjbh2Y/XB+oNvf/tPP/10drA+kAJLV/rWZ8qREggQEohjUbr++vrIyAYp9GBQnzz5zV07pzplLyYmzqObRr/20tcvXrmibq2tXb6ysmm0x5w6ZbFj24TrFq2nuaWFO/fujFaPaFbBB2ZmBKW0kIo5O1c19dDasr/eMMMjo+M5i/PnF7QtMtCJk8e1Fmil9xGvU//ggZmYCZ1pKNxau9vb0APOWuDlpUs6y1D7nLjXHYEsJOpDTz43tffA1i3btk3svPXFl1IqbYq1tcHU1FeMNllACO3lq4u7dm1jiO+eekduLkfau8NKd0SWUusdU1OXVleTEomJIqXGj5TdQrm6X7etn5jY0a02Bp8F2CcOfvWVl79PSWaWVdV77xfvCyHu379blLoo7C/ee/ftt3/e65XKrfPq7MX9h2dA0OT09qXl5YOP/Qk9GAKr0lj0GTyLBFYVoHQGsbp6sx42qOT+/fuXL15lECkkrYV29vSvfokoYmobP3AFSoRPfvexctlmFtnnbq9789KqlRaaVMpCZUCWImdIWYJkhujjysrKju3aWBQC5s/Pnj17Nmcqy86TTz89Pf2Y1rquB91epw21RH799X8HRnzi2eP3HvRv3v5ibHwcMussx3ujJoqf/+y/LWv2uTQdZiGkzkIA5PX1O2sPbt25e+Pa9ctaS8585Ojz0/unpZQgJQAKKZnl+KPbvvH1b51fWFK5U27cvs2W+rNPPp15/LG9e3bZJH/2xpsuK85QlFV/0OzZvc8YB4iLiwsgI4gEIgupm2aoXQEAc3NzQqrdu/ca7SjlXTv3EMcQKAZWvHlDP/skePv2nUuz569+Nu/7w9Gy19QtKDlo/eMzM6GNgLIZDKen9i5cOhdTMrZgBqHQe3/mzBmJihmKokiJmdPmsY1FUQiRUUnVAm2aGOuyuLW0zHUoXWmkgyZ2bEkM0qnP5s7t3T2lcnLOLiwssAQBlgkPH35u/4HHEbWQ6H2UUr722k+PHTumjfrg7K9OnHjBWqsUiJdefRUU6DZe+eycqmvZxJ4rU0oJMEscet/tdimypIyUpZSgdEh0/MSLU1P7skCl1IP+unPu0a2POqd//Hc/PH78mG+G1poQwpkzv1S9xP1+fenCgk6UQypd4WOALLPIAKBRRR8EZyJCiTFG30brOm2TMqNUZtCvu9XI+Pg4iUjEKaVTp97RiEKAUvLc7Ky6cvb3SmtT10pJiSoBZSmYswBAyBYxEyulMrDSgiGXzmTISsvFxQtZYgykrRkbG2OAnDOTeOmlb+7bOyVE3rBhw0/+9Z+lDoyNL4SwAjkRERODcVpIgkwpeo2YiSJTiE2WFMmn1ArBGSJwUBqCb06fPi0BtLJWWfJMlHfs2FUUHd9GSZLBKgYIiZiUwY7VzjetAApx2OuVKaeQSCKiEQReIguZz549zdkLmSREFNFo8cGZX7/6gx8AC2Pc0uIyMyAiEYnDh48Ph03pOgCCUlZK+XZoHRIHKWU99N1qI7FI5I2jGD2T1qoIIVRV1fpAlKVUlCALtLZ4/vnnh8M+aolKCpE//vhD8dRTx6XAzPro0WO3bt6em5/tdYvhcN051zRNVY08WOt3upUPwwzBGBU8G2OYOUbSxuYslDK+TQJ1zhlAGqMaX3eqcn19bf7zT1RKqVNWhw4+q7DaNlHW9WBlZdkYm6LQqtq6ZUfwV1JKKHWinFlZC0QkhEAUSuNwUMdI3Wrk8JEju3buQdQxelfaYb3+5pv/BYg4ObnnL77/l6Mbt9xYvXXz5nVrVdOsxxgVuq1bJhHN6Ojol3dvI0qldEyRmYijAGmMIc7MuSyrQ088ObVvnzG2aepOp5Mobt06/sILxy4szEsACLEtCvv0008i4oWF83U9TClOTk52u10hBHEUInNORISIiKi1BgAiijFKKWP0xhitbAih0+lwTpvHHimK4uFe5kxvvPGfgdr/fft/zi+eUwaVwU63VJpjqn0YXLu2IhGYKZFHBM6JmTMQESmlnHMAkplnZ2eXly/Nzs7Ozc0VRRGjV1rmTJJBeu9f/49/u7qyZK2OMSLqwWCwuLgAIt24cd37RgolhLBWh9g+hDDG5Jxzzt77lJLWRmuNiACglHrrrbeUUkIIIsJtk3spM0BWiH/+vT975quHe93ulatXAKhuhjEmlIYYlFKtr61TAJmZiFgIKVExgZR4Y/Xm+JatUqKUyMw552vXVpaWFy5fviRmDp2MqelV3e9+5+Vu2QshzM+dKwp9+vQ7KSWtSoVFIkHkUXsQKYSgtQaQmQUqS5QVuuGwNq5SSnnvAdiV9u6925tGe7/96CMlhe6OlN/7zneZwcd8Yf5iWYwMBmsZ0DpLQU5M7tCqyBAvXv2cKFpbpJQUKqnlsG6Kovvcc0empx/LAuu6dc4hisYPitK89tpPgQk3b9nzysuv7N61+5HRzX/4/R/bELRClHD16mWtzfbJXSgsUUYpN2yq1tbuSRQpJSLOWbii88wzh6f2fkUrRwxVVYUQiJKxauvElhdfPLG0tCiVFjt2Tnrvmfno0aMAHFPzwW8+EEK0bVhavCgRrDUx+cXF5ZxFDISIzjkAGA6H3WrkYUVM4Nuo0BjjxsbGlTJEJGRWPgxQMYLKOWsjXIEf/eZMiLVWClhU3fLixaXW10pht9epm74xtmkapmit45z6/X5dX4wha1sQMUBWWo6NHwkhIGLTNHJ+9nc/+vHf5kwh+tPvv3vm1/83bL5EnXJORanX1+9n0Rqbiw7cX7sNwHVdO+eUUiklKaX3vqoqpdTDW6SUhBCnTp2SUiJq55wAlCD1wZlnFbrgh9ZJCTGlBKxQ2kwCUWQIRJEyOOco5Yf2nCti4k45MjNzyJqOQN223hhNHAWykPz+++/N/vHD/wc6jo803Yyd8AAAACV0RVh0ZGF0ZTpjcmVhdGUAMjAyMi0xMi0wMVQxNjo1NDozNyswMDowMJMJCKoAAAAldEVYdGRhdGU6bW9kaWZ5ADIwMjItMTItMDFUMTY6NTQ6MzcrMDA6MDDiVLAWAAAAHnRFWHRpY2M6Y29weXJpZ2h0AEdvb2dsZSBJbmMuIDIwMTasCzM4AAAAFHRFWHRpY2M6ZGVzY3JpcHRpb24Ac1JHQrqQcwcAAAAVdEVYdGljYzptYW51ZmFjdHVyZXIAc1JHQiryKm8AAAAOdEVYdGljYzptb2RlbABzUkdCW2BJQwAAAABJRU5ErkJggg==;labelPosition=center;align=center;allowArrows=0;resizable=0;rotatable=0;" parent="1" vertex="1"><mxGeometry x="288" y="128" width="32" height="32" as="geometry"/></mxCell><mxCell id="47" value="44" style="shape=image;verticalLabelPosition=middle;labelBackgroundColor=none;verticalAlign=middle;aspect=fixed;imageAspect=0;image=data:image/png,iVBORw0KGgoAAAANSUhEUgAAACAAAAAgCAIAAAD8GO2jAAAA/mlDQ1BpY2MAACiRY2BgkmAAAhYDBobcvJKiIHcnhYjIKAUGJJCYXFzAgBswMjB8uwYiGRgu6+JRhwtwpqQWJwPpD0BcUgS0HGhkCpAtkg5hV4DYSRB2D4hdFBLkDGQvALI10pHYSUjs8pKCEiD7BEh9ckERiH0HyLbJzSlNRribgSc1LzQYSEcAsQxDMUMQgzuDExl+wAsQ4Zm/iIHB4isDA/MEhFjSTAaG7a0MDBK3EGIqQD/wtzAwbDtfkFiUCBZiAWKmtDQGhk/LGRh4IxkYhC8wMHBFY9qBiAscflUA+9WdIR8I0xlyGFKBIp4MeQzJDHpAlhGDAYMhgxkAkqVAs0XeJdIAAAAgY0hSTQAAeiYAAICEAAD6AAAAgOgAAHUwAADqYAAAOpgAABdwnLpRPAAAAAZiS0dEAP8A/wD/oL2nkwAAAAlvRkZzAAABAAAAAGAAGaDW3QAAAAd0SU1FB+YMARA2Ja+7PhkAAAAJdnBBZwAAAYAAAACAAJaWOi4AAAjySURBVEjHPZLLr93VdcfXYz9+v9855557MdcGvx/XdrGNjQHzMA4GA3EKUf+SSkmjTtopw6jKoEJqJYLUQaSqUtOqFVIqauMW0lpNXGIbbMeQxkQG0kDs63vO+T323mutDpx0sobf12fh8edOrS/ujpdGxfIgg3ckWRuK2OM4jPNCiJwgGKqymQkiOufatnfoog+5DI6wgBRnvSapnJKZGaM5BcsZv/+Pf1etVIs0v/zhpUePH77x0bWjB4/AgN97/XsykweXt6SudF1XjWtz1A0tEWgR7z0jghoRtbmvJvFP/uw7c0uXP7569Ilj165e3bF9+6bxVFLBP/7u66VRDCiYUFIg1EUa8/jI2tHvvv4XZVZGofHosua2JB8dAXriMiQrUo2ajX4OtfvWn3/ngxuXwyQWzAYlp37SjPq+N2T3m/X1a9c+mT44UeubUdyzbVs9HnW9fnDt6r124+FND+dZWnRdXddLozAMHQFZlkjBIvRDhuh6spu3P7315ed+Rps3b0IosQ6zNI+j5vqNT/jXuX/k6FHT4qvQS/rf9TuT5akZLMXJ9Z995AoRcKiqtu/QMCAHIVIQUap8xybRtVSys0EHwzJbv7O6+YGbn9x88OHVe137wENbaLVZ7u9sjEPDSuz83rX9t25/poSzdhGbiAgp9aDCSKA2dMlUY4xmlrKYYUqpjtVkPB6Px2q4+8Dax5/+cufevVksxkgFqNooX1z+mFqTXnZv3X3r5788tO8AZOPgFSFbtpKDwDTUIUSq4oA6G7p6MvHey7wbqQ+d/OTc+9pJEr3+6adzwB6oCIwg/ugH/0AeXVTGviyF0Re/uF2B165ULrJB6gdPPKprFen7frFYEJGrojDOh3bo+pXJtAav9/rVahqExmGMEEW5rsYVNeleGuOIVndtT0TXL3+Es1Srq9RDb5W6t//2hyMMWFTMBqfqufIBRbIkcwBkzKwpY5Yl32Ar/3P5Ji/AdbhESzw47PlHP3yHJFLr7IFdW3fs2/Phh9cqiAe37muK+6cf/L1XYgUAUgIDMFQ0AAAANdTfXwBDNGKlfLf7xX9fXyrxwAO7eIbn/vldEL+6dSe+9qffvn3nywDAOd/+6OcrsamIJJeCZkBoQIZOCY1IWdGUCqCiERihkSEaAKCFENqhVS1x1CzK0KnuWNtbQqAEZfnhB5vpxBSXxyswWN4YnDALo6EhKpABAYCiGQKgAhga8O8KAQAoYN/3kULN0dpcWwzKozBaWdlEpOayRsXZV3e6eReqZu3QkSLIRl7ICRGAICj+TkoQBAEAWCEIBAEyAIACNpB0Wrbv3U1EDvBXNz52KfPxZ56xlK7/5GfWluirh7Y8xM7XdbOYtQSAhggGiAgAgIZmqGhIhmyIgICoCIqGkYvJtj27yHOsYkmJiv3miy/YdVLubARDRAbEyXQZmW/f/gwMyJDBWPH+GoaoaM6AzQBQCQ1R8L4rJMmu9vV0lEE++/yzbrHwxcYu4Knjz4rqQCDeJwEXY+4Hj96BOQU2u7+AEBREQKPf/87/AzA0RRUEY0soqhrZOYVYCItSAktkAOAVpj74JLWSV3XGKRXnq1171rqhEPrAQRIiNmZVKU7VIwU1NAVUq5z3AmGQRjBk46JFs7I5QWImABQpqVMiYvaIBEAhhB3bd6WUHjv+xI0bN7pZF5vRM89+DYli5UtJ5879q/NEREVkmLfscBwrM0spAaJzThV4x/adqmoGRARAiAgGpZS+H+q6nkwnLrhu6GaLmZi8+NIZcn7edfsP7J9MJ5Px+Le//XI22yBGJvbeDUPKuYQQESmljIiEiKWIqjoXmFlVzYyZJ5NJ3/fM7JwLIQzDEELIOZdSxuMmVt57d+TIkbt3704mE0R2zqkqk48xglFOAkYx1CRizgVmLyKlFDNEZh9DLoWYr354rYjduH6zqcdDnwGIPN29t75oW/aumIa6atvWey8GbTeYoeNQijL7KtRdN5ApOg6mmIZC5LwPJetsY5GzMPumaW7duuW9n8/nVVURUcm6uroaQpVTMTPvYs4iRaXo0mSFiBeLnoiZXc7K7BwiA1BRM2DnKxExtMl0+ZmnT97HdfHiRe986QdkJ6rF7NTp59vZ/M6dr1R1yOXr3/imavnxe+/1fUKjGEaIKCIGZFKcCioignOeVWExH5aXV44dPw6Aa2tr3kfn/Lvnzq+srKzfvcfsXjzzUhrKZDK5Xw4MS5FDhw5FF99+++2V6dKJEydEpKqqUvS9H/8bMUcRe+H0y1879WIqNp5ODz96rKpHfSrIPhXdf/CRUNVPnnjKhXjh398/f/6Cc65P5Ve3P3/zzbeInBTzPuzcs6eZTJ586mkgFqUDBw8fOPjIyZPPOSnw/OnT91MYuvMX3h0vTfu+j1WtgCH4YRgAgNmfOXPmX9555/z58+cvXDAz5xwznzz53KOHD802FiGEkpXJM3NOdp/zHxw64pqmMQXnQs6yf//B9//jP9u2DVWVSimqMvRmBkTdMIDqq6++ikzr6+uXLl06depU27YA2qehGY9SKrFu+pyw4GR5MpTBYxRR2pjPAIAIYl2bSdct6tFINKtq3URmjtGrKpIxY9vNN69uevzxx/q+VS3MSASj0WixWDBjSr1IDsHNZveQwUyacU0x+liFYegNpOsXMXpiECvf/KPXmnEtIOhw3s589C76l19+qWlqKTlEb6Ah+tMvPL9ly2pVBTNRLSublruh/cPXvrHvwD5kvbtxh0RKzsMrr7yybdvW6cp00bez2b2zZ7/e9Yulpcm2bQ+JFOc55+GFF55Hkq3bNiNJ389T6s+efYUIun6+Y+dWYkPSL7/69auvne1y2w+L7bu31Y0nYiUCJDOTTZtWmlE1GjUimZlKSYb6/bf+uq49oolmkYxob7zxl+NRfemn/7WYbxDaaFSL5Df+6g1gqMc1OiQCZuxT99bfvIkA4ycef8rMgCkXvXrl8uFjx3wIqioiIboPLl4E0xPPPpv6IcbY992VK1dAFQCefOrpUoohAMDlS5eA+dHHHjMz772qGsKVn178P5MaXMgn1xexAAAAJXRFWHRkYXRlOmNyZWF0ZQAyMDIyLTEyLTAxVDE2OjU0OjM3KzAwOjAwkwkIqgAAACV0RVh0ZGF0ZTptb2RpZnkAMjAyMi0xMi0wMVQxNjo1NDozNyswMDowMOJUsBYAAAAedEVYdGljYzpjb3B5cmlnaHQAR29vZ2xlIEluYy4gMjAxNqwLMzgAAAAUdEVYdGljYzpkZXNjcmlwdGlvbgBzUkdCupBzBwAAABV0RVh0aWNjOm1hbnVmYWN0dXJlcgBzUkdCKvIqbwAAAA50RVh0aWNjOm1vZGVsAHNSR0JbYElDAAAAAElFTkSuQmCC;labelPosition=center;align=center;allowArrows=0;resizable=0;rotatable=0;" parent="1" vertex="1"><mxGeometry x="256" y="128" width="32" height="32" as="geometry"/></mxCell><mxCell id="48" value="43" style="shape=image;verticalLabelPosition=middle;labelBackgroundColor=none;verticalAlign=middle;aspect=fixed;imageAspect=0;image=data:image/png,iVBORw0KGgoAAAANSUhEUgAAACAAAAAgCAIAAAD8GO2jAAAA/mlDQ1BpY2MAACiRY2BgkmAAAhYDBobcvJKiIHcnhYjIKAUGJJCYXFzAgBswMjB8uwYiGRgu6+JRhwtwpqQWJwPpD0BcUgS0HGhkCpAtkg5hV4DYSRB2D4hdFBLkDGQvALI10pHYSUjs8pKCEiD7BEh9ckERiH0HyLbJzSlNRribgSc1LzQYSEcAsQxDMUMQgzuDExl+wAsQ4Zm/iIHB4isDA/MEhFjSTAaG7a0MDBK3EGIqQD/wtzAwbDtfkFiUCBZiAWKmtDQGhk/LGRh4IxkYhC8wMHBFY9qBiAscflUA+9WdIR8I0xlyGFKBIp4MeQzJDHpAlhGDAYMhgxkAkqVAs0XeJdIAAAAgY0hSTQAAeiYAAICEAAD6AAAAgOgAAHUwAADqYAAAOpgAABdwnLpRPAAAAAZiS0dEAP8A/wD/oL2nkwAAAAlvRkZzAAAA4AAAAGAAqZPG6wAAAAd0SU1FB+YMARA2Ja+7PhkAAAAJdnBBZwAAAYAAAACAAJaWOi4AAAgMSURBVEjHlZXbr5bFFcbXYWbe9/0O+yBbUNggFlDcHAREqYiAKJ7TpE36F/UP8MJY64VNb0x601407UVjClK07lJ3LUexxkgiiCi6D9/hnXfeWWv14sNe1aQ+WRdz8SS/rHnWmsG9Rw+uDQb9qV4LOeXaOdYkHa6w5p7vp1oZ2MgEFQgFjAzQCO5I4X/rjkFI8Y0/vtXr90dpeP7S0p79u65evrL3wd3Q4Cu/eEUGMjezIdW5ruuyV5mjGMee/P8PyJx542MLn3/z1ZeD5VzQl1/fIkdf3PhisDr86c9+vvj3D4aDsXOuDKVoHjfRe4eACAZ36vt0x9CyuZury59duz4911eLnW5x/6ZNVa9bR/3wysXV8dq96+5tB2lU11VVTXVD0zQIP0CGwJ/raO+uA6bZlyFKurXybX9m2gymiv5H/7rsMhFwKMtxrNHQEZkZoAIaoAF8D+47Qyaguzt3xW/XeqHDSuz8j7bvuHb9hhIOxqOiUyBCShFUGAnUYp1+SANACtRdzTfPf0JjkyhbN2699vFnC9segNY4eEVorbXcBoHpUIVQuDL8IIBXoMK4UMaYp0L35qfXS/Ba59IVbJBi44m7VaUiMcbRaMRIPwiARrRhy9ZE9NH5yzhIlbpSPUQr1f3pt7/vYsCsYtY4Vc+lDyg6uXUzMzMAQEQAUgVEJnIAoKr2nZSRRg7vum/j5m33X7p0pYTiwY3bOtn94a3feSVWACAlMABDneRqZqqKiMzMzBOGcy7nLCIARESOQwiBmes2uWp+/Ve3b7Vgc1vm3z/97mzRKYn6OWQ0QVICMnAGCGAIikBEZgpGYKQGOSsiOOeYnUieHNq2zTE7T75XUMI8c+9cZ7pvijO9WWisXWucMAujoSEqkAEBgKIBACASEQCIiIggIiKqalmWiNS2OWdFRO89EaW2JZ/FtVooDm5/Ww/rUHa2L+zOgmzkhZwQAQiCfjfxIjK5FjNDRO+D42CKg7URERVFMbE554hIRWhGqajTx+c+bJZHRVGtW78hA94zvxnMkRErsd5ZJ0MwBFWdAIgcAKqqiEw6YPK5VVVD5JRSanI3lOzHkpfXgiEiA2J/egaZr1+/AQZkyGCsyDYBoCIQoSlMwjSz3CqRq6rO5s1bqqqMMTZNLIpAhDlnD8A7Nm61phVRJJKs47q+fesrMiYAMvxvAaICGqIjr2KmxOzNSNW63f7c3N2ItHPnznXr5paXlwfDAZFjdoRICTSRTbZu2gefpFLyqs44pex8ed/92+smE/rAwRJoZtVAXGYhQIfkm9QSOzBMKZth20qnmgKjNikgO0FgdgAoklOtRMTsEQmAQgib5+9LKe3b/8jVq1frQV10ukePnWhSFhHn6cyZM0QsYkVRoEGMcWZmysxiHIcQnHMi4phZVQGQiNQIcJJbblvp9/uC4iu/Nl4DB+jx6PEn6xjJhV27djKzmZ07t1jX9fr1dz+wY5v3fPnKxdgMq07pnIsxgikhUs6iqs6FCczMmLnf78cYmdk5F0JomiaE0LbtZBZTSsPhcPfuhRgjM72/+N6nn34CqKdPn5qe7jVNPRqvEoHzRCLmXGD2IpJzNkNk9kVocybmi5euZLGrH/27U/Wa2AIQMq8NB51etzfVz6bAZGYicva9d3/5+uu9Xm9lZaXqFESQ20ba5EzZe845tzk7F4i4TRLrEbMviqLTcdeuXfPeD4fDsiyJqMm5qioRaZrGOyIiQgRUkczMOeduty85e1+gAxFxkzyzmgE7X4qIofWnZ3586LCZpZQWFxe98zk2yE5U2funn316tDa4ffs2MdYxvvjC8ymlD84t1nWdYgohIKFmc86poVMhRURwzrMqjIbNzMzsw/v3A+D27du9L5zzp/9yanZ2dmV5ldk9/uQTqlpV1fz8/M2bN4qiaJr00EMPpbq5fPlyU8cnjhyevLJ1XS8t/YOYvYgdP/bMk0eeStl609O79jxcVt2YMrJPWXc8+FAoq4OPPuZC8c7Zv549e9ZMsuXrN6+//vobRE6yBV/u3nsgJj38xDGAsq5t5859e/Y8eujQMSdZjx47lrMsLCwYulPvnO5NTccYi7JSwBB80zQAwOxPnDjx57ffPnXq1Kkz75iZc46ZDx8+vGfX3sFgFEKZszIXTK5NmltjLhcW9rpOp2cKzoW2lR07Hnz3b++Px+NQlinnrCpNNDMgqpsGVF986XlkXFlZWVpaOnLkyHhUA0BMTafXTU0uyk5MLWLuz8w2WTw4E6G14SoAEEFRVWZS16Oq2xVtVbXqFMxcFF5VkYwZx+Px+rl1Bw7si3GsquyICLrdajQascOUokgOwQ8Gq8hgIFWvQ0URijI0TTSQOo6KwhODWH75Jy91epWAoMPheOAL7wr/zDNPdTodySkEZyYhuGPHj264Z64snVmrFmfnenUavvDyyW0PbEWWlcE3JNq2bXPy5MlNmzZOz06P4ngwWH3uuWfrOJqa6m/adI9Idp7btjl+/CiSbdx0DyLGGFOKzz13kgjqerR5y0ZiQ9Kvb3/x4ksn6zSMzWB+64aq44gIiADJzGTdutlOt+x2OyItM+WcDPXNX79RVR7RRFuRFtFee+3VXrda+uDcaLhGKN1eIdq89qtXgbXqFegzuZZ9jnntzd+8gQBTjxw4aGbA1Ga9eOH8rocf9iFMvqpQuA8XF8H00ccfT7EpiiLGeOHCBVABgIOPHco5GxoAnP/nEjDv2bfXzLxnVTWEC+eW/gPaL8iVcIs81gAAACV0RVh0ZGF0ZTpjcmVhdGUAMjAyMi0xMi0wMVQxNjo1NDozNyswMDowMJMJCKoAAAAldEVYdGRhdGU6bW9kaWZ5ADIwMjItMTItMDFUMTY6NTQ6MzcrMDA6MDDiVLAWAAAAHnRFWHRpY2M6Y29weXJpZ2h0AEdvb2dsZSBJbmMuIDIwMTasCzM4AAAAFHRFWHRpY2M6ZGVzY3JpcHRpb24Ac1JHQrqQcwcAAAAVdEVYdGljYzptYW51ZmFjdHVyZXIAc1JHQiryKm8AAAAOdEVYdGljYzptb2RlbABzUkdCW2BJQwAAAABJRU5ErkJggg==;labelPosition=center;align=center;allowArrows=0;resizable=0;rotatable=0;" parent="1" vertex="1"><mxGeometry x="224" y="128" width="32" height="32" as="geometry"/></mxCell><mxCell id="49" value="42" style="shape=image;verticalLabelPosition=middle;labelBackgroundColor=none;verticalAlign=middle;aspect=fixed;imageAspect=0;image=data:image/png,iVBORw0KGgoAAAANSUhEUgAAACAAAAAgCAIAAAD8GO2jAAAA/mlDQ1BpY2MAACiRY2BgkmAAAhYDBobcvJKiIHcnhYjIKAUGJJCYXFzAgBswMjB8uwYiGRgu6+JRhwtwpqQWJwPpD0BcUgS0HGhkCpAtkg5hV4DYSRB2D4hdFBLkDGQvALI10pHYSUjs8pKCEiD7BEh9ckERiH0HyLbJzSlNRribgSc1LzQYSEcAsQxDMUMQgzuDExl+wAsQ4Zm/iIHB4isDA/MEhFjSTAaG7a0MDBK3EGIqQD/wtzAwbDtfkFiUCBZiAWKmtDQGhk/LGRh4IxkYhC8wMHBFY9qBiAscflUA+9WdIR8I0xlyGFKBIp4MeQzJDHpAlhGDAYMhgxkAkqVAs0XeJdIAAAAgY0hSTQAAeiYAAICEAAD6AAAAgOgAAHUwAADqYAAAOpgAABdwnLpRPAAAAAZiS0dEAP8A/wD/oL2nkwAAAAlvRkZzAAAAwAAAAGAArj/D3QAAAAd0SU1FB+YMARA2Ja+7PhkAAAAJdnBBZwAAAYAAAACAAJaWOi4AAAgGSURBVEjHlVVbr55VEZ6ZdXrf93u/3e5udmvP3RvoGUEKrZRdewDaUox/xYR4o3/DNJFwiBde64XBiLWlgVINWEyLAmlBWkSUQNq99/d972GtNTNefETBCNHJZGXNzTzPep6ZLDxw4CgqfHXIFwtFQFRytmkaixRckXJvCTNwNthpxwUJoQIbQCugMVsAAECArwP5Il5W5rb33hlEkeicaVJXDMMPfvj0WOPVG29988D9b7/11tYtW+bqNRIzHnjwGP5nd/mq9oqgpI5M7qNmLgbVajeG0n7/R0//8d2rfhgyJoWcYjesBl3XITgLqP8rewBUIEZNHMhrgK5PEGxHev2jWzc//diNaP36OYQcSj+K4zCo3nn3PbNp0zYEhS/lV4ZR8IrEyCxUuNYoB9tQTlZ76RXzaPn2/Pp119+7ftfG+ZW2WfeNjfQ1gvx3lRhCCKoaE6tijLEMxbCu67oWxR0777lx64Nti4uJNYSAGQgAAOVL+TUWI/Qoo74th0PnHI/bgTjf8hvnL0nLkeWdW7fGgB1QZhhA+M3PfkH/H30AWzg2OO6bvu1mh2tKcLLSzRdrPFPta4TAYsqiLqiKK7HGkpjRu6LvEqE15PouWWuZWUSIiJkBgIhEZDpFvWS1AKTGGIkJE8+4Chv+y9XrZgK2xRmaMb3Fzvz65+dAA1nj+r6fmZlJKcUYpxdrrbWWiJxzADAFQ0QRARDFf50AiqhkhNKd9v0335nJYee67WaE53/5MrCb37QFHzpwPKeYUpqdnRWR5eXlsiwRcdrOWso5i8gUiSUBKQCgEiihkiJOa+990zciOQyqSe5bka33LOZgLAAYY8uyats2Z67rekoZAJjZGETEzx0WAUQBJVBUIP33/Alg13XBeEDDTSpdYIkDP6DZAQEQgkmRiYyzgVlUgcgQERGpqjHGOcfMUz+YgBEAwAh4Bs/TJ0EG7YlbyVsWdxCRBfzw3Ru+Y7Nx44IKiOjCwsKGDRtWVlZzYiTIma21KWVEMMbknBGRDCooKpKiUURAQBQEQcVgsvLmhe3kTChCjpGyfvL3j0kVEXH37t0hlHNz84cOHZqqz8xVValqzp8rYR2BqmOwAgCQDGQDaaoXQIzRBJuNNBr/+snfVscr2vdrwVhQIqLYMxkxxhmDxricY+nrdbPzbRP72CIaRDTkUoyevAAoIsDnWikCoFg0mvJHH94SkWBsVYaQCWMkY7HvovdVTkhqUQ2nbCksbFt0NNi+dTHYiplTYgRPGBQr1SJnK+KQvCiqAIoW1jkG33PF6JOaLFlSNmhVta7rFNnZoKrMbJFAVBiMMWAREWNKw+FQWHLSR48dIaJQuJzj+fO/tY6IKDP348ZYrEOhqjFGQLTWigj1fcsSWXoyYizG2IXCiUYyoMqIMJ6sOme6run65vSTp3ywTd9t2bZt647tR44cKcuyaRpVtdY657outm1vrSeyfZ9EhIrSMaeFxW2PPXZ8cXH7oC5H42Vj8MaN677yb7/9p+FwIJrJgIh0sY0513UVCuec3b9//507d4bDIaKZ8jXkQgiglCKDUgglqTIYuXjxAhK8/8F7586/lDW7whtvrl27GkKYtM10J6rBQFWtozsry5OmMc5mFV8WTdM451ihaXtVtMbnLMa4wpfdJFkRme7qs88+szq6PTMzHFTFeDQOvlYERSjLUjW3bWssAdmU8/z8vPdFihlBnQ3dpHFOmGVmOJtTmkw65xwRpSTGWOtcGI/Hw3pd36W5u9b3fbu8MirL6tChRxGN8/TSuV85T/XMmhSByMTES0e/04zGt29/JiJ9yidPf1ckv/bqq10XUSn4ASIyswKxiI0xVuUg9tn7sHxnPKgDGbt05Diw3blrj2g+cfzk5d+9Mhl33g1ykpMnT8c+D4fDqqpu3rwJijnz3r17gw0vvvji7JqZhx9+mJmLoshZLl16hQxZZjx69MThw0s2BEV38NtLQC4mFbAC9p6de4TpsROnOOPly69fuHDBWtvF/OFHHz/33AtElrM657ctLFTD4UMHDwEZFtq5a9/OXXseeXTJJtFjS0dzkt379iviyxfPD4druzaGMFQF74o+TgDQGHvixOMvnTt/4cKFCxcvTufSGHP48KP37ds7Wp1473MSQ84Yk6JOfd67Z7+typoBjPMp8r337rp0+bVJ0xRFlTKzQO47VQCybZ+E9cyZM2hlefn2lStXlpaWmqYBkC72VT2IMYey6lLEjMO1wz73DoPmTKPRaPopllUQ0LZtB4MBM4twWQVjTCicaEZSY7Fpx/Pzcw8++EDXNSLZGCSCwWAwmUyMwRg75uS9HY1W0IAql3VJoTAh2L6fqHLbTkJhwWrW9NT3nizrQiEZg5PJqvfGe3r88WODquCcfHAK4oM7euw7GzbMF4VXZZE8O7e27Zsnnzp998670cjy6h1izin3T5x8bNOWDWtnh207GY1WTp1+ou0mMzP15s0bWaJ1kHJ77PgRJNm0aQMSd904xu7UqSeIoO3GW7dtIqNI8uln/zjz1Kk2NV0/2bJjc1l5IgNECiQKMjc3Wwz8oC6Ye2MgcyfIz77wTFF5IGHpWXokPnv2x/WgvPKH1yfjVUIdDErmdPYnZ8FAWZdokQiMwS62z//0eQQI33rooIgnosjxz9fe3Hf//d57yY6ZfbBv/v4SYHr4kUdiKyGEruuuXbsKIgDw0MFDOWdFAICrV66AMfc98ICqOudERBGuvf7GPwFjOMylMug99AAAACV0RVh0ZGF0ZTpjcmVhdGUAMjAyMi0xMi0wMVQxNjo1NDozNyswMDowMJMJCKoAAAAldEVYdGRhdGU6bW9kaWZ5ADIwMjItMTItMDFUMTY6NTQ6MzcrMDA6MDDiVLAWAAAAHnRFWHRpY2M6Y29weXJpZ2h0AEdvb2dsZSBJbmMuIDIwMTasCzM4AAAAFHRFWHRpY2M6ZGVzY3JpcHRpb24Ac1JHQrqQcwcAAAAVdEVYdGljYzptYW51ZmFjdHVyZXIAc1JHQiryKm8AAAAOdEVYdGljYzptb2RlbABzUkdCW2BJQwAAAABJRU5ErkJggg==;labelPosition=center;align=center;allowArrows=0;resizable=0;rotatable=0;" parent="1" vertex="1"><mxGeometry x="192" y="128" width="32" height="32" as="geometry"/></mxCell><mxCell id="50" value="41" style="shape=image;verticalLabelPosition=middle;labelBackgroundColor=none;verticalAlign=middle;aspect=fixed;imageAspect=0;image=data:image/png,iVBORw0KGgoAAAANSUhEUgAAACAAAAAgCAIAAAD8GO2jAAAA/mlDQ1BpY2MAACiRY2BgkmAAAhYDBobcvJKiIHcnhYjIKAUGJJCYXFzAgBswMjB8uwYiGRgu6+JRhwtwpqQWJwPpD0BcUgS0HGhkCpAtkg5hV4DYSRB2D4hdFBLkDGQvALI10pHYSUjs8pKCEiD7BEh9ckERiH0HyLbJzSlNRribgSc1LzQYSEcAsQxDMUMQgzuDExl+wAsQ4Zm/iIHB4isDA/MEhFjSTAaG7a0MDBK3EGIqQD/wtzAwbDtfkFiUCBZiAWKmtDQGhk/LGRh4IxkYhC8wMHBFY9qBiAscflUA+9WdIR8I0xlyGFKBIp4MeQzJDHpAlhGDAYMhgxkAkqVAs0XeJdIAAAAgY0hSTQAAeiYAAICEAAD6AAAAgOgAAHUwAADqYAAAOpgAABdwnLpRPAAAAAZiS0dEAP8A/wD/oL2nkwAAAAlvRkZzAAAAoAAAAGAApsvMhwAAAAd0SU1FB+YMARA2Ja+7PhkAAAAJdnBBZwAAAYAAAACAAJaWOi4AAAjwSURBVEjHdZTLb17nccZn5r2cy3ehREoUKTKSSJGyaMdU47pwbEVX24HTLpJ/IAW6LtCF0WYVJLsWRYG6i6Iw0GyLwsiqi9ixYkeXWEmdIIZMWbJ4MUVRpi1LkUl+l3POe5vpgl3ag8FsH/yeefDg4tk/7w363XaHOYaQrNIxRqttClDYIjRJgRJmo6yvm7Js1yEYY7yvjVXeN8ZkKaIimyKRykQkSjS5cr5vC/PH313Xf/ujv2t3R5qmurl049SpxTu3bj+18FQK/K///Np2b6fb2p9cRAEiare73gVCDYgA4Fw9MtLd3t7O8xYCI8HFF89OTX3DZBljLEv7T//yjyCkJr598tNHDx/2v2RDD/70UCze/2xrt7f7/e//4MaNpUFvQKjKvHSNkyQhRUBAgsShKPN+rzcyso/QDAbVxYuvzBybb5XdEDmxjI2OvfjSy3c3NvSDnZ2Njc3RsS5zbJXF0empvFM0Lt1aXX705aOx9gHD2jvPzKxAa4OkmSXP23U1zLKy36uZ4cDYhAh+/PGyyQqBdP7iOWNQZeScU5/F/uI3F4Mklds6+S92Hnf3dYHFoLq7um6EfOUkcrczAoKkzLeeeX5+7qnDk9PTU8e+ePAnIm1ssbMzmJ8/YY0VBO+bu/dWZmamGcKlt9+ig62R5vGwbVooRMYcnZ9f39qKGiOnFFKs3UjZKXRe9aumcVNTRzvt/d4JQvZnp/7ir3/4NymSMLXb3XffuYyI29uPi9IURfbOu2+/9dYvuiNtnfd4a+mThecWAdM3Th5ZXVs79eQ30+4QWJc2U07AMUbIdAHaCODW1ufVsFaaFhYW1j65x4DRR2PQ5Nmvr15RCkNsajfIC0UKPvj9+zrjjAXFSafb+Xx9K6MM6lhSoQUUE4pAFAJihuDC5ubm0SPGZgoRbn+8dP36dZFUlq1nnn325MknjTFVNeh0W42vSPHPfvafIEp969tnHu8OPn/4YHxiAoSN0ER3zAb8xc//J2PDTkrbYkYkI4gA0us92tn94tHjz+5/etcYYuEXvnP65MJJIgIiAIVEzDRxaPq7L3/vzp1VzWW5/8h0VpoPP7ix+PSTc8dnskg//683ctEsUJTt/qA+PvuEtTkotbKyDBQAI6AgmboemrwAgFu3biHp2dk5a/IUZebY8cTB+xQCaxnf138YIvKRI8dWlz6+9+Ft1x+Old26akDToHFPLy76JoCiejA8OT+3vP5RiNFmBTOgVs65a9eukdLMUBRFjMwcD47vL4oCUZQiXUManRrvMH6xusaVL/PSUg51aGVlYqBcf3jro7nZeS0xz7Pl5WUmQMg4qeeee37hqaeVMkjKuUBEr7/+H2fOnDFWv3f96vnzZ7Ms05rwxX94FRWZJmx8+JGuKqpDNy9jjBGUkBo61+l0UmBKopIQEWjjYzp3/sL8/BOCSmu92+/leX7o8KE8Nz/56Y/PnTvj6mGWWe/9b65e062IdW+wfmfZxCQ+lnnhggchQQEAo3RwHllSSopUCME1IctbTR2FFWk76Fed9sjExETCkBLHGC9d+qVRChG0pptLS3rjt3/MlbJVpTWR0hGSEDILAiiQTClJrLUWYG2QQcrcCog2tLJyR0gFn0xmx8fHGUBEOOFLL73yxNw8ouzbt+/fXnuNjGdqQobKkkkphcRBWOcZkIhI9MEoJSmllLyPiBijj9ETskAA9tqAd8NfX36HAIzOMp0lxynJ0aMzRdFyTSAxugKIyhyYnCZTmCyPLDHGlJLWGggZgAEjY2ZLECOCVpvr713h1Ai7zLLCSJjeu3b17199FRitzVdX1phZKUwccPHZ80l4dnaWJUmKGxsbZW6D81Zp76NRVmtdDZpWq1X3a2utEKaUjFUhuKJV9nq97sj+3m5FOsuy4vTpM8NhXxlQGpDS7//3fS0iRunoQ+Lo6woSS2IiQlQigZljjK1Wyzm3/8DYYDBghjwv66ZvjK2qSms9GAzyIo8M3jeXL79rra5d1Wrnvd7O7Zs3tEJAgs+3Pi2KbHt7O8+yEILWOsZorVWovfeSvDFmcXERgIiUiBAJKbj6mytElBiY+cKFl2aOHVfKhODyMhtWvTfe+G8gpQ4fnuGUgCXGoLU2hAqJU9KkhVkEjDGu8QsLC3leFEUpTFqZ2dmZyYlJpfXm5j0ifOGFF47PnbCZrau61WrFFA4fnjh79szynduEIoRiFCpAQwgAAEBEiEhE3nsAKMsyxri7u7u6unrv3r319XWtDSKeOnUqpbRHbIzx3rdaLWY+ePBgURQpJdJKo7AmSiEqjTFEpVRKyVrrXSjLEoBCCFrR6traiRMnSatMF865K1euHDp04O1f/fLg+JgPoWmapaUbxuQxMBF995WXQwhaWxHQiMgxkYIYY57nzjki2stoVVVKGSJKHIjUysqKUgaSFhFtYG1tudvt9vv9mFJZliGhUioG1lq/+eabf/lX32OOKSU1NTmNCAhASJyYEBEUArII4p5PRESAAgLMDIwAEmMwRitNzjVa2/v3tyYPTxNqImJmAb5/f3N1deXu3bsavma01iklEWFmZtljyrPWzNHjnAAwra4u+8ZZm5NW3qXf/fZ9ra1zDgDyMnv85cPR0X0f3bypAegrBZiZmRGVUopIiDAvi26rOxj0O51OVdVz87N3NzZE5Dunz8/PnwCyVdXkea6Uqt2gKO3rr/87cFJTk0e/UkD+P04KAFLaaylJHMdGR4lIIG1ubg6r6vz5i3NzJ4g0C7VbXe9DStFm+vDU5IUL51bWVrR8jUUiQkSIwpwYGBUwx+Gwv76+NhzWo6P7hsO+tfleIjLbCi4557U2iObA+IjW2vkaEb/2ByKyd0WECIzJ9lAgychIe3d3p9PpNi6I4IMHD7e//CQruiklANCaxief994rpeq6IoCvXmX2qjQliSkl51zjKu99iLXztTakFMUYmXk4qIuilaJoZWNgRLx06RIRKaXy3OKzz5z7agJkZgZgpRQiMjOSKKXYs9Y6hJSiKJ0hmtOnXxQmZYqm8dbqxA51QvKXr/xq6YM//B/HUT+mAWB+7gAAACV0RVh0ZGF0ZTpjcmVhdGUAMjAyMi0xMi0wMVQxNjo1NDozNyswMDowMJMJCKoAAAAldEVYdGRhdGU6bW9kaWZ5ADIwMjItMTItMDFUMTY6NTQ6MzcrMDA6MDDiVLAWAAAAHnRFWHRpY2M6Y29weXJpZ2h0AEdvb2dsZSBJbmMuIDIwMTasCzM4AAAAFHRFWHRpY2M6ZGVzY3JpcHRpb24Ac1JHQrqQcwcAAAAVdEVYdGljYzptYW51ZmFjdHVyZXIAc1JHQiryKm8AAAAOdEVYdGljYzptb2RlbABzUkdCW2BJQwAAAABJRU5ErkJggg==;labelPosition=center;align=center;allowArrows=0;resizable=0;rotatable=0;" parent="1" vertex="1"><mxGeometry x="160" y="128" width="32" height="32" as="geometry"/></mxCell><mxCell id="51" value="40" style="shape=image;verticalLabelPosition=middle;labelBackgroundColor=none;verticalAlign=middle;aspect=fixed;imageAspect=0;image=data:image/png,iVBORw0KGgoAAAANSUhEUgAAACAAAAAgCAIAAAD8GO2jAAAA/mlDQ1BpY2MAACiRY2BgkmAAAhYDBobcvJKiIHcnhYjIKAUGJJCYXFzAgBswMjB8uwYiGRgu6+JRhwtwpqQWJwPpD0BcUgS0HGhkCpAtkg5hV4DYSRB2D4hdFBLkDGQvALI10pHYSUjs8pKCEiD7BEh9ckERiH0HyLbJzSlNRribgSc1LzQYSEcAsQxDMUMQgzuDExl+wAsQ4Zm/iIHB4isDA/MEhFjSTAaG7a0MDBK3EGIqQD/wtzAwbDtfkFiUCBZiAWKmtDQGhk/LGRh4IxkYhC8wMHBFY9qBiAscflUA+9WdIR8I0xlyGFKBIp4MeQzJDHpAlhGDAYMhgxkAkqVAs0XeJdIAAAAgY0hSTQAAeiYAAICEAAD6AAAAgOgAAHUwAADqYAAAOpgAABdwnLpRPAAAAAZiS0dEAP8A/wD/oL2nkwAAAAlvRkZzAAAAgAAAAGAAoWfJsQAAAAd0SU1FB+YMARA2Ja+7PhkAAAAJdnBBZwAAAYAAAACAAJaWOi4AAAhLSURBVEjHlZLbj5VnFcbXWu/pO+zZMzAMUJiBYYBqYw1obaRAaxESTfwLemkvNKa2qYkXakxspaIx8Z/wWq0xNmmhMGU4GNpEoEApc2IGmIHhOHt/e+/v+97T8mLa2mPS/q5W3pU8z7PWehGo8Y0djz/30587FxKdlmWpJU1NvX/i5DhC9N5nWdotOkSUJKmvLREhigAcYiSiCCGgZxkd+ZIta2LBGFky6shsPT7ynd2HDv45Ufn09FUIIIXWSnQ67empS6dPn0SIRChQhMCCxcjIiFbCe3t1/lqAgIIsW2FkJ3R+88pvy9i7MHlhx7d3vnfh4uaNG9Y0+oMNUmuNDLdv3x4eHr5542ZRFFlqlFJaJUIIZ51zkUAopUa3jkXnfXSAvG1sy+TMZIyMmu6XrYN/eeX0f08nDa2UvHThrLV24fbizLXZSELWdRljbDabWutLly7lWV/Z6wBEDta5kGd9ZdWVpJwNs7NzY2OjkaMkOTs9AwBay06o0r78zNl3biwtiBatWzsI6HVmirqrG+mV96dJaymQBfK/Xv2Hlqpot0NgIVSW5THGTq8rlamt1YkJHKdnr07Nzrw/PeWCR0TnnNa6rLpLS0tdW/VcPbM4h6l+b3qSMr3cK8a2b5PAfPjwYWCZ53nZrdI0R0Rrq9ffPPLii7/wwZZlt5Hl5869e+rUf5TWLpDW0nVLJYQWol32tJCxDn15s4i9se0PX5mb2bx1i4sx0YlwgIBm57d2aZV5zxwFonDOIfIfDr4co7t5ayFGD0DGmHfPXxyfOI4CEFkDEWLZ7phMiYa674rtTzzaFmXMKEAYHR5OgJrCvPrXv0kAIKJnnnkmTRvOMgBdu3btyJE3lFLW+suXLxMBM8YYCaWUMiBY54zWrrbNvInIrXutfCDVQTbTRhuCC2WeNJWNfrlsQCoefWzXy797adXAYFF0AaSzoSg6U1NTE8fHvXcMUQhyzgohJyZOAGFg3r9//8Z1G0c3bdm+ZevUlalEmwi8cHtpYGgNoch0klEia37r34e5QrFh09iTe57UKunvH7h/r5WYNE3TobVr5udmp6au3H9w7+LFC+12+8aN6847IdWzP3527dC6B3fuK5TBea3VvdYD6z1KcfPWrZENG0c3bMpAHXvtSCzj6OYxCUBCybKupDCzs7PBMwkIwe3du/vM26c7nbaUVJVd7z0AcKCZ6ent2762eGNBMkopbWTSxgjdc92UafLk2dl3LrTb7SRL168fqaQi55wxxhgzPj6OiNZaImJm7/3u3buNUY2+HBGYozEa2E2Mj1+dmpQUAWPtqoXbi52y1263jVLSoa4BC7uusVqBBhSDDz2EqAYefuTr39/3A2Dh69jsG4ghEAGBf/2N1xB8kihnbZqmZVkKUiiEt8EII4To1ZYJhRZSUdltZ0ZLZhd8z3tOlE/01p3fRID0iaf3tVulFMbItK6cs5YIBIZGnwm+ruqOlspaa4wBICllWZYcsdFsdrqlUoo51LbKE9Ntt/r6+ipnKdFO0IO6ojyRoOT95Qc/+8nzhEqiDp4JcXp68uTE0aIoCKM2WiAZozg4AOj02oNDQ3cfLHfqtocI3iVKkxAQfKO/0al7lJrCVSMjY+HOnU5RiJ2P7/n9S68M9A+2Wh0IFELQRvY3G1kju7F4PTGmrEqOgIRCUGROE7PcXk6ylAGJWUkRrUXmyOyCAykcxK3bH+YYcpNC7aR3iEEqlQyvHx2fOM4cSPiJt8aJAAAqG5N0VdXrACEIJimsZ6Oz6JmYAGUMgEJGgBij1KasqiRNsAwy8NLSkndBptooKeq6PjFxyjmbJPqNw4eff+G5uq6FEBJUWdaNPL1y5b3DR15LjQJgBECGj/igREQQiMKW9u6tJWaO1hmdiKF1G3pVZ3FxERGtr8+8ffrQHw8qpWxZNbJmVXmtcmBcNTC4qjkwP38NAfBDzY+5ADMTESEhgA/eOcfMSEKe/++ZNDWt5Z4xuUmzomjXdZ3nqd4wPDtzVasmB0YSigSwQpYIERA+CxGFEIhIKRWBV/DBSgDoVuVzLzzvLM/NzR89+iZG9rUlUnNzc6keKIpOqtPgax+slDJ4+6nsK0gprbUxRkQEACEECGLP9PiuPYcO/Wnt2vWIZK2XUmmtAej48XHvXLdXNLK0KjtZliSJrqre54kDAIQQEJGIEJGZQwgrZqKvuf7AgR8hqIH+obmZufm5+RMnTvTKrrcuzxsSkWPw3iL6U6eOCYqM8XMNYoxEJIRY8QAAjgwMMs/7mCF4lJIQxfee2nds/PV3zryNiL72kiQAKSXKqqMVRPaA+LkGQggA8N6vXPujw3xQKRIT429572OMB/bvhxij91qJlVy2rgUSADAH+AJWrrqypY/+LTOL4U3b7ty9d/fO7bqyRJilypa9sbHNC9evW+uEUHv27N06tmV0dHR+fpYEMXw1ECDd/dTTnaLWKg3eA3D0lZaKmQHowL4fjoxsvnz5cpqaq3OT129cDRwYI34Jn5VVysd2PfarX/9ydnqBQCRJVnaLhevXjh47YmufZY3R0VGtk5uLSyYRaZpbF0h9tQnEunUb9u55cmjN+rpXVb0qNabZnzcaedFqtVuds+fODQ4O3lu+DxgvXDqvjWBgAAYEQMAvEEX4f0sSUZY2q6579/xFowwgl1Wrr6+xtHRr9eoh7+DVf/59YPVAWXbTTAJE4Pgls38wweDQRoh64fqSrSNHMEYDh2NH38yyDBE6naLZzK3rCRkDVBE8fjzfZ+b4ePYPX7C5Y8d3KUqlDER2vlSSkXwIIUSnZIIILvjIVZLp2pYEKQB9QoI/YfAp/gcaSsOaDtlq3gAAACV0RVh0ZGF0ZTpjcmVhdGUAMjAyMi0xMi0wMVQxNjo1NDozNyswMDowMJMJCKoAAAAldEVYdGRhdGU6bW9kaWZ5ADIwMjItMTItMDFUMTY6NTQ6MzcrMDA6MDDiVLAWAAAAHnRFWHRpY2M6Y29weXJpZ2h0AEdvb2dsZSBJbmMuIDIwMTasCzM4AAAAFHRFWHRpY2M6ZGVzY3JpcHRpb24Ac1JHQrqQcwcAAAAVdEVYdGljYzptYW51ZmFjdHVyZXIAc1JHQiryKm8AAAAOdEVYdGljYzptb2RlbABzUkdCW2BJQwAAAABJRU5ErkJggg==;labelPosition=center;align=center;allowArrows=0;resizable=0;rotatable=0;" parent="1" vertex="1"><mxGeometry x="128" y="128" width="32" height="32" as="geometry"/></mxCell><object label="39" green="0" blue="0" red="39" id="52"><mxCell style="shape=image;verticalLabelPosition=middle;labelBackgroundColor=none;verticalAlign=middle;aspect=fixed;imageAspect=0;image=data:image/png,iVBORw0KGgoAAAANSUhEUgAAACAAAAAgCAIAAAD8GO2jAAAA/mlDQ1BpY2MAACiRY2BgkmAAAhYDBobcvJKiIHcnhYjIKAUGJJCYXFzAgBswMjB8uwYiGRgu6+JRhwtwpqQWJwPpD0BcUgS0HGhkCpAtkg5hV4DYSRB2D4hdFBLkDGQvALI10pHYSUjs8pKCEiD7BEh9ckERiH0HyLbJzSlNRribgSc1LzQYSEcAsQxDMUMQgzuDExl+wAsQ4Zm/iIHB4isDA/MEhFjSTAaG7a0MDBK3EGIqQD/wtzAwbDtfkFiUCBZiAWKmtDQGhk/LGRh4IxkYhC8wMHBFY9qBiAscflUA+9WdIR8I0xlyGFKBIp4MeQzJDHpAlhGDAYMhgxkAkqVAs0XeJdIAAAAgY0hSTQAAeiYAAICEAAD6AAAAgOgAAHUwAADqYAAAOpgAABdwnLpRPAAAAAZiS0dEAP8A/wD/oL2nkwAAAAlvRkZzAAAAYAAAAGAAtyPSMwAAAAd0SU1FB+YMARA2Ja+7PhkAAAAJdnBBZwAAAYAAAACAAJaWOi4AAAoTSURBVEjHJcnZc1bnfQDg37uf851vEdo3JH2fhAQYCQsESETGdhrqxE2n0z+gaeMsnkwmM5lkMk6mq+u4M77rTK58kUzTm04cT5zYCTYhaTB4MAQwQgJJICQhBAihXd9yznmX39uLPrcPAQ6AMDo6tlur0kh67k1alYo555BAaiAMI1tNwyCo6UQE3CGC92gdQwhlCEi1cZ4SBOcpUmY9oADmtJ+5MQ2WcyAwNHbkm9/9No/CBLQBLSVO3ZoYGhqKE5PJ1etYM0coeIMpcDJ3f0Fr/eyhA7NTM73FPs4VopBhiIBJuiu4905nVXZns/qT/3x75uo0OXB6bG939/DIsdgm2msvrAwhMan33hsqaAiOUiAeHGcI1FdTzTmlzBmbRpnc5vZuXUP7znYtkAp1khFeEUyrcRTkBvqH3vzXt3g5TmS+cPvB/Z3atgxpZ6m9nFSBgaTy6dq6q8HT1Y09TY1AXKhIa1tLkM3W0orHWGX5tt65eW86v75pDVM0IE4PDhQrcTnKBNqZazevWm8p8ZQwWU5TrzhVbHFpQYWh4oJZ0lHfPHPlZmuuKZQRMLFVrS4+elippiuPV1Ug0rRGwRweOnj31nRORdQxwTKzd+aJVNPzc5Y4pWQUSipASBSSS8759vZ2b7G0vHjfpy5EvodmA8PrVd5WTVIzUaG+q9S7srLS2tKC1gnKQsrrqPLbMW4mQhPhRXexd2F5uaNrb5KmSsjy1g7NgMRyClUjkY0cPro8v9jd3Ja1LGPoBz9/J2fE1XOf5mgmH+Q3t3fmlx5orQVlGapYgmFK//A/7zckam1qqQAZH9uF+/crOuHZMMoXaruVhsIeeuvPE1PXJgoykobdmZqRRAZEKSK4Y8RTAJ4JI0zRG8xHdUa7/mcOzC3Ma20DluGaQ40GENqKoRoUleCIoNwjq1bSjMwnFUvBYjaIrl+4LB1RVHlDnAF09N333kcZNBS7y95N3LoNSKx2/f0DM3N3SwMDznPv5C9/8TtCMnuL+w0RVycntTWSMuk51ZAR2V+++9uZG7fo0NHjXS3tdSJz/fwVZWR/90Akc+/84r3EY0tv0YS8qdSD4LmjEcil2XmC3hgTqTyBgMlcV//gpjZdBwaQ06mp24Hn+1qLOcz86r/fpY6D52Tk+OkXnjs1f3fuyebTLV+r2KrMMIumvafHEl5o6njyaLVJRg/uzR09cTilaUzTgf29tmLef+fXxe79ngW5+ua1jS1n4u3VJ6y6GzECGsMg29jWvba2QV2a6LgWsaC/s4+WsV7Ucc1Ke/cpnmlobtbWtLW1mVRzINcvXFaJP9hRNJvxufc+3N97iNEwX9fgOG1qbw6UKnV2hShkzPMQFZt7ejt6qjtltrq6JggbPDj0dGW9va07ny2srjzR2rS2NOtUNxQaJJL56RmOwDxsr67Nz8w+mlsEw3a3am0dnUoFiNqlSZ0I5iZuNYrswe79ddEeQOjo7JyZnSaMBsPPHtMx5MK6JLFBFMRY0yQhAR08MlRJ0qmp2wT9vt4+5uHBwpz0VmuNTPFsfqO8OzJ2ggnCgdy+NkkSK40ADUpy512C1Zk7MwQIP3z0+Dde/T71AYkRnbu/fO/sHz6gwhOO3nvkvLFrbwqolMJKtXJ/KSOCXYdltFEhb0xKnfbGMsc//+JLpd5BEURaJ5Sa7s7Gf/6nH9KhY8f+5d/faO5oi3VKOWOcl4p9L33hSxyJcDRwDGvp04ePQyHTWrzxdE1QHscxY4xT1tLcSJz1qYl4+NKLpwdK+xEhTrUBaOroYEpZIJxDkNZclGF9pa6VxcdACKL1nggeoddxWsvncrvl6vrconOOE2qAWMGdN6VS0XgslfoW7y4YFIhy7s4cISI2line1dqoGWEiy42xDQ0NcSX96MMzjEgGhFFKiK/FiRQ8DCOTakkZ0S4fRbuVsqGeKal1+mh5qaWtI9aJc8AZOXv293/1pS+j9QEnhJLzf/qjIwgAZGT0C4ODg3WFRkKYt8Q5Fyp17tw5KXlcKyslPFhrbRiqcrkslESClDOLiIiUCykDHWsBkgHXSYoISqnEpSpU2unJa3/m169eNUZzphABLRBgxpgwoxKTfuPVbxLi5+7OXrx4oVqt5vN11mpPIE7jIAist95iXCuHMvAeCfVSypPjzw0OPlOuVQBQhfKnHBh4urG50dTY9Pdf+crY58aHjwzX7am7Nz//ytdfiaKMRbu9tVnsKT58+KharkqlPHi0yIBSoL1dpbQWO2PReiB09OTJQ4cH4ySJosh77O7uOvO7Dyjn7Jn9A//x4zdKpVIcVxeWFj869/t/+Nor3cVilMvOzM4a9IRyRiVjwlqHFigw76CnsztSQXtTay7Ics6BUBGoTy9fpoxpa9o7Wqu7O3X5PLXWEEIYYwBIKa3VamGU6evfB5QwKV5++cuU8DQ1aWrCIEdAeGQEOCcsEEG8Wy1E+fr6Rs6l9/7Mh2dbO/fevjs7OTkZhmGgVBKnjBK+8uTJ5OQkF3J9Y+v8xxeAkNGxMUQXBGEcp4uL9y9fvkKAInp0nlBKABiw9bWNjtYOa5zgcn1ra2z81F//7d/87Of/9ejRw97e3tnpWw8fPFheXiYAgjNpHZ4Ye85YHD15CgEuXbr0b6+/zhn74DfvX718hQCgQSXk+Pi483jp0ifUg9dGUlbq7Zu+M/vi6b8sHuhPrFPZIElqP3377XxGpdXKjYkbDIB575QIs9nsq69+68Tx49a60bGxt95668yZM9tbWwTghec/v/L48Ynjo4cGhx6urAz09y8tLCE6Qtn6xgbjsq2z48naektbCxJI02T85OjHF87fmpwA8FRwLphITayU6Orq1FoXu/darV84dWpPoZAk8fDwsPc+TtPevj5rrRDCORenCWGCSG6JR0Y8o0Egp6ambBL3l0rNLY2ZTADgCKfU2NQ4DYA3Prv2jz/6oRRECrZwb5YCJrXKd779rZFjR2txRSmVyWUBQFAWx7EKg/EXxo8cGzk+Nnry+c99fPG81olidGDfPmvigDOrYwD0NuGEoBDcWhScT05ef+0H3/viF1/2aD+9dOmVr/5dU2P96upqJhtUk7JxiQcggJIL7x0wcvDgIe89IiLg+f/90+nTfxHvbApG3vzx61OTnwFxQDz3AFprxliqa9moMDU1oYS06CilB/fvS1MzOzttLErJGactbS3N9XuuX7tmjI7TmkFDiO8p9bS2Nn568fwfz3505ZOP0ZvLVy4COMoJOscBgHFw1gFAtVrmhE/cuGq9B4DXXvvBG2+8qU0cZfOprrbvbXWJ3VNXQHRS8U8+uZApRCMjR5KklskEAHhz6roE4sBwAKDEOgcAhFDwHgAAPEiujHUA5P/Dez98ZIQKbrS/eXNicHhEEModT2vVyTvTHuwzR58ljCrOTZJOfvaZBALgJKUJxsC8RU8Z+T8RrYa5eAIMNQAAACV0RVh0ZGF0ZTpjcmVhdGUAMjAyMi0xMi0wMVQxNjo1NDozNyswMDowMJMJCKoAAAAldEVYdGRhdGU6bW9kaWZ5ADIwMjItMTItMDFUMTY6NTQ6MzcrMDA6MDDiVLAWAAAAHnRFWHRpY2M6Y29weXJpZ2h0AEdvb2dsZSBJbmMuIDIwMTasCzM4AAAAFHRFWHRpY2M6ZGVzY3JpcHRpb24Ac1JHQrqQcwcAAAAVdEVYdGljYzptYW51ZmFjdHVyZXIAc1JHQiryKm8AAAAOdEVYdGljYzptb2RlbABzUkdCW2BJQwAAAABJRU5ErkJggg==;labelPosition=center;align=center;allowArrows=0;resizable=0;rotatable=0;" parent="1" vertex="1"><mxGeometry x="96" y="128" width="32" height="32" as="geometry"/></mxCell></object><mxCell id="53" value="38" style="shape=image;verticalLabelPosition=middle;labelBackgroundColor=none;verticalAlign=middle;aspect=fixed;imageAspect=0;image=data:image/png,iVBORw0KGgoAAAANSUhEUgAAACAAAAAgCAIAAAD8GO2jAAAA/mlDQ1BpY2MAACiRY2BgkmAAAhYDBobcvJKiIHcnhYjIKAUGJJCYXFzAgBswMjB8uwYiGRgu6+JRhwtwpqQWJwPpD0BcUgS0HGhkCpAtkg5hV4DYSRB2D4hdFBLkDGQvALI10pHYSUjs8pKCEiD7BEh9ckERiH0HyLbJzSlNRribgSc1LzQYSEcAsQxDMUMQgzuDExl+wAsQ4Zm/iIHB4isDA/MEhFjSTAaG7a0MDBK3EGIqQD/wtzAwbDtfkFiUCBZiAWKmtDQGhk/LGRh4IxkYhC8wMHBFY9qBiAscflUA+9WdIR8I0xlyGFKBIp4MeQzJDHpAlhGDAYMhgxkAkqVAs0XeJdIAAAAgY0hSTQAAeiYAAICEAAD6AAAAgOgAAHUwAADqYAAAOpgAABdwnLpRPAAAAAZiS0dEAP8A/wD/oL2nkwAAAAlvRkZzAAAAQAAAAGAAsI/XBQAAAAd0SU1FB+YMARA2Ja+7PhkAAAAJdnBBZwAAAYAAAACAAJaWOi4AAAnXSURBVEjHBcHpj1XnfQDg3/t7t3POXWffmH3uMECNDcNWmDE4XhL1T2j50A9t5Xxv0sZVItlKvtdKlShVpdRV5KhKpZa2sbBjG7wEw8BMZmGYhWEYCJjFNrPce885757nIWPn9oMNJVJoNnIsxbk1jHiGlFniCclsiOPYZGkcUaUbXDINNHiCxjCHCY99wMw5T4khjqBnxJLgOVCrw635VXBA/uXDf0UDMkgmIhUcoaBVfnt99fmDh7PcJOWWPM/RO4LW2RQ4rt+9p7WdPHRgbXFldHiMMmmBszi2xOdqT7IAVhdlcfdZ86f//IuV2UXy3Z/9QLI4994YIwC0yZKi1FYBZdYRSWLvgRDiwHHqA4Y814whUmesKiSlZzt7bS2927uplNKZXIogiNdpVhKlg2OH33rzJ+zhg6f3th609PcFDNzpif1jFjJHgkX35OlT14SnT7Zb2zs9eh6z7u7OYqmc5XsWMlli23p3YeNWS+WZ01TQyHt94MDwXl4vJJEyZm7+ugsO5z6f3dc1yEAwJnLvV+7cDkiMVehNV3vbwuxce6UtFgUk0XZdbz583GiqR18+kZIrnQIxzx8+uH7zVkkUiKWMJrfW71AhV+/c9uBkJIqRRGZogSVeeadCEpd69/WtrK0mSRIFVmFJZLBVlkyqs0yXyq3DQ7WHjx53dncF6yShBWBVlG4nMzs5tYQBHx4avXv/j30D/ZlWkou9nToWSTRz+UqRJ0G5od6Brx9/Uxs/YDInLf3/f/9NVfMbv/tMchkXSo1nuw827yujKaUJSpH6UoYfvfu/VS0fL98rkSTk9t7mVp7ncRyXSpV6vdFWbkMLgXNuUl0tVDdub+3sNilKBMacYI6SwApxySsH2laTotVq/ODE+uYdq2yMCdcMU4wgVk3jLXAqiCOCMLQ0q6tIltOmxupAjyuwpT/MuVTROKFR0eUYh+TCb35LWKF9eKQewq3FZWGCNXlt/9jqnbWxiQkLTBu8cOEjG2Rv/1hg0bXZuQBACZHAfe4kxv/56/9ZX1rFkPCW7vaRsdGlhZvBhInB/WVa/K9f/bdx2DdUczLqHhoCT7iHGHFzfc0p7awtJS0Ice7oyMQLdRd6hoeoFEsLNyPgI+39rbTyf7++EGMCBslrf//dr776inuGjtzf2hIUiVZSyo59fZawamfXo4ePW+Lo7ub65MnDOSrDw9DIIDTcexfeG+wZtZ5V27qf7e1BMPc3NxJii0iIDgxFX8/I5uYWSsY7Wlq72jsk4a20UNRYDlFfW1fEk/bOLmNcT0+PUYYFcv3zK1y5Wmcfa/hL73040DMciGzr6hFJ1NHRxgI5NDpewSTsep7jaMfQgaFaQjnLvq63t7WEpltdu8MdRIREnO09fNLf1pnW05b2Lmfs5r1HAhAIX51b3py/ZYxzhjzde3x8anqnmWZps5QU9rW2LVyZiTw5MPJnRSaNMS5TQSny19/7x51n22tLKyJQHgIj0KxvFyplRfHg0WN7Wi8tLlPnamPDAfX9zQ2WawbUscgzoSE8P3kUiMMAKwvLai+tRC3oUDUbxWIhzXYWb/6BPHfibAgBAokYd1kuBDNEBeK9A0Dug/CMtQ72uaATib7RTO89EoQ1rPeMBYYeHAQDPhBHKUaTx148OnkyVymjbqi/44c/+gdkjkRE1gZqg/tGGArvIQCxxtNAuMfIB59mXz14EHOhm2b78TbxVGVaIKUBvFJEO+4J90ADnHvxpReOHslUjpT39g8QSgMBxogY3jeKKDo7O/d19s5cv2JyJVmEhGtl44hLsKj1s427WSOrFsoWApHMow3eU0TvAFmkrEJE6/TG6jIAM9oN9nYgpSQwZrVTmZaCxyLxkDcajXK52Gw2CSGUMEKCMzlDSgipRoWskTHOQ3AAPoDjyE2A4KkUBev0jRs3Dj93VIqEIn56+ROtdjmLGKWhrb1a38udV0o3K5VSmtW5oEhYCCTPs0qlZGwePCBiFEVAiHUeEQky78n06ana/kMhhP/41TvfPNuZn59v1DPOJSIAMXOz1xhlhFLyrZdfZIwtLs1aawA8pcy7ABCklLu7O3EisjyTnAHQ0bHxjY11rZSM+InjJxGxUqns7u6eP3/+3XffVUq9/vrrnEvvrXVZAI3GmaXlxc2tTWT4xdWrxmkZizTPXPDamlwrGUdCyqRQ8BDGajVvQ210XIiIUcG5dC4sLCyGAFLG58+fZ4IDEm2NcXZoeAAAMISAFC5evPj2228jImPCWi+E4JxzJjkXRrs8V9Y65zwAhgBCRMbYer1JCKHInQ13797t7u4eGBj4q788/84773DOR0ZGOOfGKoRAlLZRnCSFovUhV1ppS1AcnTx5Zurc1PRLQiYBmPNYKreurW5EMpmfXygXK5SymZkbAJCm6WuvfocxRimt1WpKqdnZWWt1rjPOOaOUew+nz0wRQpzTV699HoKbnjo3sf8558La2sqZM2cvXfpdoVDZ3WkIES2vrEYyyVLFqFBKXb78ybdeeU0phRy8d8Y7Sklra/X9Dy4WijwER3v69p84eerw4aMPv3wEBAeGhh49fnJm6izSKFd2e2c3APYPDG7d+yPnyakTp8dGa/fvb1mvOWe50oVCaW39dghhZGwQAN58863pqemPP/7oyZMv11aWFxduoDF2cvKYUqZcrgoReUcajUyKJHgayYLgCSJDpADkyJHJ48dPhhDOTE9RShFRSpmmKWPsi6u/f+ONN37847eSJCIIf/t3f6N1vnxrAYJnAOCcA4Bvvt4uV4qEECEEIcQ6R0hoNBpIIUliCHji+Klms0kptc5YawGD98AYM9ZSIFIwrbKTJ45NT51K4qLgNFhdKheZlNIYw3lSqZbyPAXwnHOllBQlAEIpjWKmdKpNnquUUu6Ct94lxcLx40ecI4wKJuUHH7z/8kvThMDZs2cRKRBvrZGRrO/tYJo3uKQezJ+fOSVjkZvUek1YMD5vba9++y9eSfM6EygiRjkEMAAQQsiypidw6PCh8QPjvb09r7768scff5TlTSGZteaffvD9+bnrEBwAsGIpUro52D9OKT17bury5Q+1zoXAjvbuJImzrPnt77zy/ge/NTajDDq6O/v6+q58/mlAQilaa4UQExPjffu6Ln1y8bPPPrl+/Zox7ubNRYJeKYUUMMsav/zlvxH01invtQ8mgP3Zz39KGVinjM1lRAlagraru4ULDMHlJgeAS5cubdy509bebpytVKsAsLy8dOPaFwtzs87p4B0BYAgEMAKAF46c9t4jBcbIjatXAfHI0dN5nheLidIp435uZmbyxLTKLYYoisXMtU8B3JFjp0II1nrKwsLsDIAFAAAgQANYRq3z8CcoI3j0J0Lw3AAAACV0RVh0ZGF0ZTpjcmVhdGUAMjAyMi0xMi0wMVQxNjo1NDozNyswMDowMJMJCKoAAAAldEVYdGRhdGU6bW9kaWZ5ADIwMjItMTItMDFUMTY6NTQ6MzcrMDA6MDDiVLAWAAAAHnRFWHRpY2M6Y29weXJpZ2h0AEdvb2dsZSBJbmMuIDIwMTasCzM4AAAAFHRFWHRpY2M6ZGVzY3JpcHRpb24Ac1JHQrqQcwcAAAAVdEVYdGljYzptYW51ZmFjdHVyZXIAc1JHQiryKm8AAAAOdEVYdGljYzptb2RlbABzUkdCW2BJQwAAAABJRU5ErkJggg==;labelPosition=center;align=center;allowArrows=0;resizable=0;rotatable=0;" parent="1" vertex="1"><mxGeometry x="64" y="128" width="32" height="32" as="geometry"/></mxCell><mxCell id="54" value="37" style="shape=image;verticalLabelPosition=middle;labelBackgroundColor=none;verticalAlign=middle;aspect=fixed;imageAspect=0;image=data:image/png,iVBORw0KGgoAAAANSUhEUgAAACAAAAAgCAIAAAD8GO2jAAAA/mlDQ1BpY2MAACiRY2BgkmAAAhYDBobcvJKiIHcnhYjIKAUGJJCYXFzAgBswMjB8uwYiGRgu6+JRhwtwpqQWJwPpD0BcUgS0HGhkCpAtkg5hV4DYSRB2D4hdFBLkDGQvALI10pHYSUjs8pKCEiD7BEh9ckERiH0HyLbJzSlNRribgSc1LzQYSEcAsQxDMUMQgzuDExl+wAsQ4Zm/iIHB4isDA/MEhFjSTAaG7a0MDBK3EGIqQD/wtzAwbDtfkFiUCBZiAWKmtDQGhk/LGRh4IxkYhC8wMHBFY9qBiAscflUA+9WdIR8I0xlyGFKBIp4MeQzJDHpAlhGDAYMhgxkAkqVAs0XeJdIAAAAgY0hSTQAAeiYAAICEAAD6AAAAgOgAAHUwAADqYAAAOpgAABdwnLpRPAAAAAZiS0dEAP8A/wD/oL2nkwAAAAlvRkZzAAAAIAAAAGAAuHvYXwAAAAd0SU1FB+YMARA2Ja+7PhkAAAAJdnBBZwAAAYAAAACAAJaWOi4AAAm2SURBVEjHBcHbc1XVHQDg3/qty15773PJCUkgN5KcXMAQLvECogUERG3HGZ/8J5xOO9Pnvvnk9LG2tuNM64zTzrQ+qKWOzohakRGtQMGIEEDuQRIhyck5Z+91X/0+MvnMLLGxiqJTlLSSKucpEE4YegoApddpltiym0qmtRJC+EAciSZEjJjyhPnorCUkekqAIkaE4IMzhLNOUEwK8vrHf0ELCQEmhI6RUDTKXF28snt2T6lVVqsqVWDwBIN3Bhm5/sPN0pnZXbsvXrw4MzaVUIYhJlKWEDpFJ+VSINIYAo3toJhMyCuv/1YIqYKxTgsgxqiskhtnAbnzPqEihEAI8TFySggBozqMIVDUztbS6tpaa1PvwGq7pWIcGt6yen+ZhZBS6qPTDBgTbOnuys3bdxpbByJ67t32mWkHzgM49Msry74wKysPevu2BASeyC2D/fVqVZUbLjiZybbuXly83NNYVSFgLq8s3Xp0bkc0ZWltlmXdsnt18SptI9k2tSNSRE61Ldc2HvZuamhTUgK5zE59enJia1OmuY+0VZq26mSS319e6u2rG6N4xMG+wa9PnxkZnrA+eoC19sN6b/X69SvVvJKJrL/ah9xizvKgozchSytDw6OXLl/OskxGVmdSWuxNqrZwZaGrtcbE+PTd+/f7t2z2wQokErHKEr+uwqoSlkqSjI6OXv3h2nhzAoGYtmGaYhXS/37+ZUWkUfnxoa0Plh9Mz8xa5RLH/v3WP3ssO/PxyYTLNK91VjduX79dWhc4YzwJ1glLPvrHe3Ur7l+8VdFcavzp7oq1nrOEAquz/MS7H2KAyDm3heqp1K9dvbG+XlCUGAXznHlBIs3TWtAejOtJK9747Y/svHr9ljFOsCSE6EwQkNiORY0pyVzXVXglWqCRexWCR2w0RxSP33+74EsdecKzmteQxuz9dz4gLO2bmGzH+P2F74SLzuqZbVOXr12b3jbnAzMG3jv+oSG0b6LpuLywsEgcUg2p5yIIiPTdf33YjRF9wvqGB8bGxy+c+5ZGOtt8JI/ZO2+/az0OT0x5kW4Zn4AYuYcU6Y3Fq6EMoKEnbVAitSfjs7Ot4Ponxy2Bc2fO98vGZP8Y0+T4O8c7hZ2ZmyNHf/NKa31VALpS3719SyD3XdPT09uzud8h9mzu/XHpXkOmN65ffWzfYxqCp2SiOQZF54Pj7w+OjpnIaptG19eKKiaXz53pr3AStCdgCRmZ3N4yJaZcbKr19DV6JbIeIisGGzQbbAxInvb1D1jjBweHrTEM8JsvvmTGTw+MJm33xfETzYFxFnjfwCDL5KaBTWVZ7HvscdTALaMOwQKnYmRolDZ37q6KFAt74+Ii1SEFWhHpw/srg6Oj2pp6T4MCufndZR4AAFaXH9xdvP7DwuXQVcVGsX1uV6lsUaqcih4mFs/9L0PqrKVcEJ6sLD8Y3LKZ/uzw88V658rCxQpPRCQYoWi3uRCr62tjo1u7ne6FM2fBx+Zks9Hbu7G6CoXjDgTlSNnNO3eGR0dTxlmIi+fOZ5QpbdJqvmlkiMs0WPfg3jLZ/uhBKXhRdhNEDpGQGJAwkRhjAFkAEhj2jg37GDLBXafcuHMvIVRbExg6jiHGGCOGCMozzrVgg1PjbV02aj2wUd66co2ODI4LKhhhjDKMyCgvvPUQMSIlhAIYoztaNXp7XdesLT9kLlhtGUtiRO8CBiIBuYMskT4SQ2JWr1HBg3WoLChLh4e2UiBWhR3b9+RZba21gZSGAEjZ8NjI2voq5UC9a6+sshJD6ShijMAYRyDBhIQKDjx4aDan69V6Z71tu6ouZIZseWlJl4qObZ1w2m3fNqcK05yc6uvvu/fjEjI6ODxsvd88uGl9dTWhjHsgnoMn3lsuuCpLwSUlCIGAi9OT00DYRHOiOTZxaWFBd7vrDx4AQJpILLtFnqbOOSEEIbFarSilEHFpaaleq220OpSysiwRUSlFGcpUaKOkTEJ0ITjnDeHEgQMIWpdl2W006pRSxphzznvHkiTRuhSCd9pdo0uRJkIIqzUgXrp0CSAEr1OeeB8rWb5v375I7X8+/4RQ1KWSMuURQoDh4eFt27aFGK/f/KHdblPBhBAhuBgjeu+Rs0at/vLLL+/cuVOV3VymhJAkSb3xmcxlkjnn8jyfn5+nlE5NTf3y179SxsgsbbVa2ppSqS9Pn168cqVSqXz22WeMMc55u90GAIieEUIh4tmzZ+d27F64tPDN2W+sV0ipKQ3n6erDtXo1Q2SttY1KpaK1YYxttDppmnU6nbxSSxOptQWAU6e+PHHiBBNcCBFjRKRCSKsNY1S02x2Z1N/++98ieEQMFhhje/c+WatXCYknPvkIYhQCtTZIGKDgSdjY6GRZFl3cPf8oZ4lz7qvTp6vVhvPeWuNCyNJap72RJAkzzlUqleBRa2uMEpInIt27/0mKojkxXRSdp/Yf/OrUFwx5DIQKPjQ0cvvurTyrK6VeOPa8MWZyckZKSQk/eeoLRDh08EggQAix1pw5cwYpcuvCzw4cOvjMIZ4Izvn8/KOCp4Rw74gQ2SPb52IkzgVEdvDQYYh0oH+QID985Fi3tJSnlCfdUk/PzDIqn37qcABhdJh9ZNeO2T17n9iPLsQDBw4552ZmZp555ojWtlqtKqV8AOcCo8L76AL4EE5//dWnn34aI3nttd8pZSjllPJ2uwuAaZpHQo0LhHLOEkKoc4FSPjs7hzKrBIiUM2Pt9PS0EKIoCiEEIcT7gFwIIWOMR48e9d6fPHny1VdfLQolpXTOIWKtVivLUmsdY0xSqa0ptarVG8Z656N1AdvtVgBAxDRNY/SF6qaV3HsfQsiyrNVqefCIaJ2en98tEhaCe/bZI53OhhDMe+ucqVZzxhAZMUZ5b4Vg7XYLEWL0eSVFIRMhk9KUHnyhOolkiDFE99xzzw6NDicJt9ZSFjmnaSYOHNi//6m9e3bPQXSq7HABR5892DfQsF5F0CGqnr5aYTovvPjc5LYJoLC28ZB5b63Vx44dY4yv3A9d1W13Wj//xYuFUpTyZnP85q1rpS5sMM+98LzWdnn5R6U7acZFgocOPW1dSZkYGx9ZWloiGH766f5LL72kdUEI2To2dOfObUQagQJgDBAafY0sk3meem+lFIyhtuqNN/4oZYIUirKd58nI6OCbf349gjnxyYeEhDQVIWqk/g9/+j3QkFc4ZZ6wgDwqU/z1rTcJQL7riceJZ4jonfr2wvmde3YLnlrPKPJCdRcvXQBXzs3PVWVNqYIQcv78uRA8ULpr1x7OeYjRObdw/gJQunPPnhgj4yKEAIDffvP1/wH0OXhG4TSbqwAAACV0RVh0ZGF0ZTpjcmVhdGUAMjAyMi0xMi0wMVQxNjo1NDozNyswMDowMJMJCKoAAAAldEVYdGRhdGU6bW9kaWZ5ADIwMjItMTItMDFUMTY6NTQ6MzcrMDA6MDDiVLAWAAAAHnRFWHRpY2M6Y29weXJpZ2h0AEdvb2dsZSBJbmMuIDIwMTasCzM4AAAAFHRFWHRpY2M6ZGVzY3JpcHRpb24Ac1JHQrqQcwcAAAAVdEVYdGljYzptYW51ZmFjdHVyZXIAc1JHQiryKm8AAAAOdEVYdGljYzptb2RlbABzUkdCW2BJQwAAAABJRU5ErkJggg==;labelPosition=center;align=center;allowArrows=0;resizable=0;rotatable=0;" parent="1" vertex="1"><mxGeometry x="32" y="128" width="32" height="32" as="geometry"/></mxCell><mxCell id="55" value="36" style="shape=image;verticalLabelPosition=middle;labelBackgroundColor=none;verticalAlign=middle;aspect=fixed;imageAspect=0;image=data:image/png,iVBORw0KGgoAAAANSUhEUgAAACAAAAAgCAIAAAD8GO2jAAAA/mlDQ1BpY2MAACiRY2BgkmAAAhYDBobcvJKiIHcnhYjIKAUGJJCYXFzAgBswMjB8uwYiGRgu6+JRhwtwpqQWJwPpD0BcUgS0HGhkCpAtkg5hV4DYSRB2D4hdFBLkDGQvALI10pHYSUjs8pKCEiD7BEh9ckERiH0HyLbJzSlNRribgSc1LzQYSEcAsQxDMUMQgzuDExl+wAsQ4Zm/iIHB4isDA/MEhFjSTAaG7a0MDBK3EGIqQD/wtzAwbDtfkFiUCBZiAWKmtDQGhk/LGRh4IxkYhC8wMHBFY9qBiAscflUA+9WdIR8I0xlyGFKBIp4MeQzJDHpAlhGDAYMhgxkAkqVAs0XeJdIAAAAgY0hSTQAAeiYAAICEAAD6AAAAgOgAAHUwAADqYAAAOpgAABdwnLpRPAAAAAZiS0dEAP8A/wD/oL2nkwAAAAlvRkZzAAAAAAAAAGAAv9fdaQAAAAd0SU1FB+YMARA2Ja+7PhkAAAAJdnBBZwAAAYAAAACAAJaWOi4AAAnXSURBVEjHLcHbb1VXfgDgtX7rtvc+F9+OwcY2tjHUeBwTEgwZwwQ7kGn6VM0fMFU0qdpKfYg0VVupr20aJUxbqara96oP1cxDRTQTognTcMsQB0IGDMT3AWPHNoYYn3P2Pnuv668v/T5KGcFAvj91spGnIuGUo9Y5V9I7QlAaS+KoootWFMmWawjFQwiOoEakSNpZDB6t05RSIBQAPAVERGuohEYwPBYcKTk2derPf/quLElNcku0lOT+/fsTEyeK3JcqtSJ3EDyFoEMGAh+t/r5wZvTll7958HDs4GHFOCKqOAoupK1UyYgz4CEgwz0seBTTI3/4+uDgwOSJV3KXFzRH4RMJxhjiufNAeQk9CKSIFpVj1Pms4AI8B+1sqVR5sVtvr+3ba9Q1Yl9vz972U+FDwlkITjMCPOL1oiWqlQfrj+utPZZA//CBVLcYJZLz7ac7uiA7T3f3ddUCOBFDb29XW7VU5KlzTiRRU2f3lxc6n+0WPtBytLSxdnJ8HHWeW5tUEpdnjxaXQQRgjDW09kqCVI/WnohSTJUKBPfXuh/e+rqn2iGiOHC+l2aPN759UWRrO1s8YdpkDPHk+LHHdxdqrAoaOKjl5WVkuLCxsmcyGSWjh49CHJgKTHLFuWy8aIwMjzx+tG6t4wQqMkos6VQVkxetXFer7UPDhze2n3b37PfeSqARQJkr3CvCbiEti6gaGBhYWl0ZHB6mlLqm4QWFdi+hXtDMKC9OHpvcWFkb2N8XIVcOPvrPn5c9v335RgWitrhSf9F8/GjDaM+BK67QOOHox7+4GHu5Pr8WGyEMbG/uGOsVV8rzTihd+Z9P4O6trx7cvtfJS8qSxblFQVVMVBKU9IwHoAjluITaEY3VpN1aNzY2sbK6ZoyTXKFHbwJjKs8tNZBAYluuJMvUEhFEyAN6AEeRUfrw5p2ykxw5QxmFiGTu4s8vMq66Dx1qoH9495sKi/OsODI6vri0OjZ+PKCwHi5+9HHuSc8fjBZc3p9bxALLosQMZYYJIj76+NctQuDYiVdHx8a5pfNf3uWaDtYGaOquXboS87inf1Azum9oUBe2aLRq1Y7Vh0u2CCZ3iawwGgXPRr/3Uh39gcMjQsi5L74mDXtk/3CZxP/9X79ItT84OkbHXjv9xg9mXmw8W1hcZh1JqlPqjQ+mb/AgiZTsrOUtEyPMP3gweWZSU0skHBzst63G5U8uDfQezD209Q5/96wRN53Zfa71C0It5zzzru/oS3WjAZ0XjFvjR/qHw24hMlLCZHTwaCIrHe01Flh7pT2tp+DJw1t3VREOdw/w1H1+6bOhfYMksO59vSySHV3tSaTak3KZxiKnmHnumdVuf62bEhFPvPTKm9N/JFFEwLNWCxXNSWEY3rx1ywa01idJAuioLoAgAFinSbCBw7HXT+85l1EaQ1Rq+Y2HC/l331XKiSHBM9b0/uXvn6SEiFNTr7dSH/MSMxhCgIQVxHhKgDNE6r0PQIEF5vTB/fuf7exYazkHS7EO7pWpKUcoOLJ463e0sBUVu2CbTg8eObK+tg5SUClKh0ZG//bv/j5takb56urq5f/99C/+8s+ccyR4Esjm1tbHn34CAoeG+4KzptDNel3nhafECEoppS0TEVAiqtfr1a7ars76J0aRUNosnj7ZYBPHTv7Tv/wrMLlXT5dWVn/z2WcffPiBEqLIslhIQVkcqfaO9o31jZ2dnVp3TQq58+x58JRRThBYoIkjZaZMXlQ62jOtHZByrcMaIwKxac4DquA5BjcyPLi6vCwYRWs4o79fWQzOa51Xq1XUmmhbYvGThTUEBGCcC2NMqVRKm00q44IEGsV5YRmwBNizpcc9PfuqSWlHt9jQyMTk5MlIqcu/vgyUPHu2femXvxSMWa0BSBRL793sF19wyvOsValUGWMhIDqUQlpt4ygmSFzAocGh7Z2dJI6ajWZZRUWWbX+7GUeSlcq1SrX8zfy8ECIE39PTs/FkfXPz263tzeWVpa2tzfn5+YAeCYmTuNGoT5+dRkRTFECJd847SzCMHDoElB44cGB39zvOGAA11nDG0Dm+tHD/alvFuaC1LSelotBScO+9sZZzHkJIksQ5xxi1Tr/11luc8979PQLYysqKlBIAEJEzxjlP07RZT1UsvcVYxWmadnS0MQJic/1JZ63zZz+7cHjkyIkTr742NcUF3366jRStMYwxHxwweOdP3+mu1Ta/3czSlPiQNppWO6utYKKclNFjQCK49M4Fj8boJE6yNAOC5vT06ffe+wdji6JoIWKz2ZRSORfyllYqzvNccAkA3nsKMD4+ntYbqyuPgHKlVJIkiHR9fZ1zubWx9eJFnSAPnkSiRIngTDFCodLWdu7c+SiKW63iwcNvWlnrypUrP/nJOzMzb1y7fj0uJdpoH8L8wuLY0aPXPruxtf3UulBoA4z7gIyLQuvtnR0hJSKZmpoaPTo2MDDY3zew9mSNEs4JwuSpqVMnTztLv75zLzh8++23OedI/MrK8o0b15D4EBwiZYyBZ957DpwCzExPp1mmVAxArl//nBBy5syZsbHxEML8woLgPATDKQX04asvbzEiG/X83Xd/6h0SQkIIXDBtjQseERnj1rg3z58nnl67di148sM3fzjQ188EX1pcMU6/fnbm6tWro0e/hwSAMcoFEuqRACISQoCx3d3dv/6bvxoY6A8hUEqFEAsLC7Ozs9PTb0RR5D2ePXt2eORwYdzMzDnrXV9fHxJAyrSzqlQurCGCEca1s9p6gpBrK1TMibcAIljdVint6+o0Rat/4MDz58/n5uZu3rz5Jz/+sRDCWnv79u3jx18tcs0YMy4Al0yoKJKNtEkAsyJTkdLWUkaAUykk0iCULIoCCKUhWAr0q6++/Mf336MUK6Xo3r27jIFztlIpSckppd77vFUIoUIIjNEQHOew16hHkURAzsEGKyQz3jh0FDAvMsYocAaMEoKEM0pImJ397YcX3v/Vry4CMdev/ubCB+/VujsL3fLeRlFECPHeSynzrCkVt04LwXoP9Jw/f45SIiXL8zQEp5Roa6v86Ed/7IP1XoMPqCJmrWaMAA2zszc+/+21m1/cUBHPixQAh4YOKqXSNJVSHhzoe/PcDKWEESIEHOjdh+iBhOmZM9pkjGOlmnTV2kvlyAdz5sxrKpJAkZjCAyXB24CWAZm7d+fOndnZ2RsXLryPxF+9eoUBEQy6uro459aapBRpk//7f/wbFxAnwrpcckBv26vlf77woWSA3lEMcSQ+/fQS5Yx4T/4fZZTSEAghhHHhnZt87YyzIQScu3v/1NQP8qwlGQ/ezj24h4gTxye896VKKcsyIcTvbt8mhB6fnATCnHNKKRfs/wFCg7pc3T0J5AAAACV0RVh0ZGF0ZTpjcmVhdGUAMjAyMi0xMi0wMVQxNjo1NDozNyswMDowMJMJCKoAAAAldEVYdGRhdGU6bW9kaWZ5ADIwMjItMTItMDFUMTY6NTQ6MzcrMDA6MDDiVLAWAAAAHnRFWHRpY2M6Y29weXJpZ2h0AEdvb2dsZSBJbmMuIDIwMTasCzM4AAAAFHRFWHRpY2M6ZGVzY3JpcHRpb24Ac1JHQrqQcwcAAAAVdEVYdGljYzptYW51ZmFjdHVyZXIAc1JHQiryKm8AAAAOdEVYdGljYzptb2RlbABzUkdCW2BJQwAAAABJRU5ErkJggg==;labelPosition=center;align=center;allowArrows=0;resizable=0;rotatable=0;" parent="1" vertex="1"><mxGeometry y="128" width="32" height="32" as="geometry"/></mxCell><mxCell id="56" value="35" style="shape=image;verticalLabelPosition=middle;labelBackgroundColor=none;verticalAlign=middle;aspect=fixed;imageAspect=0;image=data:image/png,iVBORw0KGgoAAAANSUhEUgAAACAAAAAgCAIAAAD8GO2jAAAA/mlDQ1BpY2MAACiRY2BgkmAAAhYDBobcvJKiIHcnhYjIKAUGJJCYXFzAgBswMjB8uwYiGRgu6+JRhwtwpqQWJwPpD0BcUgS0HGhkCpAtkg5hV4DYSRB2D4hdFBLkDGQvALI10pHYSUjs8pKCEiD7BEh9ckERiH0HyLbJzSlNRribgSc1LzQYSEcAsQxDMUMQgzuDExl+wAsQ4Zm/iIHB4isDA/MEhFjSTAaG7a0MDBK3EGIqQD/wtzAwbDtfkFiUCBZiAWKmtDQGhk/LGRh4IxkYhC8wMHBFY9qBiAscflUA+9WdIR8I0xlyGFKBIp4MeQzJDHpAlhGDAYMhgxkAkqVAs0XeJdIAAAAgY0hSTQAAeiYAAICEAAD6AAAAgOgAAHUwAADqYAAAOpgAABdwnLpRPAAAAAZiS0dEAP8A/wD/oL2nkwAAAAlvRkZzAAABYAAAAEAAhND9JQAAAAd0SU1FB+YMARA2Ja+7PhkAAAAJdnBBZwAAAYAAAACAAJaWOi4AAAnBSURBVEjHJdbZj1xXnQDg3znnd86591bdqup9s93Va9o9Q5K2HUPAxDRL+BcAAcNI88QbSCONRijSSMP7SCAUeEAGBA+ELSxBkJgIJ0QsaSd22r3avdltt9t2L9VV9579zAP/wff4kclPzIL1OU06nZLmqXIWgQjCqQcAWnibptKWnSxBbRSTwkCMkVDjMUCGlRih9NEz4ogFGpAEEgMH7kxcen8FPCHf+eP3wYEkgELoGAmjRpn11bVnZp8ttcpquVIFDZ7Q4J0BZGtbW8aY8/9ydvXm8sTYJEPpgGOaOhKUbkmM4ExVVo8POt/6v+8uLyySr377G0IkKhjrtABijMqqFeMsUO68l0yEEAghPkbOSKREKYVIKPPW6UqWHxy1erqGD48LKaW3SoooSDBFmYt8dvLp//2fb+Luvf2tnbtdZ/oj9dy7mekpB84DOOof7j/0hdnff9zdOxgocJkMDg5Uq/VSHzkoZY6H5vjG7aWu+oE3TLAkBHP27FhLnVSyRFt7/f1/hGDpwl+un+pvYpTIEhX88sZqpNE6RYMd6O25sXC9t96TioQSedjWG7t77Y56cP+hlFybAoh95unZtcWlXFSIY8iypbU7TMiVO+sBvExElnKKjlawEnT0JmRpdXjk9PLKSpZlScQ6Joml3TK3hSsLnde6xppTu3sP+gcHovOSsApgg0p/VNojxRxB4GPNic2duyNnTpdGSy5aR8e0Cunf//xOVaRR+ebwmccPH09Nz1rlpMPfXvlpw+K7r1+TPEkrtfZB697GlraGMZZRKYqQl/TqT37dMHLv1nZOsqjc9saWUipN0zyvn5y0u+u91JHIObeFalTrt9c3j44KRhMaBXqOXpDIKmktaA/GNdKqs3Z69uzaxh2nXUozbpAWNIFUd2xwwJkgngiC1LHyRCey1i4s7Rk7pXhcuvmBL3Xkkmc1ryGN2auv/I5g2js2cRLj0o1F4aKzeuqpyZU7a5MzMw7QWPrqq1ddlMOnJyMmCzduGms5YyIisZDx6s9f+e3t60vUJ7R3pH+02bxx/SaLbHb8bCVmr/zol9bTkbFJL9LB5hjEyD2klG2srXplvHN51kUhVZ6Nzzx74uPQWDMyunjzlow4PTiWh+wXP/wZcwhBkE9/7atHxwcCqCv1vZ1tQbnvmEajuzHQ5yhtDHQ/2L3flaSbG+vnP3xeUWO5a46PQtu/9upro0MTLmCjZ/Cg1bKmONjfg7JVpQR0yJLqYP/oo0eHNBGip9bo7epOKDZIUjW0i2VDXf0JT3v7+q3xQ0Mj1hgE+o+33uHKT/WdxnZ487U3zgyNRSJ7BoZElvT19WRcToycyTznJdZIZaKvOTnSVMcn6I7LPEtjRz9c30EXE4qpSPbWNyefmyvaRVdvt3d2Y/uBiBQIX3lvaePGLWutt2S/tffcpY8fdYqy6ORZpb+aL/5toTvJJ5tjRLvgQlclp86Rr/znfx8dHK7fupUhEuNIiLooMUl9ImbPPdsy6oMPbjIfpybHIwk7G7dRGQTiMQkoDMRnzp8D4mmEpfcXo3LMcbCQcgzBW9dZWV0mZ+dekJIXZUdSyiESEgMlKKQxBigGIAFp9+iIjyETPJx0ip1dQbDtQkCMSAN4iBZCBEc/Of/Z8YkPCVkxVlFiR0/1vvSN/6KSEAG0IhLBOaUUUVgfjFEsBh5C4mMo9KO7DySXplMe7D8ikejSCMpZIFFZYjwPjHv64vyLUxMzPoIy2gcYGB5hUjoSEYinYElQIZDgCKa8yrk2HcrAmrJR6w2FLtv28com5y5qZQLnMgXKOCVOOeTSaSdE9vrVtz9DKp1SJVkWQhhvDuqipEQi57zdPsmSCjDqI8RAtSpkIr3Xkssnjw/zvMEIOKsEJTYymWRKWQiBEAJAP/PJz05OTBdFyWX68svfm5+fV+2TSMIbf/yDEMgoJ3PnLyNhMbJLH7v88MHeraXFWp52Oq0kScpSVSuN4+OTSl7VuhPBCYFa2yRJnHMhxE99+sUzZ5ocJediYGjEufDSSy/V67kypQ9O63Lpg/fROZ9m1blnPoIsO3WqWRTFzs5tIaRzkWNlePi0MVvOOcaY8z5Gkud5q9USQkjJjVG3b69RigSwb2CIMcYYm5ubm3pqEoi/cuX7QCg7dXr8K//+Hz1dQ/d39x7cvy8llmXLWossHR4eYZT39HY/frLHkCCitU5rJQQKwa11O3fvDg+P1OuN9kln5+69K1d+gIijo2d6+3rGJ8YuX35heXUJgQRjVTXNL1y48MYbr62sLhPQIYSx5kiSVIwx3ntCYwgeABijiAQAOp0OIhKGCwsL7XZRrdSVcUIk586dm5mZGRweKIpCSh5CoDH6H//4h8ar3/z+V8uriygIClapJcijdYXWxd17m5SSEI3zimG0TlMGea1ijAEA762U0loLAJcvX+ac3dlYJxQQqQ+WcyRzFz7mHUFWiREEY9p00oQVZRspn5p8amNj0znHJXdeIVJjNGNIKVprhRAhMqNtmuYXn3seRdJuF9VqpnTBOJuf/3hWSb7+9a+xU6cnfIwAERn74he+ePHixVqeb21tEQjHx4chEEQRAoQQndNJyglh3jtKWQjBB+BcOBe2t+8Oj5xKkjSESAn13u/e311ZWdre3iZPn3vBWlur5p//3JfyrGaMWbq1mGbszT/9QUrZOtZSVEIEmeBJZ18m1DsghDDGIVIfARlXylUrdWUCImqtAUKSyScH+909tb//7a9IicjrtS987vMhgLZxZelOltbb7UMgvChtLe82Olrlog9djb6iPBKChRAAIMbofYiBNurdMzNn585/uChUkiSMkVK300y8/PJ3wAfWNzTx5S/92/jYeG9P38K77yljODJGyfb2VoxEKzc9NTs0NJLn+d7+LqEBkVlrAQgyTigjQM/NXbh48XnrYrVaNcZ474TE4ZGh+flPrN1ep8jpaPO01jqEcOnSJYBgnX77nbdjjEmSTU0+FULQWnHBpqenCTBrfYyRUvrP8Vlra7V6q9UKIWhlkQkhkv7+QUThvSeEoNYdhoEBxhi5IEnK/vrONWMVI9R7v7m52WyOc84iuI2NjRCA0Mg5J4RqZZEzxpjWemtzB6jw3gMActo/+FFjDGOsLEv2aH9/aXVx/oVPWeuuXbt67dpVpVqcEwAwxiLDTqf15HDv8ZM9wgilMURPKYkRYgAhEimzWq27Ws2N9YjcGMMFrqwuT09PMsbeeustAgjAyL8+/TxnQpuOTJDG4K0LnlWSui41pRRCQE5LZZIk+SczxghAAKBUrlHvOX/+OSkqhTJCoveWsEAovPnm6zffe/f/AX3PjR53Id9RAAAAJXRFWHRkYXRlOmNyZWF0ZQAyMDIyLTEyLTAxVDE2OjU0OjM3KzAwOjAwkwkIqgAAACV0RVh0ZGF0ZTptb2RpZnkAMjAyMi0xMi0wMVQxNjo1NDozNyswMDowMOJUsBYAAAAedEVYdGljYzpjb3B5cmlnaHQAR29vZ2xlIEluYy4gMjAxNqwLMzgAAAAUdEVYdGljYzpkZXNjcmlwdGlvbgBzUkdCupBzBwAAABV0RVh0aWNjOm1hbnVmYWN0dXJlcgBzUkdCKvIqbwAAAA50RVh0aWNjOm1vZGVsAHNSR0JbYElDAAAAAElFTkSuQmCC;labelPosition=center;align=center;allowArrows=0;resizable=0;rotatable=0;" parent="1" vertex="1"><mxGeometry x="352" y="96" width="32" height="32" as="geometry"/></mxCell><mxCell id="57" value="34" style="shape=image;verticalLabelPosition=middle;labelBackgroundColor=none;verticalAlign=middle;aspect=fixed;imageAspect=0;image=data:image/png,iVBORw0KGgoAAAANSUhEUgAAACAAAAAgCAIAAAD8GO2jAAAA/mlDQ1BpY2MAACiRY2BgkmAAAhYDBobcvJKiIHcnhYjIKAUGJJCYXFzAgBswMjB8uwYiGRgu6+JRhwtwpqQWJwPpD0BcUgS0HGhkCpAtkg5hV4DYSRB2D4hdFBLkDGQvALI10pHYSUjs8pKCEiD7BEh9ckERiH0HyLbJzSlNRribgSc1LzQYSEcAsQxDMUMQgzuDExl+wAsQ4Zm/iIHB4isDA/MEhFjSTAaG7a0MDBK3EGIqQD/wtzAwbDtfkFiUCBZiAWKmtDQGhk/LGRh4IxkYhC8wMHBFY9qBiAscflUA+9WdIR8I0xlyGFKBIp4MeQzJDHpAlhGDAYMhgxkAkqVAs0XeJdIAAAAgY0hSTQAAeiYAAICEAAD6AAAAgOgAAHUwAADqYAAAOpgAABdwnLpRPAAAAAZiS0dEAP8A/wD/oL2nkwAAAAlvRkZzAAABQAAAAEAAg3z4EwAAAAd0SU1FB+YMARA2Ja+7PhkAAAAJdnBBZwAAAYAAAACAAJaWOi4AAAm7SURBVEjHJdZbc1XnecDx53ne01prHyR0Bp0lwBISAmycuEPjARun09zkpvkGnWlop5P2qlfJ1O10PL7q5Cv0Kk2nzQGPnRiwo6R17IIxRlCQBDpx0AmkLe2911rvuRf+Bv/5Xf0ROKCDC2/8yUHRjlUZRDS6KZVwwQKQMVBRlZCXqUpK02aJtDF4wOAiACYyxeCdNQwQERkRRAwQjXcoWOlKkQgODM5869xf/uhvRFW1yRgwQoWFhbtzc3NlqSu1btu2wkeCaIMGjsura9qaudkz9+/fn5iY5JzHGFOVRBfzdjOVijEKCEAx96VQCif//PzE0PGz518rXGmjAe5lisboGGNwIKkSPBBijJ5xQIxlmXPOicham1Rre42DI919BwcH0cXBowN725sEgUnmQ/AEnEl+UGrsrC08XWu2D1UCo2PHWkVBBBLl1u5uaL/Y2nnZ2d8TMYoEjw30VuoVXbRjiEklaen2vaWHHUf2rAtJkiw/XT93etrZwnmb1DPdKh4tPiIMnJhqah0UByUeb6zJLOVSQIyDRwYWbn7dX+9XsuaZ2G+3V549a+bF061NkXBtcgL/6uzs0sLDmqwGB8TE/ZVlx3F5faVdtCsyOzXxCiVRSs8TpjjnjUZjbGJibW0taK+irItqamWXrLu21bmt17rGxieebm/2DfS7YBnDlKjOVWzkYb+UhilSw8MjiyuPRibHCci0SmaQOr1iBxZbLvHs/NlzGyurQwNHJTDl6Bf/9vPMiy+u/08HZl2q1tw/WFvbKKwDLoQQ0Rph8bc/+2WnkTsL6zUtpKadZ7tOe8klj6yDV6794iNa+PzOg/+9080ryuDi3UVBIkElUVBgGAkiz7Ka1x507Mjq1vqp6dmllVVtneAq+uh0kKhs26KhCmahZWoyQxN5ZK4M0ROBjwnJr//7ZsWLDJUrPY8ievrZv/8nqaz3+Pihs1/dvpuJ1LbszMmZ5aXVk6/M+sBLB7/64COLrG9szAl5Z+FBcCgD5xqSoMjz//r1hyURzZ17bWryRAXEwmdfUY5zE3PcsF/+/NdSZT1Dg+3oh185yQR3hU1QbSyuh8KDho6sU4DUPk5Mnzr0oX9izDN2+9ZtYej1yTPx0F79jw+IqcGJCZw6e+H7l7/38MGD3b3dJjMt2wLuSbKjQ6MG6Ujv0P6L/cTB6vLSty6c10GDovGJYVe2rn7wq2NDYy6Izq6hg/02N7C9tpJFLcD56Bznad/RtOsIZdWKsWVFZgNHBrAValBJfTrSMwIBB/qPaVN2dXU55xIm7t28k3k62TsimuEPVz+Z6Bvjgff1Dsg06enr5oKmJk8oR1xj4lSGaS3t6OrsZptPt7x152ZfazXzoWNj3fWu3c2dosgnJ4975xKRcMCnj9eitehcY2v3ycOVR/ce2LxsHxanZs6Upda5yZiokli+u5AB4wEZcW3DQavV3dWFwNKZqTnFa6mstRo5MFBVplF77s5++9V2Xt5ZuMeIjwwOUYxPVx4nLhBgFOgFlRjOvHYegCjC/91eQOtViJyxdlmQVJoiSIEos9Oz5/76b//BlMQ8AQBKf/f+rT9+8ftCtypp1QF2Dw9aCPV6vXzZaK0/k4TNYAInYIQhMh/JxxCCSFTuXOl8WslGhoafrW8469np02ffe+/9gNLYqLXljDkwPT1dlVTtbu5EG5z1h61mR2en1eXu82ciBKsNCRkjCzYwhypy5iNDiACBiCk1NDLivaupis1LLoQKASRjfd2d81//ATEGckSRiOvSVbMaGoPG7q1sABoRozW2UqkbG6MHCurU9PT9hXuVSs26HGMMZZFUK89XVoaHR0kI6x333uetvKd38IOrHwFAiF4I9vHHv1WCpWltf/9QCF5JpQ/GapNkKiqltY6BMZBT0zNGu7Gx8e3tLSRhbFGvVHWprTYvNreLouSccyb4Z5//MXgeAzkLlWr60YdX/+7vf1QUBWOsmlVv3br15c3PIaKUylormDRGp0ktBK91LmWikhpjsLq+kqZpUZSMsc6OrsNWs1qtGWPY5vPt0vgnG8/XVtf39hqLSw/ff/+9NE2cc0VeOuP7+/uUkBsbq4xFBPTWCyGRMEZoHOynWYIUuWCHzWY7bydJarQNEBEAYowhckAeY/zhD//KO7h/b/HzLz7TWhPD7iNdEMBpJ7hgyKKHQBBjjEgyUa1mzjlnjD19vjF4dHB7ezfGqGTF2iBlEoJTSrVarSRJ+NzZs++++641uLuzJ6X03mdZpk2JRLdv31ZcAQARSZn4kHPOgoci10iRC0IMRaF3d3eKIhcyc85fvHTpxIkTaSZ++tN/zSoJY4yEEERUrVYHBga894hYFkX04dq1a1mWCa6MdgDkvUdk7VYRkawPQgjEmOftNJXNvJFVM+/922+/jZEtLy4b465cucKRWgcN1t07ePnyZWN8DLCz82JpafH3858yxohIaw0B0zT95MZ1xsg6Xa1WrA1pmnhnQvCMUYwxSZKysIzE6Mg458IY2zhonD13Zmh4aGnpIeecIyIRfXLjU4z8Oxf+9Ksvv/j0+g1EBEDBZIwIAN/QtduHSMJai8AAYwjhm70gEgAwPz//5psXkyR56/KlCGZ0dNRazwaOjed5vr76TEolOGeMHTva/+TJhhCiKHJG3DmrlGKc2vlhtZoxwRHRaC2ldM4KIUIAKZMYEIA2Np709vY+XHwwMzvzk5/8OBIh8M65uTnBqs4FU1ohmGAQwWOEJMleP/8GETnnfjd/LUlZWeZEnDEGEDjnPlgE5oyPEbhI3/j2hZtf3iIiItzbfyGUSlLJZufO//M//cv01MypUzOXLl56/fXziRLPN58xoh/84C+Gh0devnyBCCqRrdY+UkRgjDHGuDE2BkRkSirGRIwwefx4b1/vkycbxpi0Wn3rrbcfLC7xNKl47490dhKwotWO4KenThL6+fn5ra2tNKmur68DRsZio9God1Q5cmOMte706TPee4i0srLivSfOGEOp+HfevOACIOLg4NCVK1d4s9lMkoSh+uTG7xRXSJGz8E3k9esfX7wYuGAx+scrS1klidEfHjZ7e/qHhkbbraJared5MTg4srOzXZr2b37z4eXvvoMIUydPIonR0XHvLRsZewUR7997wJhMVaJNCeBv3LjOCISQi0uP9vb2Wq2m1gUXZK2pVetFXj5/vjUyPG5NIGTraxsxei6IGDx+/Gh8fGxn9+X09IwQSbtsI0B97tyr3mJnR8/+/n6WSCKIwQKEEAJjAhGttRFsmsqyLAmRkBMJ7yIAxRiJIIAP3JlgSaA27p13/iwGvPzWd//x3R//P77jedUawWDXAAAAJXRFWHRkYXRlOmNyZWF0ZQAyMDIyLTEyLTAxVDE2OjU0OjM3KzAwOjAwkwkIqgAAACV0RVh0ZGF0ZTptb2RpZnkAMjAyMi0xMi0wMVQxNjo1NDozNyswMDowMOJUsBYAAAAedEVYdGljYzpjb3B5cmlnaHQAR29vZ2xlIEluYy4gMjAxNqwLMzgAAAAUdEVYdGljYzpkZXNjcmlwdGlvbgBzUkdCupBzBwAAABV0RVh0aWNjOm1hbnVmYWN0dXJlcgBzUkdCKvIqbwAAAA50RVh0aWNjOm1vZGVsAHNSR0JbYElDAAAAAElFTkSuQmCC;labelPosition=center;align=center;allowArrows=0;resizable=0;rotatable=0;" parent="1" vertex="1"><mxGeometry x="320" y="96" width="32" height="32" as="geometry"/></mxCell><mxCell id="58" value="33" style="shape=image;verticalLabelPosition=middle;labelBackgroundColor=none;verticalAlign=middle;aspect=fixed;imageAspect=0;image=data:image/png,iVBORw0KGgoAAAANSUhEUgAAACAAAAAgCAIAAAD8GO2jAAAA/mlDQ1BpY2MAACiRY2BgkmAAAhYDBobcvJKiIHcnhYjIKAUGJJCYXFzAgBswMjB8uwYiGRgu6+JRhwtwpqQWJwPpD0BcUgS0HGhkCpAtkg5hV4DYSRB2D4hdFBLkDGQvALI10pHYSUjs8pKCEiD7BEh9ckERiH0HyLbJzSlNRribgSc1LzQYSEcAsQxDMUMQgzuDExl+wAsQ4Zm/iIHB4isDA/MEhFjSTAaG7a0MDBK3EGIqQD/wtzAwbDtfkFiUCBZiAWKmtDQGhk/LGRh4IxkYhC8wMHBFY9qBiAscflUA+9WdIR8I0xlyGFKBIp4MeQzJDHpAlhGDAYMhgxkAkqVAs0XeJdIAAAAgY0hSTQAAeiYAAICEAAD6AAAAgOgAAHUwAADqYAAAOpgAABdwnLpRPAAAAAZiS0dEAP8A/wD/oL2nkwAAAAlvRkZzAAABIAAAAEAAi4j3SQAAAAd0SU1FB+YMARA2Ja+7PhkAAAAJdnBBZwAAAYAAAACAAJaWOi4AAAljSURBVEjHXVJZb5zneX3e512+ZRbODBeLy4gzXCRKVulUVK3UKNIqtmX4H2TRRQv0quhFf0DTBkF/QoEgdwF61frCUdVEsWsXMBXESKIqkiVKpEhR1GpSpEiRM/Mt7/I8vXBhpD035+4cnEWc+PPT5ENNmkE/x1ql8EExGiGRGACyYJM0cnmWRqa0hTImMAcWjlgwpjqWgclaRg5SCKkEC2Ym51Bjj4rUROLHH/2UA0UClDEls5BoC7u+dv+N09/IyyKt14oiQwoCKXiLSmw+2Mq9Pb34xsrKyonpuUgqJI7iOAfqZ/1ExwZRMpHkHhWJroi//ee/VyYuyDpfGhDWFmm1Yr0D1D6ESBoiEkIEZi2FEGCLvlIIEkvv6knt4OBwuDW23zssmCcmj+1v7yiiRMrAvlSgZKyePNvZevS0eXyMMejgF07Me/ABwGPYebETMvvixV5r5Bgh6Cg+Nj46VKsV+ZEnH6dxrxysrK02mvsFEVbi+88enT3zOts8dy5N00E+uH9/XR5JODl3hiWilqXLD45etoabpc2lgEqc/uq/lrvHZ+KkElge5rZX9NNYb+88a40MWVtoxvGR8d98fn1qsusCB4CD3suhVm1z836tUk1N2qqPonKyoipUcrCUJtWJyfa91dU0TWNWQyqOHbaimst8npW1erPbmX+6vT167LVAzqCIEWsqCq8K2i+Mk7GI2u32+oONzkwXQdieNYXAqoh/+9mvqybhInQmju/t7M2fOO0KH3n1Hz/9t4ZT1/9zOdJxUqn3948ebz7OnSetlI7IeePEL//1Z0PObK88qpY6LnH36QvnglaRBDWkKp9+eBWZWWvtsqJRHdpYf/jqVSYxRjYqaBWMYFlJ6lQGsL6RVIMNC6f+aH3zkbXeqIiIvSUDkes7LDERqR/4qq6yA8k6FCScwpHOVKH57he3Q16yjnRaDyUknF7+4OdCJSPd2R7z3Vt3jGfvyhMn51Y3NuZPngmkrIWfXblqhRzpzngd37q9JjzKEpKgDRlg+eG/Xy0DIxg1Mjk23encuvGFZHl65lSF0w/+5UMXcLI7F0xyrNMFZh0gQflwbZ1yghIaSVOKuAyic/r0IfnR2Y4TcOP6zdG4OTs6rUpx5YMr/cwtvL4o3vu7v3l5tG8AfV4+ffzIoA4D22i0Gq+NesTGa60vnz1vxsnDzfWl80slUJCiOzMNWf/nVy6Pt6ctq/pw+9VBVsNo9cb10aoWVAYBToip2YVyYDHSZrjeGGm2YlQNEVctNmU63hyLdTIyOuZsGB+fdNYqwN9d+7WyYX6sHfX8tSufzIx1FOmRsXGVxsNjw3menV86hyVop6RHcKClmZyclN3FN2omwcw9XFmTJSUgqyZ5uf1ivN0unR1qNCWIrTurmgAA9nf2nq5tPri9SoMiO8oWzizmhcvyoiJNQ5m1G79PUXrnpDZCRy929ibHjsm3vv1eftC/f3ulqiPDAhmyXk8bs//qYLp9fNAf3Lr+3xB4Znam2Wod7e9D5rUHIzVKtfXkyWS7nSitiNdu3EylKkqb1CrDUxM6Tsj5vefbYuHsn8UmyvJBhKiBhWBCoUxkrQVUBIIUtqYnA1NqtO/nR0+eR0KWzpJCr5GYmRmJoQhK69Ko8blOr8yb9QYc5Y/vr8vJiW4klURUEhFYKV14zxwkswKhSZTWDYqiMTzss+zgxY7y7EqvlGYQwQUkiEGqABUTBxZWcLVeV1qTc6KwXJRyfGJSS0Gh4EDBgdaRkYackwjOlbXqEHsIZSgODkN2yEVupCEvUCAFSuMklGGuOzvoFcDoSheryPbzKsqqUs821xUK2Z7uZP0s0olELUChkGWeR8YwBa300WGWxhUtlPDOIAAFwdK5EEURCsz62bmlpTwrq5X6q4Oektpbiz6QLXsv9wA5BI/eQxLXic1bb719Yv71PHfVat2WXquKLUVjaLTfKxAVkyhykhiHwHFifLCBnDE6z/MkSeI4npubQ8RKpcLMFDgEpsASFXpHWifn/+RbSqZTU51uZ2YwGBgTec9aVSYm2kmSeu+llACCSQohtNYhBCJKkuTevbvOlYEcIg4GAyGEEKIoCgDQOgIAOdWe/cu/+uvh5vjzZ9tfPn8eRSrPj5xzSiYTE5MS9fBIa+/ltlRCKeWclyi8t1KiEOC9Z4aiKNK0srGxmSTJIMuSJCEmrRWgyPNcgSDrimpSO3fu3Cef/GJ17Z6Akoi6nck4rlhrQwgCmSgAgJTIHEIIxhhrLTNEsR4MBru7u1KKvCzef//949PTSsNPfvLj0ttKpSaPTUyt3FlZXDx79aNfbGzc00ZIyXFqmo1GIF8WxfMvnzAQsQ3ktJGBvNKKiYhIa2Wt0zoaDLIoTi5c+HaeFb1+r9lqfmPp7J07t70PcnziuHPh5s0vXh0eRFpbVxgjB1n/4OBguNV6/OSRc1ZpxRyMUdYWSmlmDv5/Q2htgEEp5Tx1Ol0GCCHs7u+fWzo3PT198+ZNOTU1H5gAWEl56XuX3nzzzXqttrW1JYAODw+IhFKGCIjY+zKOIyIGRiEFMaNAZgAWACCE3Np61Ol0tdbvXHyXmaq1+meffYbWkXM+ivSlS5eq1ZoAVeT0zjvvIaIxxlpPASnIOKqFwN57+P8gEAQAQrAQfO3atcFgcPnyZaXMj370T0IIhWhqQ9Xvfee7RFA6Xr37IE2G+v0DEDrLXb3WsiW7wnOgZmM0y4+A8WttFl8RgGBg/uY3//R3139/69YtkLi8vGziKI4NBubvfuf73e7s/NyJjY0NG3wgikzMhMCy3x/MzswvLr4x053rHWVMAgAB8A9tvkYURUtLZ51zWZYNDTUuXryY57n44/Pv/uAH/xhsiEzsLX/88ceRlp9//qvgiyhKJo9NozBEoDSQyB5s3gcQAAxAAPBVOcAIgELghb9417ogBHomIUSn241ig6XNpCJjFDNrI+JE/ua3y9ZlABBCePjwYSCnNDHYzc1NIgYAgK9y/N8piK5+9EtEBIkLCwunTp06efJku92Wu7vbd9fuXvjW28755eVPl5c/LYojrQUAWOuUVIPB0cuD7b2X20IKxD/UZRBf+wmlNaJ68GCz0+3s7u4unDqltc6LXIACkPLM4nktTVnmSaRA+OA8BVmJh8q8REQgUhqL3EZJEjwDAIjw9X8AAFiBUCGwRF04+87Fd5n57bcv/PCH//A/AmFvNNBpkygAAAAldEVYdGRhdGU6Y3JlYXRlADIwMjItMTItMDFUMTY6NTQ6MzcrMDA6MDCTCQiqAAAAJXRFWHRkYXRlOm1vZGlmeQAyMDIyLTEyLTAxVDE2OjU0OjM3KzAwOjAw4lSwFgAAAB50RVh0aWNjOmNvcHlyaWdodABHb29nbGUgSW5jLiAyMDE2rAszOAAAABR0RVh0aWNjOmRlc2NyaXB0aW9uAHNSR0K6kHMHAAAAFXRFWHRpY2M6bWFudWZhY3R1cmVyAHNSR0Iq8ipvAAAADnRFWHRpY2M6bW9kZWwAc1JHQltgSUMAAAAASUVORK5CYII=;labelPosition=center;align=center;allowArrows=0;resizable=0;rotatable=0;" parent="1" vertex="1"><mxGeometry x="288" y="96" width="32" height="32" as="geometry"/></mxCell><mxCell id="59" value="32" style="shape=image;verticalLabelPosition=middle;labelBackgroundColor=none;verticalAlign=middle;aspect=fixed;imageAspect=0;image=data:image/png,iVBORw0KGgoAAAANSUhEUgAAACAAAAAgCAIAAAD8GO2jAAAA/mlDQ1BpY2MAACiRY2BgkmAAAhYDBobcvJKiIHcnhYjIKAUGJJCYXFzAgBswMjB8uwYiGRgu6+JRhwtwpqQWJwPpD0BcUgS0HGhkCpAtkg5hV4DYSRB2D4hdFBLkDGQvALI10pHYSUjs8pKCEiD7BEh9ckERiH0HyLbJzSlNRribgSc1LzQYSEcAsQxDMUMQgzuDExl+wAsQ4Zm/iIHB4isDA/MEhFjSTAaG7a0MDBK3EGIqQD/wtzAwbDtfkFiUCBZiAWKmtDQGhk/LGRh4IxkYhC8wMHBFY9qBiAscflUA+9WdIR8I0xlyGFKBIp4MeQzJDHpAlhGDAYMhgxkAkqVAs0XeJdIAAAAgY0hSTQAAeiYAAICEAAD6AAAAgOgAAHUwAADqYAAAOpgAABdwnLpRPAAAAAZiS0dEAP8A/wD/oL2nkwAAAAlvRkZzAAABAAAAAEAAjCTyfwAAAAd0SU1FB+YMARA2Ja+7PhkAAAAJdnBBZwAAAYAAAACAAJaWOi4AAAm2SURBVEjHJdTLc1fneQDg9/3e73LO+d0EQgJbEroQsOtLSmI7YMA4jvDE0/F070w2zaKZ1HXqZLpoMmkax46TLtpVZ9pt/4DGnU49xWCQEZcMJq2xJcDohgRIIAGSftdzznd7u/Af8GwfBKWe+vqhv/rhXzvLqc7yPFdSzM/PXTw/BRCD91mWddsdIWSSJL60QgAiBuDAUQgRIQZwLMEJn7NlAywQI0tGHSB4hwe+9a1/fOefE1VZWLgFASRprajTaS3MX7t06QJCFAIJKQQmppGREa3Ie3tr5XaAgCQsWzKyEzo/f+8XeezNzM386TcPXp+ZHR16fFe14ZyTUmtk2NjYGB4evnf3XrvdzlKjlNIqISJnnXNRACmlxvZNROd9dID8tYnxucW5GBm12Myb7/7Te5f+71JS1UrJazOfWWtXN9YWby8xkizLMsZYr9e11teuXatktbzXAYgcrHOhktXyoiuFcjYsLS1PTIxFjlLIpYVFANBadkKR1iqXP7tyd32VmmL3YD+g15lpl11dTW/eWBCJ1oRMyP/1we+1VO1WKwQmUllWiTF2el2pTGmtTkzguLB0a35p8cuFeRc8IjrntNZ50V1fX+/aoufKxbVlTPX1hTmR6e1ee2L/ASkCnzp1ClhWKpW8W6RpBRGtLU5+fPrtt3/ig83zbjWrXL36xcWLf1BauyC0lq6bKyJN1Mp7mmQsQ61Sb8fexP4DN5cXR/eNuxgTnZBjBDQHv3FYq8x75kiI5JxD5N+8+06M7t791Rg9gDDGfPH57NT0OSRAZA1CIOatjskUVdWma+9/8ZkW5TETAcLY8HACok7mg3//vQQAIcQbb7yRplVnGUDcvn379OmPlFLW+hs3bggBzBhjFCillAHBOme0dqWtV+qI3HzUrPSlOsh6Wm1BcCGvJHVlo9/OKyKhp58//Otf/mpHX3+73QWQzoZ2uzM/Pz99bsp7xxCJhHOWSE5PnweBgXlycnJo99DY3vH94/vmb84n2kTg1Y31voFdAinTSSYSWfIn/33KlUyPjU4cP/KSVkmj0bf5qJmYNE3TgcFdK8tL8/M3N7cezc7OtFqtu3fvOO9Iqh/8xQ8GB3ZvPdhUKIPzWqtHzS3rPUq6d//+yONDY4/vzUCd/fB0zOPesQkZAUjJvCwkmaWlpeBZEITgjh07cvnTS51OS0pR5F3vPQBwEIsLC/u/9sTa3VXJKKW0kYU2hnTPdVMWcxc+W7oy02q1kizds2ckCimcC8YYY8zU1BQiWmuFEMzsvT9y5IgxqlqrIAJzNEYDu+mpqVvzc1JEwFi6YnVjrZP3Wq2WUUo61CVg2+6u7lSgAWlg92MIpu+JJ578zivfBSZfxnqtL4YgBAjwJz/6EMEniXLWpmma5zkJhUTeBkOGiHqlZYGkSSqRd1uZ0ZLZBd/znhPlE/3E159BEJUXj7/cauaSjJFpWThnrRBAGKo1E3xZlB0tlbXWGAMgpJR5nnPEar3e6eZKKeZQ2qKSmG6rWavVCmdFoh2JrbJQaSJBys3trR/95VsClUQdPAvEhYW5C9Nn2u22wKiNJhTGKA4OADq9Vv/AwMOt7U7Z8hDBu0RpQQTBVxvVTtkTqWm7YmRkIjx40Gl16eBzR3/9q/f6Gv3NZgeCCCFoIxv1albN7q7dSYzJi5wjoEAiEZnTxGy3tpO0wiAEgyIZrUOOHNkFB1I55n0H9nMMWWLYOskWMEilkuE9Y1PT55iDID/9yZQQAACFjUm6o+h1QCAQC0ml81qlroxZWttub+uKIi2dL2OMUiYxRARWUTlXPNpYiz5IkyglqSzL89MXnbNJoj86deqtH79ZliURSVB5XlYr6c2b10+d/jA1BIKkoFBAmdvnv3no+vVZ5ywzkyJrvSCZkLqztOJCiSIgBBrY/Viv6K6trSGi9eXlTy+9/9t3lVI2L6pZvSi8VhVg3NHXv6Pet7KyIomKvKdUOj42ESM3GvWtrUdJYiKHarVWWg8AgOC8lUrEwPLq/15J0rS53TOmYtKs3W6VZVmppPrx4aXFW1rVOTAKUoKAFbL0viAi5qCUKksHEJ999tnZ2RnGuL29Xa31tVqdiLFer3V7W1prCQjdIn/zx285y8vLK2fOfIyRfWmFUMvLy6nua7c7qU6DL32wUkofECUJpIWl+eHhvVIK5xwzA4okMd1u3mg0Wq1WWVqtM2sL8cLho++//7vBwT2IwlovpdJaA4hz56a8c91eu5qlRd7JsiRJdFH0SKK1hdYqz/PV1VUp5ezsrDFGa83Mk5OT33vj+2//zU/LXhkDGJNSrTF44sTrCKqvMbC8uLyyvHL+/Ple3vXWVSpVicgxeG8R/cWLZwVxiKWQBExCyBh5a2tTEITovQ/Hjr0kQN1fu9+/a9fx4y9d/sMlBJaVrMEMwaOUApFePv7K2amTVy5/ioi+9FJIAKEU5UVHK4hgEZEk2cICk1ImBCdIMLMxGgCYuVqtzszMvPbad998861//bd/EQAAAErQ9NQn3vsY44nJSYgxeq8VxRiFELYsCcVXPoQQQiAiIvLefzXjVzleuHABAELg11//cyI5OLgHQdDw6MSDB5sPH2yUhRUCs1TZvDcxMbp65461jkgdPXps38T42NjYysoSCdBGAZAtg1bG+6CUjNFrrZgBmG6vrA4MDH5588unn37ql//w9ywQAdIjx7/daZdapcF7AI6+0FIxM4A48cprIyOjN27cSFNza3nuzt2l0veICFhJ0iEwIntXMASpzOFDR6/88XOBWgixufVQJTJJtHz+0At/97O/XVpYFUBJkuXd9uqd22fOnralz7Lq2NiY1sm9tXWTUJpWnPNEiggRpC0tgCDCJElijIHZGPPccy98evmPIYRao3H85aMnT/0PDe4ZOnb02MCuPWWvKHpFaky9UalWK+1ms9XsfHb1an9//6PtTcA4c+1zbaSS5J0vC//MU8/u3LFr546dm5sPQ/CCaGJiH6AcHR0bHt07MjK8d3Tk8IuHpESZpfWi6774fNYoA8h50azVquvr93fuHPAOPvjP/+jb2Zfn3TSTALHZbA4M7B4eGu92utVqvdfrDA0NbWysF9aePHnyxKt/hiCe3H8ACUbHhkMoaVf/MLNcvbNuy8gRjNHA4eyZj7MsQ4ROp12vV6zrkYwBCmZfrdTynl1b3di7d8w5JwSurNxijlIpIWhxcXl8fHzjwcM/eepJpahbtBFE/ZmDBwUL0oqZgyuVZEKOnqMPRqaM6L0PYJNMl2UuQArUQqjgGQGYgxAYIYBAGwOSLrx/9dVXmcPk5Hfeeefn/w9LBaJYHSOaKwAAACV0RVh0ZGF0ZTpjcmVhdGUAMjAyMi0xMi0wMVQxNjo1NDozNyswMDowMJMJCKoAAAAldEVYdGRhdGU6bW9kaWZ5ADIwMjItMTItMDFUMTY6NTQ6MzcrMDA6MDDiVLAWAAAAHnRFWHRpY2M6Y29weXJpZ2h0AEdvb2dsZSBJbmMuIDIwMTasCzM4AAAAFHRFWHRpY2M6ZGVzY3JpcHRpb24Ac1JHQrqQcwcAAAAVdEVYdGljYzptYW51ZmFjdHVyZXIAc1JHQiryKm8AAAAOdEVYdGljYzptb2RlbABzUkdCW2BJQwAAAABJRU5ErkJggg==;labelPosition=center;align=center;allowArrows=0;resizable=0;rotatable=0;" parent="1" vertex="1"><mxGeometry x="256" y="96" width="32" height="32" as="geometry"/></mxCell><mxCell id="60" value="31" style="shape=image;verticalLabelPosition=middle;labelBackgroundColor=none;verticalAlign=middle;aspect=fixed;imageAspect=0;image=data:image/png,iVBORw0KGgoAAAANSUhEUgAAACAAAAAgCAIAAAD8GO2jAAAA/mlDQ1BpY2MAACiRY2BgkmAAAhYDBobcvJKiIHcnhYjIKAUGJJCYXFzAgBswMjB8uwYiGRgu6+JRhwtwpqQWJwPpD0BcUgS0HGhkCpAtkg5hV4DYSRB2D4hdFBLkDGQvALI10pHYSUjs8pKCEiD7BEh9ckERiH0HyLbJzSlNRribgSc1LzQYSEcAsQxDMUMQgzuDExl+wAsQ4Zm/iIHB4isDA/MEhFjSTAaG7a0MDBK3EGIqQD/wtzAwbDtfkFiUCBZiAWKmtDQGhk/LGRh4IxkYhC8wMHBFY9qBiAscflUA+9WdIR8I0xlyGFKBIp4MeQzJDHpAlhGDAYMhgxkAkqVAs0XeJdIAAAAgY0hSTQAAeiYAAICEAAD6AAAAgOgAAHUwAADqYAAAOpgAABdwnLpRPAAAAAZiS0dEAP8A/wD/oL2nkwAAAAlvRkZzAAAA4AAAAEAAPBfiSQAAAAd0SU1FB+YMARA2Ja+7PhkAAAAJdnBBZwAAAYAAAACAAJaWOi4AAAiFSURBVEjHlZTJb51nFYfPe97hG+69vvd6iqcbD7GdsQlto1YqoaJqpf4L0EYCJDawY8+fAVuExAq6aEsoAXWQmlZFLSE0TZzYGey4mWzH8Xjv973fO5zDIq2EkEDhWR3pbH7P0U9HzH7/KHhqSNPrltio2RAVoxESiQGgiC7LE18WeWIqZ5UxkTmy8MSCMdepjEzOMXKUQkglWDAzeY8a98kmSU386v3foIdEgDKmYhYSnXU3l26cOvadsrJ5X8PaAikKpBgcKrF8+04Z3LGTpxYWFuYnZxOpkDhJ0xKoW3QznRpEyUSS98lmqk/87Ne/THRqyflQGRDO2bxec8ED6hBjIg0RCSEis5ZCCHC2qxSCxCr4vqyxvb070D+8tb9rmcfGR7bW1hVRJmXkUClIoabu39tYXb3bPjjMGHUMR+bnAoQIEDCub6zHwm1sbPYPjhCCTtKR0aFmo2HLvUAhzdP9qrewtNhqb1kirKU37q8+d+I4u7L0Ps/zXtlbWrope0LMzx1niahl5cvtvcf9A+3KlVJALc0//ejC9MGZNKtFlrul27fdPNVr6/f7B5vOWc04Ojj6+d8uToxP+8gRYHv/cbO/sbx8o1Gr5yYfbgyjClhTNao4Osqz+th45/riYp7nKaumSlOP/UnDF6EsqkZfe3pq7t7a2tDIgUjeoEgRGyqJO5a2rPEyFUmn07l5+9bUzDSCcPtOVox1yL74+LO6ydjGqbGDm+ubc/PHvA1JUH/67R9aXl18/0Ki06zW193a+3r569IH0krphHwwXvzl9+80vVlbWK1XOq3w0b0N76NWiQTVVLX33zmPQbDW2he2VW/eurmys1NITJGNilpFI1jWsj6qIrjQyurRxSNHn7m5vOpcMCoh4uDIQOK7HivMRB56oa7r7EGyjpY4Ig5MT1jN1766EsuKdaLzvlhBxvm7b70nVDY4fWif+drlqyZw8NX84dnFW7fmDp+IpJyDd86dd0IOTs8EnV6+siQCygqyqA0ZYPn2H8/byBgTNTg+PDk1dfnSV5LlsZmjNc7f+t3bPuL49Gw02cjUNDDrCBnKlaWbVBJU0MraUqRVFFPHju1SGDo05QVcuvjlUNo+NDSpKnHurXPdwh8+flK89ouf7+xuGcBQVve+XjWoY8+1Wv2tA0MBsXWg/+H9B+00W1m++fyLz1dAUYrpmUkouu+de3e0M+lY9Q10draLBiaLly4O1bWgKgrwQkwcOmKLClNjBvpag+3+FFVLpHWHbZmPtodTnQ0ODXsXR0fHvXMK8O+ffKZcnBvuJPvhk3MfzAxPKdKDw6MqTweGB8qyePH501iB9koGBA9amomxCTnzzKmGybDwKwtLsqIMZN1kj9c2Rjudyrtmqy1B3Lm6qAkAYGt9897S8u0ri9SzxV5x5MTJ0vqitDVpWsosXfpnjjJ4L7UROtlY3xwfHpFnXnm92OneuLJQ14lhgQzF/r42Zmtne7JzsNftXb74D4g8c2im3d+/t7UFRdABjNQo1Z27d8c7nUxpRbx06ctcKlu5rFEbmBjTaUY+bDxcE0effTlJdFH2EkQNLAQTCmUS5xygIhCksH9yPDLlRoduuXf3QSJk5R0pDBqJmZmRGGxUWldGjc5O7Vdlu68Fe+XqjVuYCGEAayY1WiOiUsZHcs5KJk2URqaienT3YaIT1yu3NtaRwVqLUgMjVVF4NiR0hEaWCiEihxBCkiSuLMn5epbJkbGOlkDRcqToQevESEPeSwTvq0a9yQFiFe32bix2qSohCqkNEQGiUioSxUA6SZ0PQsngXCzsYFY3gbYfPnKFlZ3J6aLbS3QmUQtQKGRVlokxTFErvbdb5GlNCyWCNwhAUUojBJIAZmYigZjneV+raV1FzBqVZlHs7O0+3uYQEpNg8JClfcTmpZdenZ87Xpa+Xu9zVdCq5irRag519y2iYhK2JImpYCQiABBCMLMxptlstputA0PDgiFUjplDCIhojPG+kkPDE1naOP3cdxNTa/Y1KYbNzXVjTIwgMT14cKrX60WKiEBMiIqZKEalFCrJRBJlYgwD7OzsWGu1UkqpEIIglgKJg5zoHPrxT3460B59cH/t4YMHSaLKcs97r2Q2NjYuUQ8M9m8+XpNKKKW8D1JKoohSsoAQAhGFEIpub29n1yhttGZmiMTMwCwVIgA4b7MsOX36tFRicel6UfRC8J3OeKPREMgxBoFMFGMMUiIAISJHgkhKIDB756y1eZYlxjjnyrI0xtRqNUSMkeXIWGfh6tWTJ587/9c/37p1XRshJae5abdakUJl7YOHdxmI2EXy2kgmFogAQMxSSomIIKSSEEkAALNg4EjBByZS0ohnT38vBlayxgxGysr1slQWZVehnps9vLy8EkLQiQ7RKoXOVVJopUyIkYiUUpGJiKSUABBjlFJKKSlEIkIhBCo5MTEbmQBYSXn2jbMvvPBCX6Nx584dAbS7u00klDJEQMQhVGmaMAEziG9bJABQCGAA/mZgoidbAGAGdJ68D0miz549W683BChb0muvvf6kZ84FikhRpkkjRg4hwLcIeCoQ0TSaA2+8+SMWWHm+fu12njV7XQ9CF6Xva/QLMN6i7VG7NQQgABDgSeL/yr9tSUXmH/7gzenpaRTyow8+djEYUolJmRAYut3e0cOnpDTW9m6vXkEpxVMm/0aTUGmcnOpUVUVEZ86cASAfqk8/+5SZ0zSfmz1MRFVltZHz8/NCyP+d/T88AAAr15WKjFHMrI1IM/n5FxecL560YmVlJZJXmhjc8vLykyfx9DCgfPRo/drSwisvv+p9uHDhwwsXPrR2T2sBAM55JVWvt/d4e23z8ZqQAlE8tcCTE6EABSDliZMvKmUq10sSJSCQJxFknjSr0iuBEYLSWFqbZCmF+H8YCPwXkakPhHCkiH4AAAAldEVYdGRhdGU6Y3JlYXRlADIwMjItMTItMDFUMTY6NTQ6MzcrMDA6MDCTCQiqAAAAJXRFWHRkYXRlOm1vZGlmeQAyMDIyLTEyLTAxVDE2OjU0OjM3KzAwOjAw4lSwFgAAAB50RVh0aWNjOmNvcHlyaWdodABHb29nbGUgSW5jLiAyMDE2rAszOAAAABR0RVh0aWNjOmRlc2NyaXB0aW9uAHNSR0K6kHMHAAAAFXRFWHRpY2M6bWFudWZhY3R1cmVyAHNSR0Iq8ipvAAAADnRFWHRpY2M6bW9kZWwAc1JHQltgSUMAAAAASUVORK5CYII=;labelPosition=center;align=center;allowArrows=0;resizable=0;rotatable=0;" parent="1" vertex="1"><mxGeometry x="224" y="96" width="32" height="32" as="geometry"/></mxCell><mxCell id="61" value="30" style="shape=image;verticalLabelPosition=middle;labelBackgroundColor=none;verticalAlign=middle;aspect=fixed;imageAspect=0;image=data:image/png,iVBORw0KGgoAAAANSUhEUgAAACAAAAAgCAIAAAD8GO2jAAAA/mlDQ1BpY2MAACiRY2BgkmAAAhYDBobcvJKiIHcnhYjIKAUGJJCYXFzAgBswMjB8uwYiGRgu6+JRhwtwpqQWJwPpD0BcUgS0HGhkCpAtkg5hV4DYSRB2D4hdFBLkDGQvALI10pHYSUjs8pKCEiD7BEh9ckERiH0HyLbJzSlNRribgSc1LzQYSEcAsQxDMUMQgzuDExl+wAsQ4Zm/iIHB4isDA/MEhFjSTAaG7a0MDBK3EGIqQD/wtzAwbDtfkFiUCBZiAWKmtDQGhk/LGRh4IxkYhC8wMHBFY9qBiAscflUA+9WdIR8I0xlyGFKBIp4MeQzJDHpAlhGDAYMhgxkAkqVAs0XeJdIAAAAgY0hSTQAAeiYAAICEAAD6AAAAgOgAAHUwAADqYAAAOpgAABdwnLpRPAAAAAZiS0dEAP8A/wD/oL2nkwAAAAlvRkZzAAAAwAAAAEAAO7vnfwAAAAd0SU1FB+YMARA2Ja+7PhkAAAAJdnBBZwAAAYAAAACAAJaWOi4AAAgeSURBVEjHlZJbj5VnFcfX4Xme9333YWbvOTHDnAcGkBZQhqQ1sRqCpeFT9AvUCz+AidYP4HXjjRd6oTVpKak1sam1mBorxWIZmWGGoXSgMBzmwN7v6TktLzAmTUpNf1kX6+r/yz9r4ZEXjodYtTjJ+yW3mrUPLGhIUUAAyKPLsiwUeZaq2hY6MT6KB3RRAKCpMwoSbA2EkRCZUAglBOfRUB4qlSb4yz/8xkGdAujEVFGQyVZ2ffX6sWe+XVVVNtiuqoJiIIzRW1R4Y+Oz0tujx08sLy8fmj2YsKIoSZqWEPtFP9OpIWKJkaUXK5Vm+ONf/FyaaKN1rlaI3lZZs2m9E9YhBMNGQkTECKIIkcCVfdIETLV3A1l7Z2dveGhsu7dXieyfHN++t6VizJiD+FqB4lTduf1g9e5ad2YMMXD0Rw8tevEeIWK4e38rFPbB1sPu6LggqDTdPz7aHmhX5WMffdpIe3W+vLrS6W5XMVIzvX7n1slnnxFbls41Go28zNeur3EBdODwEWFizbUtt3uPhka6tS2ZoJU0Lv75g7mZhTRreuC90vbKfpbpe1t3hkYGra200MTIxN//dmlqct4FCQA7vUeDQ+2NjevtZqthGqPtUWLPLW5CJb6OWaO1f3L62spKo9FIRA3qNHU0lLRd4cuibg905+YXb9+7Nzq+L0RnCFOitkrCbhW3K+M4xWR6enrtxvrcwjwB2p5VNVKT9Ud/+bCRZLEOc/tnHm49XDx01FU+8eqtX/2u49SlP32Q6DRrDvS3H3++8XnpfNRK6SQ6bxz+8bdvDjpzb/lWq9ZpTQ9u33cuaJUwqEHVfPeNd8gDKKNdUXVag+trN3d3C6aUxKigVTAo3MwGYh3A+k7WCjYc+daxtY1b1nqjkhjF22ggcX1HNWXY8Llv6ZY4YNGhijEQDS9MV1pWri7bfhGVQdPwFhJpnH/9bVTZyPyBnsi/r1w1XryrDx0+uLK+vnj42RCVtfDmhXcs8sj8gtfplU9X0RPXkAVtogHhN956JxchSHRnYnhyaurqlWVD5ujBo1lIf//rN1ygyfmDwWTjc/MgogNkxDdX12IZoYZO1mVM64BzR4/uRT96YM4hXL70yWjaPTA6q2q88PqFfuEOPXMcz/7olUf5QwMUyvrO5uepSup+1W4PDk/sC0idfUN373zRTbObG2tLzy3VEAPj/MIsFP23L5yfmJ61ogaGp3d3ijYlK5cvjbY0xjogOMSpA0f26poaiRnpdEe7QxnrQUiaNQ5xY2Z4ItHZyOiYs2FiYtJZq4A++uuHyobFsemk5y9eeHdhbE5FPTI2oRrp8NhwWRbPLZ2iGrRT7AkcaDZTk5O8eOI7idKcu1vX1shGcqHFyd727vj+/bWzg50uA95cXuEICLCz9fD26saNT1diXhWPiyPPHi8rV5RVk01HmdXL/2wQe+dYG9TJ/a2HE/vG+bvfP1P3ypsr19kHDaQA66oCgN29vZmZmaKfX7n0sQRZWFjoDg3tbm9j4bUHw5pYfba5OTk9nSmtoqxe/qTBqqpt1m4OT+3XaRadf3j3Hh4+8b20kcTgbZ53Ws0QHSemqCwAEKkIGBUNzU56iZnRoV/2Nr9IkGtnoyKvKYqICEWBKiita6MmDs716rI70IHH5a3r69RtDVT9AgW63e7Y2FiMsZeXyEQALJBECWW9deeLVBtb1DtbD0ioqiyTxqikErKSBU48DaQNQowxeu+TJK3LKlo7kDa4MzZujFaKBjqDnU43SdO6chKEgEgABZiJfSwe7fidHoWokWMAQoohNpIs1P7g/IG8V4mQrW2qjO0XTVItZTZvbihCnpxdEInWWhFhorq2VVnGEBgQABCABFhARWABEgAh51ySpIRU9MtTS6fK3Laa7Z3dPcXsbE0+hto+3t4hgBAdj49PMxKIRB+ctWVZeu+11hDlieB/PNljDCbRIcQYIzMNDg4YY1hRd6i7t7eXpIlzDpl8CCKRWZH3ERGN1ghQ1/WTKvB0EFFrHUKIMWZZdu3aNedcCIGI8jxHRESsqhoFjEpQiKemDiCK+AAimpVRGgWC84yEX2kgcd4xMxI47wWgKutGo7G+vp5lWV4UWZZKjEorRCzLUhGAhEiAQhhjBAAi+poSIhJCMGlqrRWBJDF53nvwgJi5qqpz587Nzs4qRa+99lrtXbPZ5Il9MyCilULA4H3wgRAVq6c5okSlSWKMUbQ21lptTD/vp0l2+vTpsij7vV53aOjkyaXlT5eD96SUkhidcwiglFJKAYD3/mkNmFlEvPfasLVWaw0A6X8LCTNba1dWVubm5l5++WVEpBACMxNRjBFE8MlrIj5N4L0HIWYOISCiiIhIjJGI3n//fSJlTPrSS+dEcHp6FoAIviFpmjKzc45JP8kVEWPMk/+5ePFinufnz59XSr366quCjKdO/gAhfumMXyvw3jMzAChlQgiI5G0QEaWT559//h8fXyIiQrW9va3TJE1Tgi+n/1+YmVkrZax1IUQRSdM0SRIASJJkaWnJOVcURbszePbs2aIqcWnpBZRvINBsrHXOuWPHToQQAGDjxmchBFJ8+vRp6wIiehFEnJ+fN6n5pgIq+sXo6L6pqak8z1utVlEUEvH+/fuVrZ1zP3zxJURcWFxEotnZ2RAtAYDgV8zT6HSG+r3iX1eutpoDzgbFZnNz0zmndZIk2XvvvSciKysrIyMjIlLUBS4tvfCVQU+pRSJAREQUQkAhkUBEEQQQrQRUVDn74otnReTMmTM/++lP/gNQ3b6S7MIsBAAAACV0RVh0ZGF0ZTpjcmVhdGUAMjAyMi0xMi0wMVQxNjo1NDozNyswMDowMJMJCKoAAAAldEVYdGRhdGU6bW9kaWZ5ADIwMjItMTItMDFUMTY6NTQ6MzcrMDA6MDDiVLAWAAAAHnRFWHRpY2M6Y29weXJpZ2h0AEdvb2dsZSBJbmMuIDIwMTasCzM4AAAAFHRFWHRpY2M6ZGVzY3JpcHRpb24Ac1JHQrqQcwcAAAAVdEVYdGljYzptYW51ZmFjdHVyZXIAc1JHQiryKm8AAAAOdEVYdGljYzptb2RlbABzUkdCW2BJQwAAAABJRU5ErkJggg==;labelPosition=center;align=center;allowArrows=0;resizable=0;rotatable=0;" parent="1" vertex="1"><mxGeometry x="192" y="96" width="32" height="32" as="geometry"/></mxCell><mxCell id="62" value="29" style="shape=image;verticalLabelPosition=middle;labelBackgroundColor=none;verticalAlign=middle;aspect=fixed;imageAspect=0;image=data:image/png,iVBORw0KGgoAAAANSUhEUgAAACAAAAAgCAIAAAD8GO2jAAAA/mlDQ1BpY2MAACiRY2BgkmAAAhYDBobcvJKiIHcnhYjIKAUGJJCYXFzAgBswMjB8uwYiGRgu6+JRhwtwpqQWJwPpD0BcUgS0HGhkCpAtkg5hV4DYSRB2D4hdFBLkDGQvALI10pHYSUjs8pKCEiD7BEh9ckERiH0HyLbJzSlNRribgSc1LzQYSEcAsQxDMUMQgzuDExl+wAsQ4Zm/iIHB4isDA/MEhFjSTAaG7a0MDBK3EGIqQD/wtzAwbDtfkFiUCBZiAWKmtDQGhk/LGRh4IxkYhC8wMHBFY9qBiAscflUA+9WdIR8I0xlyGFKBIp4MeQzJDHpAlhGDAYMhgxkAkqVAs0XeJdIAAAAgY0hSTQAAeiYAAICEAAD6AAAAgOgAAHUwAADqYAAAOpgAABdwnLpRPAAAAAZiS0dEAP8A/wD/oL2nkwAAAAlvRkZzAAAAoAAAAEAAM0/oJQAAAAd0SU1FB+YMARA2Ja+7PhkAAAAJdnBBZwAAAYAAAACAAJaWOi4AAAiLSURBVEjHfVZtc1ZXFd17n33Ovfd58iRAIRBehIQklPKSgWJrgUCCMG31D9RW63T8Bx1nOjq2jl/0g+PoB8dhxn5Tx+kPUFumpUCbTpFClRJCEt4CQ6GYEkjy3HvP2z5+oDrFka4fsNde6+xZZ+GuncMABF9AAABQAAARRQKiApCUkIgQ0bsIyFpr7yptlHO11jrGpEjHQEppSSgpcMbWllmDT508wV+a/gBSiikloqQUhxBCCESklEpAiAgA1lZdXZ1zc3N53kRQiDR64NCaNet0lgmGRsP84pc/ByS1umfDl8cCAGACAERCJAAUSSkBgiJSSqkgEQmj+KKRL8zPd3UtIdSLi+WBA8/0bhhoNjp9kCjpkWWPfPPgocmZKwwPgYgwc4wxeFFKMbOIOBdY50lSnndUZTvLGgvzlQgsf2RVSjgxMamzIkEcObBfa1QZWev5Afe/kEEAkEQkAiTSWhNRCEFENOc7d+5uNloh1iH4M6dPofFA6l+zc0RUFBwhOWvffudvhw6NRg8huP9alP5HgVJKRGJMzIyI1ro8z9et7Vu18mu2jkS8fdvQtq1bT3/0MaLKsmJ66lJ/f//nc593djW0UVPT56emJ+/MzfIDu38JiIoIQ/AhRGYmZEVaEd+4cbNsV4pp8+bNFy/NCGBwQWvUeXb0+DGl0Ie6sot5oUjBmVOnHvoG1to8z7WGGCMha41lWV+dubLua70m04hwfuLs2NhYSrHRaO7ctevRRx/TWpflYquzWbuSlLz++u8hIe7aOfwQClJK1bVtNBreRSIWEQBBSgAQYiQirTPnwvD+0cHBTQgKFXsXtVEhhJ6elXluXvnZj7/qigCg0WiUZbmxb8CYnIimps8DCGAATEi6qto6LwBgfHwcifv6+o3OY0i9GzZG8c5F5+NXERBRVVVbt261tSeCdrs9ODg4PX0hhGCyQgSQlbX2xIkTpFgEiqIIQUTCiu6lRVEgJsX4UII8z0Uky/jcuXMb+wZEJM/zyQtTgICQSVRPPvnU5i3blNJIylpPRIcP/254eFgbfn/s+MjIvizLmAn/k0X/55YQsa5dq9UKIaaUkiARK6W8j/tHRgcGNiVUzHxvYT7P85WrV+a5fu2nP9m/f9hW7Swzzrm3x459RRYlRGRm51xKICKKtPe+qmyeNesqJFHEZnGhbHV0rVq1KqKPUUIIR468qZVCBGaa+ufZh1p0XwEziURmEyNorZINjUYOkFjT1NSFRMq7qDPT3d0tACkliXjw4DOb+gcQ05IlS371m1/fN+dBf1AABSkliD5YxRijjzE655BSCC4ERygJPIhjDc62j777NgFozjLOopUY0/r1vUXR9LWlBFEblSBKCj5Y1sRMMboYHetEKJgEQZKE3GSYCAQN67H3j0msk9jMiMJAGN8/cfyHL78Mgsbk01MXRUQpjOLxG0/uby9WRdEEuJ88VNsyyzRAcs5pZla63bbNRqvdro3OETHGqI3y3hbNxvz8fGfX0vl7JXGWZcWePcPt9oLSoBiQ4smTH+KunSOEnBLu3bv71q3b4+OftDqb7fZilum6rlkpQmbWto5dXUsXF9sikmWmqhe01j46AJCExuThvlQgY7iyZbMjn5+/e/6Tjzl4aTaLHTt2MOdr16wvy3pm5ooxRQjemEIhOeckitbZ9u1DkIiIEkSiRAqOv3eMiKKAiIyOHuzdsFEp7b3NG1m7nH/jjT+DUmrtusGXXvrB0mXLbnz66c1PP8uMqarKe09EkmKCxFrb2m/e/FieF0XRSCmx0n19vT2rehTztWszRLh79+6N/YMmM1VZNZvNEP3q1av27Ru+MDlBAOKcLYpi165dSuGFyYmyLENwiEhEzlmA1GiaEOt79+5MX5ycmZm5fPkys0bEoaGhGKP3npm11s65ZrMpIitWrCiKIsbIxKqnZ/34+Lmhoe1vvvnX6YtT2pAiLBrG2irPDZKE6IhwdnZ26dIuSJCZIsZ0/fpMu73wxz/9YdmypUi0YkX3Z7dv37s3f/PmrdnZ2Uc3bwohKKWOHzuKjz++PwZhNiklZrbWFrkpy7YxHKJTSgEICCKiCCjKUzQpIWuI0RGj83WI8emnn/URlWJbe2NM7apvfftZkfDaqz9Sa9ZtjCklQMX83ee/98QTX2+1Oq9evUoEpDCEgEisFBGlBIgkApAgBK81KyZra2Zz/fqNntVrCZmIRCSBXL9+bXp66uqVSzi0Y5/3vtXq+s5zL7QaLefc+PlPiqI48tZfsswQUUqxbLeLomgvVs1m50D/YxIBME5PT7pgjTHEylkhzpiNtRYA8kb2+Z3by5Yt+fvJMUbizq7O5597QSRZL+cnphpF1+LifEdz2fz8XWNYKc5MhyLd0cx7e3sXFxdarVZZVv0DfVeuXk0p7d0zMjAwCGTKss7zXClV2cWiYQ4f/i1IVCt7Nrz44vf7evuWL19++qMz1nqtNCmavDBlMpNlRVmWhIpZhyB37sytXLmCCBPEa9eutctyZORAf/8gEUuijmancz7GYDJevaZndHT/9PQUMfP69etqZ6PI3r17AcB7PzY2ljeKwU2benp6tmzZcr/CeG8R0+UrFz/+x+mbN2+02wvGGCKKMbIyEsFax6yNzru7u5k5ikdEtq5UDIiUIGjDeW4+/OAD5+r+/o3WVQDRWt+3ccPExESj2QjBAWBXV8e9e3dbrc7a+pTw1q3bc3cuZUVnjBEAmKm75ynnnFKqqio6d/b0q6+9ksA53z767lsn3ntnobyLDJevTGmNSNLsyK9cncoL1S7vIokPtXUVa1Lqi7p3PytjSKxM8IKIR44cud+U88IgKALGbUM7WRlrXWEKAAghgCSlFCUI3hvWiCgiKeH9b857H2NUbBB4z97RJEpzo7TOGBOjQw5I4d1jR86e+ejfaPK0FC4ZrF4AAAAldEVYdGRhdGU6Y3JlYXRlADIwMjItMTItMDFUMTY6NTQ6MzcrMDA6MDCTCQiqAAAAJXRFWHRkYXRlOm1vZGlmeQAyMDIyLTEyLTAxVDE2OjU0OjM3KzAwOjAw4lSwFgAAAB50RVh0aWNjOmNvcHlyaWdodABHb29nbGUgSW5jLiAyMDE2rAszOAAAABR0RVh0aWNjOmRlc2NyaXB0aW9uAHNSR0K6kHMHAAAAFXRFWHRpY2M6bWFudWZhY3R1cmVyAHNSR0Iq8ipvAAAADnRFWHRpY2M6bW9kZWwAc1JHQltgSUMAAAAASUVORK5CYII=;labelPosition=center;align=center;allowArrows=0;resizable=0;rotatable=0;" parent="1" vertex="1"><mxGeometry x="160" y="96" width="32" height="32" as="geometry"/></mxCell><mxCell id="63" value="28" style="shape=image;verticalLabelPosition=middle;labelBackgroundColor=none;verticalAlign=middle;aspect=fixed;imageAspect=0;image=data:image/png,iVBORw0KGgoAAAANSUhEUgAAACAAAAAgCAIAAAD8GO2jAAAA/mlDQ1BpY2MAACiRY2BgkmAAAhYDBobcvJKiIHcnhYjIKAUGJJCYXFzAgBswMjB8uwYiGRgu6+JRhwtwpqQWJwPpD0BcUgS0HGhkCpAtkg5hV4DYSRB2D4hdFBLkDGQvALI10pHYSUjs8pKCEiD7BEh9ckERiH0HyLbJzSlNRribgSc1LzQYSEcAsQxDMUMQgzuDExl+wAsQ4Zm/iIHB4isDA/MEhFjSTAaG7a0MDBK3EGIqQD/wtzAwbDtfkFiUCBZiAWKmtDQGhk/LGRh4IxkYhC8wMHBFY9qBiAscflUA+9WdIR8I0xlyGFKBIp4MeQzJDHpAlhGDAYMhgxkAkqVAs0XeJdIAAAAgY0hSTQAAeiYAAICEAAD6AAAAgOgAAHUwAADqYAAAOpgAABdwnLpRPAAAAAZiS0dEAP8A/wD/oL2nkwAAAAlvRkZzAAAAgAAAAEAANOPtEwAAAAd0SU1FB+YMARA2Ja+7PhkAAAAJdnBBZwAAAYAAAACAAJaWOi4AAAjfSURBVEjHbVTbc1b1Fd17/27nnO+ScAkGDMlHFGulXrGIgAYVqmP7D9AXx860U2t17Ewf2pmOl2qtf0d9bu10xikXIULEVmmnIMEgkJgQghBJQr7bOed3230Ai1jX7Oe91l57r41A1U333v/8z19wLiQ6ybulVDR55szYB6MAMXiXZVmn1SYSSZJZaxlICMHMMXoiiuyZoxCCOQAAYISvg0lsun/LG2++1be6f+lqK3jQOk1MklWqlSyZnZ0lQuaolUEUGHBwqHFL/1pjkqLIi6IUgozRAOBcSUQAAMg3EQCSVgYZ5ufnBwYGhBCtVivPc6WUVokQIoRQlrYoLAA0bhtGROfyWi1du/aWnt6KD7bdbnnvtdY3yWe6XgCyLMsYY71e11qfOnWqktXybhsgcrDOhUpWy4uOJOVsmJqaHh5uRHRXlxeuXFlotZpa62o1izE655C+of06ZKK1QEbgv73zlyyptZpNRNRaaaNijO1uxxhT5kWSZN7Hc1OTPhRKEZGs1SrMXJTdGKOU8oZ2AAC6QcDM+/fvB5aVSiXvFGlaQURri73vHXjppV/5YPO8U80qx49/cvToP7TWQrL3rixzgCilZGYiUko55751AgSo3vfAZq0y75mjQBTOOUT+w+uvxei+uDQXowcgY8wnJ8YPHz4sKCIxMxOhlDIE55xDxOtL/n+LAJiI9uzZk6ZVZxmAzp8/f+DAPqWUtX5iYoIImDHGSCillDEESSLG6J2N0RGRlBoRY/TfSiDuvX/rq6++sqJ3VavVAZDOhlarffbs2SOHR713DFEIcs4KIY8cGUMkYBoZeXzd2nWNxobbb9949uykIAHAX/nB188J+VqJgcENO7Y/olXS09O7uLCcmDRN0741q2emp86e/WxxaWF8/GSz2bxwYdZ5J4X8ybM/7Vvdf2VhQZDwzmutl5aWvLdE4tqWv5E1yQBCybwspDBTU1PBMwkIwe3Yse2jjz9st5tSUpF3vPcAEAOdO3dm4+3fnZubQ2QpKYSglNKGrLU3e3ONhsg5Z4wxxoyOjiKitZaImNl7v23bNmNUtVZBBOZojGYO779/6NzkaSIAiNaVly5d7HbbzWYTgAHiV/JvDIGg69+5867HH3sSWPgy1mu9MQQiIPB7972L4JNEOWvTNM3zXJBG0s4FpZQQWBRdRFRaSCmstV8juPGLEDB9eOSx5nIuhTEyLQvnrCUCgaFaM8GXRdnWUllrjTEAJKTJ85yZa7Vap9NWSjGHsiyVUjd1v544kCDl4tWl5372AqGSqINnQjx37swHRw62Wi3CqI0WSMYoDi4CdfJ2X1/f4uJiXjQje+e91lpp8XVbgOl/YRb3Pbjj96++0duzanm5DYFCCNrInno1q2YXLs4mxuRFzhGQUAhijklqlpebaZoCEzBKqZy3AICIX7XGr7pHAJbRAQapVDLQ3xg9cpg5kPBH3h+9FszCxiRdUXTbQAiCUQnnglGJKzjLqkudpqworaRzJTOEEIwxzBBjKIpuT2/W7XZloo2SoizLsSNHnbNJovft3//Ci8+XZSmEkKDyvKxW0s8++3T/gXdToxBZCln6WOR+8wNbPp045XzOzGlq2u0uANrSSUXVarXduZplmVjdv65btC9evIiI1pcfffzhm398XSll86Ka1YvCa1UBxhW9q1bUe2dmzktBRZ4rlWxobIjMPT21paWFJDHO2Xq9p93qCiFMoq0tlZJFXsoT/z6Wpmb5ateYikmzVqtZlmWlkup1A1OTn2tV58BIQpEAVsgUvBUCmVkpVVgHEO++++7x8ZMA3Ol0qtVqUdh2q5ukCsBqnUoA6BT58y++4CxPT88cPPgeRvalJVLT09Op7m212qlOgy99sFLqEEohBKGYnJwcGBiUUjrnmFlKhUhFYZVSjKCNaXdypQxt3rb9zTffWrOmH5Gs9VIqrTUAHT486p3rdFvVLC3ydpYlSaKLoi2EsNZqLfM8n5ubk1KOj48bY4QQZVmOjIw888yzv3jul0tLy0KoEIKo1m/ZveuHCKq3p296cnpmemZsbKybd7x1lUpVInIM3ltEf/ToIUHsuSAhgYkExRCXri4Ighi9D3Hnzp2Ienm52dPT89BDW05+Ot4turKW1ZgheJSSEMXIo48dGt177KOPEdGXXpIEIKVEXrS1gsj2WiBsYQFISROiIyIGFte/KTjnTp8+/eTTT+3Z8+O33/7T9bwpEkdG3/fexxh3PfEExBi910rEGInIlqVAAgBmDiGEEEgKEsJ7f+0zXsPY2BgzS6l/8NTTMcbBwYaPQQwMDX/55eKVL+fLwhJhliqbd4eHh+ZmZ611Qqjt23fcNryh0WjMzEyRAG0UorCl18p4F5SSMXptVGQAwJmZi319ayZOn77re5tefuVlJEAAs+3Rx9utUqs0eA/A0RdaKmYGoF2PPbV+/dDExESams+nz8xemCp9VwgBrKRIomdEdj5njlKrrVsfPnbsJJEEkgtL8yaROtXywYe+/5vf/nrq3ByBSJIs77TmZs8fPHTAlj7Lqo1GQ+vki4uXTSLStGK9F6QECQRtrUUmITBJkhhD4GiM2bx58z8//pePtta74tGRh/ft+7vo71+7ffsjfav7y25RdIvUmHpPpVqttJaXm8vt/xw/vmrVqoWri4Dx5KkT2kgphfWuLNymTfesXLFy5coVi4tXQvAkaHj4NgA5ONQYHBoaWD8wODSwdetDkkhkab3ouE9OjBtlADkvlmu16uXLl1au7PMO3vnrn3tX9uZ5J80kQLzaXO7rW7v+jg2dTqdWqXa77VtvvXV+/nJhy7179+7a9SNG2rjxDhAw2FgXYilWr17PrOZmL9sycgRjNHA4dPC9LMsQod1u1esV67pCxgBFBF+p1PK8/GLu8uDgkHeOCGdmPmeOUkkiMTk509gwPP/llTvvulMqyosOAtbvuW8LRqGUwYjOlUoxYgjRRh+U0ojggo9s09SUZYmgiBShDiEAAHMgwRECE9vIKHVh/e7duxnC7id2vvbq7/4LwZQSAhA9SzcAAAAldEVYdGRhdGU6Y3JlYXRlADIwMjItMTItMDFUMTY6NTQ6MzcrMDA6MDCTCQiqAAAAJXRFWHRkYXRlOm1vZGlmeQAyMDIyLTEyLTAxVDE2OjU0OjM3KzAwOjAw4lSwFgAAAB50RVh0aWNjOmNvcHlyaWdodABHb29nbGUgSW5jLiAyMDE2rAszOAAAABR0RVh0aWNjOmRlc2NyaXB0aW9uAHNSR0K6kHMHAAAAFXRFWHRpY2M6bWFudWZhY3R1cmVyAHNSR0Iq8ipvAAAADnRFWHRpY2M6bW9kZWwAc1JHQltgSUMAAAAASUVORK5CYII=;labelPosition=center;align=center;allowArrows=0;resizable=0;rotatable=0;" parent="1" vertex="1"><mxGeometry x="128" y="96" width="32" height="32" as="geometry"/></mxCell><mxCell id="64" value="27" style="shape=image;verticalLabelPosition=middle;labelBackgroundColor=none;verticalAlign=middle;aspect=fixed;imageAspect=0;image=data:image/png,iVBORw0KGgoAAAANSUhEUgAAACAAAAAgCAIAAAD8GO2jAAAA/mlDQ1BpY2MAACiRY2BgkmAAAhYDBobcvJKiIHcnhYjIKAUGJJCYXFzAgBswMjB8uwYiGRgu6+JRhwtwpqQWJwPpD0BcUgS0HGhkCpAtkg5hV4DYSRB2D4hdFBLkDGQvALI10pHYSUjs8pKCEiD7BEh9ckERiH0HyLbJzSlNRribgSc1LzQYSEcAsQxDMUMQgzuDExl+wAsQ4Zm/iIHB4isDA/MEhFjSTAaG7a0MDBK3EGIqQD/wtzAwbDtfkFiUCBZiAWKmtDQGhk/LGRh4IxkYhC8wMHBFY9qBiAscflUA+9WdIR8I0xlyGFKBIp4MeQzJDHpAlhGDAYMhgxkAkqVAs0XeJdIAAAAgY0hSTQAAeiYAAICEAAD6AAAAgOgAAHUwAADqYAAAOpgAABdwnLpRPAAAAAZiS0dEAP8A/wD/oL2nkwAAAAlvRkZzAAAAYAAAAEAAIqf2kQAAAAd0SU1FB+YMARA2Ja+7PhkAAAAJdnBBZwAAAYAAAACAAJaWOi4AAAoISURBVEjHLdTvb5XXfQDw7znfc57z/Lr2tflRY/PLNjaG2KQYBwzYhARIgvqCSXnVbpWo2q6bNEWatGXd8mJa03TpIk1qp67SaNe8qfq22lIKuGmMDdRLCBDb2ARsg+PrhJjiYN97n+c85+debP/DRx8CEB08MvS1r36dYUQ8IwQBzMzs1LWr7yKzzhhEtNYhFVYTRPTeGmcDxhxYKWWcJlo57xEoN9oJIZw32uowotaqG++/zw4OD/3t33yXkfDhZ4+toc55CnxPT2/A4L3RSwHnWmvOojxXSdggpYqT0GQ15xwyGgSBzPIoLmltDx0+PHDgYJ7nAECYVyr7z1+cQyGwVG45ceJFTsNy46b1tdwagpR5D0uffPL48So4VMocf/ZUz+6+zRu27erc3bLlS0uVB8455zwPBGM8z9Xx48/v2bMvyyTngbWOUtK2te3kqRNTU1MsLSWEeOecB3vr1o3Gxg1FnhFqm5s25pki4I8/e3J3915jYO7jB94D50Fv777bt6cIgaIoEBmljDNx+/btMEyzLEPE0195QRsJHjgPqMzWI8EY9+d/++sw4rlco+i0VlleEyKgFPbt28cYA4DPH33+SWXp/v379XrdOUcpOucRMU3Tej3jXFhrQxFb4y9cuASeaG21sti6bbt1ZmpqurGxqSgK5xxjFBmMXf49EBtwvHJlPIrC29PTxhrGKVK/VFlEpIQQD957X6/nq6tPWra0KaUZcs65sbZSWXqweH95eYkA4c8cPuodVtdluaHZO1RKEeIZ9cZKxqjzliO3hhSFjqLIagXEGaMQMQgDYyxFUa/lDeVNa2vVJC7lsi6ioFZ7EifRjQ+uMSAoc/WdP/8ra0nI4yyTQgjv7dzd2d+/d4mxQGlbFAUiJomQMuOMOefCMCwKaYyhlEqZvfTS6W07OoRIjDHee8oIov/Jv/8YgGD/M8e+90//XEqbarUCHCPAkDIPsKG5OU3SxcUHnLFCyiRJikI55xARkUqZR7FQWnkPJ06e2tm+Exlz1gMQRGKsam1rOXXq+ZmPZ6g1xDuqtd+xvV1rQynV2njvKaVRFBWFrtfr5XLj6upjZFBqiJWSxhghhHMOADjnSskgCJxznKP3llK6fftWRKKUQqTMGIWUNJZSre3de7MAUCqVqtW1gEGWV9M0tk5V6+tJKTQ+z9eqnEaMMWM05xxAAwAhZHp62gEyDJQy3tuv7DjtnEJGjFE0TSLrinq2/s5vfk2pS9P40aPPhODeu6ampjyvKyUJtR5MEKCIgjAMlTKUYp7nYRgrpcbGrjDGKKWIyDkPw/DChQt5ngcB55zjcuXh7J1ZQlyaxlqbQuVJmsgiA7BjY6MeLGOEUgBw3nvvidPUWdrd3dXb+9T8wkIURda6+bkH7e278rwIgtAYo7Va/nS5svzJxx/fIQDpl/v7pSxKpUajwRgbhqG1lhHiwTpnGCfGSG2KIAiMBkHTjo6ulpZNjFMPcP78+camZmu8VD6O0zzPo0hoK53X1doXc3duMwAIw+Qv/+KVPC8CHi0sPBgZefcb3/hWyANCvNJyfv7e1WtjkUicMwyJKixnYnGx0tHR3rN3d3d3z4//7SdChELEfb1P79+/33lTz9dbtmzYtLnptdf+gfYPHHr11Ve3bGlDZHNzCxcvjrz++uu7OruNcQCUM9HZ2fXsseetBiU9Bf5/7Qghurq68jy31pbLZWvt4cOHDgzsN1YFAUvjJI5To53WhhljwjDI83znzm13795lDAix2hT35m4HAautVxsaS0YrZ2waJ1JK7yEIg3vz97QtTp58/uc//5kyOgxjRt2dmVuEoFQqEKxlyzDxNMAI2zt6BgYGhAgvXRohBB89Wnnnnf9mDL012shSmhRFNvreu8iIUwY5iihcW1uL4/iLL1avX/+g1JDU65lz/t7dez09u733SAkyNj8/Nzc3X6kskd17njlz5k/q9TzgoTHeWRgbGxMhp957sAx9vV6PhAAAqzVBhiw+MDDQ19cni+xXv/plrVYrl5udc9r6olDOghBCmyIMhTHm5o0JApAeHBw0xhfSJkkqc8UY82CJc8ZKhoRzao2xVoc8UAaOHD0uwqSzszMMRT2rnjt3DhG1siKOvfdHjwz39fXVsyqAD8PwZ7/4KQLly0uV5g2b3nrrrc7OrgP9A4ODRzjjD1ceOu95QHOZUerCSChTIOKuXXus9Z//8VHaUBJhNPDMwZu3PkLGnHOHB4/2Pb0vlzJJYg9++44dvzn/XxScGx4e+v73v6eUklJ676vVahCERVEAgLM+TdMwjOv1GmOs0KpWz70noYhnZmbL5aaWlpazZ89a6wigEGJiYgIRtdatra3V6lpDqUwB4MmTVQo+EjyKotnZ2UqlMjo6+u1vfeeb3/w2IfjkybrSNhBxLnVDqXlqakoqVavVXn75ZR4EzkPb1m2EUgf+/IXftrW13blzZ3JyMoqiMBBSSiQUVx49XFhYqNfzyvJn1z/4cGHh/tmzZxnj3vnGhsZPP/0UgAChDIMsl3lhV1Yet7fvbG1t8+A555TSkZGRY8eePXPmzNtvv728vNS5q2NmZnppaXFpaYkgC62RhIrBQ0NP1opXXvlrawgAOPCMsenJj6794Yr3DpEYpV584bRx5OLFESH4c889N3TsqHPuBz98c3BwcO/eXq11GoVSynP/8dMkjWRWvXnzFkFEay3jUWdH96vf/ccvbW5bmF9E5JTh7OzslbHLw8PDExMTssiGjxx96qm+6ZmZJElGRkaMVchYEARSq6GhIedcb28vIzTL60kc/OhH/zozPQngqXUWGRhdlEqljRubpMy2bmvlHKenJ8fHL//p1/+ss2vXgQMHAh7v+/KAth4BdVE45+I4ds7V6lWtFYAPQzE1NVko2dnZvnnzxjQOASwyoISAtUAovX79f974weuE2iQJP5q8gUiMUaVSEgSMEGKtzfOCc8EDtFYT6vv79w8NHz19+sVTp05d+8MVpRTjtLt7l9G54FTpDMBaoxERvAPO0Dm/XKk8WFyq5zXv3dj46JtvviFE8Hh1dWVl5fHq46d6ewn4Pz5aoZQsV5Y6uzp29+xubi5HYdhcbrw8Otrd1bl5UzOl5IdvvnHjww/AW0KAWQtC8KKwSLnz9P2Jq8poABAhz2WNMb5z59aFhblabT0IWNuW1p3bW3/3uxGlJRKvihwZ27u3p6urc3x8/NLIhWtXx8CZiYlxAMvQG+sY8aAKTQhaZwEcIP9o8kOvNQD8y1v27/7+tctj4xQJ42TDxjLj1CrlnQuC4OLFi8+dPPHSSy9oq2WRAXHTt24BpeAKAoCUeOsIwP8rAqAAABQBPTgDBIAxMObpQ4eNcd6QmRs3DxwdyrIsYNw5N3XrBli7r78fEQttoyj6cOIqMALG0IA6pSglznpK+f8C/ou7wxitmC0AAAAldEVYdGRhdGU6Y3JlYXRlADIwMjItMTItMDFUMTY6NTQ6MzcrMDA6MDCTCQiqAAAAJXRFWHRkYXRlOm1vZGlmeQAyMDIyLTEyLTAxVDE2OjU0OjM3KzAwOjAw4lSwFgAAAB50RVh0aWNjOmNvcHlyaWdodABHb29nbGUgSW5jLiAyMDE2rAszOAAAABR0RVh0aWNjOmRlc2NyaXB0aW9uAHNSR0K6kHMHAAAAFXRFWHRpY2M6bWFudWZhY3R1cmVyAHNSR0Iq8ipvAAAADnRFWHRpY2M6bW9kZWwAc1JHQltgSUMAAAAASUVORK5CYII=;labelPosition=center;align=center;allowArrows=0;resizable=0;rotatable=0;" parent="1" vertex="1"><mxGeometry x="96" y="96" width="32" height="32" as="geometry"/></mxCell><mxCell id="65" value="26" style="shape=image;verticalLabelPosition=middle;labelBackgroundColor=none;verticalAlign=middle;aspect=fixed;imageAspect=0;image=data:image/png,iVBORw0KGgoAAAANSUhEUgAAACAAAAAgCAIAAAD8GO2jAAAA/mlDQ1BpY2MAACiRY2BgkmAAAhYDBobcvJKiIHcnhYjIKAUGJJCYXFzAgBswMjB8uwYiGRgu6+JRhwtwpqQWJwPpD0BcUgS0HGhkCpAtkg5hV4DYSRB2D4hdFBLkDGQvALI10pHYSUjs8pKCEiD7BEh9ckERiH0HyLbJzSlNRribgSc1LzQYSEcAsQxDMUMQgzuDExl+wAsQ4Zm/iIHB4isDA/MEhFjSTAaG7a0MDBK3EGIqQD/wtzAwbDtfkFiUCBZiAWKmtDQGhk/LGRh4IxkYhC8wMHBFY9qBiAscflUA+9WdIR8I0xlyGFKBIp4MeQzJDHpAlhGDAYMhgxkAkqVAs0XeJdIAAAAgY0hSTQAAeiYAAICEAAD6AAAAgOgAAHUwAADqYAAAOpgAABdwnLpRPAAAAAZiS0dEAP8A/wD/oL2nkwAAAAlvRkZzAAAAQAAAAEAAJQvzpwAAAAd0SU1FB+YMARA2Ja+7PhkAAAAJdnBBZwAAAYAAAACAAJaWOi4AAAhySURBVEjHlZTbc9XVFcfXXmvv3+2cmKiEJOfkYkIiJSEBkgC5EEDQsaD9N/qgTvvc8anWvjh90NbqdBxrHzt2+uI4NBcVxVISHNNcSLgEUxSCFEUIOef327997cPp+J71sGe97O9nr+/aa7HhwQnYRiBnUVbJkrpE5qkQwlhLJJxHADTaiSh0zhiropiMU/MXZ/l21AGAaakHDxzUXkmZbty+aYzS2nEejIyODg8PV7McmENkSqfvvvcOhSGVWjq2Bejp6mEMfrh/r1CM6+oKDx48SArF0dGx3t69aSq5CK21SKzc2vL0MyeXl5e2WwGs/Wdt967djz5WjwjXrq0j4ubmFpFYWbkchUklS4nY6eee1SYD8EII3Ka+i+NwaXXh6tXVpaVFQNDW1NfXq1wLHlrroyix1k9OTgKA1rk2+XYtAq3zQiHWRsVxpLUJw0hKdefO3ZZSq1KaOBeCW6tv3fr6xtc3Nm7f3LZFxhjOMUkiKWUQBHkuPQhtzfz8wubmVlwoZHIrjHmlej8phPNfzG0bkCRRlmXee++9lDKOC87zkcPjPd19YRgrYzxY5JY4/PGt1wGIWsudzjnvfe0+IhJRLbHWEpExhoicc7XcexAiAPCMMSSutTl+/GT3rh7kobUeAIjQ2LxUan7mmROrV66iMQYRhRCcc8aYtVZr7ZyrMbz3NR4AOOeCILDGI6IxDpFrrcMwNMYIIZwzQgjvPSK2t7cTkVKaiDgiAoDWuqZVE0XEGsM5h4iMMQCw1hKJJCmkaUoiAIZhGGeZLBTi5eUlQMF5lCvlwT7fftr5nBEZY/FHc/4/SIzVTmttrYgaoxbWWq1tudTx1PGTxlhjbBzHZ86cCYIAEYmYECKKosnJySzLgyAiIahpZ5mIahZ572u6NWkA4JzneV6rnXNujGtr29Xfv895KJdab23cTLMsDKP19fUnOjuzLBNhYIzRWm3cvnVz45urV6+wg0NHtdaMsR8dZ4xprYUQxhjOuVKqBguCIM/N7p791vodOxqGhgcd6Hfe+RNjZIwzjiVxMZVZHMfGKOftZmVz/colTkQ1Oc65lLL2amNMrQHOuYaGhgcPHtS+EANaX7/R3tZ14MBB72wqJQAqpYQISfD+gb79B4acc5Ws0tzc1Ljz8Zdf/hXmuYnjYmtrR6nUFgRxnmtr7Y+dIBI7djRxHgoROceIyFp9+9tvpqfPKJ29//5frdVE5JwZHz08NDRktQmCoC6pS5KC0c4qywMqtJc7kfGdO3eWmzsvXrwg5RYXaHQeh8VSqU1g3N3Zu7a2xiDwDBgqC+arG/fW/3KZeQeeIaLRjhheWVlljKQyQRA0N5fQk+ARaq1lpqz1UVgMRFSppEmSaJ0nSVKpPkzionM+rco9P+mLotg5Z72z1hJHROScCyFq0zA1NSWEYIwJQUTs008+npycBOY5cf/4joath6l1ea6y+vq6NNsUQqRpiogrq8u7n+wr1iW5StNsUwSB0uzIUye7OjriJHzzzd9zjoRCa5sU6qanp5zzIgq01mEcGKMWvrzIiYC4P3HyGOdiaWnRWAXMEfEg4Fp7ZGJt7Wpra+vd7+54bxiKU6dO37u/VV//2Obm/Rdf+OVbb7/prYsLkbMQBMHokfH+/r5KWgVmoih6912G2qrllcX1G18hxwtz/9LGhFGUyiyVeZplxloH/s7d/2Z5GiWh1qpazeK4cGHuC0ZCav3CS7+Ik2Jalda6Q6Oje/fuzbKsWCwKIdra2qrVKrW0lIUQqyuX5+bmhAiJyDpDSMgojgvgqTbAwBxDaz20dXQhI85RStnX10tEvXv2zH5xkTjv7u6+fv2rcrnNed/SUkrT9N8L8wgec62iJE4KdcY6metcWYbi6LEThw6PjY1PyNxYB1yE2jgidv78OcatsnLw4P4goGIxaSq1FIt13rEz/5gplTsuX7m+tLgSR8UwLMhMc+TCOTc2foQBt9bPzs56LyYmjnR1dQkeLi+vnjr13MzMjDGGMTLeMfRnz348MTERBFxpabQrFh/Z2tp66sTT/f373nj9D0HIjx079sEHHwpBhEjlUvfBwyMDA0MbG3eB8faOzm/v3BmfmBBBlEm9+TA11pdb229u3ESOhw+P7Orefe3a9du3Nxhj7e0dHuCV37w6MXG0t7dPqfzo0aMDAwN//9v7P/zw3fW1awvzFzHXfmjwYC71I480BCJyFiqVNAxi71gUJYGIkAlkHDw/sH/o4PCoyu3zz/0MPM3MfPzKK6++9trvanvl0qUlIcharXX24ks/33z4/eLCHIBCAGatB8B7399nDBljQRDU1rW1tlKpKqXCMALAQ4dGq1WJIJT03vJCVO8sq2xVtTIAEEXR8qUllVe6u1ubm+qLBQaQkbA8DEOttRBxfUOdzCQwJwTlKgvDEDwSYRTFeS6VUlJKIhIi1MoxoMHBYUYQx8Jae+7zz8bGxjjHJ3d3VdOHcUhKV4EZawFTWREhd6BHx0fChEtVNV4x8trmjzU2PHv66VRWeEBBJEiQ994YwxkSURyHe3v3dO/aVS6XJyYmzn16NhBUebiJYH776q+XFxcAgAHwYl2Uq2pHew8hHTs2/ulnZ5VKgxAbGxuTOM5S+exPT05NTWmdEbHG5uaOcudHH32idMqYz1XGOfX27el5suufn5+dnp68cP6cc2p29jyAJw7WAmZZ5b33/syYN1Y7r51THtRbb79B3BmbayPDiDPmGUJTU6MQzEHmfBaFfmb6wxtfr3X3POFsnssUAJYXl2YvzM3OzjHgRMIZYB4YCAYeBw6MOAeMkAQuzJ4HhH1DQzJTheKjea4554tzswdGBvM850HgDSwvzIOx+waHiUhpGybxl7MXgBhYjUI4JYEYWItE/wMKBLYQHhL5ZgAAACV0RVh0ZGF0ZTpjcmVhdGUAMjAyMi0xMi0wMVQxNjo1NDozNyswMDowMJMJCKoAAAAldEVYdGRhdGU6bW9kaWZ5ADIwMjItMTItMDFUMTY6NTQ6MzcrMDA6MDDiVLAWAAAAHnRFWHRpY2M6Y29weXJpZ2h0AEdvb2dsZSBJbmMuIDIwMTasCzM4AAAAFHRFWHRpY2M6ZGVzY3JpcHRpb24Ac1JHQrqQcwcAAAAVdEVYdGljYzptYW51ZmFjdHVyZXIAc1JHQiryKm8AAAAOdEVYdGljYzptb2RlbABzUkdCW2BJQwAAAABJRU5ErkJggg==;labelPosition=center;align=center;allowArrows=0;resizable=0;rotatable=0;" parent="1" vertex="1"><mxGeometry x="64" y="96" width="32" height="32" as="geometry"/></mxCell><object label="25" red="25" green="0" blue="0" id="66"><mxCell style="shape=image;verticalLabelPosition=middle;labelBackgroundColor=none;verticalAlign=middle;aspect=fixed;imageAspect=0;image=data:image/png,iVBORw0KGgoAAAANSUhEUgAAACAAAAAgCAIAAAD8GO2jAAAA/mlDQ1BpY2MAACiRY2BgkmAAAhYDBobcvJKiIHcnhYjIKAUGJJCYXFzAgBswMjB8uwYiGRgu6+JRhwtwpqQWJwPpD0BcUgS0HGhkCpAtkg5hV4DYSRB2D4hdFBLkDGQvALI10pHYSUjs8pKCEiD7BEh9ckERiH0HyLbJzSlNRribgSc1LzQYSEcAsQxDMUMQgzuDExl+wAsQ4Zm/iIHB4isDA/MEhFjSTAaG7a0MDBK3EGIqQD/wtzAwbDtfkFiUCBZiAWKmtDQGhk/LGRh4IxkYhC8wMHBFY9qBiAscflUA+9WdIR8I0xlyGFKBIp4MeQzJDHpAlhGDAYMhgxkAkqVAs0XeJdIAAAAgY0hSTQAAeiYAAICEAAD6AAAAgOgAAHUwAADqYAAAOpgAABdwnLpRPAAAAAZiS0dEAP8A/wD/oL2nkwAAAAlvRkZzAAAAIAAAAEAALf/8/QAAAAd0SU1FB+YMARA2Ja+7PhkAAAAJdnBBZwAAAYAAAACAAJaWOi4AAAbGSURBVEjHvVVrkx5VEe7uc5t5Z943uySbhA25bLhkcwUTYSGEbMiFhKD+OQojUqX+CqsoZCEVwJAiGoNglUj5BcRLlN19L3NmzuluP0ywECygSrQ/TE1N9/TTT59++uB3j6/CV5l86Qt9pfeLMf0bwv/MLAAA6NdV/c29X4yhbxD93zL4JhV9zvBz8UpfG/N/YIBfYqDfJip9u+n+AwAze1e0MRFaQ66NyVrLzCJCRMwMAEQk8m9EVVVVAQARAUgEEA2RBQAR0c8MEa21tm3b0Wg0m80AYDQaxRittYhIRM45EenBEJGZkVRViYiIEIyI9FlSSkSESERgjCEDzNy2LQEQs66vb1bVsCyrTz/dACBVVMWUGBFVlZl7gB4VEUEJlEQgZ2EWADTG/gss5zybRmYuy9L2vrIcNE2TM9d13dMEAGY2BhHv6rz/HxGISAWYWbUHRREpimI2m6WUVQ0iOueQNKVEoIRgUsdExtnALKpAZPomqKoxxjnHzP159M+eGSI6563xKjjenBJRCOHudFrbHyGpqggw6949SwcOHHA2cFZVTSlba1Pivj+flY89OUQksgAoIv1EFEVhyOUkIopouq7r2lwUBfU0l5eXQyi3bl1YWVnpszDzYDBQ1Zzvzo91pMCGnDCIABEBQOoYgAaDeu/epZ07d3rvc849aVXlrAQARLZrueuyMc65YIxTwdLX98wvFKECQESDiIYcZzTGq5IwIlgEB0BlWS0s7BCBQ4eOnDjx6Gg4N53OmMG5gGjIGNPGzvtBTkhqUQ2nbCks7dnvqNq7e3+wA2ZOiRE8YcjZiHgyRWYCtEiu7RIZC4pdl/vZG5QjUEqdIHirynVdp46dDf1EWiQQFQZjDFhExC6l4XAoLDnLhWcudm1mZuvo6tWrRIZZQwioEGOcmxupaowz730vWNt2DZFlaa0LxmLTxFC4pmnIgCoT4mS6Oah9jDMRvHTp+9NZJOsPH142xqjqjRvXm6bZvn3hoQfvd8689/67sZ2Ug8JaG2MEQCqKwJyW9u85d+7p/fv3VnU5nqwbgx988Hs/8O+//9vhsBLNZEBEYtcAUQih67rJZHLkyKEYozH0y+tvfvjhB4Dy2mtrW7bUbdtMZxtEYC2SAIOR119fQ4IP//iHV159OWt2hTfe3L79mxDCtJn1mhhUVS+Lzcl4UFf1aJhVwFDf2GtvvvHDK1fqul5fXy8HgQhyajl3d/UNAC+99OLm+B+j0bAaFJPxJPhaERShLEvV3DSNsQRkE+eyLPs942y/khBQmLMxJudcVUPO2bmAFrKwdS5MJpNhfU8b09Zt29u2Wd8Yl+VgZeVJROM8vfzKz52nerQldUBkLOK5Z85NN8d37twhg02Ml5+91HXdOzeuN03Txc57j4SS1VqrAmb7wu4QipzA+zDenITgWfjMmfME7sDyobn5+dFoy8cff9TMoqGwuGv36dVVssYZOxqNJpPxrVu3di3uOnjwIAhurG+imlNPnV5aemBp3wPbF+7981/+SsYEZlxdPXvy5CkbgqJ77PFTQK5LKmAF7AMPHRSmc2cvcsa33rp+7do1Vc6aP/rkoytXXiSynNW74six47GTk0+uAhRNo8vLjxw9+ujjK09Zznr69GpOsnz4iCK+9vqrw+FcbLoQhqrgXdF2037jnj17/uVfvLK2trZ2dU1VrbXGmJMnTx49fGw8nnpf5CzGBEM2dZKTGlMcOnjMFlXFAMb51PGDDx544603p7NZUQxSZhbIbVQFINu0SVgvX76MJq9vfHrz5s1Tp07Npg0AxK4d1FXX5lAMYpcQ83Buvs3swLIIjcfj/lIsB0FAm6apqoqZRbgcBGNMKJxoRlJjcTabLGzfdvz4IzHORMRYIoKqKqfTqbHYdZE5e+/G4w00oMBVXVIINgTbtlNVbpppKCxYzZqe+8GzZV0oJGNwOt303nhP58+frcqCc+e9VWXv7eqZ0zt2bisKq5pE4/y2uukmz37vwv0P7UPD65t/J5aUcnvhmXOL9+2Ymx82zXQ83rh46UITp6NRvWvXvSyddZByc+bpp5BkcXEREWOMXRcvXrxABE0z3b1nkYwiyd/u/OnycxeabhLb8X37doTKEpESKZAoyNat80Xlq7pgbo2BzFGQX/rJi8XAAwlLy5yQ9IUXnq+r8uY7N6aTTUKu6sDSvvCj58FIWQd0mWwyLse8+dOf/RjB0tETjwETke2k+93tXx889rD3hTJxFhfcrbffAEgnnniijSmEIsb43ru3gRmUvvPYSuaOFATh3V/dBGOOPPKwqjpnRIQJ3nvn7X8CbrTzLuezKJkAAAAldEVYdGRhdGU6Y3JlYXRlADIwMjItMTItMDFUMTY6NTQ6MzcrMDA6MDCTCQiqAAAAJXRFWHRkYXRlOm1vZGlmeQAyMDIyLTEyLTAxVDE2OjU0OjM3KzAwOjAw4lSwFgAAAB50RVh0aWNjOmNvcHlyaWdodABHb29nbGUgSW5jLiAyMDE2rAszOAAAABR0RVh0aWNjOmRlc2NyaXB0aW9uAHNSR0K6kHMHAAAAFXRFWHRpY2M6bWFudWZhY3R1cmVyAHNSR0Iq8ipvAAAADnRFWHRpY2M6bW9kZWwAc1JHQltgSUMAAAAASUVORK5CYII=;labelPosition=center;align=center;allowArrows=0;resizable=0;rotatable=0;" parent="1" vertex="1"><mxGeometry x="32" y="96" width="32" height="32" as="geometry"/></mxCell></object><mxCell id="67" value="24" style="shape=image;verticalLabelPosition=middle;labelBackgroundColor=none;verticalAlign=middle;aspect=fixed;imageAspect=0;image=data:image/png,iVBORw0KGgoAAAANSUhEUgAAACAAAAAgCAIAAAD8GO2jAAAA/mlDQ1BpY2MAACiRY2BgkmAAAhYDBobcvJKiIHcnhYjIKAUGJJCYXFzAgBswMjB8uwYiGRgu6+JRhwtwpqQWJwPpD0BcUgS0HGhkCpAtkg5hV4DYSRB2D4hdFBLkDGQvALI10pHYSUjs8pKCEiD7BEh9ckERiH0HyLbJzSlNRribgSc1LzQYSEcAsQxDMUMQgzuDExl+wAsQ4Zm/iIHB4isDA/MEhFjSTAaG7a0MDBK3EGIqQD/wtzAwbDtfkFiUCBZiAWKmtDQGhk/LGRh4IxkYhC8wMHBFY9qBiAscflUA+9WdIR8I0xlyGFKBIp4MeQzJDHpAlhGDAYMhgxkAkqVAs0XeJdIAAAAgY0hSTQAAeiYAAICEAAD6AAAAgOgAAHUwAADqYAAAOpgAABdwnLpRPAAAAAZiS0dEAP8A/wD/oL2nkwAAAAlvRkZzAAAAAAAAAEAAKlP5ywAAAAd0SU1FB+YMARA2Ja+7PhkAAAAJdnBBZwAAAYAAAACAAJaWOi4AAAiZSURBVEjHdVZLcNfVGf0e997f4//Iw1ALJlAehjYCak18ABESLOOii3bZjh3dFGRGlx1n2o6K1mmZ6aaLdttOx02n3Tm+irxBIAkQHgEEgo861kFaQpLf4767SFVs8ay+3Tnfued8cxGg88FH1v/4R08KoTASYgQI5y+cfffwfhbgvRWM3ntmdC4wM4IUQpZlyUwA4L1PEumcQ4rw/4jED24c/dlzz3V2dRVlGQOGCADUs6in1W5PX51WQlrnpUjqyqZpw9QhRqxrneUpERGRUqquKyllhHAbAkAxOzuDGJmpr6/v4w8+sdYLwSHE+TmdyDYE54wfGd6iVFoUlZTMAvbt210URavVKssCAJg5hAB4G/kAIJqtBmIMIcToJycnOzq66lojQnd3T1VpgrB585bV/WudC5cvXYkBqmp2YGDg4nvn5+bm8jxzziFGRLydQQAAoizLJEmCF6+99kaWNqqqEiSM0bWzmUqs0+vWraMonDPXrl0zVgtlQ6wRERGJiJlj9M45Fvg/2hfAi3tXeh/Pnp3q6OgytQ0hCmYWePDgHgAvJR8+fCjL1NTUWeetkKASPjd1JsaY59n8/DwzM5NzjvhWj/DWqf3AI49g4LnZsqOjKwa0pkaMgqLztRQYghNCee+1Nlna0KYiojzP6roOISglrLVSSufNbTcQgFjXZse2Hd5BkmRlWaYqiWCvXJrau2+3kMoYp41m5kYzqauCWTCL2dnZJEmk5LqulVJa669YdAv4/qH1L+98Kc+bxXxJxAAghXTe9NzR1dXVcXX6MiJIKeu6TmTirGMhEVEI4b333jEzEQkhYgyfa/+CiQAihRAAoNls9vX1VVVFKKy1TDIGhsjBkzWxLEyeddaVT5OGtc5a65xjZqXUQkattV8TIhIheMBQVUXw+I8PPwKgGCMielsJIRLVds6kKtPa9K/6Toju02sfa1NaaxeUxRgjeKSvPOxXGJiRCJn54MGDiFhVlXdRa52ljdnZ+eCjNaEsbN9dK4MXTEmeN6WUiBhjDCEs0AghvmYD4Ov/njt27DgCE4m60o1GM/qQSGmNnhgfd84S0aqV/UJIIaQP9rPrn2pTxeiFYGaOMUYIiF/Ix8/dXxgQARoPbxzWtUcQjCpGdNowI6FnQVVVMHOW5L29fd7F6auXSYQQLREwMwCEECL4Lwn+G9AvYooCpSqKYsfTzxrtISCzJAhXrlx6Z/dbCqjdkczN3yzr6qOPC6NdlqcuBIoiRu+9BwD8HDHe/ljwffc99MILO7u775ifn09kGmNgITq7O6emzm5/etvq1Xd3d3f985NPtK6FEMbqCAiAMSIAIjIRA5D3npBu8efLIpNiEUMIzi/rWzp55vTVD94/dfrMH//06rbtz96cM3neE1zy4NCwFDl6UjILHpmS4IkpFZg5DeAFBLHqW6ujR8mJt04pRQSI0TlLWutGmqhEvP76a8zonDs+Pv6TJ58sStPR2XPy5OkIHAMjstbaGJOqbP36jffcs7auTYwxyxoUaaB/IAZctXyV1pqZrdVzc3PW6TxPecmSZc678xfOq0QJqfbs2fPT7dt6e+9qt1oTE2OJVMbUWao++PD9LEmAcHBokJnzPMvzbObGjbIsEGJXd4eUgghmZm8igg+u0WhIJepKi1OnTghBAcj74AOlWX7nnYsQkQWOjGw6sGcvM+87sN877SNs27EdmS9fmp6enjbGJKl03jCglHJ2diZvNb13xphWR7so5oQQREQAfnx8zDn3xBNPPP741qoq8iQN1ghBiFjX9dGjR4kICFWWWmuttX3LelvtxrXPPp2ZvcFCBISz56faXZ0XL16UUmWNfGZmRsokACITAcDQ0ODLv9p5773rymKOmX/xy59LKa21b7355qkzk865qqqkSKqq+vOrryLRkSNHTp6YjAETlWmt0zRFxAsX3isr7XxUMmMWSiUxAAAhUvLd+weff/7F2rjr1/81feXDPfv2ExFGBACt9dat39u/9x1mDM4jolDSe+9csNa22+2qqgQxIi/0zhizcXhYCFGWZavV2rP3bQSQADQ09PDmzaNlrd89MkZCOucECefc6OiotfbYkSM+WMkihOB8RESlVIxxcHCo0WjUdc3Mhw8eMc5u2bKlv78fAKanp7XWzCgWejE+Po7I2rrhjSNKpSHEGDDGaI0/dvyYBwhAIeKGjY8KIQ8cOGRt2Lp165LeXiHEpUtXrLWPbhrZe2D/qv6BiMjA3rEUDedqYhYACOCdM88888yWx0ZWrFixfPny/v5+rfXY2NiG9cNE5H3YuHF4zZq1RofNm0adDYvv6gMgRLbW53mzto5ZEgprvDUOIuraJElG3huEAABE9M1F3wAf7l6xMlPqvUsXxieOP/XUU0uXLh3ZvIWI1t1/33xVomDjA0klZdJstrVxgFhWlUoSYy0ykWCVpQFBJGlZGwLwaZoAhImJsZ0vvaiUKKv5c+fOheBjjD7YVrtRFAUzF0WRpmkIjnnhJ0AzszfSTCFFIckHKxU7Z0JwiFBVJTOyQCKCqp4TAgHcxMTR3+x65e23X08zcfjwwZ07X1y2bGlZFkIxECRZoq1WiSjKmyoh6yqpYPGSnpHHHo3kREJFPReiSVLu6Gz84Iff98F4rwkgAIBzBiBkeXro0P5Tkyd3735bSDK2DMGtWTPgg/HehhB6e5eMjm5CDIhBKFq8eFGMFtBt2rxBm5IFtNr5HT2djWbig96w4aEkFRQiAAIgJAlX5VyixIkTx09Njk+Mvbtr168Bw1//9hciiNF39XS1Wg3rqryhalv8/g+/ExKThrKuFhJ9qNsd2a7fvkIy+Kgj2jTjv+9+AwFBSrQ2AgBKii4AACkVLECMDzw8rLUWQk2eOTUw8G2gyETeu/PnzkGM96xb571vNptFUSghT4+PA+LawUECdM7JNPHe/wc3jdyjq6ZP7gAAACV0RVh0ZGF0ZTpjcmVhdGUAMjAyMi0xMi0wMVQxNjo1NDozNyswMDowMJMJCKoAAAAldEVYdGRhdGU6bW9kaWZ5ADIwMjItMTItMDFUMTY6NTQ6MzcrMDA6MDDiVLAWAAAAHnRFWHRpY2M6Y29weXJpZ2h0AEdvb2dsZSBJbmMuIDIwMTasCzM4AAAAFHRFWHRpY2M6ZGVzY3JpcHRpb24Ac1JHQrqQcwcAAAAVdEVYdGljYzptYW51ZmFjdHVyZXIAc1JHQiryKm8AAAAOdEVYdGljYzptb2RlbABzUkdCW2BJQwAAAABJRU5ErkJggg==;labelPosition=center;align=center;allowArrows=0;resizable=0;rotatable=0;" parent="1" vertex="1"><mxGeometry y="96" width="32" height="32" as="geometry"/></mxCell><mxCell id="68" value="23" style="shape=image;verticalLabelPosition=middle;labelBackgroundColor=none;verticalAlign=middle;aspect=fixed;imageAspect=0;image=data:image/png,iVBORw0KGgoAAAANSUhEUgAAACAAAAAgCAIAAAD8GO2jAAAA/mlDQ1BpY2MAACiRY2BgkmAAAhYDBobcvJKiIHcnhYjIKAUGJJCYXFzAgBswMjB8uwYiGRgu6+JRhwtwpqQWJwPpD0BcUgS0HGhkCpAtkg5hV4DYSRB2D4hdFBLkDGQvALI10pHYSUjs8pKCEiD7BEh9ckERiH0HyLbJzSlNRribgSc1LzQYSEcAsQxDMUMQgzuDExl+wAsQ4Zm/iIHB4isDA/MEhFjSTAaG7a0MDBK3EGIqQD/wtzAwbDtfkFiUCBZiAWKmtDQGhk/LGRh4IxkYhC8wMHBFY9qBiAscflUA+9WdIR8I0xlyGFKBIp4MeQzJDHpAlhGDAYMhgxkAkqVAs0XeJdIAAAAgY0hSTQAAeiYAAICEAAD6AAAAgOgAAHUwAADqYAAAOpgAABdwnLpRPAAAAAZiS0dEAP8A/wD/oL2nkwAAAAlvRkZzAAABYAAAACAA4S2WggAAAAd0SU1FB+YMARA2Ja+7PhkAAAAJdnBBZwAAAYAAAACAAJaWOi4AAAVWSURBVEjHlZZdi19XFcaftdZ+Oef/MmNfEk2TyWSmmdALo9iMFtIoaAW/Ql9Cv4JQvNGPI9RLBXtRQYIQQhEEJUQzySRTM0ltCWlN0vn/z9vee61eZKKIIjnr4nA4F3ut9XvO87Bp+9zreOYyUmM455qmYebKhzwkJ5SRs1hng0XJYmTGMKesaXAwfvYGALSUduiCj0JkxbwPTeqqefWzn7+3sOHqrWvfOvft69eurZ048cJstaRE269+f8wGMDbPkvvBcqmmky+7BWr301+895cbV8M8ZkqGnIZuPpl2XUdEbtT4ZOBClkrkYBFdnxBdx7b7yf6dB5/6Az569AVCjnU4GBZxOtm5uSMvHVt/9gZiCEZcqBTlyrdiJbqGc3LWa2+UDx7988jR53dv77547Mjjtnnu2IvjBABgBTFGMxtSMaNhGOpYzWez2WymRqfOnL61//eTm5upWIzRCkYqTOhJD/q2ns+992XRTtWHtvzp0hVty1B0Z39/AerAuWCK+OGvfjOugQGu8kVo0Td92z03X63h9XF3pFoNhWdhRohFpa5mFU+Gx8MMk5ENCL1mcwCbiOiQKJUVP6GmfHx1V5ZwLa3wivSOOvndr3/vcz1aA0CN9OkTMCJjUU4P270/76zkeOb5dTmgSx/8AcUf+8b6OB+ADs8lYxiTsREZALIQQtM3qjlOJ8vct6prpzfJyzgfGKAAw8jABv3XUqCu66IEkJQm1T4WHaZhWq3MRiMqjEIAIIpQEArYACDDei6t5hObp5jZge7euBW7Ms5oIAMZGbGRGBEIREpQMoqSrRzfWGcvsYp5GDjbg08/GxkVgC+H70kOKRkZgGEY3CRk0WzDZ/f/kZtuYn4WKwfS/wxUxhO29JSw8eFHUjJlAMZKbHjCyowAUkdiKX9y955qjhImVR0LShpYUVwQQ1HLKRXnvJegJRFSTs20rgjIuQBw3gp6BZ6cfqgulEzZ4BUuU514qs4PkIyiKMzsvV8sGuHopHYSTaltW++9GYVQffHFQych+EqfbEVkBPtvdAYyiMIpXGFRkB3+dZwT6mqmGs6f/9GZrbNtm2az1aFXL7Oho6+tfn1x0DM7M3RtEa4wMr7k6NHjVbWyfe58DPPV+apq+vzz+yGEklk4nlzbWC6bopmJVcHs/8f8/7fYe3/x3XdfeeWby0W3v78/mUym07qUIuKPv3QS5l7e3FJVZo6hzrmM3YCVMKSuruP29qsicuPmTtMsc05ra2vz+ZyIiiYiU8ulFBEZNz/AZuX99385lO6DD3+7s/tXF8QFmc4nzmvKTT8s7t27ywLVkksvAvw7IJ6p6Dvbr5dMTqZmCOL6oakraZqFY7+1debjvbs5Zx9dLr1zPKRO2I8T+fjalpoC5kQuvv3O97772sp8fmf/DlCadplSFg5F4Zzr+iZWzswAGoEopZxSjtFfvHhxNpsTcdflH7/xE2ZeLpfM7JxnimlACEF1HB8ADhzmqytvv/mWKvpkN67vTerVxeKRQWIVy8DH19a9qw1pb/9aKYlpnM5sSm+9+c7Gxstbp8/cvn17KLmoxhhhLOw3NjaFfc6FIJsbp3nkPQoAO4/1U2t936vqhQsXAE25vfLRFSLquuHW7h4LYgwp97u7t81G0D9E1A+NOBU4M/OBqlr++NHlITXeOSjN5pO9vVtd3zgn85Vp0x5gpJXlwYP712/+7Yc/eCOlfPnypcuXL3X9Ix8IhqquDh4fiDcRrSb8+MuHzo02GsEDQmfPvuak6tIyxkAYNGWoFw6qECHDYCVl1VhXQ1EYi+FpZJMCT8gpGePplQCACYCvAAPu9E7S9UESAAAAJXRFWHRkYXRlOmNyZWF0ZQAyMDIyLTEyLTAxVDE2OjU0OjM3KzAwOjAwkwkIqgAAACV0RVh0ZGF0ZTptb2RpZnkAMjAyMi0xMi0wMVQxNjo1NDozNyswMDowMOJUsBYAAAAedEVYdGljYzpjb3B5cmlnaHQAR29vZ2xlIEluYy4gMjAxNqwLMzgAAAAUdEVYdGljYzpkZXNjcmlwdGlvbgBzUkdCupBzBwAAABV0RVh0aWNjOm1hbnVmYWN0dXJlcgBzUkdCKvIqbwAAAA50RVh0aWNjOm1vZGVsAHNSR0JbYElDAAAAAElFTkSuQmCC;labelPosition=center;align=center;allowArrows=0;resizable=0;rotatable=0;" parent="1" vertex="1"><mxGeometry x="352" y="64" width="32" height="32" as="geometry"/></mxCell><mxCell id="69" value="22" style="shape=image;verticalLabelPosition=middle;labelBackgroundColor=none;verticalAlign=middle;aspect=fixed;imageAspect=0;image=data:image/png,iVBORw0KGgoAAAANSUhEUgAAACAAAAAgCAIAAAD8GO2jAAAA/mlDQ1BpY2MAACiRY2BgkmAAAhYDBobcvJKiIHcnhYjIKAUGJJCYXFzAgBswMjB8uwYiGRgu6+JRhwtwpqQWJwPpD0BcUgS0HGhkCpAtkg5hV4DYSRB2D4hdFBLkDGQvALI10pHYSUjs8pKCEiD7BEh9ckERiH0HyLbJzSlNRribgSc1LzQYSEcAsQxDMUMQgzuDExl+wAsQ4Zm/iIHB4isDA/MEhFjSTAaG7a0MDBK3EGIqQD/wtzAwbDtfkFiUCBZiAWKmtDQGhk/LGRh4IxkYhC8wMHBFY9qBiAscflUA+9WdIR8I0xlyGFKBIp4MeQzJDHpAlhGDAYMhgxkAkqVAs0XeJdIAAAAgY0hSTQAAeiYAAICEAAD6AAAAgOgAAHUwAADqYAAAOpgAABdwnLpRPAAAAAZiS0dEAP8A/wD/oL2nkwAAAAlvRkZzAAABQAAAACAA5oGTtAAAAAd0SU1FB+YMARA2Ja+7PhkAAAAJdnBBZwAAAYAAAACAAJaWOi4AAAV9SURBVEjHnVVLb11XFf7WWnvvc+7Lj9RJiJu6dpzUKK0jpa7SdgAkVQiIGUgMyl9hQoEhUmHID6jEBKQgmIaBK/EoKCRxUjcoJJLt5kETx7733PPYj8XgulUQSM3h0x4tba1vPb61Fp35+hv7w+Fgqu/RNKE2xqQmdblDFfXtoCmTQJQQWcEaEVmZFADjP5CAA6OCDmykQKJf/u6D/mBQNKNrG39bPfvq5s1bZ1ZeQ03v/+T9OIxzM0ebMpRlmfc7ariqxpYtKZ4fMn/u9NbjRw+GuyHjB/96yIY/3fl0uDf67ve+/6c//3U0HBtjcpfHFMZ1Za0hELXwD3N/b/fuve3puUHSqtvLll58sdPvlVW6euvG3nj/2AvH/LApyrLT6Uz1XF3XrbwDkK1UnHn1dU3B5q6KzcOnTwYz06qYygYf//2mCcwQl+fjqiQlw6zapkAAH+4eqp7s911XEouxJ06eure9k5iG4yLrZkRomgopCjGSVmXTMgFwby/cv/YPHmus4uL84r1P7p5efgVexdlE8Oo1eBcx7TrOZSZ3rQkylSwJVWHK9e7f2c5hUxlyk4miqWrL0ut0UoxVVRVFIcT/JdAvIzi6sNgwf3ztJg2bTjJ5sqg0T+b3v/pNjxyFFFVrk5KV3DqKqZVGAXBh6NDL8y8tL21s3MqRrcwvd4P57Qe/toklAeDEUEApkaKtdwCmc/zIo88eeujcwvE//uHD2aybMw+CC6SRODFYYRQEKCG1FSnADYWZY3Pd6YEmmunPola/X5soEoWUlCiBFQxgUh2l1I7Ahmh8yhINP3tSjkqXd0+efi1EEmUb2URmIP5fsR8QzCTOyuaTv1ytd4ss67xw5GgAfeX4S1DDypJY0sH2UoK2pxE7jmF33ykRCYgG0zMksr29AwUrCVQSiU4IKBGI2rGYgbg4rInJWG5ieHD/vq9qwyIgJUw6kICDLCjhQEj/c11/YU8HnwH24CDCZEzUnMjUoUNiFQwFUmR4QWQoQJpYgaRQTQG57ZfjwJQZY1VJVUNIIoZZAK7qcZaZmCqOjIlISCEJomnySBMA/fxNQAomNcaoalU1a6+fSwl1XccYnXMxRgBNHQDq96ZGxX6e5+3mHoCIlGVpjFlaerluqsXFBQB5njdNMzs7W45rZnbOee8z1xkXVUsCSiEEEVJVa633PqW0urraNI2qFkXR7/cBHg3HIhYgm2UMbcdBRCIiInfu3CGFFeO9V1URK2KqqrHWinUuyxsfici0LxGVZT01GOw9LXZ2dpaXl65vXO31ugDKsnrnwqVTp1ascz//xc/yjo0hyvyxpWe6+KXxa0yRxUCZhVNMu08fCyOlEGI6f/48kdvb25+enn7zzXM3bm2Mq4LbDicRGcNN08QYRSSlxMyTuk0+eO83NzcXFk+8++4POp0ePzMjz4UYY4yRjbBICIGZ9XOsr6+rqjHu0re/k1JaWFgMUVsT5HkuYr33X4Svqs45IiKi9fUPi6K4fPmyGPvej39KxLS29rUWZ4RSCI2IhVojeQpKpD6Uqsk4+9Zbb3/00Q1mAzaPdx9luXEd13IOlEWssDXiJm1Q1TzPsywDkGXZ2tpa7X1Rjgczsxe/daksS1pb+8ZkKzwnxHLThFBjdfVsChFI/7x7O8bARi5ceKdpWEmiQlmXThx3uZX5+UV6fpkCw9H+7OzcqZNfLYpxJ8+rqhxM9eq69iHcvn17eXmFWF5ZWTl85PCJk0uDqW7rXTQzc2g0Gl2/fr3f73vvjTFbW1vee2ttlmVXrlxR1c3Nzbm5OVWt6pLOvvG2KEihhEhQUjxzdROYFQSwHlzNAGUWAxejkkIRmaEaiShGZcmqJl689M2EeOHi+R+998N/A4+S9ZAoN27/AAAAJXRFWHRkYXRlOmNyZWF0ZQAyMDIyLTEyLTAxVDE2OjU0OjM3KzAwOjAwkwkIqgAAACV0RVh0ZGF0ZTptb2RpZnkAMjAyMi0xMi0wMVQxNjo1NDozNyswMDowMOJUsBYAAAAedEVYdGljYzpjb3B5cmlnaHQAR29vZ2xlIEluYy4gMjAxNqwLMzgAAAAUdEVYdGljYzpkZXNjcmlwdGlvbgBzUkdCupBzBwAAABV0RVh0aWNjOm1hbnVmYWN0dXJlcgBzUkdCKvIqbwAAAA50RVh0aWNjOm1vZGVsAHNSR0JbYElDAAAAAElFTkSuQmCC;labelPosition=center;align=center;allowArrows=0;resizable=0;rotatable=0;" parent="1" vertex="1"><mxGeometry x="320" y="64" width="32" height="32" as="geometry"/></mxCell><mxCell id="70" value="21" style="shape=image;verticalLabelPosition=middle;labelBackgroundColor=none;verticalAlign=middle;aspect=fixed;imageAspect=0;image=data:image/png,iVBORw0KGgoAAAANSUhEUgAAACAAAAAgCAIAAAD8GO2jAAAA/mlDQ1BpY2MAACiRY2BgkmAAAhYDBobcvJKiIHcnhYjIKAUGJJCYXFzAgBswMjB8uwYiGRgu6+JRhwtwpqQWJwPpD0BcUgS0HGhkCpAtkg5hV4DYSRB2D4hdFBLkDGQvALI10pHYSUjs8pKCEiD7BEh9ckERiH0HyLbJzSlNRribgSc1LzQYSEcAsQxDMUMQgzuDExl+wAsQ4Zm/iIHB4isDA/MEhFjSTAaG7a0MDBK3EGIqQD/wtzAwbDtfkFiUCBZiAWKmtDQGhk/LGRh4IxkYhC8wMHBFY9qBiAscflUA+9WdIR8I0xlyGFKBIp4MeQzJDHpAlhGDAYMhgxkAkqVAs0XeJdIAAAAgY0hSTQAAeiYAAICEAAD6AAAAgOgAAHUwAADqYAAAOpgAABdwnLpRPAAAAAZiS0dEAP8A/wD/oL2nkwAAAAlvRkZzAAABIAAAACAA7nWc7gAAAAd0SU1FB+YMARA2Ja+7PhkAAAAJdnBBZwAAAYAAAACAAJaWOi4AAAcSSURBVEjHlVXdj5Z3EZ2Z39fzvF/LQhcLy77LruyyUAoEtxSbVNAWjRf22tISEi+bGJPGGzWxxr/Fa70wUfxoBKwarbElFNgCy7IrhdDlY5d93+f5Pb+PGS+gxjvZuZjM1ZycMzlncP7Iq/DMJchCorWuKk+kS21jajRhgpy0eA65ICYUEYWiGSQk/ezbnxQz13VtrVGIzMEYVUVfdN0Pf/TuQMLF65cOfuXQlUuXJnbt2tYZ4ZBwkwxASAyp1ARJuWi3HvsBlPoHP373o4WLtusSRoEUg++22t57BLM5BihAGSVmR1Yc+CaC057k2u3lW6t3zAZt374NIbnSboSBa7euLtxQO3dMPjuAErCClDFnpsLUSrLTFaWopeFGMG2sPRzbvvXajWvP7Rhbr6utz++gzd5AMjjnRCTELIIhhNIV3U6n0+mw4O7ZPdeXl/rT0zGLcw4TbA6AERrkjaYuu11jTB7UbTa2zh++/wHXOWS+urw8APRAKUMb3O9/8avNAQiALkxWOGiqpvaj3ZESDK/7sWLEZurYDoLLrMqiU1ArrIcOlpsEQGg4iQYgUUpxiBhzz7SwyjcvXlND0DX2qKcajV6d/eUfQNymbwDAgvxFBxBEIcUUH9WL/7raS25266TawPd//SfIZmznrs35APDpXhQCIRQSRAEAFGtt1VTMybVbw9TUzBN7ppNTm/OBADAAgaAACfB/SQF6752ygCpXsTQuc2jbNo22Ny1RJsgIAKAYbAabgQQAIIE0lGtOu6Z3E5EGXFm4bn3enNEABVBQkASVIAICIiMwCjqVJI9PTZJRrnApBEpy7+6dTUYFgMlP56ieqiQoABBC0C2bFCcJd+99lirfErOlsP8DgAzyfxRDeepMBhKgjAgAggDIGjGndHvl38zslG4VpcuAIRBD1lYJZOYUU6MNGU2csyICxhxZoUZEREw5AAkq1cQIqIyxoUlEZIyCnIgF69wS15ZSB2qGXlvlJZMxbjCoFBmtrVZWGOu6MdqlKAB44MChGFmERLBVdlJKPviiVQKA975sOUSoqoHSWFgNKRoG8UEx9tqdwWDgSkcpSln0WPQrr5yYnXmhrlKnPRoaMbrsT+xpfN6/72AMwhmZkTNZa2PypFiEAaRp6sIZyTmEZnTrSF0PSYl1KqbaFnpYD9T2sd2Fa8/PH3WuGOmNMsP9zx9Y6yYnp4iU1ibGuDEYIGJVVWVZkBJh8HXs9bZ4740xzJkIWSSG3Gp1U8reN9YYQFBKk9Hu7TNn5ub2DQf18q2VVtlutzs5MyIqpZrGLy0tAYCIFEUBgCmisG6VI77m2ZkDnBWCFdYaS02Fr7NRHU1tZ3sxEIImRgihKctifn5eaVr49GpVDVOKKyvLKTUrK7eQckqeFJOCnFPOUhRt79PMnjnOOLV7j9EliFFkG5+Pf+31M2e+984733/0cEORzRnV8zsnL1++ePDwwd/+7jc3rl83VisFRem8H6ytPTBWpexdYQRS7YfGGCKdIhDq0dHnJEvhnCvc2tpaznzixDcQzfr6oDsyevTlo59cueLrodqxczLG8PHHH6+tPXLGhtBYY4fVRlFopcD7CpGVxuFwsGXLSAgBBAFYhNbXHm3bui1Eb6xaX39EhP1+H0nllFfvr7509Mj4+POXr36ixvvTLAwCWtu3T50+evSlXrd7a3kJgEVYKSSFzKy1SSkhgkhSCgkAUR48uL9ltHvns+WYakBeXrnVn5zUmk5+6zWB0Blx5879UY19aSLG1G513jp1utvucYa7d+/tnZ29tbQEyAACgIAIQCAKEBBFhAGAWUTyYPA45aCUAAIALK8sj21/7urCwv4X53763k8IRQPp7kjn1HdPc8YmwsKVG62yOxg8FlAAgPAk/QGEBBGElMYYIzACULfb2dhY11pVVVUUrWPHXvnwnx9dvHgJSJ//8zlXaFMaEpE333xravf0zMzMjRs3Q+bM4JwDIAB8mk7yZNYgKgYxujSmINTra0POhEi97lYQcrY1f+TlJnI1bEZGtr3+zW/XVVTj/Zk33vhODEmR3jXeX1xcRJC//u0DkQyY8clfBATAJ5CkKISUAh544XC76E6M9+/cvqNJC6jp6VkE05/8cn9ietfExES//9Vjx6gJldJgLQkkY7Ao9N//8ZcQa8AEwAAJIAGmL74ZhxBardahQ4cfPnzY7XaVUlNTU4jIDGfPniXUhHpubm7fvn17985NTEyo1c9Xr3z6ydePH4+xuXD+/IUL570fGoOIETAhJkAGRAB+QsMYquvqwf1HO3buCI0PwS+vLJISZRQpWly8OTm9e3X13r79M9pS1WwgaACNLx6c18r6JjlXojCnQMhfkAAAICEGAiBBRlScFQhZMpKTNpRSYMKchVQRQnjt5ElGPnHy1Z//7L3/AONG6ylSvzMhAAAAJXRFWHRkYXRlOmNyZWF0ZQAyMDIyLTEyLTAxVDE2OjU0OjM3KzAwOjAwkwkIqgAAACV0RVh0ZGF0ZTptb2RpZnkAMjAyMi0xMi0wMVQxNjo1NDozNyswMDowMOJUsBYAAAAedEVYdGljYzpjb3B5cmlnaHQAR29vZ2xlIEluYy4gMjAxNqwLMzgAAAAUdEVYdGljYzpkZXNjcmlwdGlvbgBzUkdCupBzBwAAABV0RVh0aWNjOm1hbnVmYWN0dXJlcgBzUkdCKvIqbwAAAA50RVh0aWNjOm1vZGVsAHNSR0JbYElDAAAAAElFTkSuQmCC;labelPosition=center;align=center;allowArrows=0;resizable=0;rotatable=0;" parent="1" vertex="1"><mxGeometry x="288" y="64" width="32" height="32" as="geometry"/></mxCell><mxCell id="71" value="20" style="shape=image;verticalLabelPosition=middle;labelBackgroundColor=none;verticalAlign=middle;aspect=fixed;imageAspect=0;image=data:image/png,iVBORw0KGgoAAAANSUhEUgAAACAAAAAgCAIAAAD8GO2jAAAA/mlDQ1BpY2MAACiRY2BgkmAAAhYDBobcvJKiIHcnhYjIKAUGJJCYXFzAgBswMjB8uwYiGRgu6+JRhwtwpqQWJwPpD0BcUgS0HGhkCpAtkg5hV4DYSRB2D4hdFBLkDGQvALI10pHYSUjs8pKCEiD7BEh9ckERiH0HyLbJzSlNRribgSc1LzQYSEcAsQxDMUMQgzuDExl+wAsQ4Zm/iIHB4isDA/MEhFjSTAaG7a0MDBK3EGIqQD/wtzAwbDtfkFiUCBZiAWKmtDQGhk/LGRh4IxkYhC8wMHBFY9qBiAscflUA+9WdIR8I0xlyGFKBIp4MeQzJDHpAlhGDAYMhgxkAkqVAs0XeJdIAAAAgY0hSTQAAeiYAAICEAAD6AAAAgOgAAHUwAADqYAAAOpgAABdwnLpRPAAAAAZiS0dEAP8A/wD/oL2nkwAAAAlvRkZzAAABAAAAACAA6dmZ2AAAAAd0SU1FB+YMARA2Ja+7PhkAAAAJdnBBZwAAAYAAAACAAJaWOi4AAAcpSURBVEjHnZRbj5VnFcfX4Tm87z7MAaYHGJhhSgcGWmgrFKnSQBXwWhNjWrGNd9r4FUys/QD9BF6aGBONNVHb3tBSTQ9WKQWmoFRmWlqgTGb2nj17v+/7HNbyArzW8fkA/99av2ethY8fO9obrnXHOhFCSI0xRoK0qMQaO7YbKmFgRcikQJohkxIq/O8Pf/G7XxeTxTBsXLj0twNPPHLl8uLBvY9Cg6+8/Eoe5KmJB0KVqqoqOqUaquuRJbspAM8cOri0dvPWYC15unXnNhn64vMvBv2Nb3/nu+++98HGYGSMKVyRJY2a2lqDgLiJfDBf9nqLi9fGp7qidavt56any067quX84sX+aH3b1m1xEIZVVZblWNs1TbOpdADgWyHsO3hAJdnC1Tnc7q12J8ZVYcx3P/7wsklEwK4oRnWFioZIdTOCAOi+9kS9ut5xLRZiYx96eH7pxudCOBgNfcsjQgg1SGYkEK2rsMkGgIr1cPPCP2mkuc67tu9aunp9/+49EJWdFYSoUVN0GcZd6Zw3hds0wKLxwlinMde++cmNAqxUqTCeFULdWOJ2WUrOdV0Ph0NGAqBNKprdEYg+vnAZB6EUU4iFWgsxf/jVb9voMElWbYyI5cI6zLKpGQUAGhndMrt95+65S5cWC/B7t+9uJfP7X/7GCrEAAAmBAigKKmw2HQBMe8fU2uqdCDo1s+Ods3+e9K2CqJtcQs1IQkAKRgEBFEE2O6QAFEAmtk21xrsqONGZhEbjemMyc2ZUVEQBUiAAuGtHUTYHIMkmihccrKxWG5UrWg/vfzRlZCWbyWQigPx/1X4P0FXyVbj6/vlmbeh9ufX+BxLggzt2ghpSYiEWuBuuCLp5DJsqp9V1p4jIgNgdn0DmGzc+BwVSZFAWZL0LQEFA3BzFdMnJoEYiYynkfOvmzVg3FhkAAQCVSOGedRRAAAVAAf1v2/Cfr6IGE5YOgSkARykydq3nHC2qqsaUla0QAWFOgTEb1hQaQnWWQ6yJwVorIqqaUmKDxAAodT3y3uYciZ1f36iYneXCU0EZ47D27HMUANz/6ONNVFFWhVbZyTGFuinLNgDUdV0WbQQejUbM7FyRcwalEAIAdDqdjY2NoigoRS2LMRH7ta+f2DP/SDVKnfaWELK1xczOh5om7d93IAaRTCIomZxrxZiJjCoCUNNE70sRCCFOTm6tqobQOFvEoN61R8PA998/UxTdw4ePeleOdydFdOXOl84VszOzRMawjzEONjYQYVQNyrJkZBWoq2asO1HVtTVeshIZEY0ptlqtlKSug3MeAIktsXVnnn9+YWFhOKyWlz9rlZ12u51zRkRmbkJ1/fp1AFHNReEBJKWsCq1Wu67D3vkFzYDIqshsmXxdJWs8G+d8GaIgWgKAEOuyLA8f/gozXrl6aTQaplx/+tlSyvWnny4jScrN3Y3IEnPORdGq6zA/Py8Z5ubmrPUAxGybJh4/fvyFF3744os/WVvrM9ucMz+4bfby5YsHH3viT6//8dq1K9YxsxYtV1ejXm/VOptS8KVVTVXTt9YS2ZSE0ExObhER733hi95aL0s+ceIEEvf76+NjE189cvTi4uKoGvG26ZmYwofnL/Z6fW9tiLVzNBwOisIwc11ViMqGh6PexEQnhBqUQQlA+v3e1i1TIQRrTb/fQ8KZmVlEzDmvrKwcOvLk9PT04uJlnp7ZJaKgbIw989z3jxx5cqzbXlq6riqqYNiqqoIaiykHEbG2EAE2nCX31tYmJyeWl5dyToCwvLw8s2vGGD55+luq2u12z751lmKMMWbv/ZkzP+h0ughc183Jk6edbakgkRVBZhODMtuiaOWcRTIiIEKMzcrK7RBqIkBSRH377beGw+Grr77K1rz08s8R0QC57nj7ue89LwJN1Csf/6NVTmxs9IajBpEJ2XCJQpYlhZglGnaIopoRlZnWBz1VZaYk+ehTT/31g79fuHAeyLz19pvel650pKrPPvvs3Nzc/Pzea9euhSRZ1Pu292VRtFQwJwxNNlwwOyZLRHdFi4jzRlV9YRUyAHjvDh061KQ4rEbdifGTp09Xo8YYY2Zndzah9o6OHTv2xhuvxRjeefcvKQmT7N69BwCY+eKl88aB8z6kBhBQQeTeOWPmpmmILTM7h08//XQWUOTp6R0/evHH1DQVG3COFJJ1WJTuvfffCaEuCje9Y3sItTFmOBwcOHCg0+n0+30RISJr7d0+AO6RROS1114nIkKzsLB/3759exb27ty5k+/cub14dfGZ4ydibM6de/PcubN1PbAWVXK/vzq19T7RXJb+o4/OZ206nZaCIiITiwgCEBEoIZCxjog++eRfu+Ye+vLOysK+/cb4qt5AYAKyjx180hgf6ui9J5WUIwEikmZAYABggyIxazLGhRCISESYmRljjMikhEEyWq5DOnXqlCqc+sY3f/bST/8NXL4EifA/aJkAAAAldEVYdGRhdGU6Y3JlYXRlADIwMjItMTItMDFUMTY6NTQ6MzcrMDA6MDCTCQiqAAAAJXRFWHRkYXRlOm1vZGlmeQAyMDIyLTEyLTAxVDE2OjU0OjM3KzAwOjAw4lSwFgAAAB50RVh0aWNjOmNvcHlyaWdodABHb29nbGUgSW5jLiAyMDE2rAszOAAAABR0RVh0aWNjOmRlc2NyaXB0aW9uAHNSR0K6kHMHAAAAFXRFWHRpY2M6bWFudWZhY3R1cmVyAHNSR0Iq8ipvAAAADnRFWHRpY2M6bW9kZWwAc1JHQltgSUMAAAAASUVORK5CYII=;labelPosition=center;align=center;allowArrows=0;resizable=0;rotatable=0;" parent="1" vertex="1"><mxGeometry x="256" y="64" width="32" height="32" as="geometry"/></mxCell><mxCell id="72" value="19" style="shape=image;verticalLabelPosition=middle;labelBackgroundColor=none;verticalAlign=middle;aspect=fixed;imageAspect=0;image=data:image/png,iVBORw0KGgoAAAANSUhEUgAAACAAAAAgCAIAAAD8GO2jAAAA/mlDQ1BpY2MAACiRY2BgkmAAAhYDBobcvJKiIHcnhYjIKAUGJJCYXFzAgBswMjB8uwYiGRgu6+JRhwtwpqQWJwPpD0BcUgS0HGhkCpAtkg5hV4DYSRB2D4hdFBLkDGQvALI10pHYSUjs8pKCEiD7BEh9ckERiH0HyLbJzSlNRribgSc1LzQYSEcAsQxDMUMQgzuDExl+wAsQ4Zm/iIHB4isDA/MEhFjSTAaG7a0MDBK3EGIqQD/wtzAwbDtfkFiUCBZiAWKmtDQGhk/LGRh4IxkYhC8wMHBFY9qBiAscflUA+9WdIR8I0xlyGFKBIp4MeQzJDHpAlhGDAYMhgxkAkqVAs0XeJdIAAAAgY0hSTQAAeiYAAICEAAD6AAAAgOgAAHUwAADqYAAAOpgAABdwnLpRPAAAAAZiS0dEAP8A/wD/oL2nkwAAAAlvRkZzAAAA4AAAACAAWeqJ7gAAAAd0SU1FB+YMARA2Ja+7PhkAAAAJdnBBZwAAAYAAAACAAJaWOi4AAAUhSURBVEjHtVZbb5XHFd2Xme9yLjaGgELgHGODjU0IIOQ4FlIKTUKiPrR9bUgQUh4j5RdESvKrWvpQtaaXKG2lkiYyRMHxRQ0RF+Nj/J3vMpe9+wBBRIqUCOnsp9lLM2tp7ZnZ2rhw9lV4lqAfpvIEVMDHGGqkYJ6J/Qnjj4D4JFMAEPqZfM8WEWm0AoowWgGAEQuQjLhEVkbsAHXEApFGLTDqVxRG7WDk/2Dkl8w64l6UxqcdoPz0CZSnttGPNQJ6GkcVEogmYYUoEnxojCVrSGJkIhCMXhgNIiJiiA5RmdGHBpGtTZzzRMYkNmoQiD4GYoPEClg1Ls1skEDWpkVRMlljEsOJClZVY00avALgyZOnvRdVUsVW3gkhNE2d5ykA1HWd5zkilmXBBpPUxOgB1TkHAJ1OqygeZllGwWOejYmac+cuzM68WJWh055wjVqT93vHmjqemD/lnUpEEZRISZL4UBOLqgBo01RZajVG55qJveNVNSTWJGUfqiQzw6rgA/sns7S9sLCYptn42IQI3L+7lSTp5OQUERtjvfe7RYGIZVnmeUasKlBXfmxsT13X1lqRSISi6l1stbohxLpuEmsBgdmQtfbdK1fm5uaHRbWxvtnK2+12J0ZBRGZumnptbQ0AVDXLMgAMHlVMKx+vK5mdOSmRERIVYzA3lNVVtNwx1E6TMe8IISEAcK7J82xhYYEN3fzqRlkOQ/CbmxshNJub60gxhJpYiCHGEKNmWbuuw8yxOYk4deSYNTmoZUqaOp7/xRtXrrz3/vsfbD/YZUpiAD54sP/lyn9PnTn1hz/+/tbXX9vEMEOWp3VdDAZbNuEQ6zSzCqGqh9ZaIhM8EJqJiec0apamaZYOBoMY5cKF1xDtzk7RHZ9YfGXxy5WVsi74+RcmvffXr18fDLZTmzjXJDYZlrtZZpihrktEYYPDYbFnz7hzDhQBRJV2Btv79u5zvrYJ7+xsE2G/30fiGOK9+/deXjx76NDzKze+4MP9qagKCsYk7166vLj48li3u76xBiCqwozEKCLG2BACIqgGZiQARN3aur9nonv72w0fKkDZ2FzvT04aQxffel3BdcbTPy//ifcf6PkQ2q3OO5cud9tjEuG77+4cn51dX1sDFAAFQEAEIFAGBERVFQAQUdVYFA9DdMyPx62NzY39B567cfPmiZfmPvr4Q0Q1yNxtdy/97rJEbDzcXLnVyrtF8VCBAQAfzVIKoKSIoMQGvfcgCEDdbmd3d8cYLssyy1pLS+f+9e//fP75F0Bm+a9/STOT5Cmp6ttvvzN1ZHpmZubWrW9clCiQpikAASAoAQDoo7UBZe/UmtzajNDsDIYSCZHGuntBKU1aC2dfabyUw2Z8fN8bb/6qqho+3D/669/81rvAZA4f6q+uriLoPz79m2oEjPi4tSEAPpIkJudCcHjyxTPtrNs71L/9v9uGjAJPT88i2P7k0X5v+nCv1+v3l5aWqGkqNpAkpBCsxSwzn/3z785XgAFAAAJAAAwACiAA4pxrtVqnT5958OBBt9tl5qmpKUQUgatXrxIaQjM3Nzc/P3/8+Fyv1+O7d++sfLXyy/PnvW+uLS9fu7Zc10NrEdEDBsQAKIAIII9sWEtVVW7d3z74wkHX1M7VG5urxMqWiWl19ZvJ6SP37t2ZPzFjEiqbHQQLwPjSqQXDSd2ENM1RRYIjlO9NAACQkgABkKIgskQGpYSsxmAsheCEMEYlzpxzr1+8KCgXLr76yScf/x/gdJzuvErJEwAAACV0RVh0ZGF0ZTpjcmVhdGUAMjAyMi0xMi0wMVQxNjo1NDozNyswMDowMJMJCKoAAAAldEVYdGRhdGU6bW9kaWZ5ADIwMjItMTItMDFUMTY6NTQ6MzcrMDA6MDDiVLAWAAAAHnRFWHRpY2M6Y29weXJpZ2h0AEdvb2dsZSBJbmMuIDIwMTasCzM4AAAAFHRFWHRpY2M6ZGVzY3JpcHRpb24Ac1JHQrqQcwcAAAAVdEVYdGljYzptYW51ZmFjdHVyZXIAc1JHQiryKm8AAAAOdEVYdGljYzptb2RlbABzUkdCW2BJQwAAAABJRU5ErkJggg==;labelPosition=center;align=center;allowArrows=0;resizable=0;rotatable=0;" parent="1" vertex="1"><mxGeometry x="224" y="64" width="32" height="32" as="geometry"/></mxCell><mxCell id="73" value="18" style="shape=image;verticalLabelPosition=middle;labelBackgroundColor=none;verticalAlign=middle;aspect=fixed;imageAspect=0;image=data:image/png,iVBORw0KGgoAAAANSUhEUgAAACAAAAAgCAIAAAD8GO2jAAAA/mlDQ1BpY2MAACiRY2BgkmAAAhYDBobcvJKiIHcnhYjIKAUGJJCYXFzAgBswMjB8uwYiGRgu6+JRhwtwpqQWJwPpD0BcUgS0HGhkCpAtkg5hV4DYSRB2D4hdFBLkDGQvALI10pHYSUjs8pKCEiD7BEh9ckERiH0HyLbJzSlNRribgSc1LzQYSEcAsQxDMUMQgzuDExl+wAsQ4Zm/iIHB4isDA/MEhFjSTAaG7a0MDBK3EGIqQD/wtzAwbDtfkFiUCBZiAWKmtDQGhk/LGRh4IxkYhC8wMHBFY9qBiAscflUA+9WdIR8I0xlyGFKBIp4MeQzJDHpAlhGDAYMhgxkAkqVAs0XeJdIAAAAgY0hSTQAAeiYAAICEAAD6AAAAgOgAAHUwAADqYAAAOpgAABdwnLpRPAAAAAZiS0dEAP8A/wD/oL2nkwAAAAlvRkZzAAAAwAAAACAAXkaM2AAAAAd0SU1FB+YMARA2Ja+7PhkAAAAJdnBBZwAAAYAAAACAAJaWOi4AAAVBSURBVEjHnVZdb11XEZ2Z/XnuPTfXbpyWOP5o6sZVPmxI6wfURKJIFe8gVShRyJ/hB/QX8IiEkEAICRCCUBQqSitQSLGduASaBqdOneKve+85++yz9wwPjpB4y2H/gLVm1syatfH1K2/uT/bLYS9JjKlRRnPkHhUYsLRlrDKRZgBBBsIMmYRQ4Pkf/uBnP/bTfhLHd9f/snL54v2NzdXXLkGD737/3TzKM1MvxTrVde3LQjSFUBkynQjUwhurD/d3noz2k6MnT78gTZ8//nx0OP72d97504d/Ho8qrbW3PnOqmmCMRkDsgA969+Bgc/PBcGbAEnp9d/bMmaLs14HvbP7tsDo6ffJ0O4qTui6K4kTfNk3TCR0A1JMYz6+uCCfjbcjxi4O9wdRQBE64wb2/buhEBMp6X4UaBTWRSBeBAOhUfyrsHZW2p5iUNq+8eu7h9mMmHFUT13OIEGMAzgoJWEIdOzYA5I/izt2/UyU55JdnX3649emFpWVoRVnDCK20klqbYWgLa532tjOBQe1YYUgnbH/nH9seDNfJa6cEYmgMqX5RcM4hhMlkopAAqKNEi3OR6N7dDRzFgrVnA0E861/86Kd9tJg4izSa2ShvLGbutKMAQJWWFxZn55fOrq9venCvzS71kv75D39imBQDADGBAAgyCnRFBwDdn5vZ33vagswszH3w3vvTrueJBskmlIzEBCSgBRBAELjrkgJQBJ46PdMbDoRxqpyGRtqjRmelskJBQWQgAQKAY3UEuRsBcdYtO8bRl3v1uLa+9+qFSymjEjKZdCYCyP9X7c8IBkKujlsf3Wn2J84VJ198KQF+ZW4eRJOQYlIMx+CCIN1plK5z2juygogKEAfDKVRqe/sxCJCgAlGMSo4JkBEQu7HoAVkeBSTShmLOT3Z22tAYVAAIAChEAs9URwYE6LqmDTIWFkFRBNWyzzgwTuXWoIhIm7Iow0RAmFNUmDv7QFl7NK6VskZ5R54ytpPglMstA+CFS19rWmFRItArytymzkNOLRT+BLN588pby+cu1lUq+y/EmI3xC/OvNE26cH6ljcyZmJFztzsBQOrFUwvel2trX3e2GA6mmeXLp7vW+sWFRSKtlWvbdjQeI0JVj4rCdTzXqI0xN27ezBE2Nz7599O9XlH2+/0QakQkUk2sH322DSQi2XvXVR84Po2xDUVRrK29rhTe31qvqknK4dG/HqYcHj36DIlTbo4dkbmBLk4WBHV6dn59Y331q5d/9etfPnhw31illPieDXV1cLBnrEkpusKIpLo5NFaDEMBzOwERL69dyVk09UXQKt3EuvCqqsaFtwAU6khE1rvxZG9qul9VFaED0c/fgVZKZc7MrLW9fv26serTf27duvWblBKistbmnFNK3vsQgog8f/XPZtC2uW2zc+7Gje+V5QBBhdC8/fa3rOkJI5FhRqV0G0Up432va6JpJD0YDq9/9yYzNK3cv/dJr5gajw8mVYOoCJVWBTIZxSm2mVutOsUyaRG5du3a2cWzRPZ3v70VE1sW5/rOFUQ6R8kZcsrWee724/ovg6bFxfkmBuZ09epVAG7b+P4f/5AS58RLS+eWl5fPn79YVXVq2ZiuVmBqYq00WEsCyVj0hf3wow9iDN7bM3OzMQat9WQyWllZKcvy8PCwawdqd3d3c2vzm994q22b27d/f/v2eyGMjEHhfHi4N3PyFEsuCvfxx3eyNGXZY+4SmcgIGkDDyuoblnzVRuccinCbCAhRcSZEJGClMEHDnBCVAB0nKAkgAMmzQJX/dWAmFuT/AGu81OHGsWdWAAAAJXRFWHRkYXRlOmNyZWF0ZQAyMDIyLTEyLTAxVDE2OjU0OjM3KzAwOjAwkwkIqgAAACV0RVh0ZGF0ZTptb2RpZnkAMjAyMi0xMi0wMVQxNjo1NDozNyswMDowMOJUsBYAAAAedEVYdGljYzpjb3B5cmlnaHQAR29vZ2xlIEluYy4gMjAxNqwLMzgAAAAUdEVYdGljYzpkZXNjcmlwdGlvbgBzUkdCupBzBwAAABV0RVh0aWNjOm1hbnVmYWN0dXJlcgBzUkdCKvIqbwAAAA50RVh0aWNjOm1vZGVsAHNSR0JbYElDAAAAAElFTkSuQmCC;labelPosition=center;align=center;allowArrows=0;resizable=0;rotatable=0;" parent="1" vertex="1"><mxGeometry x="192" y="64" width="32" height="32" as="geometry"/></mxCell><object label="17" red="17" green="0" blue="0" id="74"><mxCell style="shape=image;verticalLabelPosition=middle;labelBackgroundColor=none;verticalAlign=middle;aspect=fixed;imageAspect=0;image=data:image/png,iVBORw0KGgoAAAANSUhEUgAAACAAAAAgCAMAAABEpIrGAAAA/mlDQ1BpY2MAACiRY2BgkmAAAhYDBobcvJKiIHcnhYjIKAUGJJCYXFzAgBswMjB8uwYiGRgu6+JRhwtwpqQWJwPpD0BcUgS0HGhkCpAtkg5hV4DYSRB2D4hdFBLkDGQvALI10pHYSUjs8pKCEiD7BEh9ckERiH0HyLbJzSlNRribgSc1LzQYSEcAsQxDMUMQgzuDExl+wAsQ4Zm/iIHB4isDA/MEhFjSTAaG7a0MDBK3EGIqQD/wtzAwbDtfkFiUCBZiAWKmtDQGhk/LGRh4IxkYhC8wMHBFY9qBiAscflUA+9WdIR8I0xlyGFKBIp4MeQzJDHpAlhGDAYMhgxkAkqVAs0XeJdIAAAAgY0hSTQAAeiYAAICEAAD6AAAAgOgAAHUwAADqYAAAOpgAABdwnLpRPAAAAqZQTFRFLj40IDEnLT40KD8vIjsmJj8pJDkmLjwvLzMyOzg/NS87ODA/NzE/NDI9NDQ8MTQ7MzM9mbSlpcGymruma49zmMCecJV0nrygnrWhLTgwKistPjtEODJALyk3NzVANjlCLjE4MDU5ZpB8aJWBaZuCZpx8Z5l2bZt3a5Bxd5N9o7erLjo4Ki00NTM+OjRCNTI9Ky43LTY7TYFrLGFPO3VcOXRUQ39bZJp2bZx8bpR7co1+HzAqOEBDLys5ODRCOTlDMjI8LDc7CT4qSHpuQHVhQXxgOnpXOHpUX5t3ZZZ5eZiIIzQuMTY6NDQ+NzdDLS05NDI/NzQ/Hkg8QGhgTHtrRHpiPX5cWp55P39cY5h6bI59Kj41Mjc6Li42MC47NDA+LjU9KTk4Jzk7TnFqQXJfXZh8OndYaaKCY5N5b5SCKD81LTY1LSoxPTJAPzREOjZFMzM/MDg7Ljc+T2lmT3hqRHVgQnddZ5l+a5eAcpOCIjcuMjg4ODM6Oy89Nyw8Lys6NjRBR1ZbKDlAJjo7UGtkTXNkSnViZ5F9c5WEJzswLTg0MzQ2NTI5NDM7NTE/NzBAMTQ9PFpcOlhaQ11cJD86VXNrcY+FcY2BJToxLDkyMDY0MzQ4MzQ5MzM7OC9ARXZyL2JbNWJbOF1WHDIvLTk5NTs7MjY3Ljc2LTc4LjY4Kjc9P3duP3tvP3FoN1tXLD5ALTI4MC00NjM6MTQ5LjY5LTc5LjU7KTg9RHNrQ3ZtRm9pKkdFIzI3MzpCVFdgMjA7MDU7MDQ9VHFtSm1nHzk4IzY6KjlARlBZUFdhSkxYLy4zODw/MTk8Kzg+RVNcS1hhLjZBMTNANzE9ODA9MTM/PDA6OS84MjE5LzY+KTM8LTpDKDI8LDQ/Oi89NTI7NzE7NDJA////d8+COgAAAAFiS0dE4V8Iz6YAAAAJb0ZGcwAAAKAAAAAgAFayg4IAAAAHdElNRQfmDAEQNiWvuz4ZAAAACXZwQWcAAAGAAAAAgACWljouAAABh0lEQVQ4y2NgYGRiZmFlY+fg5OLm4eXjF+BFAfwMgkLCIqJi4hKSUtIysnLyCmgKFBmUlFVU1dQ1NLW0dXT19A3QTTBkMDI2MTUzt7C0srYRsLWzd0CV53VkcHJ2cXVz9/D08vbx9fMPCMRQEBQcEhoWHhEZFR0TKxcXb4umIIEhMSk5JTUtPSMzKzsnNy+/AE2BAENhUXFJaVl5RWVVdU1tXX1DAJoKhsam5pbWtvaOzq7unt6+fp4+VPkJDBMnTZ4yddr0GTNnzZ4zl3cedx+6G+YvWLho8ZKly5avWKnYq9/fh6ZgFcPqNWvXrd+wcdPmLVu3Ceijy/NuZ9ixc9fuPXv37e+dy3/goACGglUMhw4fOXrs+ImTAfq8cycIBKB7wpDh1OkzZ4+dO3/hYt+ly5f0C66gxUUvw9Vr12/cvHX7zsWAy3cvYyq4x3D/Hq/AhCtXrhTw6uvrA0OOF90EXvyAoAJeQgoCKFYgMKqAOAVzEQp6gRAIQGmqtxdEPwgoEBDYDAAEladICftBCgAAACV0RVh0ZGF0ZTpjcmVhdGUAMjAyMi0xMi0wMVQxNjo1NDozNyswMDowMJMJCKoAAAAldEVYdGRhdGU6bW9kaWZ5ADIwMjItMTItMDFUMTY6NTQ6MzcrMDA6MDDiVLAWAAAAHnRFWHRpY2M6Y29weXJpZ2h0AEdvb2dsZSBJbmMuIDIwMTasCzM4AAAAFHRFWHRpY2M6ZGVzY3JpcHRpb24Ac1JHQrqQcwcAAAAVdEVYdGljYzptYW51ZmFjdHVyZXIAc1JHQiryKm8AAAAOdEVYdGljYzptb2RlbABzUkdCW2BJQwAAAABJRU5ErkJggg==;labelPosition=center;align=center;allowArrows=0;resizable=0;rotatable=0;" parent="1" vertex="1"><mxGeometry x="160" y="64" width="32" height="32" as="geometry"/></mxCell></object><object label="16" red="16" green="0" blue="0" id="75"><mxCell style="shape=image;verticalLabelPosition=middle;labelBackgroundColor=none;verticalAlign=middle;aspect=fixed;imageAspect=0;image=data:image/png,iVBORw0KGgoAAAANSUhEUgAAACAAAAAgCAMAAABEpIrGAAAA/mlDQ1BpY2MAACiRY2BgkmAAAhYDBobcvJKiIHcnhYjIKAUGJJCYXFzAgBswMjB8uwYiGRgu6+JRhwtwpqQWJwPpD0BcUgS0HGhkCpAtkg5hV4DYSRB2D4hdFBLkDGQvALI10pHYSUjs8pKCEiD7BEh9ckERiH0HyLbJzSlNRribgSc1LzQYSEcAsQxDMUMQgzuDExl+wAsQ4Zm/iIHB4isDA/MEhFjSTAaG7a0MDBK3EGIqQD/wtzAwbDtfkFiUCBZiAWKmtDQGhk/LGRh4IxkYhC8wMHBFY9qBiAscflUA+9WdIR8I0xlyGFKBIp4MeQzJDHpAlhGDAYMhgxkAkqVAs0XeJdIAAAAgY0hSTQAAeiYAAICEAAD6AAAAgOgAAHUwAADqYAAAOpgAABdwnLpRPAAAApRQTFRFMzM9NDI9MzM7MjU6Njk+LC82LjE6NzVAMjE5NjM6MjM3Ljc2JjUwIz0yIT8zID4yIz8xJz0xJjctMDM4LTA1NTY7NTQ6NzY8LTE0NT47pretmrana5F6mcSpb5d8jLOYn7+nnbmjMjU8Nzc/MzA5Miw2OjdALC80LDg4m7Kqaop7cJeCbJh9a5h5ZpJxc5x8a5R0bJR5NTI9NjA8OjI/OTM/MjA7LDY4JDo3dZaLSnVhT31jZZN2ZpNybZt3ZpZwbZ96RHdWNzE9PDA+Oy0+Nyw8OjdCLTY9KT0+HD02Q21fP29ZRndaSHVWbJp2RnZQap91XJZtYp56MzM/QjRFNis7NDI/LDU+Izc4JUQ+UHlrS3tlRHZbaJt6R3tVZJhyZZx0Y510Y5p6NC48NS08PzhIOTdEKSk1LjU9Kzs7GzYvSXJiPnNZP3xbO3tWXJh0YZl0bp17HT4pODZBMjA9MzE+Mi48OjZENzVCKSwzMD4+T29kSnllQHxiOHlZZaCAaZt+aI51KT8yMTQ9NTE/ODA/MTQ7LUA+TW5lRHNjRntnaJmEapOBIDwwKT45MDU7OC9AKC81Kjw8Um9qbI2Ga4yFJ0ZAIDk1PlhVNDM7MzQ5NDJAMzJAOTlFLzI7LTA3NDtBKTc6IDU4PVlaOWBdMTQ5MzQ4NTI7MTNAMTE9NjRBNjM+MzE8MjZBJjM7SF9lSnFwLjY5MDU4Oi89Oy4/Oi9ANTFALTE8LzY+LTE6T1NcNDhDKjM8KjdAUGltMDU5MTM/MDlAKzY8R1RaTVheR1BXNDtDMTVAKTY8NTI5NzE/KjM6Lj1AQ1dYKjk8Ji80MC45OTY/NzE7LTg8Jzk7JTc3LDo9MDc9NzQ9OjA7MDQ9////0b/wxQAAAAFiS0dE25kEFhQAAAAJb0ZGcwAAAIAAAAAgAFEehrQAAAAHdElNRQfmDAEQNiWvuz4ZAAAACXZwQWcAAAGAAAAAgACWljouAAABdklEQVQ4y2NgYEQBTMwsrGzsHJxc3Dy8fPwCgkIM6AqERZhFxcQlJKWkZWTl5BUU0RUwKCmrqKqpa2hqaevo6ukbGKIrYDQyNjE1M7ewtLK2sbWzd3BEV+Dk7OLq5u7h6eXt4+vnHxAYxBCMpsAlJDQsPCIyKjomNi4+ITEJXYFRckpqWnpGZlZ2Tm5efkFhEboCxuKS0rLyisqq6prauvqGxiZ0BQzNzQwtra1Obe0dnV3dPb19GAra+pkYWye0Mk6cNHnK1GnTZ6ArmDlr1kzGltlzgufOm79g4aLFSzBCcumy5U5ABStWrlq9Zu269RswFGzctHzzlq3bVmzfsXPX7j1792Eo2L8UrODAwUOHjxw9dvwEuoKZJ08uNzq1LezA6TNnz547f+EiRkBdumTEGBYW3Jxx+crVa9dv3GQIQ48sI4h3GZpv9TczMBphKEAHDIyEFBBSQVhBMO0VUO7IweBNglY0BwfPAYLZYaBoDYMBhAIANceDT0mfcckAAAAldEVYdGRhdGU6Y3JlYXRlADIwMjItMTItMDFUMTY6NTQ6MzcrMDA6MDCTCQiqAAAAJXRFWHRkYXRlOm1vZGlmeQAyMDIyLTEyLTAxVDE2OjU0OjM3KzAwOjAw4lSwFgAAAB50RVh0aWNjOmNvcHlyaWdodABHb29nbGUgSW5jLiAyMDE2rAszOAAAABR0RVh0aWNjOmRlc2NyaXB0aW9uAHNSR0K6kHMHAAAAFXRFWHRpY2M6bWFudWZhY3R1cmVyAHNSR0Iq8ipvAAAADnRFWHRpY2M6bW9kZWwAc1JHQltgSUMAAAAASUVORK5CYII=;labelPosition=center;align=center;allowArrows=0;resizable=0;rotatable=0;" parent="1" vertex="1"><mxGeometry x="128" y="64" width="32" height="32" as="geometry"/></mxCell></object><mxCell id="76" value="15" style="shape=image;verticalLabelPosition=middle;labelBackgroundColor=none;verticalAlign=middle;aspect=fixed;imageAspect=0;image=data:image/png,iVBORw0KGgoAAAANSUhEUgAAACAAAAAgCAIAAAD8GO2jAAAA/mlDQ1BpY2MAACiRY2BgkmAAAhYDBobcvJKiIHcnhYjIKAUGJJCYXFzAgBswMjB8uwYiGRgu6+JRhwtwpqQWJwPpD0BcUgS0HGhkCpAtkg5hV4DYSRB2D4hdFBLkDGQvALI10pHYSUjs8pKCEiD7BEh9ckERiH0HyLbJzSlNRribgSc1LzQYSEcAsQxDMUMQgzuDExl+wAsQ4Zm/iIHB4isDA/MEhFjSTAaG7a0MDBK3EGIqQD/wtzAwbDtfkFiUCBZiAWKmtDQGhk/LGRh4IxkYhC8wMHBFY9qBiAscflUA+9WdIR8I0xlyGFKBIp4MeQzJDHpAlhGDAYMhgxkAkqVAs0XeJdIAAAAgY0hSTQAAeiYAAICEAAD6AAAAgOgAAHUwAADqYAAAOpgAABdwnLpRPAAAAAZiS0dEAP8A/wD/oL2nkwAAAAlvRkZzAAAAYAAAACAAR1qdNgAAAAd0SU1FB+YMARA2Ja+7PhkAAAAJdnBBZwAAAYAAAACAAJaWOi4AAAl1SURBVEjHLdbrktXVmcfx9TzrWWv913/v3Q2NTjg0LQ0KyiEcpNUGaToQeTFzBVaqcqhKVVLJHYgapyamkguYmhkr5S1o8mIGQys2hICK4GTElu6mRUACxEa69/4f1vGZF+YWflXfT/1AQG/XvoO//Pkvg4/G2KZplKSFxWvnz55lEVIKiqRzjbVWIjofJSjBePjwYWYmrZxzly9/UtUNgASpmFPmqLVqfVVY/dGFv9DO/ft+/evXC20XF6+7kHRRGqXGtz6ec/rLhbPRxcKaruo2bSWEAKGYYWzsMQCptWq927t3//YdT7355psMcPzY9KbRDcboLFLZ0b/73W+FyGhUAULcv39/dHRUSVn1+23daFJCAAjZ7Q4NBoPGtYBktEVEACCie/fuXbs2d/fuHe/bW7duaa2PHj06NjbW7XZzzimlbmfo9dd/M/HsIXLO5RyHhoa01lev/l+n02uqWogsSdZ1bY0qjCUlnWucC1rr5PONG0tjY2PWWh/D/Pz8hYsfVlXFzHNzc6ZQzDx9bFopUFo656jQJAUAwB/ferssOv2VVQDQmlIKZdkNrtEavQuIFGJkFoDMIn1x47qUMqZ09+5d51yn00FEay0z+9DMzMy88MJxZo4xwv6J6UOTR4RAo8umaq3tAID3/sKF8z/80Q/KQvf7K9ba69cXZmZmpJQ55E7HVlUjhFBap5QYMEWRGE6cOLG8vLxu3TqQonVVzvHyxx+BEJ19B57RqoiROQOADCEB8Msvv9Qb6iwtLEhiAIgxLiwszM7OGpKrqyvDw2u01iv9VQRCUhJ1YmAGKWUIrnF1YRWiuPzRBySEQMQXX3zR2m7wSQi8efP26dPvdLtDg8HK4uIiIDMzADMDETnXjoyMVFXlXGuM8S4i4sTExI6ndill6rru9Tqtb1DC73//hhAs9+6ffO21X61ds67fr4SAEGK1Olicnz/7/iznCCAEcAjB2vLUqVPGaJJQ1X1tlJTkvC+MfW7y0M6ndgnAnFlKyZxTjptGNx0/fmzu88+ISKeUjC42bx5duv6ltXbjxo0nTpyYefdPFy9eZM4pB6WUc05rHZwXHK21AOCck1K1bYuIRNT6qHXhvUeUY5vGUIL3TkpJQmQial1NslhaWkopEVBK6fnnn7906cPBoO50bXCeEBCRBUsk71vEf2yrrUbEK1euIGki7b1nTv8y9s+Zg5QQY8QQgjHGGHPmzBlA9t4jIoukNU1MHFRahuByjlLKbwsSQqSUpJRE5JyLMXrvjTGIKKVUShVFcerUqaZptNZKkby/vPrx5cs5MWdo23aoNyyyUJqca8+f/zNJVCRBiBR9TtEWxvlWayUEAACRdq1/uLLy6KPfQUlN02qtYwwhua++unn7q5vz166BEJ3DR6f7KwOShVLatSG6iFJoTdrItq6quv/oukeccwAQY5AEiCIlZmZJBoG+fvDN2jWPuJDKsts0jbUmZJez7w9WFj+fA0HDO3fu+vnPfoGoJcgUWQIsLi6eP3e2qldJQlkWVVUZo1EIZs6QhchSKudc6+Lw0FpA3TQt6WLfvgP79+/POVZtf/36Rx79p3Uvv/QSHTjw9CuvvAJC3b75VWJOKRlTbt26Nbj20scfpdg+++wkMyMispidnc0gBIiUvCJT2E5VDUhZRHl4cvLJnbu9j0VRAHJZdlPIIUSKPiipvcvbtz3xzql3QwhEOqWglGqaZnp6eveePXNX55raGWO3Pb77+tLnKHNIUSA0TWOMFixa75l5fm4+xgwAzOHxbdvrwaqWBRVF0TRNQeXbb/+RpA4hlaUeDFqSpJQaHx/v9/u3bt0STAiUs8hZZI6AIqWAMofgjLGdUp87N3vs2PcxC0RwLv3hrbfK0jAn2HdgamrqaKccHgwawWRtx9UNAJ95/zSRtIU+ePDg/ftfg8B60Ny8dQPQSxJSQtvWpCmlLATGkE3Rc23S2njvTVnkHFN2V77FbuLZybaJiEqRHQzq4W4vRo8ys4hNNfgW4RizJkOELEKIbYwegIvS5pydC7boHTo8Nb7lCaU0KjkYrNrSvPHGf/zvX6+AkN0DT0/85Mc/RdQERc7COac1ffbpJxc/OM8cMidgUZZl2zqRQQghBUQO3V5Z13UIobDdyeeO7HhyV84CSYfglJYbR9f7UL/26qu4d9++kydPjo+PC4a6rgHAGJNz3rt37+TkJDN3OpY5VVUfkRlyikyySBHbJgWfC9NLEVwbUwTSZdM4AWrjps0psS16xhREpJk5Jd6wYdO9u8vOR6M0cxzUrTIGER88eLB27fBgMEgMAKR1sXl0S2F1XVe3/3bbuQAoy7J77doCSIWILvjHtmxOLB6uDlAqijEWhU0REfHq1TmltG+dJEEkUmbn3MjIyMrKN0oppVRwecv4FpFz09Ra04YNG+7cudM4nwUzAknpYyDC0++d/t73pobX9OpmgMzCu0hEp0+/KwSklBARxD9oK4qiruuiKKVUTeOUUrduf5GSF5QzxhtfLjpfFQW9d+adzG3mFmVk4UKsZ8+e/u//+QNAhoPPfX/qyHR/tbW2h2Dqul47vGZl9YEx8uy5M4UWVT2w1njvpVQ5JmCpJbWhlRKZWSpKmRF1YiSpW++EyKajl5fvjawbvvTBBbp08UPO0ruklE1eaG2apiYlCDOn0LZJKZUjcxKkKAIiyJjZGMucQKL3fvLQ1O5d3xWo6ro1tpASalfZUv3nf/27iAxPP/PCyZOv/O3O/aZxvc4a59z8/Pwnn1xafbhcdrRzDSkZfTCmCD4dOXKUkyCi8+fPtd4Zo6ampvd8d/+DBw+V6RSmrJqaOUkDmzatFxD/7V9fRdfWRtPY5tFuxzpXKQU7n3x8984d3V7hfYsgRGYiSik9tnmLJoNSb922feKZSa1sU8dvHvbrynfKtTlJ12aSVqvO+kdGtTQcAQWR1tr7Niecm/uMWRBR8r7bK/qDh0WhgwtSagDZNsFau7T0BQuxZ8+uHTt2XL7yMelep9NZWFjwPktVpMgMggi/s/6w915K2TSNXL/hMSHg9pc3ESB4l1PQWr733ky3Y51riKQAzpEV6eWvH46MrCWFyw///qeZU/3BNwJ467YtVduYQqcUiWTwrdb4+fyn23dsk5L/fO59EMI+PfGcENK1oTQlALSuJhKcAynBzCklQiNYxiCIKOZAWsbgpaJvz+H00eNZEEnTtl5rnVIAKQDjmfdn/nr50v8Dis+Xw8k8yrYAAAAldEVYdGRhdGU6Y3JlYXRlADIwMjItMTItMDFUMTY6NTQ6MzcrMDA6MDCTCQiqAAAAJXRFWHRkYXRlOm1vZGlmeQAyMDIyLTEyLTAxVDE2OjU0OjM3KzAwOjAw4lSwFgAAAB50RVh0aWNjOmNvcHlyaWdodABHb29nbGUgSW5jLiAyMDE2rAszOAAAABR0RVh0aWNjOmRlc2NyaXB0aW9uAHNSR0K6kHMHAAAAFXRFWHRpY2M6bWFudWZhY3R1cmVyAHNSR0Iq8ipvAAAADnRFWHRpY2M6bW9kZWwAc1JHQltgSUMAAAAASUVORK5CYII=;labelPosition=center;align=center;allowArrows=0;resizable=0;rotatable=0;" parent="1" vertex="1"><mxGeometry x="96" y="64" width="32" height="32" as="geometry"/></mxCell><object label="14" red="14" green="0" blue="0" id="77"><mxCell style="shape=image;verticalLabelPosition=middle;labelBackgroundColor=none;verticalAlign=middle;aspect=fixed;imageAspect=0;image=data:image/png,iVBORw0KGgoAAAANSUhEUgAAACAAAAAgCAIAAAD8GO2jAAAA/mlDQ1BpY2MAACiRY2BgkmAAAhYDBobcvJKiIHcnhYjIKAUGJJCYXFzAgBswMjB8uwYiGRgu6+JRhwtwpqQWJwPpD0BcUgS0HGhkCpAtkg5hV4DYSRB2D4hdFBLkDGQvALI10pHYSUjs8pKCEiD7BEh9ckERiH0HyLbJzSlNRribgSc1LzQYSEcAsQxDMUMQgzuDExl+wAsQ4Zm/iIHB4isDA/MEhFjSTAaG7a0MDBK3EGIqQD/wtzAwbDtfkFiUCBZiAWKmtDQGhk/LGRh4IxkYhC8wMHBFY9qBiAscflUA+9WdIR8I0xlyGFKBIp4MeQzJDHpAlhGDAYMhgxkAkqVAs0XeJdIAAAAgY0hSTQAAeiYAAICEAAD6AAAAgOgAAHUwAADqYAAAOpgAABdwnLpRPAAAAAZiS0dEAP8A/wD/oL2nkwAAAAlvRkZzAAAAQAAAACAAQPaYAAAAAAd0SU1FB+YMARA2Ja+7PhkAAAAJdnBBZwAAAYAAAACAAJaWOi4AAAdYSURBVEjHfVZbb17VEZ3bPrcvtoNDHNsQEju2wW1IpCgSIsHYTpOKtv8G9alq6Vv7UFXtQ1VFKu8Vf4DSlILjklLEpSiEkPhzbo5QEZQEX75zzr7N7sNHUgdwRlvn4TzMmjUzWrPw+LF5+H8oAAAqACCiakBkAE0JiQgRvUsIYkzufM8Ydr42xsSAzFkMTJwlxZCCKdi6zaw077/9tsAOkVJMKRElZgkhhBCIiJkTAFAEUOvaoaHBu3fvFkUHARDTqVMLjz223+S5Yqiq7Ne/+RUA8PjYwe1pAQAwAQAiIRIAqqaUAIGJmJmDRiSM6suq2NzYGBraTWi2tupTp16YODjdqQZ90Khpz/CeH5w+c+3m2o4MVFVEYozBKzOLiKo6F8QUSVNR7GrqXp5XmxuNKjy6ZzQl/OSTqyYvE8SFU/PGIOdkrb0PoNtoEAAkVY0AiYwxRBRCUFUjxbFjJzrVQIhtCP6D99/FzAPxF/+9S0RlKRGSs/b1v//lzJnF6CFEe79F6RsMmFlVY0wigojWuqIo9j8+ObrvCdtGIjny9NGnDx9+/71/I3Kel92Va1NTU1/e/XJwqDIZr3Qvr3Sv3rnzhTxQ+7ZAZCIMwYcQRYRQmAyTfPrpf+pew0Kzs7Or124pYHDBGDRF/sb5JWb0oW3sVlEyMXzw7rs7zsBaWxSFMRBjJBRjsK7bm7du7H9iIssNIlz+5OKFCxdSilXVOXb8+FNPfc8YU9dbA4Od1tXE+vLLfwJFPH5sbgcIYua2tVVVeReJRFUBFCkBQIiRiIzJnQtz84szM08iMLJ4F03GIYSxsX1Fkf3ipZ89bIsAoKqquq4PTU5nWUFEK93LAAoYABOSaZqeKUoA+Pjjj5FkcnIqM0UMaeLgoajeueidPgyAiJqmOXz4sG09EfR6vZmZmW73Sgghy0tVQGFr7fLyMrGoQlmWIahq2DvySFmWiImFdgQoikJV81wuXbp0aHJaVYuiuHplBRAQco38zDPPzn7/aWaDxNZ6Ijp79o9zc3Mmk7cunF9YeD7PcxHAe1r0HbuEiG3rBgYGQogppaRIJMzsfZxfWJyefjIhi8j65kZRFPvG9xWFeemXP5+fn7NNL88z59zy8vJDtCghoog451ICVWUy3vumsUXeaZuQlEmyrc16YNfQ6OhoRB+jhhDOnXvNMCOCCF26+OGOAH0GIqQaRbIYwRhONlRVAZDE0MrKlUTsXTR5NjIyogApJY14+vQLT05NI6bdu3f/7ve/pftL+e3sKSXvPbOJMcaozjlEDMGF4Ag1gQd1YsDZ3htvvk4ARvJc8mg1xnTgwERZdmzrCQDvvXsYqIAa1fdF4utfEfKsBCBQzMRceGtJY5vU5pkyBsL41vL5n774IihmWdFdWVVVZozq8fixhftt335wiMjZIJKJSG+r7XQ6vV6TZRkBxhhNxt7bslNtbGwMDj2ysV6T5Hlenjw51+ttsgEWQIrvvPOvHQGYTNu2zIaIhHNr7dDQI1tbWylCnudNu2mM8dEBgCbMsiIoJkUAyjJpbN3ZVWxsfHX5ow9lm44+sKkhhCzLiMQ5p9EZY44cOQJAjNy/dMRw/h9LRBQVVHVx8fTEwUPMxntbVHmv3njllT8D8/aLlu6XDwCErKopgTHGtm52drYoyrKsQEnYTE5OjI2Oscja2i0iPHHixKGpmSzPmrrpdDoh+vHx0eefn7ty9TLdq123Z+9vERE55/qKFEJYX1/vdru3bt26fv26iEHEo0ePxhi99yJijHHOdTodVd27d29ZljFGZt52D/CBFnnvq6oCIO+9MK2urs7MPMXMuZTW2qWlpX37Hv3r317bO7LHed+27cWLHxpTBK9E9MMXznjvRbKUQL4zOwCISF3X/SFH9US8srLCbCBKSkkMrK5eHRwc3NzcDDFWVeUjMnPwKiKvvvrqj3/yI9UQY+Tx8f19G7FNJQgA+1KBSP0ATJBAVUERIIXgjREWsrYVyW7f/nRs/HFCISJVTaC3b691uys3btzYUSr6liKlpKqqKcYoIkXemThwSCMAxm73qmttlhUk7Gx8+5/viGTWWgAoqvzLO58PD+++9NFH0vcQ3w5VVVVEZmaiRIRlWQ7sGtza2hwYGKjrZmp68sbNmyml504uTE/PAGV13RZFwcyN3Sqr7OzZP4B6Hh878BC9I2IAiDHG6FVT1LBneJiIEsS1tbVeXS8snJqamiESTbSrM+icjzFkuYw/Nra4OL+y2n2YXBMRYlKNKSkxqIZeb/P69dVerxke3t3rbfbvaIwxzzreRmudiEE0j44MiYh1DSI8DKD/TSkRgzF5nwrENDS0a339q4GBwdb6lPCzzz6/e+daXg7GGAFAhEbGnnXOMXPTNATw3a8vpQmiphBjtNa2be2c86GxrhFDzF/bvd5WU5adGJJwFrwi4rlz5/pOuSgyfNC+f3PMgMrMiKiqiMjM0YGIeO9jVJYM0Tx3cl4TGylq67Isi9GhBKTw5tK5ix+89z/INSIAovsUKgAAACV0RVh0ZGF0ZTpjcmVhdGUAMjAyMi0xMi0wMVQxNjo1NDozNyswMDowMJMJCKoAAAAldEVYdGRhdGU6bW9kaWZ5ADIwMjItMTItMDFUMTY6NTQ6MzcrMDA6MDDiVLAWAAAAHnRFWHRpY2M6Y29weXJpZ2h0AEdvb2dsZSBJbmMuIDIwMTasCzM4AAAAFHRFWHRpY2M6ZGVzY3JpcHRpb24Ac1JHQrqQcwcAAAAVdEVYdGljYzptYW51ZmFjdHVyZXIAc1JHQiryKm8AAAAOdEVYdGljYzptb2RlbABzUkdCW2BJQwAAAABJRU5ErkJggg==;labelPosition=center;align=center;allowArrows=0;resizable=0;rotatable=0;" parent="1" vertex="1"><mxGeometry x="64" y="64" width="32" height="32" as="geometry"/></mxCell></object><object label="13" placeholders="1" red="13" green="0" blue="0" id="78"><mxCell style="shape=image;verticalLabelPosition=middle;labelBackgroundColor=none;verticalAlign=middle;aspect=fixed;imageAspect=0;image=data:image/png,iVBORw0KGgoAAAANSUhEUgAAACAAAAAgAgMAAAAOFJJnAAAA/mlDQ1BpY2MAACiRY2BgkmAAAhYDBobcvJKiIHcnhYjIKAUGJJCYXFzAgBswMjB8uwYiGRgu6+JRhwtwpqQWJwPpD0BcUgS0HGhkCpAtkg5hV4DYSRB2D4hdFBLkDGQvALI10pHYSUjs8pKCEiD7BEh9ckERiH0HyLbJzSlNRribgSc1LzQYSEcAsQxDMUMQgzuDExl+wAsQ4Zm/iIHB4isDA/MEhFjSTAaG7a0MDBK3EGIqQD/wtzAwbDtfkFiUCBZiAWKmtDQGhk/LGRh4IxkYhC8wMHBFY9qBiAscflUA+9WdIR8I0xlyGFKBIp4MeQzJDHpAlhGDAYMhgxkAkqVAs0XeJdIAAAAgY0hSTQAAeiYAAICEAAD6AAAAgOgAAHUwAADqYAAAOpgAABdwnLpRPAAAAAlQTFRFNDI9NDI/////Eh6INAAAAAFiS0dEAmYLfGQAAAAJb0ZGcwAAACAAAAAgAEgCl1oAAAAHdElNRQfmDAEQNiWvuz4ZAAAACXZwQWcAAAGAAAAAgACWljouAAAAEUlEQVQY02NgGJyAETeDrgAAAp0ABAKE/KIAAAAldEVYdGRhdGU6Y3JlYXRlADIwMjItMTItMDFUMTY6NTQ6MzcrMDA6MDCTCQiqAAAAJXRFWHRkYXRlOm1vZGlmeQAyMDIyLTEyLTAxVDE2OjU0OjM3KzAwOjAw4lSwFgAAAB50RVh0aWNjOmNvcHlyaWdodABHb29nbGUgSW5jLiAyMDE2rAszOAAAABR0RVh0aWNjOmRlc2NyaXB0aW9uAHNSR0K6kHMHAAAAFXRFWHRpY2M6bWFudWZhY3R1cmVyAHNSR0Iq8ipvAAAADnRFWHRpY2M6bW9kZWwAc1JHQltgSUMAAAAASUVORK5CYII=;labelPosition=center;align=center;allowArrows=0;resizable=0;rotatable=0;" parent="1" vertex="1"><mxGeometry x="32" y="64" width="32" height="32" as="geometry"/></mxCell></object><object label="12" red="12" green="0" blue="0" id="79"><mxCell style="shape=image;verticalLabelPosition=middle;labelBackgroundColor=none;verticalAlign=middle;aspect=fixed;imageAspect=0;image=data:image/png,iVBORw0KGgoAAAANSUhEUgAAACAAAAAgCAIAAAD8GO2jAAAA/mlDQ1BpY2MAACiRY2BgkmAAAhYDBobcvJKiIHcnhYjIKAUGJJCYXFzAgBswMjB8uwYiGRgu6+JRhwtwpqQWJwPpD0BcUgS0HGhkCpAtkg5hV4DYSRB2D4hdFBLkDGQvALI10pHYSUjs8pKCEiD7BEh9ckERiH0HyLbJzSlNRribgSc1LzQYSEcAsQxDMUMQgzuDExl+wAsQ4Zm/iIHB4isDA/MEhFjSTAaG7a0MDBK3EGIqQD/wtzAwbDtfkFiUCBZiAWKmtDQGhk/LGRh4IxkYhC8wMHBFY9qBiAscflUA+9WdIR8I0xlyGFKBIp4MeQzJDHpAlhGDAYMhgxkAkqVAs0XeJdIAAAAgY0hSTQAAeiYAAICEAAD6AAAAgOgAAHUwAADqYAAAOpgAABdwnLpRPAAAAAZiS0dEAP8A/wD/oL2nkwAAAAlvRkZzAAAAAAAAACAAT66SbAAAAAd0SU1FB+YMARA2Ja+7PhkAAAAJdnBBZwAAAYAAAACAAJaWOi4AAAblSURBVEjHlVZbb1bXEZ2ZfTuX7/tssA2GQnAMUdv0IQiqNuUSSpKqlfoLeGylVo0iolTqQ/tU2jS0f6ZNVSkSd2NTUkGlFgiUgI2xMXaAYMN3Pefs2/TB3FyQikdbZ7/Nmllr1p6DgPVvbd/x3i8OBhuNSYuiUIImp66dPXMaIAbnsyzrdjpElJmktB4ASApmjtETUWTPHIUQzAGWAyM8E+L1Hd/9+PDhdYPrHzRb0UetksSYPM/zzMzN3SIC5qCVQiSI+MqWLeuGNxiTlGVRlpUQZIwGAOcqIno+OwCQURoZ7t27t2nTJiFEu90uikIppVUihAghVJUtSwsAI1tHEdG5ol5PN2xY39ef+2A7nbb3Xmu9IjvTkyOrqooxNhoNrfWVK1fyrF70OgCRg3Uu5Fm9KLuSlLNhenpmdHQkonvYXLx/f7Hdbmmta7UsxuicQ2J4UchEK4GMwH/75C9ZUm+3WoiotdJGxRg7va4xpirKJMm8j1PTN3wolSIiWa/nzFxWvRijlPJp7QAA9BSAmY8dOwYs8zwvumWa5ohobXnkxPEPP/ylD7YourUsv3Dh0tmz/9BaC8neu6oqAKKUkpmJSCnlnHthBwiQb9/xba0y75mjQBTOOUT++KPfxei+vDMfowcgY8yli5fHx8cFRSRmZiKUUobgnHOI+Ejk5ykCACI6cOBAmtacZQC6devW8eNHlVLW+qtXrxIBM8YYCaWUMoYgScQYvbMxOiKSUiNijP6FAOKNHd859NtDa/oH2u0ugHQ2tNudycnJifEx7x1DFIKcs0LIiYkziARM+/a9vXHDxpGRV7dte21y8oYgAcCP+eBH44S8fMSmzaN7du/VKunr619abCYmTdN0aN3g7Mz05OS1pQeLly9/3mq1bt+ec95JIX/6k58NDQ7fX1wUJLzzWusHDx54b4nEssr/YwXJAELJoiqlMNPT08EzCQjB7dmz69z5zzqdlpRUFl3vPQDEQFNT11/b9s35+XlElpJCCEopbchau5KbZRgi55wxxhgzNjaGiNZaImJm7/2uXbuMUbV6jgjM0RjNHE6fPjV14wsiAIjWVXfuLPR6nVarBcAA8XH5T5tA0I2vf+P1t/f/EFj4Kjbq/TEEIiDwR45+iuCTRDlr0zQtikKQRtLOBaWUEFiWPURUWkgprLXPADwOJgRMv7dvf6tZSGGMTKvSOWuJQGCo1U3wVVl1tFTWWmMMAAlpiqJg5nq93u12lFLMoaoqpdSK7I8cBxKUXHr44L2fHyRUEnXwTIhTU9f/PnGy3W4TRm20QDJGcXARqFt0hoaGlpaWirIV2TvvtdZKi2dpAaYnZhbbd+75/aE/9PcNNJsdCBRC0Eb2NWpZLbu9MJcYU5QFR0BCIYg5JqlpNh+maQYQAVBKcs4DRERaWTs+6iA6wiCVSjYNj4xNjDMHEn7i9NiyMUsbk3RN2esAIQhGJbyPxqTBMyASimUDAsYnnKycIpCJVkqKqqrOTJx1ziaJPnrs2MEP3q+qSgghQRVFVcvTa9f+c+z4p6lRwLyi0me/L3Ty4PBwr+wuLCwgovXVufOfHf7jR0opW5S1rFGWXqscGNf0D6xp9M/O3sJlN710yIv/OpemafNhz5jcpFm73aqqKs9TvXHT9I2bWjU4MJJQJIAVsHx+Z/0fAEDolsX7Hxx0lmdmZk+ePIGRfWWJ1MzMTKr72+1OqtPgKx+sktIHuyoA2vnm3sOH/7Ru3TAiWeulVFprABofH/POdXvtWpaWRSfLkiTRZdlbFT8AIGqN4R+8+2ME1d83NHNjZnZm9syZM72i663L85pE5Bi8t4j+7NlTgiLDKinKsz5mCB6lJESx7639p8aO/PPceUT0lZckAUgpUZQdrSCyB8TVUbR8KRITY6e99zHGd995B2KM3mslYoxEZKtKIAHA05+fl6foa1u23v9q8f5X96rSEmGWKlv0Rke3zM/NWeuEULt379k6+urIyMjs7DQJWp0CAAiQ7nrr+512pVUavAfg6EstFTMD0Lv7f7R585arV6+mqbk5c33u9s3AAVYjg9z55s5f/+ZX01PzBCJJsqLbnp+7dfLUcVv5LKuNjIxonXy5cNckIk1z5wLJl08OACDWr9+4Z/feocHhqleWvTI1ptGX12p5u9lsNTv/vnBhYGBg8eESYPz8ykVtltfvapxMpLO0UXbdpYuXjTKAXJTNer129+6dtWuHvINP/vrn/rX9RdFNMwkQmVc3pmJg8BVgMT9311aRIxijgcOpkyeyLEOETqfdaOTW9YSMAcoIHhGfPMUvKfLgG9u3AyulDEZ2rlKKEUOIdnmhI6L3NrJNsqSqKoEKeFmHl2rlvyDD0G4ZOMWjAAAAJXRFWHRkYXRlOmNyZWF0ZQAyMDIyLTEyLTAxVDE2OjU0OjM3KzAwOjAwkwkIqgAAACV0RVh0ZGF0ZTptb2RpZnkAMjAyMi0xMi0wMVQxNjo1NDozNyswMDowMOJUsBYAAAAedEVYdGljYzpjb3B5cmlnaHQAR29vZ2xlIEluYy4gMjAxNqwLMzgAAAAUdEVYdGljYzpkZXNjcmlwdGlvbgBzUkdCupBzBwAAABV0RVh0aWNjOm1hbnVmYWN0dXJlcgBzUkdCKvIqbwAAAA50RVh0aWNjOm1vZGVsAHNSR0JbYElDAAAAAElFTkSuQmCC;labelPosition=center;align=center;allowArrows=0;resizable=0;rotatable=0;" parent="1" vertex="1"><mxGeometry y="64" width="32" height="32" as="geometry"/></mxCell></object><object label="11" red="11" green="0" blue="0" id="80"><mxCell style="shape=image;verticalLabelPosition=middle;labelBackgroundColor=none;verticalAlign=middle;aspect=fixed;imageAspect=0;image=data:image/png,iVBORw0KGgoAAAANSUhEUgAAACAAAAAgBAMAAACBVGfHAAAA/mlDQ1BpY2MAACiRY2BgkmAAAhYDBobcvJKiIHcnhYjIKAUGJJCYXFzAgBswMjB8uwYiGRgu6+JRhwtwpqQWJwPpD0BcUgS0HGhkCpAtkg5hV4DYSRB2D4hdFBLkDGQvALI10pHYSUjs8pKCEiD7BEh9ckERiH0HyLbJzSlNRribgSc1LzQYSEcAsQxDMUMQgzuDExl+wAsQ4Zm/iIHB4isDA/MEhFjSTAaG7a0MDBK3EGIqQD/wtzAwbDtfkFiUCBZiAWKmtDQGhk/LGRh4IxkYhC8wMHBFY9qBiAscflUA+9WdIR8I0xlyGFKBIp4MeQzJDHpAlhGDAYMhgxkAkqVAs0XeJdIAAAAgY0hSTQAAeiYAAICEAAD6AAAAgOgAAHUwAADqYAAAOpgAABdwnLpRPAAAADBQTFRFAAIAAAAAAAMAAAQAAAUAAAYAAAICAAMCAAIEAAEEAAAEAAACAQACAAAFAAEA////4MmjfAAAAAFiS0dEDxi6ANkAAAAJb0ZGcwAAAWAAAAAAAHSpsiAAAAAHdElNRQfmDAEQNiWvuz4ZAAAACXZwQWcAAAGAAAAAgACWljouAAAASElEQVQoz2NgFEQFDIroAoboAo7oAoEEBTDMYCQokIguUIgu0IguMBFdYCG6wEZ0gYPoAoJUENhIBYGFAyNwezccCD5QVmYCAI0kNRPhEIh4AAAAJXRFWHRkYXRlOmNyZWF0ZQAyMDIyLTEyLTAxVDE2OjU0OjM3KzAwOjAwkwkIqgAAACV0RVh0ZGF0ZTptb2RpZnkAMjAyMi0xMi0wMVQxNjo1NDozNyswMDowMOJUsBYAAAAedEVYdGljYzpjb3B5cmlnaHQAR29vZ2xlIEluYy4gMjAxNqwLMzgAAAAUdEVYdGljYzpkZXNjcmlwdGlvbgBzUkdCupBzBwAAABV0RVh0aWNjOm1hbnVmYWN0dXJlcgBzUkdCKvIqbwAAAA50RVh0aWNjOm1vZGVsAHNSR0JbYElDAAAAAElFTkSuQmCC;labelPosition=center;align=center;allowArrows=0;resizable=0;rotatable=0;" parent="1" vertex="1"><mxGeometry x="352" y="32" width="32" height="32" as="geometry"/></mxCell></object><mxCell id="81" value="10" style="shape=image;verticalLabelPosition=middle;labelBackgroundColor=none;verticalAlign=middle;aspect=fixed;imageAspect=0;image=data:image/png,iVBORw0KGgoAAAANSUhEUgAAACAAAAAgCAIAAAD8GO2jAAAA/mlDQ1BpY2MAACiRY2BgkmAAAhYDBobcvJKiIHcnhYjIKAUGJJCYXFzAgBswMjB8uwYiGRgu6+JRhwtwpqQWJwPpD0BcUgS0HGhkCpAtkg5hV4DYSRB2D4hdFBLkDGQvALI10pHYSUjs8pKCEiD7BEh9ckERiH0HyLbJzSlNRribgSc1LzQYSEcAsQxDMUMQgzuDExl+wAsQ4Zm/iIHB4isDA/MEhFjSTAaG7a0MDBK3EGIqQD/wtzAwbDtfkFiUCBZiAWKmtDQGhk/LGRh4IxkYhC8wMHBFY9qBiAscflUA+9WdIR8I0xlyGFKBIp4MeQzJDHpAlhGDAYMhgxkAkqVAs0XeJdIAAAAgY0hSTQAAeiYAAICEAAD6AAAAgOgAAHUwAADqYAAAOpgAABdwnLpRPAAAAAZiS0dEAP8A/wD/oL2nkwAAAAlvRkZzAAABQAAAAAAAcwW3FgAAAAd0SU1FB+YMARA2Ja+7PhkAAAAJdnBBZwAAAYAAAACAAJaWOi4AAAkESURBVEjHNZDbj13nWYffw3dYax9mxufDeMaesWM7jsfBhyTmINmp3PRPQClpqt4ggZAQuUACtQha7hAqt/wBFdwQKVDAFJWGpKiFCJypx8fYHY9jx0ps7Nnes/da6/u+9325aLn5XT6Pnh+uXDg7Go8HszFDbqVxzlnWPva44aGbyRMjcoYgqMqokBHROZ5OG0aqQigpOeYCKTubQCcViTMzcYZegVrFv/7+9wbD4SRtra7998rpl25eu37q2Eno8Lvf+a6MZefcntSUpmmqQW2Omm5KBFrEe8+IoEZE09xWw/gHf/TOlqXVT66eOvvy9atXFw4c2DGYpUbxt//qm+Q9BhRMKCkQ6iQNeHDyyKm/+M5flnHph55HlzVPS/LREaAnLl2yIlW/97zdgtr9/h+/c+XmahjGgtmg5NQOe/22bSvx7tHo2fq9B7M7h2ptrx+X5ufrQb9p9cr1q6Pp83079uVxmjRNXdcz/dB1DQFZlkjBIrRdhuhastsPNu49/syPaffuHQgl1mGctmK/d2vtDn+qk1MvnTEtvgqtpM83nw7nZs1gJg5vfHzNFSLgUFXTtkHDgByESEFEqfINm0Q3pZKdddoZlvHm0127t9++c3vnvl2jZrpn9x7a1dvePn0+CD1WYueXj7xw78FDJRxPJ7EXESGlFlQYCdS6JplqjNHMUhYzTCnVsRoOBoPBQA0PHT3yycb64vJyFosxmgD1R+XR6ic0NWnl0P5D926tnzh8FLJx8IqQLVvJQWA21CFEqmKHOu6aejj03stW01cfGvnohz/WRpLojY2NLcAWqAj0IX7/b96laByVsS0zof/o7oMKvDalcpENUtt54n5dq0jbtpPJhIhcFYVxq5t2TbttOFuD11G7q5oNQoMwQIiiXFeDinpplPrUoz2LhxLRjdVrOE61uko9tFap+8e/fbePAYuKWedUPVc+oEiWZA6AjJk1Zcwy43s4lZ+v3uYJuAZnaIY7hy1ffvdfWTxNHG4/uH/h8NLa2vUK4rH9h3vF/f33/s4rsQIAKYEBGCoaAACAGur/L4AhGrFSftbc/Z8bMyUe3X6Qx/jDf/gRiN+39yB++Q/f+eLJ5wGAc35w7da22KuIJJeCZkBoQIZOCY1IWdGUCqCiERihkSEaAKCFEKbdVLXEfm9SukZ14chyIKSEZW7fzt7s0BTnBtugs/y8c8IsjIaGqEAGBACKZgiACmBowL8MAgBQwLZtI4Wao01zbTEo90N/x9wO8kVc1qg4fvK02WpC1Tty4mQRZCMv5IQIQBAUf4kSBEEAAFYIAkGADACggHUkjZYDy4eIyAHev/mJS8Jnzp+3lG589LFNS/TV3j172fm67k3GUwJAQwQDRAQAQEMzVDQkQzZEQEBUBEXDyMVkfukgeY5VLClRscefPWI/lfLseTBEZEAczs4h84MHD8GADBmMFX/xhiEqmjNgMwBUQkMU/IUVkmRX+3q2n0EefvawmUx8sTp4/I3Tr4lCRyTeJzEXQ247j+wAnRobkIEiCIKSKoJTJQMFZ4hgBKgGoGhCamwJTVUjO6caC4AKtahYBwSmBJy1Ehz6yJI9mpnlIsZeiYBQSnIgZiaAIlD5ftNkwuCdQzMnBq0MNA6t8h3lceuCy9oRh/h8q2EOnqtIFQnmSRs5SlYAPHHyV7psamwGvXpQSkFE55yZtW06e+acKnRdp0WiD5DNKWojbDjsz2xNnse6opKtrmZU/a/9+sWjL7zUTMugvz0l8b5aXFjuunLixZWcVIVUUYWYuWka59zS0sEutYcOLQJAVVUppW3btjXTjohCCDnnGOrpdMq7dy9W1fDcufMx1LPDbar25PEXIVQHFw8SOccx5zze2kKEaTOu6yhSEAHB7d61J+VspgsL848ePQKwnEuv7peibduG4AGVmch7/9bbbx8/fnwyaTY2Pu3Vg36/LyKIyMxdatbX1wHUTKoqAiqiMTMz3717Fw08u5yzmTF7Zte2yXvPPoRYpSyATAqQclvX9blzZ5jx5q216XRSpL3/6b0i7f37G0hapCNWYhXJzJxSCsE1TfPw4UPn3NraWoyRmbuuu3Dhwte//o3f/Z3fe/ZsxOxFlPfuX7i2tnbq5dP//C//dOfOTR+Y2apeaJvp5uZTH3wpKdberDTdyAcSMWIHRsSkos82/5cJVEsRvXjxImIYjZ7Pzs6+9tqrV6+vte0W79u/kEv++MrVzc1R9D7lNgSaTMZV5Zi5bRpEY8eT6ebc3CCllogdu9ypGTjnVYUIAY2IFxcXEZ2IPHny5Owrr8zP77124xrPLxxWVTB2zr/11d969dVXZob9e/fWzdQMHHszMzDnsUhSFTMEICSPyCrKTGZqoAC4sXF/cXHZuXDpja+YyXBm8P77/0Y555wlxvjWW18bDIYI3LbdpUtvBN8zRSKviswuJ2P2VdWrYo/Z55yZWVWJyMxCCIiIiB9++OPJZPLee++x83/27T9HRAfkh7OzX/3Nt1Why3bzxu1ePbe1tTmZdohMyI5rVPKsJWXRDqAwe+c8ADkXVExEp5PWBX/+/K9+9NHV1dVVIPfvH74fK+dDIDN78803l5aWXnjh2J07d1JRUYuxH2NdVT1TlIKpE8cVc2CKzJ7JOw4pJRExs6qqYowAEGM8e/Zsl/OkmQ7ntl36yhtN0+Dp81/61jf/RBLG0CtJfvCDy9HTT376HyUJkzu8dBQAmPnq2hUXIEQ2LCmV0sHKymktAqA/X78tUsjx669/KSUyZDEwsqXlA7Ei6rqGHYRABsUHrOrwn//1k5TaqgrzB/an1DrnJpPxysrKYDAYjUaj0XgwmFlZeXkymTjnUkrz8/NVVanq5cuXiYiIjh8//uKLLx49dmxhYYEfP/78+q3rr1+4mHP3wQfvf/DBj9p27D2aymj0dOeOXWpS1/FnP7si1g0GvaqumqZ99PDzxcWDJWci3NhYN1PnHRHfvbtxaGn5i8dPjp847jy17QTBATCffPmMc6HruhgjgmpSB0TmTZiNlZQZxbJYASAix+BFDA0MhAjMFAhFlDi2qVz68hsG+vqlC9/+02/9H5+XWNj4SVtaAAAAJXRFWHRkYXRlOmNyZWF0ZQAyMDIyLTEyLTAxVDE2OjU0OjM3KzAwOjAwkwkIqgAAACV0RVh0ZGF0ZTptb2RpZnkAMjAyMi0xMi0wMVQxNjo1NDozNyswMDowMOJUsBYAAAAedEVYdGljYzpjb3B5cmlnaHQAR29vZ2xlIEluYy4gMjAxNqwLMzgAAAAUdEVYdGljYzpkZXNjcmlwdGlvbgBzUkdCupBzBwAAABV0RVh0aWNjOm1hbnVmYWN0dXJlcgBzUkdCKvIqbwAAAA50RVh0aWNjOm1vZGVsAHNSR0JbYElDAAAAAElFTkSuQmCC;labelPosition=center;align=center;allowArrows=0;resizable=0;rotatable=0;" parent="1" vertex="1"><mxGeometry x="320" y="32" width="32" height="32" as="geometry"/></mxCell><mxCell id="82" value="9" style="shape=image;verticalLabelPosition=middle;labelBackgroundColor=none;verticalAlign=middle;aspect=fixed;imageAspect=0;image=data:image/png,iVBORw0KGgoAAAANSUhEUgAAACAAAAAgCAIAAAD8GO2jAAAA/mlDQ1BpY2MAACiRY2BgkmAAAhYDBobcvJKiIHcnhYjIKAUGJJCYXFzAgBswMjB8uwYiGRgu6+JRhwtwpqQWJwPpD0BcUgS0HGhkCpAtkg5hV4DYSRB2D4hdFBLkDGQvALI10pHYSUjs8pKCEiD7BEh9ckERiH0HyLbJzSlNRribgSc1LzQYSEcAsQxDMUMQgzuDExl+wAsQ4Zm/iIHB4isDA/MEhFjSTAaG7a0MDBK3EGIqQD/wtzAwbDtfkFiUCBZiAWKmtDQGhk/LGRh4IxkYhC8wMHBFY9qBiAscflUA+9WdIR8I0xlyGFKBIp4MeQzJDHpAlhGDAYMhgxkAkqVAs0XeJdIAAAAgY0hSTQAAeiYAAICEAAD6AAAAgOgAAHUwAADqYAAAOpgAABdwnLpRPAAAAAZiS0dEAP8A/wD/oL2nkwAAAAlvRkZzAAABIAAAAAAAe/G4TAAAAAd0SU1FB+YMARA2Ja+7PhkAAAAJdnBBZwAAAYAAAACAAJaWOi4AAAcFSURBVEjHnZXJb55XFcbPcIf3/QZ/dmK3tZs4tjNUautAk4oGBCKlAwjxD5Q/gC2iCyRQF9CyA9SyZE8lNhSVQUKglkW6i6DN7CZNkxC7UUKbxP6+d7rDOSycdv/x6Ogurq7u7zzPudLF9W8e3x6PByMfIba5McZolD72uOGhmYmVEhlFyCjCKBAR0Riu64aRCudSCIY5QYhGK+hyQdmoajaKVkCD4G//8uZgOKzC5Mz5f60/9cTGhYtHH3sSOnz9tdfzOM/PPhya1DRNMSjVUNPVRCApW2sZEUSJqI5tMfQ/+snLEw1nrpw7evxLF8+d279v397BSELCH7zxClmLDjMGzMERShUGPHjy0NFfvvbrNE5917NoosQ6BesNAVri1AVNuej3dtoJlOaHP335/Y0zbugTRoUUQzvs9du2RbDm1va9a9c3R/ND0bbX96uPPloO+k0r7188t13vLO5djONQNU1ZljN913UNAWnMnpx6aLsI3rSklzdvXP/vJ3ZMDz20FyH50o3DxPd7lzY+4ptSHX3imEqyhWtzuH3/7nB2pAozfnjpgwsmEQG7oqjbBhUdsstEAjkLFbZhzd7UlKLRTjrFNL5/d+GhPZc/ujy/uLDd1HseWaSF3p727s7A9ViIjV07dPj65pYQjuvK9zwihNCCZEYC0a4JKuK9V9UQsyqGEEpfDAeDwWAgiitHDl25cW15bS1m9d5jAupvp1tnrlCtuc0rSyvXP7z2+MEjEJWdFYSoUVN0GUaudM5T4TuUcdeUw6G1Nk+avljX5NPvvCdNDlku3bgxAWyBUoY++L//7o/klb0wtmnG9W9d3SzASpMK41khtJ0l7pel5Ny2bVVVRGQKnxknXd017dxwVIKV7XahGLlMAzdA8Fm4LAYF9cJ2GGBJDy+vBKJLZy7gOJRiCrHQaiHmr79/q48Ok2TVzohYLqzDnGMOagBImVlCxJhnbA/r/PGZy1yBaXCGZrgz2PLf3voHqKfK4J4DS/sPrp4/f7EA/9jSwV4yf3rzD1aIBQBICBRAUVABAABEUT5fARRRiYXivebqvy/NJH9kzwEe4zt//idku7C0D1/48ct3Pr3tADjGzQsfzvleQZRjSqgKhAqkaIRQiYQFVSgBCiqBEiopogIAqnOu7mqR5Pu9KnWNyP5Da8kzBUyzi/O90VAFZwdz0Gnc6UxmzoyKiihACgQAgqoIgAKgqMAPDAEACGDbtp5cyV7rWKp3wn3Xn5vbSzZlE8ULjj+920waV/QOPf5kyshKNpPJRAAZQfDBVRkhIwAAC7gMLgMpAEAC7Sg3kvatrRCRAfzPxhXXZj524oSGcOn0B1onb4tHHn6EjS3LXjWuCQAVERQQEQAAFVVRUJEUWREBAVEQBBU9J82Prh4gy77wKQRKevvWJ2zrnO7tOEVEBsThaBaZNze3QIEUGZQFd9NQREE1CqwKgEKoiBl3qRByNKUtR/0IeeuTraaqbNKhsfj1L38tq3SE2dqQxXgf284QW0VWNSKkIAiZQJAE5cEOGEUEJUBRAEHNJMoaUEXEszEiPgGnTBExMRMak7VANF0qka0CgQJIJogMmUABUIUFVDUD5gyF7TdNJHTWGFQ1WaHNA/FDLWxHcdwaZ1roKOODR4IKLMAqu4UqAKCf1xdCRGOMqrZtOH7saRHouk5S9tZBVCMoTWbFYX9mUu34siCYUszcNI0xZnX1QBfalZVlACiKIoQwNzfX1B0ROedijN6VdRWmBKCklJhRVa21MUYRWV9fDyGoalVVg8EAgCbjmtkCoPV+ageIyMzMfPXqVVSwbGKMqspsmU3bBmstW+d8EWJGYDN9RNg03cxwuH2/2traOnhw9ez59/v9HgA0TfutZ188fPgx69wbv/lVUdqcMy8tHpimf82SiQ0oEZNkuXf/MyYQSSnLyZMnEd329s5oNHrmma+cu3i+bpv/JyJjKISQc2ZmESGi3dx2D8QYNzY2llfWXnrp+2VZTg3IOeecyTAxp5SISD/XqVOnVNUY9+J3visiy8srKevUgKIomG2M8Yv2VdU5h4iIeOrUe1VVvf3222zsz1/9BSLh08e+MU1AklJgtqDWcCFJETWmRlWMsydOfPX06XNEBsh8du+OL4wrzZQOlJgtkzXsdsegqkVReO8BwHt//PjxLsaqqYezc89/+8Wm6aZ0AMCWQkipg/X1pyRlAPn42uWcExl+9tlvhUCKnBWUdHVtnyt4asCkHi8sLO5fWq2qZtgf1PVEId65c7sNXYzp+ee/p8gHDx8BhuWVpSzd1EOend0zmUzOnj07GAxijMaYmzdvxhittd77d999V1U3Njbm5+dVte2aqR0IZCJDaCXtfkOZCAUykAZRMK6L6bkXXlDIzz138tWfvfI/qREwygHc5f8AAAAldEVYdGRhdGU6Y3JlYXRlADIwMjItMTItMDFUMTY6NTQ6MzcrMDA6MDCTCQiqAAAAJXRFWHRkYXRlOm1vZGlmeQAyMDIyLTEyLTAxVDE2OjU0OjM3KzAwOjAw4lSwFgAAAB50RVh0aWNjOmNvcHlyaWdodABHb29nbGUgSW5jLiAyMDE2rAszOAAAABR0RVh0aWNjOmRlc2NyaXB0aW9uAHNSR0K6kHMHAAAAFXRFWHRpY2M6bWFudWZhY3R1cmVyAHNSR0Iq8ipvAAAADnRFWHRpY2M6bW9kZWwAc1JHQltgSUMAAAAASUVORK5CYII=;labelPosition=center;align=center;allowArrows=0;resizable=0;rotatable=0;" parent="1" vertex="1"><mxGeometry x="288" y="32" width="32" height="32" as="geometry"/></mxCell><mxCell id="83" value="8" style="shape=image;verticalLabelPosition=middle;labelBackgroundColor=none;verticalAlign=middle;aspect=fixed;imageAspect=0;image=data:image/png,iVBORw0KGgoAAAANSUhEUgAAACAAAAAgCAIAAAD8GO2jAAAA/mlDQ1BpY2MAACiRY2BgkmAAAhYDBobcvJKiIHcnhYjIKAUGJJCYXFzAgBswMjB8uwYiGRgu6+JRhwtwpqQWJwPpD0BcUgS0HGhkCpAtkg5hV4DYSRB2D4hdFBLkDGQvALI10pHYSUjs8pKCEiD7BEh9ckERiH0HyLbJzSlNRribgSc1LzQYSEcAsQxDMUMQgzuDExl+wAsQ4Zm/iIHB4isDA/MEhFjSTAaG7a0MDBK3EGIqQD/wtzAwbDtfkFiUCBZiAWKmtDQGhk/LGRh4IxkYhC8wMHBFY9qBiAscflUA+9WdIR8I0xlyGFKBIp4MeQzJDHpAlhGDAYMhgxkAkqVAs0XeJdIAAAAgY0hSTQAAeiYAAICEAAD6AAAAgOgAAHUwAADqYAAAOpgAABdwnLpRPAAAAAZiS0dEAP8A/wD/oL2nkwAAAAlvRkZzAAABAAAAAAAAfF29egAAAAd0SU1FB+YMARA2Ja+7PhkAAAAJdnBBZwAAAYAAAACAAJaWOi4AAAcoSURBVEjHlZTJj11XEcZrOMO9797Xr9tTPLendBRPwY4lImIpQQL+BRQrZMkWkQUSiF2WCIUteyKxIUjMEEyQiUAQQeLY7m4PiYe0YzkOHT+/9+5whioWnUgs07WoZf2qvu98B0889/R4MqlHPkLscmuM0SgVDrjloZmLMyUyipBRhFEgIqIx3DQtIxXOpRAMc4IQjc6gzwVlo6rZKFoBDYI//c1r9XA4C9OLl/994tSx1SvLJ584Dj2++sqreZK3zT8W2tS2bVGXaqjtGyKQlK21jAiiRNTErhj6737/5amGi9cvnXz6qeVLl/bt3bu1HklI+O2f/JCsRYcZA+bgCGUWaq6PHzn5o1d+nCapcgOLJkpsUrDeEKAlTn3QlItq8KibQmm+84OX31m96IY+YVRIMXTDQdV1HYI198af3ry1Nto2FO0GlT+4Z09ZV20n7yxfGjePdm3dFSdh1rZlWc5Vru9bAtKYPTn10PURvOlIr63dvvXgIzuhHTu2IiRfukmY+mqwsnqDP5TZyWOnVZItXJfD/Yfrw/mRKsz54cq7V0wiAnZF0XQtKjpkl4kEchYqbMuavWkoRaO99Ipp8nB9+44t125c27Zr+7httuzcRdsHW7r1R7UbsBAbe+jI47fW7grhpJn5gUeEEDqQzEgg2rdBRbz3qhpiVsUQQumLYV3XdS2KB5aOXL99c/+hQzGr9x4TUDVO9y5ep0Zzlw/sPnDr6s2jh5cgKjsrCFGjpugyjFzpnKfC9yiTvi2HQ2ttnraVWNfmt8+/JW0OWVZu354CdkApQwX+Tz/7JXllL4xdmnPVvffXCrDSpsJ4Vghdb4mrspScu66bzWZEZAqfGad907fdwnBUgpVxt70YuUy1qxF8Fi6LuqBBGIcaS3ps/4FAtHLxCk5CKaYQC50WYn7789crdJgkq/ZGxHJhHeYcc1ADQMrMEiLGPGcH2OQPLl7jGZgW52iOe4Md/+H1N0A9zQxuWdy97/DBy5eXC/BP7D48SOZXr/3CCrEAAAmBAigKKgAAgCjK5x1AEZVYKH7avv+flbnkl7Ys8gTP//pNyHb77r349e+9/PEn9x0Ax7h25eqCHxREOaaEqkCoQIpGCJVIWFCFEqCgEiihkiIqAKA655q+EUm+GsxS34rsO3IoeaaAaX7XtsFoqILz9QL0Gh/1JjNnRkVFFCAFAgBBVQRAAVBU4M8OAgAQwK7rPLmSvTaxVO+EK1ctLGwlm7KJ4gUnn6y309YVgyNHj6eMrGQzmUwEkBEEPxuVETICALCAy+AykAIAJNCecitp76EDRGQA76xed13m0888oyGsvP2uNsnbYudjO9nYshzMJg0BoCKCAiICAKCiKgoqkiIrIiAgCoKgouekec/BRbLsC59CoKT3733Etsnp00dOEZEBcTiaR+a1tbugQIoMyoIbaiiioBoFVgVAIVTEjBtUCDma0pajKkK++9HddjazSYfG4tlTX84CPVG2NmQ13sWut8gG0IiyAikIQkYQEkEwIqQguCEMAYAiCEpGUNaAKpI8O5PBZ+AkpkNxZYG9UgAWKQwW1se+tcaKakziXCGQATWnYBx/bvvn7gKgAgGQgigyIKDBDKSQFYSI2PlH05bZWS48FZQxzjrPPkcBwKPHv9RHFWVVGJR1jgmU/u/5fFaogAosYARMJhbYCI0CUIpaFnMi9ivPPr/0+LG2SXW1JYRsbbF/36G+T0efPBGDSCYRlEywyeIdO/YXxfDMmWe8K0fDBRH95MHHzhWL+xeJjGEfY5xMp4jQtJOy9Kq6KYCx1r740ks5wPKVa/99sD4o66qquq5FRCLuQ3vn9hqQquai8JtdHwBIAELsyrI8c+Y0M65evdw0s5S7Ox/eSrm7c+c2kqTcEwuxZOlh4wv64hLt3L3vyuXLJ5869fs//u7GjVXrmFmLgeva5uHDdetsSsGXVjW1/dg6A0oA+MUBeOrMszmroUoVHZs+tGXBTTMtCwdAXRuIyBV+OlufX6iapiH0oGYTHhDbLFFEjHHnzp2zjm9+cPX8+TdSSojsnMs5p5SKoui6TlU3sz0AAMUYY8ze+xdf/FZdDxG46/qvfe0bzg5UkMiKILOJQZltUQw20ruJC4DscDQ6982XRKCPurpybVDOT6cPZ02PyIRsuEQhy5JCzBINu80BVPWFF144uHiQyP3lz+dDEifqfeV9SWRy0Jwhp+x8IbhJdTYkMpYXF/f1oRNJZ8+eBZAYw1t//1tKkpMcPvz40tLSk08ea5o2RbF201Ggvm/ZgHOkkKzDonT//Nc/QuiKwu3ZuzuEzhgzm01OnDhR1/V4PN4sgB88uL98dfmrzz0fY3/hwl8vXHiz6ybWokoej9e3bd0umsvSv/feO1n7uh6IbC5oCExg8PhTp41xfd977xFEghggUquZWVlImDFrzJoIeFOA/wEGZi8H5hrzNgAAACV0RVh0ZGF0ZTpjcmVhdGUAMjAyMi0xMi0wMVQxNjo1NDozNyswMDowMJMJCKoAAAAldEVYdGRhdGU6bW9kaWZ5ADIwMjItMTItMDFUMTY6NTQ6MzcrMDA6MDDiVLAWAAAAHnRFWHRpY2M6Y29weXJpZ2h0AEdvb2dsZSBJbmMuIDIwMTasCzM4AAAAFHRFWHRpY2M6ZGVzY3JpcHRpb24Ac1JHQrqQcwcAAAAVdEVYdGljYzptYW51ZmFjdHVyZXIAc1JHQiryKm8AAAAOdEVYdGljYzptb2RlbABzUkdCW2BJQwAAAABJRU5ErkJggg==;labelPosition=center;align=center;allowArrows=0;resizable=0;rotatable=0;" parent="1" vertex="1"><mxGeometry x="256" y="32" width="32" height="32" as="geometry"/></mxCell><object label="7" red="7" green="" blue="" id="84"><mxCell style="shape=image;verticalLabelPosition=middle;labelBackgroundColor=none;verticalAlign=middle;aspect=fixed;imageAspect=0;image=data:image/png,iVBORw0KGgoAAAANSUhEUgAAACAAAAAgCAIAAAD8GO2jAAAA/mlDQ1BpY2MAACiRY2BgkmAAAhYDBobcvJKiIHcnhYjIKAUGJJCYXFzAgBswMjB8uwYiGRgu6+JRhwtwpqQWJwPpD0BcUgS0HGhkCpAtkg5hV4DYSRB2D4hdFBLkDGQvALI10pHYSUjs8pKCEiD7BEh9ckERiH0HyLbJzSlNRribgSc1LzQYSEcAsQxDMUMQgzuDExl+wAsQ4Zm/iIHB4isDA/MEhFjSTAaG7a0MDBK3EGIqQD/wtzAwbDtfkFiUCBZiAWKmtDQGhk/LGRh4IxkYhC8wMHBFY9qBiAscflUA+9WdIR8I0xlyGFKBIp4MeQzJDHpAlhGDAYMhgxkAkqVAs0XeJdIAAAAgY0hSTQAAeiYAAICEAAD6AAAAgOgAAHUwAADqYAAAOpgAABdwnLpRPAAAAAZiS0dEAP8A/wD/oL2nkwAAAAlvRkZzAAAA4AAAAAAAzG6tTAAAAAd0SU1FB+YMARA2Ja+7PhkAAAAJdnBBZwAAAYAAAACAAJaWOi4AAAURSURBVEjHnZVLb1bXFYbXZV/Od7MxsVExxtgm0JGpEudCB1EhcmlV9Q+kf6JS1EnSSVN12EHyHzpuhTqpWoUOnBlSI3AULBOSEkIiqFIw/r5z2XuvtTogJB36ZA3OaO/1rPd9j9bGF16+yOLhaGWoRsae67phpCqEkpJjLpCysxl0UpE4MxNn6BUsqbMj9n5WqprrHH1gRBP1PtS5rSbVb956c2rpxu3dC1s/+nh39/TKynPjeU0FL7xyMZSjKwAj88SlS1akGg2ftFMYuF+//eaHezfCJBbMBiWndjIctW2L4J2SHn18NCBByxIpWIS2yxBdS7b/xd1//+dLf0gnTjyHUOIgHKZpHA1v7X3Ci6dPeXFHBLBBMCRBEaXKN2wSXU0lO+u0MyyHj/+7dOL4/if7iyeXDpr6+A9OUs8IwARijGaWsphhSmkQq8l4PB6P1XDt/PO37362urGRxWKMWIBYezAUoUM97JrBZOK9l2kzUh8auf7+B9pIEr119+4UsAUqAiOIf//TX4h7RAAG4CovjNOu7pp2YTI/AK8H7VI1H4TGYYwQRXlQjSsapoM0xgEBYA8AQqfFHAAZM2vKmGXOD7GWT2/s8wxcg3M0x53Dlv/253+ARQLoG4Ma6rMvgCEasVJ+1Nz51625Es8fP8OH+P5f/wnil5ZX8MLLrwU5cnP8pi8agREaGaIBAFoIoe5q1RJHw1npGtXTz2+UyA6AAI6agwEoAIGhAdl31xSwbdvIAZClzgMfRdMojGhh1C9kABACQQAAVggCQYAMAKCAdSSNlpWNNSJygJ/v3Q6t8Knl1R4powEaGpIhGyIgICqComHkYnJq/Qx5jlUsKVGxB1996bDPtkMA/yywzN+4ZGgAkFJyw1BYi6WvHtwvdTs0f6wKDgGOjkCjp4YoOEMUIEA1QABzxJbLF5/fU9XIbjiIsQCmjnqtawMQMAEUgcqPmiYTBu8cmjkxaGWscWKV7ygfti64FrreuwgRnXNm1rZp68WXVKHrOi0SfYBsTlEbYcPJaG46exIHVW8AMzdN45xbXz/TpXZtbRUAqqpKKS0sLDR1R0QhhJxzDIN6lnoCUEspzGhm3vucs6pubm6mlMxsNpuNx2MAmh7WzB4AfYzfxyJmZuY7d+6ggWeXczYzZs/s2jZ579mHEKuUBYGP+tT8n0XYNN3cZHLweHb//v2zZ9dvfvThaDQEgKZpX7985dy5H/oQ3n3vj9XAiwgvnzzTZ34TFWIHRsSkoo8ef80EqqWIXrp0CTEcHDyZn59/9dVXdj/+qG6b7/cXUUpJRJhZVYnoqW9PD+Sc9/b2Vtc23njjV4PBoDdARESEHBNzKYWI7Fnt7OyYmXPhys9/oaqrq2tFrDegqipmn3P+dnwzCyEgIiLu7Hwwm82uXr3Kzr/z+z8gEr704mt9DNJSErMH844rLYZouTRm6oK/ePHH16/vEjkg9/Wjh7FyYeB6KjBi9kzecXgag5lVVRVjBIAY49bWVpfzrKknxxa2f3alabqeCgDYU0qldLC5+YIWAdBPP9sXKeT48uXXUyJDFgMjW99YCRX3Bkzrw6Wlk6eX12ezZjIa1/XUID98+KBNXc5le/uXhnz23HlgWF1bFu2/7I4dOz6dTm/evDkej3POzrl79+7lnL33McZr166Z2d7e3uLiopm1XdNbgYIROQYvYmhgIERgpkAoosSxTWX7p1cM9PL2T373zm//B6Sd4LQtOi9jAAAAJXRFWHRkYXRlOmNyZWF0ZQAyMDIyLTEyLTAxVDE2OjU0OjM3KzAwOjAwkwkIqgAAACV0RVh0ZGF0ZTptb2RpZnkAMjAyMi0xMi0wMVQxNjo1NDozNyswMDowMOJUsBYAAAAedEVYdGljYzpjb3B5cmlnaHQAR29vZ2xlIEluYy4gMjAxNqwLMzgAAAAUdEVYdGljYzpkZXNjcmlwdGlvbgBzUkdCupBzBwAAABV0RVh0aWNjOm1hbnVmYWN0dXJlcgBzUkdCKvIqbwAAAA50RVh0aWNjOm1vZGVsAHNSR0JbYElDAAAAAElFTkSuQmCC;labelPosition=center;align=center;allowArrows=0;resizable=0;rotatable=0;" parent="1" vertex="1"><mxGeometry x="224" y="32" width="32" height="32" as="geometry"/></mxCell></object><object label="6" red="6" green="" blue="" id="85"><mxCell style="shape=image;verticalLabelPosition=middle;labelBackgroundColor=none;verticalAlign=middle;aspect=fixed;imageAspect=0;image=data:image/png,iVBORw0KGgoAAAANSUhEUgAAACAAAAAgCAIAAAD8GO2jAAAA/mlDQ1BpY2MAACiRY2BgkmAAAhYDBobcvJKiIHcnhYjIKAUGJJCYXFzAgBswMjB8uwYiGRgu6+JRhwtwpqQWJwPpD0BcUgS0HGhkCpAtkg5hV4DYSRB2D4hdFBLkDGQvALI10pHYSUjs8pKCEiD7BEh9ckERiH0HyLbJzSlNRribgSc1LzQYSEcAsQxDMUMQgzuDExl+wAsQ4Zm/iIHB4isDA/MEhFjSTAaG7a0MDBK3EGIqQD/wtzAwbDtfkFiUCBZiAWKmtDQGhk/LGRh4IxkYhC8wMHBFY9qBiAscflUA+9WdIR8I0xlyGFKBIp4MeQzJDHpAlhGDAYMhgxkAkqVAs0XeJdIAAAAgY0hSTQAAeiYAAICEAAD6AAAAgOgAAHUwAADqYAAAOpgAABdwnLpRPAAAAAZiS0dEAP8A/wD/oL2nkwAAAAlvRkZzAAAAwAAAAAAAy8KoegAAAAd0SU1FB+YMARA2Ja+7PhkAAAAJdnBBZwAAAYAAAACAAJaWOi4AAATySURBVEjH7ZTLj11HEca/r7pP9zn3MXfs8dgeP2J7PDgiOCYRGwvlP+BfQQIiNrD1MkL5C1iiIKREiIeEhCI27CJIRrbHrzxsNHYCRoM9d+495/TprmIxceSwY4HEwt+iFp+6+qeqri6+9sbVveXeZBYHDF1pvfc26Jgj17qpXxkWJuKNKFR1VAwkvXfLZesodQg5Je9cRhq8LdCXWoo3s+KNlUI64c9//av6SL1IB9s3/vLq69+6fXPnysuX0fPta2+XeTm2eiK1uW3betKYl7ZfikBzqarKkVATkeXQ1dP4o5+8eWBp+971K9/59s7162fPnFmbzKQFv//WtTxSBhYmlhSEukgTN7m8deWtaz/L8zwOo4p+0GGZUxW9gJW43CfLpR6P9rsDNP4HP33zw9vbYRozB0MeUjcdjbuuq3Pw/3jyZGfn49mxqVo3GscLp083k3Hb6Yc7158u9zfWNoZ5WrRt0zQr49D3rUBsKFGCRXT9gOg7sbu7D+4/flTN5fjxNSLHJszTQRyP7tz41H2R0jevvGqaqzp0Jf39yd50dWaGlTi99dFNn0XgQl0vu5bGQBeKiKIUlbpqnZXol5IHb732xjx/srd+/Ojdj+8e21h/2i5PrJ+S9fFqt7c/CSOn4ny1ufWN+7sPVThfLuIokkipgxZHgVrfJlONMZpZGooZU0pNrKeTyWQyUeP5S1v3Hnz20ubmUCzGaKpS76fPt+/J0kpXzp86f//OZ69cvITBXKiUGGywPISCWWhCiFLHnjrv22Y6raqqHLRjrUJbPnj/z9qWVPTWgwcHYAfJBWPE373zrlT0UR27vBLGn3+yW6PSNtc+OkPq+krcuGm0lK7rFouFiPg6FseDftm33ZHprEGlT7v1ehaKTMKEiEVdU09qGaWnacyxrJ87k0Rubd/kPDXqa63QWa3+9798b8zArMWs96qVq6vAUoaSzANizjlNA4eyUo24LJ9u33UL+JYrsuJ6z8794b0/Oq1k6e3ouVNnL164cWOnRnz51MVR9r/5xbuVilMAogIDjEoDAECN+iwCRpo4leFf7Sd/vbWS46Wj59yc7//2TyjVxsmX+L0f/3B373EA3DDs3rxzJI5qkTLkTDMIDWL0KjQRdUpTyaDSBCY0MdIA0EIIy36pmuN4tMh9q3p2azOIkwRd3Tg2mk1NuTo5gt6G/d4X54qj0UiFGASA0owAFTAa3JcFAYCCXddFCY2Lthwai0HdOIzXVtdEtPhBo3L+z732oA31aOuVy7nQmVRFfBEBCqH88qpCFAKAU4SCUCAGABnWS2k1n9k8LyIe/Nvte74v7vWrVy2lWx98ZMscq/rkiZPOV00zWsyXAtBIGEgCAI1mVBrF6IwEQSqhNEaXrZy+cE4qF+uYU5Jsjx994Xxb8t5+MJIO5HS2Sud2dx/CIEYHc8rDbhipNG9wZgBVaGThIRWpDL6pmtl4QHn46GG7WFTZmhD4xmvfLaa9sFRVKupjHLrei6uMzsyrikGJIlCKUp85h40RAEYotRDmLNFUc3TBF8QCFPUDqeIEwmJCos+eDgaBAVoEBQBgAE0FMIgS9tXrAjQIIAY1OhD0LBBDMZDiC+Xw7LPBUDwnw9d0+BX+w/zKfzZX8ny64H+sF4AXgBeAF4D/B4A3qlLtcB9SlRAVAmKkCU3w3Po0gvbfAf4N/lXXClBtgwUAAAAldEVYdGRhdGU6Y3JlYXRlADIwMjItMTItMDFUMTY6NTQ6MzcrMDA6MDCTCQiqAAAAJXRFWHRkYXRlOm1vZGlmeQAyMDIyLTEyLTAxVDE2OjU0OjM3KzAwOjAw4lSwFgAAAB50RVh0aWNjOmNvcHlyaWdodABHb29nbGUgSW5jLiAyMDE2rAszOAAAABR0RVh0aWNjOmRlc2NyaXB0aW9uAHNSR0K6kHMHAAAAFXRFWHRpY2M6bWFudWZhY3R1cmVyAHNSR0Iq8ipvAAAADnRFWHRpY2M6bW9kZWwAc1JHQltgSUMAAAAASUVORK5CYII=;labelPosition=center;align=center;allowArrows=0;resizable=0;rotatable=0;" parent="1" vertex="1"><mxGeometry x="192" y="32" width="32" height="32" as="geometry"/></mxCell></object><object label="5" red="5" green="0" blue="0" id="86"><mxCell style="shape=image;verticalLabelPosition=middle;labelBackgroundColor=none;verticalAlign=middle;aspect=fixed;imageAspect=0;image=data:image/png,iVBORw0KGgoAAAANSUhEUgAAACAAAAAgCAMAAABEpIrGAAAA/mlDQ1BpY2MAACiRY2BgkmAAAhYDBobcvJKiIHcnhYjIKAUGJJCYXFzAgBswMjB8uwYiGRgu6+JRhwtwpqQWJwPpD0BcUgS0HGhkCpAtkg5hV4DYSRB2D4hdFBLkDGQvALI10pHYSUjs8pKCEiD7BEh9ckERiH0HyLbJzSlNRribgSc1LzQYSEcAsQxDMUMQgzuDExl+wAsQ4Zm/iIHB4isDA/MEhFjSTAaG7a0MDBK3EGIqQD/wtzAwbDtfkFiUCBZiAWKmtDQGhk/LGRh4IxkYhC8wMHBFY9qBiAscflUA+9WdIR8I0xlyGFKBIp4MeQzJDHpAlhGDAYMhgxkAkqVAs0XeJdIAAAAgY0hSTQAAeiYAAICEAAD6AAAAgOgAAHUwAADqYAAAOpgAABdwnLpRPAAAAqlQTFRFNDI9MTQ5MDU5LTY7LDc7LjU9MzM9MTQ9Kjc9KTg9NDM7NDI/NDM5NTI7MjM4ODhAMzI6MjE5Ly06ODZEOTVDMi84NTM2MC4xPzxDNTI9MC48ODg6MjIyNzg9LCw2NjRBNjRCMzBBNzRFMCw6NzQ9NDI3NjQ5LCkyNjNEMjA9MzMzNTRCNDJHcG6EWVVuLitAPDhJMS07LSg8ODVIMS89MC83NjU7Ly85OjlLa2iDdHGQdXCOT0tiMS0+NzNCNTBENTBGVlFoNjFINDFENDFCNTNANDQ+lpepk5CvaWWIVlFvWVVsPDhHNDA/ODNJUEpkVlBsWVNtMi9CMjU+kJKhnJm2nZm6WVRyMS5DMi48VVBmXVdxV1FtNDJAMTQ7NTdDlpauUFBsMC5GNTRGNjQ/OzlEWVVkWFNnUEthOTRKNTNBMC47NzVALjA8MjNHMTJHNzVLMC9BOTdELy04My89WFRjNjFFMi1BMzE+MTA4MzdCLjI9MDJBNDVHkY+klpSpdXKDMi86OzhDMy9AMzBFNzY8LjI+KS05NzlGkJGjnZuxl5WrbWp/dnOENDE8MC04NTFCOTRLNTFMMi5FNTM+NTQ6LjRENjxMkZSlj5KllpawbmuId3OOa2d+MzE/NzVDNC9FVE5qWVJzWFJuLTJFj5SnsrXItLbLcnKMaGiEdHGMcm6FOjdIVVBnV1BvVU5wWVJxV1RlMTdFrrTEq67BsrTJrq7IaGiCb22DNjRJMCpEWVNvXFV2MS5BKjE7sbjCsbTFsbPIs7TJcHGFODdHMC89PDdONjBKLilAMi1DPjtMAAMGLjY5sLPCcXOCMjRALS4zMzQ5OzlHLik9LSs2AAQAAAcDLDU6MDlAKTM1MDo5MTszLzUxMTI3OTJCNjM+MzA5Nzc/////8QP1wwAAAAFiS0dE4sYBnhwAAAAJb0ZGcwAAAKAAAAAAAMM2pyAAAAAHdElNRQfmDAEQNiWvuz4ZAAAACXZwQWcAAAGAAAAAgACWljouAAABcElEQVQ4y2NgwA8YCcgzMBFSwExIAQvFClgJKWAjpIAgYKfYDRyEFHBSbALBoOYCQiDgBrK4uIAUFw8XqgJeBj5+AUEhYRFRMXEJSSkGaRkedDNk5eQVFJWUVVTV1EU0NKW1MBSwaevo6ukbGIooGxgZm5iacaErMLewtLK2sbWzd3B0cnaRcsVwppu7h6eXt4+vn39AYJCGkgk3uoLgkNCw8IhI5ajoGEfFWJdYDAVx8QmJSckpqWnpGZlZmtk5GFbE5eblFxQWFZeUlpUrVeRUYiioqq6pratv0GxsanZoUSpuxfBFW3tHZ1d3T29f/4SJkyZPmYqhYNr0GTNnzZ4zd978BQsXLc4SxLBiydJly1esXLVacc3ades3bMSMrk2bt2zdtn3HTpegXbv3LNxbgaFg3/4DBw8dPnI0K+jY8RMnT2EEA8PpM2e3nDt/4SLDpcsTfJuuYFpx9dr1Gzdv3b5zd4rvvfsPTB+ixyUAyFhupwreDREAAAAldEVYdGRhdGU6Y3JlYXRlADIwMjItMTItMDFUMTY6NTQ6MzcrMDA6MDCTCQiqAAAAJXRFWHRkYXRlOm1vZGlmeQAyMDIyLTEyLTAxVDE2OjU0OjM3KzAwOjAw4lSwFgAAAB50RVh0aWNjOmNvcHlyaWdodABHb29nbGUgSW5jLiAyMDE2rAszOAAAABR0RVh0aWNjOmRlc2NyaXB0aW9uAHNSR0K6kHMHAAAAFXRFWHRpY2M6bWFudWZhY3R1cmVyAHNSR0Iq8ipvAAAADnRFWHRpY2M6bW9kZWwAc1JHQltgSUMAAAAASUVORK5CYII=;labelPosition=center;align=center;allowArrows=0;resizable=0;rotatable=0;" parent="1" vertex="1"><mxGeometry x="160" y="32" width="32" height="32" as="geometry"/></mxCell></object><object label="4" red="4" green="0" blue="0" id="87"><mxCell style="shape=image;verticalLabelPosition=middle;labelBackgroundColor=none;verticalAlign=middle;aspect=fixed;imageAspect=0;image=data:image/png,iVBORw0KGgoAAAANSUhEUgAAACAAAAAgCAMAAABEpIrGAAAA/mlDQ1BpY2MAACiRY2BgkmAAAhYDBobcvJKiIHcnhYjIKAUGJJCYXFzAgBswMjB8uwYiGRgu6+JRhwtwpqQWJwPpD0BcUgS0HGhkCpAtkg5hV4DYSRB2D4hdFBLkDGQvALI10pHYSUjs8pKCEiD7BEh9ckERiH0HyLbJzSlNRribgSc1LzQYSEcAsQxDMUMQgzuDExl+wAsQ4Zm/iIHB4isDA/MEhFjSTAaG7a0MDBK3EGIqQD/wtzAwbDtfkFiUCBZiAWKmtDQGhk/LGRh4IxkYhC8wMHBFY9qBiAscflUA+9WdIR8I0xlyGFKBIp4MeQzJDHpAlhGDAYMhgxkAkqVAs0XeJdIAAAAgY0hSTQAAeiYAAICEAAD6AAAAgOgAAHUwAADqYAAAOpgAABdwnLpRPAAAAo5QTFRFMzM7NDI9MTQ7MDU5LjY5MDU4MTQ5MTQ9MTM/MzM/NDI/NDM7NDE6NDE8Mi4/PDdLKyg7NjNGODZEMzE+MzE8MC47NzVDNjRCLCszOzo/MTEzNTI7ODVAMS0+NC9FXlpxNDFGMS89OTdCLSs4MC0+NDJAODZBLy8xOTk7ODU+Lyw3NTFCVVBkV1RpVFFkODZDPjxJLis8Mi9AOjhGNjU6Ly4zMi84NDBBWlVpUk9kUk9iXlxqMjA9MjA7OjdIMi9CNjRBNjU7NDU6NzNENzJGU05kV1JmWVdlMS88NTNANzRHMTBCPDtJMDA4NTY7ODU8Lyw1PTlILik9ODNJW1ZqLSs5Ly07cW6BlpOom5muKyo6MzM9MjI6MzI4MzI6ODRDNC9DNjJDNDA+cG58cW+EdHKIlpSql5aoODpGKy41NDM5NzY8Mi49NjJANTI9b22DbmyCtbbKkZOgNDdAMTA2NDFCMy5CNTE/MzE/cG6Dc3GJtLTMs7TIr7HAMDQ/OTg+NzY+NzRFMSxAODRFOjdCMzFHaGZ+ZWV9trjNMDNEMTVBMC81NTBGNjFFMS08MCw6bGp4NzVLOTdPOTlTJig9LTBBMzlHNjQ/MS5BMi1DNTBEOTVENzNBc3F/amh+MjJKLjBJMzhOcXeHKjA+Nzc/MTE7LSo7WldsWFNpWFNnNjJBMy89dnSCcG6Eb2+HbG6Ha3CGjJKikpqnKCgwPT1JWldqT0xhXFdtUk1hUU1cOzdFLiw6cnCGcXGJlJavlJmvsrnJr7fCODhCMTE9LCk8W1htV1JoVlFlNDA/NTNBMC5EcHCIqK3DsbjIp7C5NDQ+NjVDNDQ8LjI7LjZBJzE9anaCaXZ/rLm/Ljk7////A//zGQAAAAFiS0dE2XcKdzgAAAAJb0ZGcwAAAIAAAAAAAMSaohYAAAAHdElNRQfmDAEQNiWvuz4ZAAAACXZwQWcAAAGAAAAAgACWljouAAABZ0lEQVQ4y2NgYMQPGJgIKWAmpICFkAJWihWwUewLdooVcBBSwElIARchBYw0UMAFAmCakZGbG8MNPLx8/AKCQsIiomLiXBKSUhgKpGVk5eQVFEWVlMVUVNXUNTAUaGpp6+jqKeqLGBgaGYuYmKIr4OYxM7ewtLK2sRW2szd0cHRCDyhuaWlnF1c3dw9PcXsvbx9fPwwF/gGBQcEhofr6YeERkVHRMRgKYuPitRMSk3htklNS09IzMhmi0RRkZefwuZjn5nkmp+QXFBYVYygoyVItLUss5+WqqKyqrqmtw1BQ3xDW2NSc1OKp2trW3tHZhaGgO67Cq6e3r59rwsRJk6dMnYaRHuKmN86YOWv2HK658+YvWLhoMYaCJUuXLV+xctVqzzVr163fsHEThoLNW7Zu275j5y7h3Xv27tt/4CCGgkOHjxw9dvxErv7JU6fXnzl7DkNBzPkLpaUnchkvXrp85eq16zcAc+dtGWfnaygAAAAldEVYdGRhdGU6Y3JlYXRlADIwMjItMTItMDFUMTY6NTQ6MzcrMDA6MDCTCQiqAAAAJXRFWHRkYXRlOm1vZGlmeQAyMDIyLTEyLTAxVDE2OjU0OjM3KzAwOjAw4lSwFgAAAB50RVh0aWNjOmNvcHlyaWdodABHb29nbGUgSW5jLiAyMDE2rAszOAAAABR0RVh0aWNjOmRlc2NyaXB0aW9uAHNSR0K6kHMHAAAAFXRFWHRpY2M6bWFudWZhY3R1cmVyAHNSR0Iq8ipvAAAADnRFWHRpY2M6bW9kZWwAc1JHQltgSUMAAAAASUVORK5CYII=;labelPosition=center;align=center;allowArrows=0;resizable=0;rotatable=0;" parent="1" vertex="1"><mxGeometry x="128" y="32" width="32" height="32" as="geometry"/></mxCell></object><object label="3" red="3" green="0" blue="0" id="88"><mxCell style="shape=image;verticalLabelPosition=middle;labelBackgroundColor=none;verticalAlign=middle;aspect=fixed;imageAspect=0;image=data:image/png,iVBORw0KGgoAAAANSUhEUgAAACAAAAAgCAIAAAD8GO2jAAAA/mlDQ1BpY2MAACiRY2BgkmAAAhYDBobcvJKiIHcnhYjIKAUGJJCYXFzAgBswMjB8uwYiGRgu6+JRhwtwpqQWJwPpD0BcUgS0HGhkCpAtkg5hV4DYSRB2D4hdFBLkDGQvALI10pHYSUjs8pKCEiD7BEh9ckERiH0HyLbJzSlNRribgSc1LzQYSEcAsQxDMUMQgzuDExl+wAsQ4Zm/iIHB4isDA/MEhFjSTAaG7a0MDBK3EGIqQD/wtzAwbDtfkFiUCBZiAWKmtDQGhk/LGRh4IxkYhC8wMHBFY9qBiAscflUA+9WdIR8I0xlyGFKBIp4MeQzJDHpAlhGDAYMhgxkAkqVAs0XeJdIAAAAgY0hSTQAAeiYAAICEAAD6AAAAgOgAAHUwAADqYAAAOpgAABdwnLpRPAAAAAZiS0dEAP8A/wD/oL2nkwAAAAlvRkZzAAAAYAAAAAAA0t65lAAAAAd0SU1FB+YMARA2Ja+7PhkAAAAJdnBBZwAAAYAAAACAAJaWOi4AAAnSSURBVEjHJc/pb9d3HQDw9/tzfq/frye0a3+0v9KyAqNdCxTcxibWbWJM1ET9D9QHJsaHmjjnMZH4zMRHJiaLR+I1jyy4S+yOAAOpA9pCCx2sMDZgQK/f9/ycPvD1H7yQUEALj31qaq3MXE1aYZRKhaDGaYdEVyQJIp+qWIpS5RiyCsCCJ1oTRyIeeUe1do6gQwPEADPoHQXuKrj63vtgKHMIE49Pfv073+GJzIhSoLh08/Nz4+PjZVnFtS6daW49Aa9dBYxeXbleajWxZ9fS/OLw0Ahj0jkuwtCBK6tNzry3KpHJxmr2y1/8avHcZRx99uDA4NDE/n2FKbVXwKwIUanKe+8MCBI7CwTRe0sZAPF5qRgjhFptqjiqra5vtnf1bazngZBOlRH3El2VFXFQG314/GfP/5xtlCW21+ZvrbSyTRnAYLMvLQpCQKC4c++ey+7f+eRBe0+3R88D7OvtiWpJUabeFTJh62rj4vuX6/dXjaaSBGjV2OhQWrTiKFBWz148Z0ER9IxQ2aoqJxlIfu3miohCJjh439/RO3/uYk+9R4qapXwty65/dCvNqtsf35UBr6qcgH50fPfVhcs1GRNLOY2WrlxDIS9fWzZopRRREBDhmbAsoJIxtr6+3ty+fWVlxVVWelHnSahFp6ibTFe5rtc6m0PDt2/f7u3pccZyQkPC2on064VbLblC7vng0PD1Dz/sH9hWVpXkYnN9g9S9pBsaUxNYun9i8ub1Dxq9Dwmg0pC///bPkeVnT5xqw6hT1lprGzc+uKkrxQmNiKSlCyty4g8vd5Xy3vyNNoh8Ya6vrKSqZEkY19vyzXRLvYPMn7mw+J8LXSyWCq/MXeGEBygFcuIoegKeRVHNVhYq3xbVrbI7d+9avn5NKRPQiCkGOQkgNKkmCiQRYJET5h3N0ioS9TxTBKwPiLh48lxseYTSlJZ57i3545/+SmS0ZWRo0+jz781FPNSp3jW6a2Fp8ZGJiUoDOPm3l17zPnho24gh4tzcnDJaECo8IwoinvzlpeOL5xfI5MS+ncM7YuDzp8+THMe3jzNF//Hnl4WMuhv9mbfbRh+mnJlCByhvXP0AAdI0rUcd3gnCk2079mRItu182DEyP38p8GxH71DNRX/77UvEMvAC94w/+YVnjywtLt5bvdeiKtUpMEsEfagxqJB0bGms3V8LDHywfPXAE/tLyHyEA4N9uqX+/c9/DTR25Mp39vSvrm/qKlu/e4dmmzFFUC4Mku6HBu9/8oDEcah0GYuot6MXU1eDOLThQPcAOOzt6atU2dnZaYwJKF84dyGwfFvHVqnoO6/MDPYNl4VrDAyRUNa72gIptzcGQsdFweoQD21tDvc3840W/ejWHWvM5J59aStv9DW76p33bn9SFPnw8Ig1JuABA7x1bcVrjcas3r27snjlxuJyldkiVSMPjwKQLN2IBE+QLV9Y6ObJ7sGd7XEHOOhvNJaWLiNiuHv3uGS1UNTS9RwoyIRWWFlmJg7uzfLywvwCJWygv0G8v3V9OSTeGAM8rJBqhImpfQ6MpOzS7ByWRmgOCqRg1tvSZUtLi0hEuGfP3m99+7uqJNQSAEBh5y7Nvnv2naJK4zAxgF3b+jW4er2uHqyqj+8YpXMkJUUiOCFgy4w4Ty2b/szntg+P8SBWqiREDza6f/j979E9Y5PHjv3cEa6U1aWhlFpvurs7o1Deu30HtbfabKStjrZ2VVX3PvqYlBqMcYwxLpzRPVu6qDJE22cOPzs8PGo8U+AtuL7+vliyE2+8wRiNdGXboySi4TsLp6y1zhlKkZPAFA7AJXGYVeWDlQ+11gFnBj2VAtGbohgZGUZE0cbWzBrQ4NKlJSFDB6RSxSNDAzrPOZUMkRHCiiw9c+acMZpSToEyRqqqSJK6UVWZl+gsByII9cYRLrXT1lhKiDfWWL+52dpsFS8f/+eXvvjlIiurqupoq73xyivgLaMCxycPT09Pe49VaWpxPcsKxpi1+uy7pyqVA7gkiazRlNI0TYNAaGsYYxastVaIQCvrAKSICWFaGa1tkiRlkSlVCUYuXJxlc+ffo5QiUu+IM54xoZQKQ4mIUkpK0Vqb53kQBEmSVFXFGKOUovOEEwAghDjjjTFKlZ+dfnrHjlFEL4XQuvzd738D4KmM29vbO77xjW9OTuzdP3Wg3tZ+88aN55//QXN7c9/+vXEULi9fjZJIaWWNFUIYraxzWhtvPQFKKEUk4GD6s0+PjY0rpRmjSqmh4ebjTzx+efEyaTabx44d27p1K+d8aWnptddeO3r0qPe+2WxSSpvN5vT0tLX2/6GyLBkTnLI4jDjniOiNo0C9R13poijCMCSE9Df6rLXeeyE46+joqKpKStnX1zc3txAEwlrtnJv514xSRS0OAYAgDSTP8zwMAudcVWkh0FnPGCl1JaUgBM+ePRvIaH1zI0mi/oFnKlVwTq13rNVqSSmNcYiWEAIAzz333KcPP+m9i+NYqfLtt99CRMYYAHgP6IEACiGyLDPGxGEydfBTO0cfsR5ffPHFQ089iehff/31p585XJY5AODE/sMv/OSotf7EiRnw1Bjz3ux/K1UgghAsa23U60lZls45yQPnDUU0xgghtNba2s8f+UJjYJAg72sMAJAfv/CjQ4ceR0YAjVLlmdOnGAAcP36ccylEgEAYYwcOHDh56h1CsKzyMAyNMd57IYR33nvvASilWmvn3P8fN1duOE8GB4eMA3B+ZmaGC1bqPAzlhdlZBNb+6NgEZ9IYV1WKc84J9d4TgtoUtTgZG39E8IBS+uabb1KGzhghmffeO7TWBWE8OTnlARHpu2fPcc6nDu4fGdnOOP76xV+fP3saxx499NOf/uyTu6tpmtZqdefcwsW5M2fedc4xDl/7yle3bO26cH5Oa726urr8/hVwzoM1xkgpEdj6+mZXd681UFZaCDE2NrZ3ai9h2Nffo6w6dvQFFoahtbazrZ0CZmnmvd81upMgvPXWW9751QcP4ij48OZNRESgqtQiIIjgDWhjCMHOrq61tbU4qgvOp6YOPvbYY/fX7je3DVqrnQNjDGu1WkEQsJDNzMxwLhCREUopDQLhnHn11VefeuqQcy6KoveXrwshtC64oGEYaq3LskCgR44c0cpZ6wMhT58+TSk2Gn1hIqlBxhiLoujtmTfzvGSMBULmeQ7MzczMMIKAjnM+OzubbqSMMUaFtpowoq3y3jPGCWFFXgRCWlWKINLaci4ZIydPnnzy8BOc0zzNECB5dHK/0a69vXNjdT0IAkKIc9Y7Qykaq3SlOjo6tNZlVgZxYJyhFKuqIoQhEkq4Uu7TT01TyitloijaSDeSWmBM9caJ168sXf4fytB+VgEHsicAAAAldEVYdGRhdGU6Y3JlYXRlADIwMjItMTItMDFUMTY6NTQ6MzcrMDA6MDCTCQiqAAAAJXRFWHRkYXRlOm1vZGlmeQAyMDIyLTEyLTAxVDE2OjU0OjM3KzAwOjAw4lSwFgAAAB50RVh0aWNjOmNvcHlyaWdodABHb29nbGUgSW5jLiAyMDE2rAszOAAAABR0RVh0aWNjOmRlc2NyaXB0aW9uAHNSR0K6kHMHAAAAFXRFWHRpY2M6bWFudWZhY3R1cmVyAHNSR0Iq8ipvAAAADnRFWHRpY2M6bW9kZWwAc1JHQltgSUMAAAAASUVORK5CYII=;labelPosition=center;align=center;allowArrows=0;resizable=0;rotatable=0;" parent="1" vertex="1"><mxGeometry x="96" y="32" width="32" height="32" as="geometry"/></mxCell></object><object label="2" red="2" green="0" blue="0" id="89"><mxCell style="shape=image;verticalLabelPosition=middle;labelBackgroundColor=none;verticalAlign=middle;aspect=fixed;imageAspect=0;image=data:image/png,iVBORw0KGgoAAAANSUhEUgAAACAAAAAgCAIAAAD8GO2jAAAA/mlDQ1BpY2MAACiRY2BgkmAAAhYDBobcvJKiIHcnhYjIKAUGJJCYXFzAgBswMjB8uwYiGRgu6+JRhwtwpqQWJwPpD0BcUgS0HGhkCpAtkg5hV4DYSRB2D4hdFBLkDGQvALI10pHYSUjs8pKCEiD7BEh9ckERiH0HyLbJzSlNRribgSc1LzQYSEcAsQxDMUMQgzuDExl+wAsQ4Zm/iIHB4isDA/MEhFjSTAaG7a0MDBK3EGIqQD/wtzAwbDtfkFiUCBZiAWKmtDQGhk/LGRh4IxkYhC8wMHBFY9qBiAscflUA+9WdIR8I0xlyGFKBIp4MeQzJDHpAlhGDAYMhgxkAkqVAs0XeJdIAAAAgY0hSTQAAeiYAAICEAAD6AAAAgOgAAHUwAADqYAAAOpgAABdwnLpRPAAAAAZiS0dEAP8A/wD/oL2nkwAAAAlvRkZzAAAAQAAAAAAA1XK8ogAAAAd0SU1FB+YMARA2Ja+7PhkAAAAJdnBBZwAAAYAAAACAAJaWOi4AAAhxSURBVEjHlZNJj1xXFYDPueN7r+pV9dxdPc8e46kThJDjOM4Av4E/gFixQIJNAgKJPVJECCyQFQkWkCCMIFIcrESIYCHHlt1ut3t0d7ttx7biTruq3nBnFlZCArZEPp3FvXdxz9H5zsGp52fAugoVzSJjlbS0RnrGCA2eOgKlVZVYQjurRCwzOYlFCQgemTbCkgpLPNDMecvQog3EcmKJ9xy4VbB8eQ2sx1+++xt0QBG4FNoHpESXenV55eCBI4Uqk3qqi5w5R9Frp4HRlc1NrfXcgX3L89enJqYpkxY4i2OLvlRNyQJYXZXVhzvZaz//1fWL8/jdX7wieWSc1lYxRGXKpFpRxiDh3jlBhfc+IGIIjCAiZrpkDAl1xqpKku7sNrs7Bz99mEspnSmlCAK9zotUpPunD/30Jz9jt2/d39ra7h3qC9RhsHv2zGiwDgGCu3fvni30vfufdPQNeIBYRI2B/qRaz9WuhUKm7FP98MraYmd9x2kqaOS93rdvolm2KkmkjLl0+YILjnz04aWR3nEOktFIOXf9xjKQYEyJwQx0d1/56FJPvTvmEUG501Ybt+62s/LjO/ek5ErngObwof0rC4upqKCljCaLK+tUyKX1VQ9ORiKJJRGGVFjF6uC0T5Lq0ODI0tJSJUkiz+o8iizpkqnLrMpVrdY5NjFz6+7HfQP9wTqJtAKsg0i3W5jdklpkwCfGpzZubg+NjhRaSS7an7ZIDeILH/wzlrHRbrwxunP3kz0z+21hhWN/evP3dcMuvvf3hEVpXGvtNG9ubCqjKaUJkSL3aUHO/e7PHVrevbaVYhJKu3VjsyzLOI7TtN5qtbtr3SSEwAQ3eVmr1tdWNx7u5gIi7gRxnDmBgVajWigdaltPqsaY2f37Vm6sW2VjknDNSE4iiFVmvAVOBToUyIilRUtFslZkmvTMjOdolq4t5rtNz0Rc67KF5z4689ZfPYrO0fFmCNfnrzEbnCqn90wvra9M791rgWlDzpw5Z4McHJkOLLp4ZV4bwykVgaGBhFff/sNfli8tkGbQg1Ojw8PDq4srHNhw73BNdrz92zPe0dGpPV4m/aNj1lp0XlK6tbpilXbWpkkngbh0dHLvkZYLjYnxQMnC/DUZ2OzAROqTP775FrUMPMeT3/uOUoVtZpKw7ZtbRhlJRBQlPX29nrLORs+dO3dqUt7YWH3mmbkSlJFufHIM2u6dM++MNaasZx3dAzvNptH5zv27UDSrBEH5JKoO9I09uP+A1Gq1aqXS6OmTQFIQXTRJHB3q6pcsHugbsNYPDAxaaynSCx+eZ8rN9I6wtn//nb+NNiYCyu7+hkii3t7uhMupodHEcV6wGlamesenh8bzZotlD5q1JBbOrq9seW0lZbGI729sH3j6WJYVHV31Qpe3btykCATY8uXrG/OLxhhn8H7z7jPHn93N8iLP0qTSV00X/nWxK0qnxydQWW99ZyUFZ/Hb3/9hu9Van19ICCEuqLJERECKSbz/yKGmVlcWr4LzU5PjIbhbG+uRsgzQscgzoSEcnjsG6EiAxcsLobTUcjAQc+a9MzZbXLmGs8dOyIh773SedUaxNYpF0jhfWoOUMSpA8q6RRmZUEgmuTHNtMwLWtt4zFhjx4CAY8AEsOfX8NyennhKyok1J0IwN9/zo1R+QiDC0fmxsjEsRQhBCtFoZIkaMi0CYc7ad39nYighDh2ACCaiKUhBOPYbSog7SUe7Iy6dempmadcGXWjnv+weHqJQWkFGBta4uxsjk5OSt9U1jXaWSgvMhAAYACDGiU253fQsAqAfqHJcSCOHIrNWCCa21EOLce/944eUky/MkqXpvp8cGVW4oxKxQOWlTRoAAIiIiA+edsYxSAAAADIABmH90AxEnZVmCNQgBA3nx+ZenZmbzPJdSvvHG68+dOplnTQB47+y7QkhKJO6f+wZhVDDOCM1bbUYpJzQ4j/AfwhfOxqooiqwB78OLL3xrdGSCCck5bzT6rbWv/PjVer2ulHLOKaWuLVxmkgttjbbKI0EAEgADICHBe3gcaZo2m03BEymF1nptfRUJRaT9/b2UUkrp0aNHZ2dnAeD06dMAhDYao+ADo5RRyhiDECAE7xwi/tfXAQEQyiIXQggRGWO3b24PDg7X6x3tdmt7e/v06dOU87Gx0Z6ensnJ8RMnT1xfXmQIQBAJYrCOUup8QEQkBJ6AEAICybKMMU4QL1680Grn1Wr6SPWRuWN79+5tNBp5nouIe+8JBWRI0AejtLcOQiCE0M8M/y9GO0pImqZaawBwzkkpjTEe4dnnnuecr6+vA0HKmXOOC0qcseADRUII4YwRQkIIxpgnJeCMBY9ZliVJjCQYo4Rkx48ff+HUS81mU/Aoz4tz586F4OJEFkVBhwfHESCEQAnxn4n9XMAX5wcQAIAic84Jzp21xlpKGRdibe3G4NBwFCXeB4LEeXv79vbS0vWtrU0GXwUMxHnvnEf0ABDHsbOhKApC2Pnz5xkTSikAH1XEgwf3uro7Fq5efWKC8IR3SnnEI2WVlFErazsbOrq65459bd+Bw3leyiiiDMuyHSfi9V+/Bs7RocbY/10/IKAq9cTYZHdvT0dHPcuzSlJ96tCho0fnrAuPZsk5KwQbHGqcPHVieW2NBIDHxuP6AwBw9Mgcpdw5B0BGh0eyLEvTtCxL70GVhjEheNTTP0A4c84h4ldzAIBXL189ePCg1RYRV1ZWoriStdqbm5vWM2dDQGSMHm98XWtNCVN58aWFCvj4+LIDurKyur19e35+vlqtAgAhDIA4Gxjj1nhEPHv27KNliqIInz727BcTfBkPQAA8hs/rIOglIaQs81o9abWaAaGWdh46/HQcpXlphRDWG0J9oPb9D84uXPro32OUmWaVFY9iAAAAJXRFWHRkYXRlOmNyZWF0ZQAyMDIyLTEyLTAxVDE2OjU0OjM3KzAwOjAwkwkIqgAAACV0RVh0ZGF0ZTptb2RpZnkAMjAyMi0xMi0wMVQxNjo1NDozNyswMDowMOJUsBYAAAAedEVYdGljYzpjb3B5cmlnaHQAR29vZ2xlIEluYy4gMjAxNqwLMzgAAAAUdEVYdGljYzpkZXNjcmlwdGlvbgBzUkdCupBzBwAAABV0RVh0aWNjOm1hbnVmYWN0dXJlcgBzUkdCKvIqbwAAAA50RVh0aWNjOm1vZGVsAHNSR0JbYElDAAAAAElFTkSuQmCC;labelPosition=center;align=center;allowArrows=0;resizable=0;rotatable=0;" parent="1" vertex="1"><mxGeometry x="64" y="32" width="32" height="32" as="geometry"/></mxCell></object><object label="1" red="1" green="0" blue="0" id="90"><mxCell style="shape=image;verticalLabelPosition=middle;labelBackgroundColor=none;verticalAlign=middle;aspect=fixed;imageAspect=0;image=data:image/png,iVBORw0KGgoAAAANSUhEUgAAACAAAAAgCAIAAAD8GO2jAAAA/mlDQ1BpY2MAACiRY2BgkmAAAhYDBobcvJKiIHcnhYjIKAUGJJCYXFzAgBswMjB8uwYiGRgu6+JRhwtwpqQWJwPpD0BcUgS0HGhkCpAtkg5hV4DYSRB2D4hdFBLkDGQvALI10pHYSUjs8pKCEiD7BEh9ckERiH0HyLbJzSlNRribgSc1LzQYSEcAsQxDMUMQgzuDExl+wAsQ4Zm/iIHB4isDA/MEhFjSTAaG7a0MDBK3EGIqQD/wtzAwbDtfkFiUCBZiAWKmtDQGhk/LGRh4IxkYhC8wMHBFY9qBiAscflUA+9WdIR8I0xlyGFKBIp4MeQzJDHpAlhGDAYMhgxkAkqVAs0XeJdIAAAAgY0hSTQAAeiYAAICEAAD6AAAAgOgAAHUwAADqYAAAOpgAABdwnLpRPAAAAAZiS0dEAP8A/wD/oL2nkwAAAAlvRkZzAAAAIAAAAAAA3Yaz+AAAAAd0SU1FB+YMARA2Ja+7PhkAAAAJdnBBZwAAAYAAAACAAJaWOi4AAAbmSURBVEjHvVJZb6VHEa2qrv6Wu19v8TL22J7xJDiTECVIERJCAv4MvPED+BvwiHjgBYKUZRQFQSREgoKIhiGjxMQeTzw4s8Sexfb1Xb6vtyoeHBCgTDREgvPQ6lafrj7nVOHadzcopA5l4/FY2+06BlbOyNhgBGGkrizzWI2bOTs/sVkWQCOgE0SFli1MUnUeCAMjEqEiiaQQMYdh8ra0+JPf/BQiFAA2z2pRNORrf3PnxnPPvlDXddlt1/WEJBGKRI+Mn+z9rYp+8/mvb21tXTp/MTdMonlRVCCjyai0RUZkVMToUOosL/EHP/5RbgsvPgTHiNHXZbPpY1BjU0qZyTQJIgooEyJBqEZkCQy5GDpl+/h4MD01dzQc1KqLS/NHB4csUhqTNDoGNgXfvXN/f/92f2UOMRmJm5c2osaIIJg+u3+YJv7B4cP+7LwicFEszs+2O+26Oo0Si0YxdOOtne1e/6gWoWZx4+7+i5efVV9VITQajXE13r2xa8aIlzaeVUPGGuero+GjqZm+85UhaOWNd3/3zurKelE2I5hB5YfVqCztweHdqZmu97VVWphZ+NMfr55bWgtJE8Dx8FF3qr23d6PdbDWyxmx7ljhSyzSh1uikbLQWl5Y/3t5uNBq5ctcWRaCpvB0msZq4dqe/urZx5+Bgdv6pJCEjLIjanKeTWo7qLJgC8+Xl5d1Pbq6urxGgH3p2SC0o3//9e428FJdWF1ceHj7cuLQZ6phHfuNnv+wFvvrbd3JblM3O6Oj0071PqxDFMttcQswC/voXr3VDdrC133K2cPTgzv0QkuXcAHe5+farb5GAcmbDpO61ujd3b52cTAwVpBknyylDNc2yIy6Bj72ylXx65mvP7e7tex8zzkU0eskgD6NAjkpsxHFs2ZYGMGpTLRCJpi4s11a3P9ryo4lwhlkjesi18forbyKXM2sXhqp/vf5RFjUGd+npi9s3b248fTkJew+vXXnLo5lZW4+2uP7hDkYyDspkM8lAzatvvDVWJSlsb2F66dy5j65vZZRtXtwsU/Grn78aEi2tXUxZOb+6Bqo2QUnm1s6uVAIOemXfYOESrm5uDiTOXlgNCNeufjBb9C/MnmeHV165MpqEi5efx+/88PunpycZUKrc3dufFpy7Ud1ud6cXnkpIvaemPrt7r1+Ut/Z2X3r5JQeSDK6tn4fJ6M0rry8sn/fKnenlk+NJm/Lta1dnWxbFJYSAeO7CMwPnqJkXM73+bH+qNLYLedPhlGmsTC/ktpyZnQs+LSwsBe8Z6P0/vMc+bcwt58P47pW31+dWWezM3AI3ium56aqavPzSN8iBDWwiQQBrsqWlJbPxwouFsWYc9j/eJS8UUsvkg6OT+cVFF3y31zeAt7a2jQACHB8+vLOz98mH2zKuJ6eTZy4/X9VhUtVNk/U427n2lwaZGIKxGdr8/uHD+fl5881vf8+fVre2b5iYLBADuroGgJPBYGVlZTIaX7/6Z026vr7en5o6OTrCSbQRMmPJ8N9u315aXi7ZsujOtQ8ahmvny3Zz+tyiLUoJ8cG9A7z0wrfKMpcU/XjcazWTBJNnk9oDABELoDBNnV+KKmVm06ga3r6Xo3HBC1O0JKqqSqJQJ7bWZbxwcXXoqn6nB6fV/o2b1Gt16tEEFfr9/tzcnIgMxxUaIgCjkIumyh3evVfYzE/c8eEDAKrrmowFJXEJg2aCNkG7LBAxaYwx5nnuq0p8aBUN05ubzzLLTJ1et9fr50Xh6qBJCYgUUMEYMlEmj47j8ZCSQBJjrYgAETMnkRTF5oUPEdlE79OknilbWZTjzx64uuKMjYjUdTg9Pc0Me+9VREUMEgAAgBEwAACAZ6thRVDCz2lERavR6rSPjo5EpLQ5R32wfyfGSApFblljMkSK5Kv6SB6llGKM1lqNCR4DEQEERBSRLMu73W6n07GGDw4OovMmz1OMRJQZroOnFCMiZtYigHPOe6+q8HiIiMTESMxMiCiqMVVVNRgMzpQZY1RVY9IkpMA5W1WVmFCVmYltjDE6z2T+o/TZt4j4+VFVRLz3g8EABoPhcJjnuWVWEQMoKjFGw4ZRQZMQoBKKCAAQ0ZebICJNAoqMlFSD90mkUZbM7JyLMbbKhjHG105i4rOizCyqIYSkkZmt4ZQe0wPVMwUiYowxAKpqrNGYFJIBBKTgfAAAVcNMZ6ZCCAjAzMwMADHGx8lXVUMEACCKCiKSUkJRIooxElFRFMYYRDTGECKnlIwxn8/GP2cR8XEZIWJKCQGISEQQwCCBKPxjkyQiACGe1aQvC/tLgU9G4y8I4Qme6RPcnimgr2rgScFPKPm/8vevzP+Pgy/qF37l7v87/ucO/g4eFhpE9wWjAwAAACV0RVh0ZGF0ZTpjcmVhdGUAMjAyMi0xMi0wMVQxNjo1NDozNyswMDowMJMJCKoAAAAldEVYdGRhdGU6bW9kaWZ5ADIwMjItMTItMDFUMTY6NTQ6MzcrMDA6MDDiVLAWAAAAHnRFWHRpY2M6Y29weXJpZ2h0AEdvb2dsZSBJbmMuIDIwMTasCzM4AAAAFHRFWHRpY2M6ZGVzY3JpcHRpb24Ac1JHQrqQcwcAAAAVdEVYdGljYzptYW51ZmFjdHVyZXIAc1JHQiryKm8AAAAOdEVYdGljYzptb2RlbABzUkdCW2BJQwAAAABJRU5ErkJggg==;labelPosition=center;align=center;allowArrows=0;resizable=0;rotatable=0;" parent="1" vertex="1"><mxGeometry x="32" y="32" width="32" height="32" as="geometry"/></mxCell></object><object label="0" placeholders="1" red="0" blue="0" green="0" id="91"><mxCell style="shape=image;verticalLabelPosition=middle;labelBackgroundColor=none;verticalAlign=middle;aspect=fixed;imageAspect=0;image=data:image/png,iVBORw0KGgoAAAANSUhEUgAAACAAAAAgCAIAAAD8GO2jAAAA/mlDQ1BpY2MAACiRY2BgkmAAAhYDBobcvJKiIHcnhYjIKAUGJJCYXFzAgBswMjB8uwYiGRgu6+JRhwtwpqQWJwPpD0BcUgS0HGhkCpAtkg5hV4DYSRB2D4hdFBLkDGQvALI10pHYSUjs8pKCEiD7BEh9ckERiH0HyLbJzSlNRribgSc1LzQYSEcAsQxDMUMQgzuDExl+wAsQ4Zm/iIHB4isDA/MEhFjSTAaG7a0MDBK3EGIqQD/wtzAwbDtfkFiUCBZiAWKmtDQGhk/LGRh4IxkYhC8wMHBFY9qBiAscflUA+9WdIR8I0xlyGFKBIp4MeQzJDHpAlhGDAYMhgxkAkqVAs0XeJdIAAAAgY0hSTQAAeiYAAICEAAD6AAAAgOgAAHUwAADqYAAAOpgAABdwnLpRPAAAAAZiS0dEAP8A/wD/oL2nkwAAAAd0SU1FB+YMARA2Ja+7PhkAAAAJdnBBZwAAAYAAAACAAJaWOi4AAAk2SURBVEjHVZPZc11nscW7+5v23mcfyTqyrcGKJdnGjmNHVmKbAM59uq4A/wLwSBUUVVR44zkUU/Fn8AIYUgGSIkVwzHAviRMbx5Mcy4MiyUMiKdZ0zj57f2PzoFBAP/Tj6l+ttRoVQUrwxS+c3miq1DZRB+d6WouQfELylsqs4J5rGd24vsikgxSAfUQAKHQmAlPjgLDWiIJUQEophIAGutGpXEmPMPul57758suqNBU5B06ZdOPG9ZmZmaaxrfawr7yKTMA+WZR4f2GhDu6ZmRNzc3OHJw8ZISmxybI+pG7da8lMEwlOSXAVG5nleOSlF/ZPTs+eOlmHxrMDGXWOzllmTgE0tVIEQmSOQgJitE0jFCVJ3vtdWXtjfWto99717S2feHx8dHVtRaVUkkgp1BKEzARN7B07OL3W7y6tPN6qN9tDZc9XASOh/GTl043Vrfm7C73g17a3NpquaeV5K7fBWo4mz3zd3Ji7td6vV7e2a+/vLC6MTe5LlCCGrFVU0d29t0jAioTpWpuMBKPuLy/qIpdaAfO+odEbl66NDIwY3Y5CbVTV/UePturq4crHmRHOVoA8e3zm/vXbg2ogBkJp5u/fTYLnl+9tN1VbFcemn6Y8aR1lJoyUcnNzc+rAgcXFxWSjYT2gytzrjh4Ilbd9P9DuTB44sPzJyu7RkZi8ItSCSmV4o+EnjQxCk9k/8dS9e/cmD04jous6aZGGohFbHnshi+LU7HPLCx9NjI5pECbQaz8/V0T13vm/D2LRMe3uxtbi4nITAkippGEfZMA/nPvtLqdXby6VVhlLTx6sRheVNALkoGydf+1NunHxyofvXx2WLeNw/vq8IpWh0agoCWQClkXRjjaC5cFiILh45OjxuwtL1gclDQROTZJkXOXJUoFFqEKpSvZAoLxNEIiAISN97f8vtaIq0IQmSlYc6Ze/epVMsefQ9HbwH1y5Xqjc9/yxw8duf3jv6LHZxgOQ+cUvf0NZMTQ1bU02d21eegIPCpSJWkbx2u/frJjpuZnnnj74uRaoG+98QH2cOTAjnfjtud9rU+ye2FdxfOrIYaFkqH2GZnl+SSXZbNtOaxijMll7bPrAJsbRI4cCwNVLV3fnQwf2TEqLv/v161XfHzo+gzPP/s9Xv/yV2x9+uLa+1hWu53sgI2kxNjHpkIb2TGx8upEF+Ojunc+fOdWwjRqnD05J37z6m3P7n5qOZAZHplY+Xu/I4vYHl4dLBWwBwCOOH3x6y1rKy8z5pqWL0aFR7KU2tPKY79+9HxKOjoxb13Q6nRBCJtTNS1fzSEfHD8BG/da5149PPSPI7Nq9lxFGx0eqpn/65CnRgLGSPLEDJfTEvn0IkJ8++cL/nnlpaWlZFy0Xmxu3r2OBz5w60UAElQHg/NW5WNeUgpQEzJmSsem7FA9/8XTKssYnjpgx3Xr/cofJu4Zz7aWwPj17+nkEMseOzhrZznW7t9kHAaYUFm2UYfaF56t+c/XGTUFy/74JYl5euF8QxcYZKaKibRGfnp01Jlcgr136hwZKVZOX+eD43saHrSebMUYknR8//vx3vvt915CIBACo4/W5y+++97fa9lp5GQCHn9rnIQ0MDNTrm+sfLbe0CjEmgX0OSAQAECLaJJWyWo4dmurautPexd166c49cXxm9kc//RmDdp6t9VKIyG54T6eVm7WPV9mn4ON2rzu4a5e3zerjRwrBe5+Q9o6O1f1akfRN09JZISQzNJTyXQNKqhQCNi41XkpZpIhayL3D+V+v/R8iAwYSLFG6JrTzQfQOnX+y8AAwSgyks66tP3dwSms9SqMrKyuZzpvaRSShlbDN1uLDsX3jKcS11ZUQvPSJq6oaGZ54440/AEDimGnx1lt/VErkWXtjY1Mp1cqzmGrnrW6ZblWVuwYjcEppeXlZIGHCsmg3TYMgFGOqms1HKxE4Wmu0llrI9959NwXFjMFDq8zffPP1733v5bquhFDtorx8+fKlS+8DkNZZcC7TxlbNw94DgSQStfIiONfv9YQQyGykijHapokpASZICQFaJ06eQs5i5FYx2K97P/nxD7x3n3662u1WiqQQ4tatW39/5y9CpggRUNjgJVJKkCsdQhBIAinGCABEBMQJmJmZY+AkgYiZv/2tb8XIczfnL773jrUNEXQ6HWYM1iuliCilhCkBJymlUrm1NpMaAgumaD0IobV23qaUGBEwkRAoBAeWM7Ozr7zyire0tvZEGxljLIrC2pqIrly5YqTe4dJax9QoKftVUxRFrjLnnJEqxFBkufc+hUhMIAAAAnOKEQEIUe4AlmUphLp9a56A67oGSBfOny/zAgCrqsq0SSESYVVVg2WnaSxE0FpPTk5xTMz8+PHjHSYSBPCZQSlFABDDe8bPnj3rbGKGtdW1O3fm//q3vwhBgsg2jpnzvHXh7fNCkA+uLMu6XxupicT09DQyKKWYuSzLbncbCGOKPkZEYAAAJiIppUREIrpw4QIyvfjii/+4cvHtC39SJLyPmWl5H4kIgLXWKSVjjPPBSLOwsDA1NSUQIqflB8sMnAAAEQkZEiMAIDOL0fGpfr+/tPhQa6OkEoLGxvY+eLBMiGXZ3trqGpMBc0rJupqZYwgASFI67+t+f239Sb9X2eCBgBEAAQAYGQAAGAAQxeDMzAkly+CTtVZpoQQwR+ec1lmuW1VVay1jCnkh+v1KKZVS2lHimHwMkoTUaqemAMwIAAkAEiZiwGdPnPnhD3+0urLZ69btdjtxuHn9g4sX38nzfH19U5E5e/aluq7yInv9jVc7nSHvfYwxhJBleUqJiEIIRMTM/1L/7MDOFlPTR86cOWN0wcBV1ffejezdk+fZ3NzcwMDg17/2jZGR0U8+WQFIAwOtR48exuilFIgghHTOEmEIAREQAQAQACHtWIXICCC73W6WZYTZhQt/VtIgsRIghDDGOOeWlpaOHDm6uroqBCqtAEAIIYRARObPXlcphYgppf9g//eIyanDiDh387YQMjO5dQ1CePvtPzEnrfVH95eU0tbafr+6f2++VeTMkVOIwfNOzQUxA/NOqoD/ShoBEBgQEKA18/zJ4GlocGhjfSvLtURM7IQQ/X4/NyWhsNZmueHkrK2VkjttBIDIKaW003JmBkj4X/SJEf4JZtpcz0GkpZEAAAAldEVYdGRhdGU6Y3JlYXRlADIwMjItMTItMDFUMTY6NTQ6MzcrMDA6MDCTCQiqAAAAJXRFWHRkYXRlOm1vZGlmeQAyMDIyLTEyLTAxVDE2OjU0OjM3KzAwOjAw4lSwFgAAAB50RVh0aWNjOmNvcHlyaWdodABHb29nbGUgSW5jLiAyMDE2rAszOAAAABR0RVh0aWNjOmRlc2NyaXB0aW9uAHNSR0K6kHMHAAAAFXRFWHRpY2M6bWFudWZhY3R1cmVyAHNSR0Iq8ipvAAAADnRFWHRpY2M6bW9kZWwAc1JHQltgSUMAAAAASUVORK5CYII=;labelPadding=0;noLabel=0;labelPosition=center;align=center;allowArrows=0;resizable=0;rotatable=0;" parent="1" vertex="1"><mxGeometry y="32" width="32" height="32" as="geometry"/></mxCell></object><mxCell id="94" value="Level Tiles" style="rounded=0;whiteSpace=wrap;html=1;fillColor=#e51400;strokeColor=#B20000;fontColor=#ffffff;" parent="1" vertex="1"><mxGeometry y="16" width="64" height="16" as="geometry"/></mxCell><mxCell id="95" value="Entities" style="rounded=0;whiteSpace=wrap;html=1;fillColor=#008a00;strokeColor=#005700;fontColor=#ffffff;" parent="1" vertex="1"><mxGeometry x="416" y="16" width="64" height="16" as="geometry"/></mxCell><mxCell id="96" value="Objects" style="rounded=0;whiteSpace=wrap;html=1;fillColor=#0050ef;strokeColor=#001DBC;fontColor=#ffffff;" parent="1" vertex="1"><mxGeometry x="608" y="16" width="64" height="16" as="geometry"/></mxCell><object label="" red="11" green="1" blue="0" id="97"><mxCell style="shape=image;verticalLabelPosition=middle;labelBackgroundColor=none;verticalAlign=middle;aspect=fixed;imageAspect=0;image=data:image/png,iVBORw0KGgoAAAANSUhEUgAAACAAAAAgCAYAAABzenr0AAAAAXNSR0IArs4c6QAAAARnQU1BAACxjwv8YQUAAAAJcEhZcwAADsMAAA7DAcdvqGQAAAHdSURBVFhH7ZS9SgNBEMc34VoDIhYR0omCaGOsEkznI9hYCKKgja3gEwg+gRZBsPUtlFgZQRRB24CpRIgPoP43M8ns3n7cRcTmfhB2dud79jaqoKCg4L8p0Rqkvrr+RaLq3t8YPiFdbhBMBgTYS6Q+pMtKmdYRV/t1oytmrd4iKU1IFyNVAGg3FlJF3HWvSUoT0sVwFiDBvaLDh8M93am855AuK2V0yj+M30dlZYqkNCEd4Pi0NUjspIPHT5Lc+AIBqeNpcGOb5119bpO4Eu7evhoBsM425pX6CYLvQ3aMwLYOMXeV0n6hqYIEyWxkcgR12YRAEW1l+g2nMCxKUnKNDXDy2P2GwHRiE9CvAIn+AsRFEbgS309PgDuVH8ok3SMgYD/sY9dXxthhBGOMyzUNDuwjpg9h3DmJGi7kN9+AxFUkGh8VIOFrsXGN02UnCV0Bpu8tgEQD/s//eDlW04snet3Y6uizLMhXxiS0OtmpVtTcclW9PfXVRX9gJWyps+0Zkse2APbsB+DrI9cEZELm4PKdpDiuCXgLqDWPaDem1zklaYzLzgV8cxdQay7RyZBe55kkE9tOwj4TFQBcXecBcXzJgfMQoAh+YnhKvgA+svoHgyIIibkLAHF/pb4By5wv6M1qRS8AAAAASUVORK5CYII=;labelPosition=center;align=center;allowArrows=0;resizable=0;rotatable=0;" parent="1" vertex="1"><mxGeometry x="416" y="32" width="32" height="32" as="geometry"/></mxCell></object><object label="" red="11" green="100" blue="0" id="98"><mxCell style="shape=image;verticalLabelPosition=middle;labelBackgroundColor=none;verticalAlign=middle;aspect=fixed;imageAspect=0;image=data:image/png,iVBORw0KGgoAAAANSUhEUgAAACAAAAAgCAYAAABzenr0AAAAAXNSR0IArs4c6QAAAARnQU1BAACxjwv8YQUAAAAJcEhZcwAADsMAAA7DAcdvqGQAAAI8SURBVFhH7ZU/SAMxFMZTcdSCuli3LtZBF6uLooJQ0MFJxUlQBP8giJNLFxcR6iKCg4JUEATp6KBQEFRw0bq4WBfHuuhQ3avf494Z09w16Sku/UH6ctck78tL3jtRo8Z/E3Kslnj3QMnp+pK7v/Zdxw/PiXDeGx2jfktHlKwX52c7VYvQTmLnt8+nYmR0hd7BiRcYE0REGRCwOJ4qwSaTGbJ+4H80Z7oVdY41oic+SE3tB8FKwF9gJABnjN3e5a6oAe7jPd+TarCOwNLE1g8bFLq1ugtkmoKMmiWmGVEH5+wMoQwSTsBrmGZF2RHwTlADwOvjs9t08HvehF+90BHiCMhF5zcwLUyedyAopnegbJCJmIO+dqf3zdzNE1nbcqwVsD815DwJMX9y6eY+ch7Ow12N9KwyuZezFmBUB7zKbkOslVoQjATI1Q+hLj680/NH/oUawO6r4Ue4+PzlIwA4Bgb/yc9MNjUjEmuH1Lc5BncgnGcW4rQ77FIVEY37V0R2nkzExEY2TyLkC80pjvREn9OUBLBzhkXYgMuJObORsEgXivRudnWd7PL0MNndowvqw6a310lAvaxSRpdqflBm3DgPEqpzlXr8yOenOpZTTr1octSYts6IEF8RQJh1O1ehc4IAhoXoyB73Oz0hmmKb2tRUj6CQfxORWDNZRi7T7h2AZXSfYt3HSP1UY2EWoF5CGXYO3A7Dk1gEfxW9wDgWAgFAdlAJrQBOQeS732I2Y73wjACotKDNWD1CfAIWHEcY6Npf8AAAAABJRU5ErkJggg==;labelPosition=center;align=center;allowArrows=0;resizable=0;rotatable=0;imageBorder=#FFE926;" parent="1" vertex="1"><mxGeometry x="448" y="32" width="32" height="32" as="geometry"/></mxCell></object><object label="" red="11" green="0" blue="1" name="blue potion" id="104"><mxCell style="shape=image;verticalLabelPosition=bottom;labelBackgroundColor=#ffffff;verticalAlign=top;aspect=fixed;imageAspect=0;image=data:image/png,iVBORw0KGgoAAAANSUhEUgAAACAAAAAgCAYAAABzenr0AAAAAXNSR0IArs4c6QAAAARnQU1BAACxjwv8YQUAAAAJcEhZcwAADsMAAA7DAcdvqGQAAACkSURBVFhHYxgFo2AUjIKBBoxQmixgbGT7H8pkOHvuMFlmke0AkOUzLFQYhPX5wfzQmWfJcgRZDkD2OTog1RFkO8BnySooDwG2xITRxwEgAHKEccFsKA/o8wmpZEUBE5QmG0ia8IMxuYBiB4CCPf5wJ5RHOqDYAZSCUQdQ7ABQTgAVQuQCqoSAnm0HlEU6GPAoILsgAgFqVEajYBSMglEwwICBAQDFwijMcZsdLQAAAABJRU5ErkJggg==;connectable=0;allowArrows=0;recursiveResize=0;expand=0;editable=0;resizable=0;rotatable=0;" parent="1" vertex="1"><mxGeometry x="608" y="32" width="32" height="32" as="geometry"/></mxCell></object><object label="" red="11" green="0" blue="50" name="pikes" id="105"><mxCell style="shape=image;verticalLabelPosition=bottom;labelBackgroundColor=#ffffff;verticalAlign=top;aspect=fixed;imageAspect=0;image=data:image/png,iVBORw0KGgoAAAANSUhEUgAAACAAAAAgCAYAAABzenr0AAAAAXNSR0IArs4c6QAAAU5JREFUWIXtlLFKw0AYx/+55gV0sAiFIg7Z2tIIglAHcdCHcKhrQRwd8wgl2LngSySDLnYSTNFuGRwKgujQV4jTlbvLd5cLEVzut+Vy333/33chgMPhcDgcDkcNwuGo+Nfm9w9PRZMQVC1rFqte8/FtVAphFYAXB70uqEPEfXWDWU/gK98AACZXZ8aQVAiTAFM3UsUXlzcAgHy1xuP7B16z59q2qkD/4EQOYDIQ4SFsDXUC/k6rkAKYSJNYsri7Hlca2gp4qkG+WmM+jZAtF55ooR7E34uG+8Eugl4X5/1DHIWnyJYLj9eKe+bTaHvGdgImAzEM9Wwy5HvTJEaaxFJzAGB/8ZFVXZFJwKcMdMwGHUzePkuHh8NRwUMgoZvqYDYGnL3jNrlue0WzQae05tcx+Hn5JgOIDdQJVcGoZjoD3QRsoeql/wA1oqYNqvgFWQvZ3gg6q8QAAAAASUVORK5CYII=;" parent="1" vertex="1"><mxGeometry x="608" y="96" width="32" height="32" as="geometry"/></mxCell></object><object label="" red="11" green="0" blue="2" name="red potion" id="106"><mxCell style="shape=image;verticalLabelPosition=bottom;labelBackgroundColor=#ffffff;verticalAlign=top;aspect=fixed;imageAspect=0;image=data:image/png,iVBORw0KGgoAAAANSUhEUgAAACAAAAAgCAYAAABzenr0AAAAAXNSR0IArs4c6QAAAARnQU1BAACxjwv8YQUAAAAJcEhZcwAADsMAAA7DAcdvqGQAAADVSURBVFhHYxgFo2AUjIKBBoxQmmRgbGT7H8pkOHvuMNnmkKURZPkMCxUGYX1+MD905lmyHUG2A6BMOCDXAUxQmmSwLlEbjgcEgELhQkjIf2yhQQogOwRAQNBeBMoiH5CdBpCDPmj+VfqlAZDlc5XEoTwIADmG3KggyQHIlr8/+Abs879sHGC8Ot2YLEdQlAZg4O3Fj2BMDqCKA0AFEqxQIhWQlHCwxX/yvZdQFgSQmhhJTrnojnj5hgNMV316SFZOICvrYEts5GbDUTAKRsEoGGDAwAAADEdLBmy6SNAAAAAASUVORK5CYII=;connectable=0;allowArrows=0;recursiveResize=0;expand=0;editable=0;resizable=0;rotatable=0;" parent="1" vertex="1"><mxGeometry x="640" y="32" width="32" height="32" as="geometry"/></mxCell></object><object label="" red="11" green="0" blue="4" name="barrel" id="107"><mxCell style="shape=image;verticalLabelPosition=bottom;labelBackgroundColor=#ffffff;verticalAlign=top;aspect=fixed;imageAspect=0;image=data:image/png,iVBORw0KGgoAAAANSUhEUgAAACAAAAAgCAYAAABzenr0AAAAAXNSR0IArs4c6QAAAARnQU1BAACxjwv8YQUAAAAJcEhZcwAADsMAAA7DAcdvqGQAAAF6SURBVFhH7ZY7SgVBEEVLt2CgYGKk2UMUzEQ0dx8m7sDQHZi4D3NFzB4o8jKNTAQNXINyHl0wtFXV0z0DGsyBoT/U9L1d05+RiYmJv2YllSH7e4ffqVrN49NDqFE0gPj59qZcvb7L5eks9Yp8vnzJ+s5aav1uX9wsRN+LTKym0sQTZ/CuGNCmXyGe93g/ymCYgSGpz/Gy4BpA/PjkTLZmG6mnzMHRrszvn5clUH9bfCzrd7fXponwE9Si4pRAvTQBMwM6+xYQZNYqrBkAKwuugVQdnd4GWL2gK7mL1QelWOq5gV5rgC3Wfaw+HoTyvhKhAQbo7n/Fmr2HmvIoZoATLscbsM+Mc5q2oWXKo2SqyYA3qGWsZLbJQA2DM8DWyfFmVROrhAZqhDyIjUz835NQ74Ka2xBqb0TzExBE8Jh417GZAWi5EWtvQnANwJhrwRKHogHOclZy9/zP24oXR9lkAHITerDwA5r/qGqbbddHHIoGYMiniMRFRH4AKN/odJe8iBMAAAAASUVORK5CYII=;connectable=0;allowArrows=0;recursiveResize=0;expand=0;editable=0;resizable=0;rotatable=0;" parent="1" vertex="1"><mxGeometry x="704" y="32" width="32" height="32" as="geometry"/></mxCell></object><object label="" red="11" green="0" blue="3" name="box" id="109"><mxCell style="shape=image;verticalLabelPosition=bottom;labelBackgroundColor=#ffffff;verticalAlign=top;aspect=fixed;imageAspect=0;image=data:image/png,iVBORw0KGgoAAAANSUhEUgAAACAAAAAgCAYAAABzenr0AAAAAXNSR0IArs4c6QAAAARnQU1BAACxjwv8YQUAAAAJcEhZcwAADsMAAA7DAcdvqGQAAAH0SURBVFhH7ZVNKERRFMevKSxHM76tbFiIBUvJhpRYKGVnJUmRHaKkSDYWCGlWdkqNIhtSk5RkxIgGZRr5nK/MVr76H+/ovjdv3htFKe9Xp/O/c2/9z733vDvCwsLCwsLi35OmZBVVlTXvivxxvIc7Ks+EAmC+tLlFur2+Tow1V5BOxvCaT8y7V0lfBv2Up/oGREdxHmngCjyKocVp0uOdvaoibEpWsbftpQCP51EK1jI83vccUfgO/BQy0fin1/H+GYUW3QK05JU6VZnRjvVw2o1vU/cKFPlryFegW0BPSRHpmYtb0ebIIc0sx8KC5wHW8Pgm8krZHXsQtTan8LxFRYsjn8bIPGfaAzhaPt7c7AwKsBKPUVNqr4TX47j5yGGORuSxPCeTUg8AmI82lpFG87F5MmDODWhESgWEIs9f5oDN8QkmA+Z6O9ZiWgDMy6sLSMuf4cjGaUJ/yLA53gAjTAtgc8A7h3mr3UHaiNmLa2pGI1LuAYbN5ebUAztvyCwUjqx05Rd9vlUA7pzNzcDOzczB33yIugcnSc9N9NMjk+yTQ1PiIeL11+EA5XXXQsKfUVNHF2nMmT5EMvgKZE5277+ydk7mMviiKGN0C7jzxygA7hs75eCx3IS8PnT1RAFw/3gL+DGS52QSrgD8Zh/Ixy+EEB/81usEDVCUCAAAAABJRU5ErkJggg==;connectable=0;allowArrows=0;recursiveResize=0;expand=0;editable=0;resizable=0;rotatable=0;" parent="1" vertex="1"><mxGeometry x="672" y="32" width="32" height="32" as="geometry"/></mxCell></object><object label="" red="11" green="0" blue="51" name="cannon right" id="112"><mxCell style="shape=image;verticalLabelPosition=bottom;labelBackgroundColor=#ffffff;verticalAlign=top;aspect=fixed;imageAspect=0;image=data:image/png,iVBORw0KGgoAAAANSUhEUgAAACAAAAAgCAYAAABzenr0AAAAAXNSR0IArs4c6QAAAARnQU1BAACxjwv8YQUAAAAJcEhZcwAADsMAAA7DAcdvqGQAAAH6SURBVFhH7ZY9TsNAEIUXhDhAwo8iqjSEAiiIqBA9FBElNQcAcQCKFBwAwQGoKVGK0CMqFAqgIDSpUAQkOQAN8Cb7ovF6bcdGIo0/yZqdtbLveTy7jsnJycmZNFM2pqK6sf1th4m0Hm5jNUI3oxbHQry3Wa6Z4kpZ5pO4aZ5LjDISmITAzu6RzYb0Xzpmda9qLs/qIgyixEuVgum2BxIBxgBr3HcaXhPTNgbE4ZrOIfZ83TIHx3VZJA4KEhrBGjDvq+7IAKEw0OM0uEY0romQAcBS/wWY8BlBlbUJr4H/ZGIGWIWJGWDDj2UA3R/XWGnAltTM2BgLmlK2VHOYYxGeBdzjLvqw0qIy95tyzmvAXRB5sR08fLgA7unDi3tfDi4T3k3aDMi8DSFMozy4KE7cB9HwXqYmxI8Pl5dkfFpbH43dPsF8lAkeywEDuqzELZlmvzAvcbFSFDFUAaXHRVMurqFQBXT5k17FwtysHQ1NoBq8kEehP0ojA5ikOwhTHHNoMjyda+ij9yXxvd2XSNwccG33ixj6PPq+WD5QYhhY2yqZp7uuRBcYuXh9s5n/P0FoIg5tThuAkC45c23AJw5S7wI2HmAPUJyl56shUeIg0zYkeDqI8gKIMMY8ibFfAcqPp78afEr5IY5uH4eTxmNkFVIZsMNM+A0Y8wNWOQ8m8SZGPAAAAABJRU5ErkJggg==;connectable=0;allowArrows=0;recursiveResize=0;expand=0;editable=0;resizable=0;rotatable=0;" parent="1" vertex="1"><mxGeometry x="608" y="128" width="32" height="32" as="geometry"/></mxCell></object><object label="" red="11" green="0" blue="52" name="cannon left" id="113"><mxCell style="shape=image;verticalLabelPosition=bottom;labelBackgroundColor=#ffffff;verticalAlign=top;aspect=fixed;imageAspect=0;image=data:image/png,iVBORw0KGgoAAAANSUhEUgAAACAAAAAgCAYAAABzenr0AAAAAXNSR0IArs4c6QAAAARnQU1BAACxjwv8YQUAAAAJcEhZcwAADsMAAA7DAcdvqGQAAAH6SURBVFhH7ZY9TsNAEIUXhDhAwo8iqjSEAiiIqBA9FBElNQcAcQCKFBwAwQGoKVGK0CMqFAqgIDSpUAQkOQAN8Cb7ovF6bcdGIo0/yZqdtbLveTy7jsnJycmZNFM2pqK6sf1th4m0Hm5jNUI3oxbHQry3Wa6Z4kpZ5pO4aZ5LjDISmITAzu6RzYb0Xzpmda9qLs/qIgyixEuVgum2BxIBxgBr3HcaXhPTNgbE4ZrOIfZ83TIHx3VZJA4KEhrBGjDvq+7IAKEw0OM0uEY0romQAcBS/wWY8BlBlbUJr4H/ZGIGWIWJGWDDj2UA3R/XWGnAltTM2BgLmlK2VHOYYxGeBdzjLvqw0qIy95tyzmvAXRB5sR08fLgA7unDi3tfDi4T3k3aDMi8DSFMozy4KE7cB9HwXqYmxI8Pl5dkfFpbH43dPsF8lAkeywEDuqzELZlmvzAvcbFSFDFUAaXHRVMurqFQBXT5k17FwtysHQ1NoBq8kEehP0ojA5ikOwhTHHNoMjyda+ij9yXxvd2XSNwccG33ixj6PPq+WD5QYhhY2yqZp7uuRBcYuXh9s5n/P0FoIg5tThuAkC45c23AJw5S7wI2HmAPUJyl56shUeIg0zYkeDqI8gKIMMY8ibFfAcqPp78afEr5IY5uH4eTxmNkFVIZsMNM+A0Y8wNWOQ8m8SZGPAAAAABJRU5ErkJggg==;connectable=0;allowArrows=0;recursiveResize=0;expand=0;editable=0;resizable=0;rotatable=0;flipV=0;flipH=1;" parent="1" vertex="1"><mxGeometry x="640" y="128" width="32" height="32" as="geometry"/></mxCell></object><object label="" red="11" green="2" blue="0" id="114"><mxCell style="shape=image;verticalLabelPosition=middle;labelBackgroundColor=none;verticalAlign=middle;imageAspect=0;image=data:image/png,iVBORw0KGgoAAAANSUhEUgAAACAAAAAeCAYAAABNChwpAAAAAXNSR0IArs4c6QAAAARnQU1BAACxjwv8YQUAAAAJcEhZcwAADsMAAA7DAcdvqGQAAAG9SURBVFhH7ZS/L0RBEMeXTutVFOIqGgmOUKCTEJFoNFqVSPQKceI/kIjKX6CRiFD7kRDOSSTiqhMFhTxKJfmOnTP3sm93HicK90kuM5Obm/nu7OyZBg3+miZrVeT7R9+tG6R4dayqrRaA5hOTSzbyE99VzEVlTyVCJYCbt3W1UvxUfiHrg0VIXIKarf1VBnPT9HFdYVCAHD1Orjk9g6aAJ4E6SRHqCfD4641aQJaTu8AUDg82bPRFcAld9+aDrwtLCHj8aS9CJWCnIyI/GuokC+Lze4phJbMPMYmQAnzP0StANkfhEDJXLqBPgGoHUPCyeES+z2pEJgkKuH1ut56OrPmpo+HlW2vpoXjqZNMM5MeqsWT17YYmsD+yWI1xBbyAkuR1eAVwEdkUxZMkv+f7j7pzZBk8w28JkHBxicxJaw4yCQB8Dfy20+AnlwTC+Leu5sArAECEFOD6N3NNheHppD1FlQDrEli21/KyjT4Znzu1npu05kAlYHdhxUbGXJcerVdLb1/t8+O8wtl2/QTMbK2TDYH8ugooDM/bKFxQ5iMX/EgAQFFeNCyVryDIkq8SAFDUukEBIGv+f8WYD3tA/8QS2WEVAAAAAElFTkSuQmCC;labelPosition=center;align=center;allowArrows=0;resizable=1;rotatable=0;" parent="1" vertex="1"><mxGeometry x="416" y="64" width="32" height="32" as="geometry"/></mxCell></object><object label="" red="11" green="0" blue="101" name="sword" id="118"><mxCell style="shape=image;verticalLabelPosition=bottom;labelBackgroundColor=#ffffff;verticalAlign=top;aspect=fixed;imageAspect=0;image=data:image/png,iVBORw0KGgoAAAANSUhEUgAAACAAAAAgCAYAAABzenr0AAAAAXNSR0IArs4c6QAAAARnQU1BAACxjwv8YQUAAAAJcEhZcwAADsMAAA7DAcdvqGQAAAC9SURBVFhHYxgFo2AUjIJRMAqGDDA2sv0PwlAu1QAjlCYIQJZXu6oztO6+yXD23GFGfI7x8MwD0zu2TwKzQTRID1gQDRB0ALJFiZJ8DPOff4KwCxrANDrIjnUC01MX7wOzQfT8CQ04HcAEpbECmK9hQEpHEkzDfIgOsFlOCOANAZADUHyNxEZ3hKS6EJh+fvMdmA2iQQBf8IMAQQdAmWAAcwChNIAM8FlOEgBZSKylo2AUjIJRMApGAfGAgQEA0rhPcYdvsoMAAAAASUVORK5CYII=;connectable=0;allowArrows=0;recursiveResize=0;expand=0;editable=0;resizable=0;rotatable=0;" parent="1" vertex="1"><mxGeometry x="608" y="160" width="32" height="32" as="geometry"/></mxCell></object><object label="" red="11" green="0" blue="5" name="blue potion" id="120"><mxCell style="shape=image;verticalLabelPosition=bottom;labelBackgroundColor=#ffffff;verticalAlign=top;aspect=fixed;imageAspect=0;image=data:image/png,iVBORw0KGgoAAAANSUhEUgAAABgAAAAYCAYAAADgdz34AAAAAXNSR0IArs4c6QAAAMlJREFUSIljYBgFwx4wEqvQ2Mj2PzL/7LnDROslyvB3Nyrg+P/////RLaSK4cZGtv9hfGItYSHWIteoo/BgcY1i+H/mLHH6mIi1AB28v1lJlDqifbB7mTWDaxTDfxibWEBUSjA2sv0/I06YQdlDg4GBgYHh7o4bDBmL3lI/JRkb2f4/PSGApBREUhwg+4ImFpADCEYypRmKqFS0e5k1w90dN8iygGAQnT13mNE16ihZhhNlgbGR7X/kdE+qT4gKIiw+oF76HwU0BwCeUlsDIihcLgAAAABJRU5ErkJggg==;connectable=0;allowArrows=0;recursiveResize=0;expand=0;editable=0;resizable=0;rotatable=0;" vertex="1" parent="1"><mxGeometry x="736" y="32" width="32" height="32" as="geometry"/></mxCell></object></root></mxGraphModel></diagram></mxfile>